<svg width="307" height="228" viewBox="0 0 307 228" fill="none" xmlns="http://www.w3.org/2000/svg">
<g clip-path="url(#clip0_2557_3079)">
<mask id="mask0_2557_3079" style="mask-type:luminance" maskUnits="userSpaceOnUse" x="0" y="0" width="307" height="228">
<path d="M307 0H0V228H307V0Z" fill="white"/>
</mask>
<g mask="url(#mask0_2557_3079)">
<path d="M265.605 181.904H61.1426V266.165H265.605V181.904Z" fill="url(#paint0_linear_2557_3079)" stroke="url(#paint1_linear_2557_3079)" stroke-width="0.4"/>
<path d="M150.435 150.606C158.812 148.059 167.916 148.059 176.292 150.606L261.607 176.55C266.944 178.173 266.944 184.821 261.607 186.444L176.292 212.388C167.916 214.935 158.812 214.935 150.435 212.388L65.1203 186.444C59.7835 184.821 59.7835 178.173 65.1203 176.55L150.435 150.606Z" fill="white" stroke="black" stroke-width="0.4"/>
<path d="M164.515 198.959C190.143 198.959 210.919 191.389 210.919 182.052C210.919 172.714 190.143 165.144 164.515 165.144C138.887 165.144 118.111 172.714 118.111 182.052C118.111 191.389 138.887 198.959 164.515 198.959Z" fill="black" fill-opacity="0.1"/>
<path d="M89.3705 62.7555C96.9361 67.5708 106.453 66.1492 110.626 59.5794L112.345 56.8731L84.9467 39.4343L83.2275 42.1405C79.0543 48.7102 81.8044 57.9397 89.3705 62.7555Z" fill="#14A3C2" stroke="black" stroke-width="0.5"/>
<path d="M91.0498 60.1118C98.6156 64.9274 108.132 63.5055 112.305 56.9358C116.479 50.3662 113.728 41.1366 106.163 36.321C98.5967 31.5054 89.0803 32.9273 84.907 39.497C80.7337 46.0666 83.484 55.2962 91.0498 60.1118Z" fill="#59EAEA" stroke="black" stroke-width="0.5"/>
<path d="M92.9386 57.138C98.6813 60.7932 105.874 59.762 109.004 54.8348C112.134 49.9076 110.016 42.9501 104.273 39.2949C98.5304 35.6397 91.3377 36.6708 88.2077 41.5981C85.0778 46.5253 87.1959 53.4828 92.9386 57.138Z" fill="#14A3C2" stroke="black" stroke-width="0.5"/>
<path d="M95.0538 57.0921C99.4292 59.877 104.809 59.2499 107.069 55.6913C109.33 52.1328 107.615 46.9904 103.24 44.2054C98.8644 41.4205 93.4849 42.0476 91.2244 45.6062C88.9638 49.1647 90.6783 54.3072 95.0538 57.0921Z" fill="#59EAEA"/>
<path fill-rule="evenodd" clip-rule="evenodd" d="M108.789 55.1591C108.863 55.053 108.934 54.945 109.004 54.8349C112.135 49.9082 110.016 42.9505 104.273 39.2952C98.531 35.64 91.3378 36.6712 88.2079 41.5984C88.1376 41.7098 88.0693 41.8221 88.0039 41.9355C91.2388 37.2884 98.2394 36.3824 103.854 39.9561C109.467 43.5288 111.617 50.2561 108.789 55.1591Z" fill="black"/>
<path d="M108.789 55.1591L108.682 55.0972L108.891 55.23L108.789 55.1591ZM88.0039 41.9355L87.897 41.8735L88.1054 42.0063L88.0039 41.9355ZM108.9 54.7685C108.831 54.8771 108.76 54.9836 108.687 55.0882L108.891 55.23C108.966 55.1224 109.038 55.0129 109.109 54.9019L108.9 54.7685ZM104.207 39.3998C109.908 43.0283 111.984 49.9136 108.9 54.7685L109.109 54.9019C112.285 49.9022 110.125 42.8726 104.34 39.1907L104.207 39.3998ZM88.3124 41.6649C91.3968 36.81 98.5063 35.7713 104.207 39.3998L104.34 39.1907C98.5553 35.5087 91.2794 36.5324 88.1035 41.5319L88.3124 41.6649ZM88.1114 41.9975C88.1758 41.8856 88.2426 41.7748 88.3124 41.6649L88.1035 41.5319C88.0322 41.6448 87.9628 41.7586 87.897 41.8735L88.1114 41.9975ZM88.1054 42.0063C91.2933 37.4268 98.2142 36.5134 103.788 40.0607L103.92 39.8516C98.2642 36.2515 91.1839 37.15 87.9024 41.8647L88.1054 42.0063ZM103.788 40.0607C109.359 43.6069 111.469 50.2655 108.682 55.0972L108.896 55.2211C111.766 50.2467 109.575 43.4506 103.92 39.8516L103.788 40.0607Z" fill="black"/>
<path d="M97.4994 62.592L95.8198 65.2354" stroke="black" stroke-width="0.5"/>
<path d="M99.2265 62.7913L97.5474 65.4346" stroke="black" stroke-width="0.5"/>
<path d="M101.019 62.8889L99.3589 65.5015" stroke="black" stroke-width="0.5"/>
<path d="M94.0033 61.5264L92.3237 64.1697" stroke="black" stroke-width="0.5"/>
<path d="M102.988 62.707L101.349 65.2884" stroke="black" stroke-width="0.5"/>
<path d="M92.5926 34.5564C92.9572 34.7885 93.4407 34.6807 93.6726 34.3157C93.9044 33.9508 93.7968 33.4667 93.4322 33.2347C93.0676 33.0026 92.584 33.1103 92.3522 33.4753C92.1203 33.8403 92.228 34.3243 92.5926 34.5564Z" fill="white"/>
<path d="M102.143 59.6599C102.507 59.892 102.991 59.7842 103.223 59.4193C103.455 59.0543 103.347 58.5703 102.982 58.3382C102.618 58.1061 102.134 58.2138 101.902 58.5788C101.671 58.9438 101.778 59.4278 102.143 59.6599Z" fill="#59EAEA"/>
<path d="M75.8312 45.7585C71.097 38.5726 54.5937 24.8265 26.4536 27.3293" stroke="black" stroke-linecap="round"/>
<path d="M182.08 60.1663C184.324 51.3491 198.045 30.5382 234.973 17.832" stroke="black" stroke-linecap="round"/>
<path d="M83.6645 25.228C78.3509 21.7137 64.5726 16.0768 51.9697 21.644" stroke="black" stroke-linecap="round"/>
<path d="M161.454 46.2877C166.347 40.3875 180.848 28.1404 199.706 26.3538" stroke="black" stroke-linecap="round"/>
<path d="M0 118.461H6.4371" stroke="black" stroke-linecap="round"/>
<path d="M11.3887 118.461H17.8258" stroke="black" stroke-linecap="round"/>
<path d="M8.91309 109.539V115.983" stroke="black" stroke-linecap="round"/>
<path d="M8.91309 120.939V127.383" stroke="black" stroke-linecap="round"/>
<path d="M52.9824 142.252H59.4195" stroke="black" stroke-linecap="round"/>
<path d="M64.3711 142.252H70.8082" stroke="black" stroke-linecap="round"/>
<path d="M61.895 133.33V139.774" stroke="black" stroke-linecap="round"/>
<path d="M61.895 144.73V151.174" stroke="black" stroke-linecap="round"/>
<path d="M259.959 95.1653H266.397" stroke="black" stroke-linecap="round"/>
<path d="M271.349 95.1653H277.786" stroke="black" stroke-linecap="round"/>
<path d="M268.873 86.2434V92.6869" stroke="black" stroke-linecap="round"/>
<path d="M268.873 97.6436V104.087" stroke="black" stroke-linecap="round"/>
<path d="M289.49 123.968C289.49 122.6 288.381 121.49 287.014 121.49C285.647 121.49 284.538 122.6 284.538 123.968V233.508C284.538 234.876 285.647 235.986 287.014 235.986C288.381 235.986 289.49 234.876 289.49 233.508V123.968Z" fill="url(#paint2_linear_2557_3079)"/>
<path d="M29.3461 113.357C29.3461 111.988 28.2377 110.879 26.8703 110.879C25.503 110.879 24.3945 111.988 24.3945 113.357V222.896C24.3945 224.265 25.503 225.375 26.8703 225.375C28.2377 225.375 29.3461 224.265 29.3461 222.896V113.357Z" fill="url(#paint3_linear_2557_3079)"/>
<path d="M305.399 71.6748C305.399 70.3061 304.291 69.1965 302.924 69.1965C301.556 69.1965 300.448 70.3061 300.448 71.6748V181.214C300.448 182.583 301.556 183.692 302.924 183.692C304.291 183.692 305.399 182.583 305.399 181.214V71.6748Z" fill="url(#paint4_linear_2557_3079)"/>
<path d="M45.2553 91.6958C45.2553 90.3271 44.1469 89.2175 42.7795 89.2175C41.4122 89.2175 40.3037 90.3271 40.3037 91.6958V201.235C40.3037 202.604 41.4122 203.713 42.7795 203.713C44.1469 203.713 45.2553 202.604 45.2553 201.235V91.6958Z" fill="url(#paint5_linear_2557_3079)"/>
<path d="M253.027 21.313C253.027 19.9443 251.919 18.8347 250.551 18.8347C249.184 18.8347 248.076 19.9443 248.076 21.313V130.852C248.076 132.221 249.184 133.33 250.551 133.33C251.919 133.33 253.027 132.221 253.027 130.852V21.313Z" fill="url(#paint6_linear_2557_3079)"/>
<path d="M95.5664 190.33C95.5664 188.962 94.4579 187.852 93.0906 187.852C91.7232 187.852 90.6147 188.962 90.6147 190.33V242.87C90.6147 244.238 91.7232 245.348 93.0906 245.348C94.4579 245.348 95.5664 244.238 95.5664 242.87V190.33Z" fill="url(#paint7_linear_2557_3079)"/>
<path d="M96.6222 108.287C95.9463 104.58 97.4283 100.81 100.447 98.5579L142.931 66.8649C144.181 65.9321 145.798 65.6436 147.293 66.0863L205.976 83.448L167.682 177.477L108.9 160.359C107.099 159.835 105.749 158.337 105.412 156.49L96.6222 108.287Z" fill="url(#paint8_linear_2557_3079)" stroke="black" stroke-width="0.4"/>
<path d="M165.793 175.888C166.124 177.7 168.244 178.531 169.715 177.424L213.015 144.87C216.014 142.615 217.483 138.858 216.81 135.164L207.659 84.9827C207.328 83.1706 205.208 82.3399 203.736 83.4462L160.437 116C157.437 118.255 155.969 122.013 156.642 125.706L165.793 175.888Z" fill="#BBFAFA" stroke="black" stroke-width="0.4"/>
<path d="M167.24 174.634C167.438 175.721 168.71 176.219 169.593 175.556L211.717 143.885C214.416 141.856 215.738 138.474 215.132 135.15L206.212 86.2366C206.014 85.1491 204.742 84.6505 203.859 85.3147L161.736 116.984C159.036 119.014 157.714 122.396 158.32 125.72L167.24 174.634Z" stroke="black" stroke-width="0.4"/>
<path d="M175.268 157.405L171.052 155.982L172.779 152.965L183.294 154.083L182.819 157.405H175.268Z" fill="#33D2E8" stroke="black" stroke-width="0.4"/>
<path d="M180.924 121.872L197.252 108.036L206.083 107.263L194.09 136.768L188.023 136.048L178.806 155.928H171.05L179.68 132.363L187.114 132.691L190.022 124.678L180.924 121.872Z" fill="black" stroke="black" stroke-width="0.4"/>
<path d="M190.129 121.567L180.946 121.877L190.03 124.719L197.699 124.305L190.129 121.567Z" fill="#33D2E8" stroke="black" stroke-width="0.4"/>
<path d="M200.36 129.087L209.406 128.553L208.531 125.331L201.735 124.356L200.36 129.087Z" fill="#33D2E8" stroke="black" stroke-width="0.4"/>
<path fill-rule="evenodd" clip-rule="evenodd" d="M190.049 121.544L206.025 107.395L209.432 128.474L201.771 125.735L196.46 140.619L189.692 138.2L182.847 157.381L178.787 155.929L187.082 132.683L193.849 135.103L197.71 124.283L190.049 121.544Z" fill="#BBFAFA" stroke="black" stroke-width="0.4"/>
<path d="M163.75 75.53L172.473 77.8081L136.716 104.691L127.993 102.413L163.75 75.53Z" fill="black" stroke="black" stroke-width="0.4"/>
<mask id="mask1_2557_3079" style="mask-type:alpha" maskUnits="userSpaceOnUse" x="105" y="43" width="68" height="62">
<path d="M162.112 44.1973L172.473 77.8085L136.716 104.692L105.539 96.799L125.58 54.2229L162.112 44.1973Z" fill="black" stroke="black" stroke-width="0.4"/>
</mask>
<g mask="url(#mask1_2557_3079)">
<path d="M122.296 86.0813C119.843 72.6284 127.305 59.9952 138.964 57.8649L143.767 56.9875L152.65 105.706L147.848 106.583C136.19 108.713 124.749 99.5343 122.296 86.0813Z" fill="#14A3C2" stroke="black" stroke-width="0.5"/>
<path d="M126.987 85.2242C124.534 71.771 131.996 59.1382 143.655 57.008C155.314 54.8777 166.754 64.0567 169.207 77.5099C171.66 90.963 164.198 103.596 152.539 105.726C140.881 107.856 129.441 98.6773 126.987 85.2242Z" fill="#59EAEA" stroke="black" stroke-width="0.5"/>
<path d="M132.265 84.2597C130.403 74.0483 135.982 64.4751 144.726 62.8774C153.47 61.2797 162.068 68.2625 163.93 78.474C165.792 88.6854 160.213 98.2586 151.469 99.8563C142.725 101.454 134.127 94.4711 132.265 84.2597Z" fill="#14A3C2" stroke="black" stroke-width="0.5"/>
<path d="M133.543 81.297C132.124 73.5169 136.093 66.2744 142.408 65.1205C148.723 63.9666 154.993 69.3383 156.412 77.1184C157.83 84.8985 153.861 92.141 147.546 93.2949C141.231 94.4488 134.961 89.0771 133.543 81.297Z" fill="#59EAEA"/>
<path fill-rule="evenodd" clip-rule="evenodd" d="M144.136 62.9973C144.331 62.9532 144.527 62.9131 144.725 62.8769C153.469 61.2789 162.067 68.2616 163.929 78.4731C165.791 88.6845 160.212 98.258 151.468 99.8555C151.273 99.8912 151.079 99.9224 150.885 99.9497C159.289 98.0385 164.577 88.6681 162.757 78.6877C160.936 68.7038 152.676 61.8058 144.136 62.9973Z" fill="black"/>
<path d="M144.136 62.9975L144.153 63.1204L144.109 62.8765L144.136 62.9975ZM150.885 99.9498L150.902 100.072L150.858 99.8289L150.885 99.9498ZM144.748 62.999C144.551 63.0347 144.356 63.0743 144.164 63.1184L144.109 62.8765C144.305 62.8319 144.504 62.7913 144.703 62.7551L144.748 62.999ZM163.807 78.4955C161.955 68.3332 153.408 61.4164 144.748 62.999L144.703 62.7551C153.531 61.1418 162.18 68.1909 164.051 78.4509L163.807 78.4955ZM151.447 99.7337C160.106 98.1516 165.661 88.6579 163.807 78.4955L164.051 78.4509C165.922 88.7114 160.319 98.3643 151.491 99.9776L151.447 99.7337ZM150.868 99.8269C151.061 99.8002 151.254 99.7689 151.447 99.7337L151.491 99.9776C151.295 100.013 151.099 100.045 150.902 100.072L150.868 99.8269ZM150.858 99.8289C159.182 97.936 164.446 88.642 162.635 78.7102L162.879 78.666C164.708 88.6946 159.396 98.1412 150.913 100.07L150.858 99.8289ZM162.635 78.7102C160.823 68.7743 152.612 61.9403 144.153 63.1204L144.119 62.8751C152.741 61.6721 161.049 68.6331 162.879 78.666L162.635 78.7102Z" fill="black"/>
<path d="M127.188 74.688L122.497 75.545" stroke="black" stroke-width="0.5"/>
<path d="M127.897 72.1333L123.206 72.9903" stroke="black" stroke-width="0.5"/>
<path d="M128.788 69.5435L124.152 70.391" stroke="black" stroke-width="0.5"/>
<path d="M126.686 80.2393L121.995 81.0962" stroke="black" stroke-width="0.5"/>
<path d="M130.174 66.8645L125.593 67.7017" stroke="black" stroke-width="0.5"/>
<path d="M151.648 57.6445C151.53 56.9962 151.959 56.3747 152.607 56.2563C153.255 56.138 153.876 56.5676 153.994 57.216C154.112 57.8643 153.683 58.4858 153.035 58.6042C152.388 58.7225 151.767 58.2929 151.648 57.6445Z" fill="white"/>
<path d="M133.986 69.8074C133.868 69.159 134.297 68.5375 134.944 68.4192C135.592 68.3008 136.213 68.7305 136.331 69.3788C136.45 70.0271 136.02 70.6487 135.373 70.767C134.725 70.8854 134.104 70.4557 133.986 69.8074Z" fill="#59EAEA"/>
</g>
<path d="M172.473 77.8081L136.717 104.692L127.993 102.414" stroke="black" stroke-width="0.4"/>
<path d="M175.99 78.9575L140.232 105.841" stroke="black" stroke-width="0.4"/>
<path d="M203.337 91.2917C203.812 91.3851 204.301 90.9322 204.428 90.2803C204.556 89.6283 204.275 89.0241 203.8 88.9308C203.325 88.8374 202.836 89.2902 202.708 89.9422C202.58 90.5941 202.862 91.1983 203.337 91.2917Z" stroke="black" stroke-width="0.4"/>
<path d="M203.133 92.3299C204.026 92.5055 204.945 91.6541 205.186 90.4284C205.426 89.2026 204.897 88.0666 204.004 87.8911C203.11 87.7155 202.191 88.5669 201.951 89.7927C201.711 91.0184 202.24 92.1544 203.133 92.3299Z" stroke="black" stroke-width="0.4"/>
<path d="M161.654 123.86C162.129 123.954 162.617 123.501 162.745 122.849C162.873 122.197 162.592 121.593 162.117 121.499C161.641 121.406 161.153 121.859 161.025 122.511C160.897 123.163 161.178 123.767 161.654 123.86Z" stroke="black" stroke-width="0.4"/>
<path d="M161.449 124.899C162.343 125.075 163.262 124.223 163.502 122.998C163.743 121.772 163.213 120.636 162.32 120.46C161.427 120.285 160.508 121.136 160.267 122.362C160.027 123.588 160.556 124.724 161.449 124.899Z" stroke="black" stroke-width="0.4"/>
<path d="M169.676 171.98C170.151 172.073 170.64 171.62 170.768 170.968C170.896 170.316 170.614 169.712 170.139 169.619C169.664 169.526 169.175 169.978 169.047 170.63C168.919 171.282 169.201 171.886 169.676 171.98Z" stroke="black" stroke-width="0.4"/>
<path d="M169.472 173.019C170.366 173.194 171.285 172.343 171.525 171.117C171.766 169.891 171.236 168.755 170.343 168.58C169.45 168.404 168.531 169.256 168.29 170.482C168.05 171.707 168.579 172.843 169.472 173.019Z" stroke="black" stroke-width="0.4"/>
<path d="M211.205 139.086C211.68 139.179 212.169 138.726 212.297 138.074C212.425 137.422 212.143 136.818 211.668 136.725C211.193 136.631 210.704 137.084 210.577 137.736C210.449 138.388 210.73 138.992 211.205 139.086Z" stroke="black" stroke-width="0.4"/>
<path d="M211.002 140.125C211.895 140.3 212.814 139.449 213.054 138.223C213.295 136.997 212.766 135.861 211.872 135.686C210.979 135.51 210.06 136.362 209.82 137.587C209.579 138.813 210.108 139.949 211.002 140.125Z" stroke="black" stroke-width="0.4"/>
</g>
<path d="M154.652 83.4442H150.103C149.91 83.4442 149.755 83.2923 149.755 83.1023V78.6381C149.755 78.4481 149.6 78.2962 149.406 78.2962H144.858C144.665 78.2962 144.51 78.1442 144.51 77.9542V73.7496C144.51 73.5597 144.665 73.4077 144.858 73.4077H149.406C149.6 73.4077 149.755 73.2557 149.755 73.0658V68.3419C149.755 68.152 149.6 68 149.406 68H144.594C144.4 68 144.245 68.152 144.245 68.3419V72.8061C144.245 72.9961 144.09 73.1481 143.897 73.1481H139.348C139.155 73.1481 139 73.3001 139 73.49V78.2138C139 78.4038 139.155 78.5558 139.348 78.5558H143.897C144.09 78.5558 144.245 78.7077 144.245 78.8977V83.3619C144.245 83.5519 144.4 83.7039 144.594 83.7039H149.142C149.335 83.7039 149.49 83.8558 149.49 84.0458V88.2504C149.49 88.4403 149.335 88.5923 149.142 88.5923H144.594C144.4 88.5923 144.245 88.7443 144.245 88.9342V93.6581C144.245 93.848 144.4 94 144.594 94H149.406C149.6 94 149.755 93.848 149.755 93.6581V89.1939C149.755 89.0039 149.91 88.8519 150.103 88.8519H154.652C154.845 88.8519 155 88.7 155 88.51V83.7862C155 83.5962 154.845 83.4442 154.652 83.4442Z" fill="black"/>
<path d="M103.112 46.7896L100.875 48.6662C100.78 48.7461 100.641 48.7347 100.562 48.6407L98.7073 46.4306C98.6284 46.3366 98.4891 46.3252 98.3939 46.4051L96.1579 48.2818C96.0627 48.3616 95.9234 48.3503 95.8445 48.2562L94.0976 46.1747C94.0186 46.0807 94.0316 45.9415 94.1268 45.8617L96.3629 43.985C96.458 43.9052 96.471 43.766 96.3921 43.672L94.4294 41.3334C94.3505 41.2394 94.2112 41.228 94.1161 41.3079L91.7499 43.2937C91.6548 43.3735 91.6418 43.5126 91.7207 43.6067L93.5755 45.8167C93.6544 45.9108 93.6415 46.0499 93.5463 46.1298L91.3102 48.0064C91.2151 48.0863 91.2021 48.2254 91.281 48.3195L93.2437 50.658C93.3226 50.7521 93.4619 50.7634 93.557 50.6836L95.7931 48.8069C95.8883 48.7271 96.0275 48.7384 96.1065 48.8324L97.9613 51.0425C98.0402 51.1365 98.1795 51.1479 98.2746 51.068L100.511 49.1914C100.606 49.1115 100.745 49.1229 100.824 49.2169L102.571 51.2984C102.65 51.3925 102.637 51.5316 102.542 51.6115L100.306 53.4881C100.211 53.568 100.198 53.7071 100.276 53.8012L102.239 56.1397C102.318 56.2338 102.457 56.2451 102.553 56.1653L104.919 54.1795C105.014 54.0996 105.027 53.9605 104.948 53.8664L103.093 51.6564C103.014 51.5623 103.027 51.4232 103.122 51.3434L105.358 49.4667C105.454 49.3868 105.466 49.2477 105.388 49.1537L103.425 46.8151C103.346 46.7211 103.207 46.7097 103.112 46.7896Z" fill="black"/>
</g>
<defs>
<linearGradient id="paint0_linear_2557_3079" x1="125.245" y1="185.227" x2="125.242" y2="223.884" gradientUnits="userSpaceOnUse">
<stop stop-color="#A7FAFF"/>
<stop offset="1" stop-color="#C9FFF2" stop-opacity="0.13"/>
</linearGradient>
<linearGradient id="paint1_linear_2557_3079" x1="163.374" y1="181.904" x2="163.374" y2="266.165" gradientUnits="userSpaceOnUse">
<stop/>
<stop offset="1" stop-opacity="0"/>
</linearGradient>
<linearGradient id="paint2_linear_2557_3079" x1="287.014" y1="121.49" x2="287.014" y2="235.986" gradientUnits="userSpaceOnUse">
<stop stop-color="#FFD500"/>
<stop offset="1" stop-color="#FFD500" stop-opacity="0"/>
</linearGradient>
<linearGradient id="paint3_linear_2557_3079" x1="26.8703" y1="110.879" x2="26.8703" y2="225.375" gradientUnits="userSpaceOnUse">
<stop stop-color="#FFD500"/>
<stop offset="1" stop-color="#FFD500" stop-opacity="0"/>
</linearGradient>
<linearGradient id="paint4_linear_2557_3079" x1="302.924" y1="69.1965" x2="302.924" y2="183.692" gradientUnits="userSpaceOnUse">
<stop stop-color="#FFD500"/>
<stop offset="1" stop-color="#FFD500" stop-opacity="0"/>
</linearGradient>
<linearGradient id="paint5_linear_2557_3079" x1="42.7795" y1="89.2175" x2="42.7795" y2="203.713" gradientUnits="userSpaceOnUse">
<stop stop-color="#FFD500"/>
<stop offset="1" stop-color="#FFD500" stop-opacity="0"/>
</linearGradient>
<linearGradient id="paint6_linear_2557_3079" x1="250.551" y1="18.8347" x2="250.551" y2="133.33" gradientUnits="userSpaceOnUse">
<stop stop-color="#BBFAFA"/>
<stop offset="1" stop-color="#BBFAFA" stop-opacity="0"/>
</linearGradient>
<linearGradient id="paint7_linear_2557_3079" x1="93.0906" y1="187.852" x2="93.0906" y2="245.348" gradientUnits="userSpaceOnUse">
<stop stop-color="#3D86F4"/>
<stop offset="1" stop-color="#3B9EFB" stop-opacity="0"/>
</linearGradient>
<linearGradient id="paint8_linear_2557_3079" x1="110.057" y1="160.054" x2="134.982" y2="61.4512" gradientUnits="userSpaceOnUse">
<stop offset="0.453125" stop-color="#33D2E8"/>
<stop offset="0.552083" stop-color="#9FFAFF"/>
</linearGradient>
<clipPath id="clip0_2557_3079">
<rect width="307" height="228" fill="white"/>
</clipPath>
</defs>
</svg>
