<svg width="230" height="231" viewBox="0 0 230 231" fill="none" xmlns="http://www.w3.org/2000/svg">
<path d="M76.6665 0H153.333V92.0166H76.6665V0Z" fill="#CED2DB"/>
<path d="M153.333 46.0083C153.333 67.1827 136.17 84.3486 115 84.3486C93.8293 84.3486 76.6665 67.1827 76.6665 46.0083C76.6665 24.8339 93.8293 7.66806 115 7.66806C136.17 7.66806 153.333 24.8339 153.333 46.0083Z" fill="#0052FF"/>
<path d="M115 38.3402C136.17 38.3402 153.333 21.1744 153.333 0H76.6665C76.6665 21.1744 93.8293 38.3402 115 38.3402Z" fill="#5DE2F8"/>
<path d="M153.333 92.0166C153.333 113.191 136.17 130.357 115 130.357C93.8293 130.357 76.6665 113.191 76.6665 92.0166C76.6665 70.8422 93.8293 53.6764 115 53.6764C136.17 53.6764 153.333 70.8422 153.333 92.0166Z" fill="#FFD200"/>
<path fill-rule="evenodd" clip-rule="evenodd" d="M184.963 163.819L177.58 167.516L176.721 165.802L184.12 162.096C187.851 160.282 192.041 159.632 196.146 160.233C200.251 160.834 204.08 162.657 207.134 165.464L208.115 166.366L188.001 177.438L185.231 178.962L144.119 201.583L143.195 199.904L184.307 177.283L187.077 175.759L204.81 165.997C202.043 163.801 198.712 162.43 195.201 162.045C191.689 161.66 188.14 162.274 184.963 163.819Z" fill="#101114"/>
<path fill-rule="evenodd" clip-rule="evenodd" d="M205.392 185.151C203.374 182.429 200.67 180.291 197.556 178.955C194.442 177.62 191.029 177.135 187.666 177.549L187.43 175.648C191.383 175.16 195.393 175.802 198.995 177.502C202.597 179.201 205.644 181.886 207.782 185.247L208.506 186.384L143.887 201.666L143.446 199.801L205.392 185.151Z" fill="#101114"/>
<path fill-rule="evenodd" clip-rule="evenodd" d="M175.339 150.808L160.773 164.332L159.469 162.927L174.036 149.403C177.083 146.575 180.911 144.731 185.021 144.11C189.13 143.49 193.332 144.123 197.077 145.925L198.284 146.505L179.194 165.942L178.109 167.042V167.051L144.35 201.406L142.983 200.062L176.192 166.267V166.256L177.828 164.597L195.004 147.109C191.711 145.808 188.118 145.464 184.638 146.119C181.158 146.773 177.935 148.399 175.339 150.808ZM146.815 130.601L146.691 132.042C146.325 136.386 144.75 140.54 142.144 144.034C139.539 147.528 136.008 150.223 131.95 151.812L109.214 160.717L141.129 172.725L135.868 182.963L110.478 173.412C83.5215 163.275 53.1922 173.982 38.5699 198.795L38.5584 198.814L36.9062 197.842L43.2121 187.134C53.2835 170.049 68.9272 156.952 87.5149 150.042C88.6015 149.628 89.6989 149.243 90.8058 148.887L146.815 130.601ZM46.4503 185.526C63.0908 168.944 88.2969 163.023 111.152 171.618L134.944 180.567L138.442 173.762L103.867 160.753L131.251 150.028C134.744 148.66 137.817 146.398 140.161 143.469C142.504 140.54 144.038 137.047 144.607 133.338L91.398 150.71C90.3213 151.057 89.254 151.431 88.1972 151.834L88.1876 151.838C70.9837 158.231 56.3315 170.057 46.4503 185.526Z" fill="#101114"/>
<path fill-rule="evenodd" clip-rule="evenodd" d="M150.22 155.02L140.648 173.682L135.877 182.963L110.487 173.412C83.5338 163.282 53.1949 173.987 38.5669 198.815L25.3036 221.32L23.6523 220.347L36.9157 197.841C52.0161 172.212 83.3364 161.16 111.162 171.618L134.953 180.567L138.942 172.807L148.516 154.144C152.325 146.727 160.415 142.525 168.685 143.663L169.947 143.838L160.997 164.018L157.02 172.98L147.206 195.131L144.3 201.702H86.8285L75.271 221.32L73.6198 220.347L85.7332 199.785H143.052L145.454 194.355L155.268 172.204L159.245 163.242L167.143 145.433C160.133 144.979 153.461 148.712 150.22 155.02Z" fill="#101114"/>
<path fill-rule="evenodd" clip-rule="evenodd" d="M84.3306 23.0042C91.3245 13.6913 102.458 7.66806 115 7.66806C127.542 7.66806 138.676 13.6913 145.67 23.0042C138.676 32.317 127.542 38.3403 115 38.3403C102.458 38.3403 91.3245 32.317 84.3306 23.0042ZM115 120.772C130.879 120.772 143.75 107.898 143.75 92.0166C143.75 76.1351 130.879 63.2614 115 63.2614C99.1215 63.2614 86.2501 76.1351 86.2501 92.0166C86.2501 107.898 99.1215 120.772 115 120.772ZM115 122.689C131.937 122.689 145.667 108.956 145.667 92.0166C145.667 75.0769 131.937 61.3444 115 61.3444C98.0635 61.3444 84.3334 75.0769 84.3334 92.0166C84.3334 108.956 98.0635 122.689 115 122.689Z" fill="#0A0B0D"/>
<path d="M23 57.5104H30.6667V103.519H23V57.5104ZM30.6667 72.8465H38.3333V103.519H30.6667V72.8465ZM38.3333 49.8423H46V103.519H38.3333V49.8423ZM46 65.1784H53.6667V103.519H46V65.1784ZM53.6667 57.5104H61.3333V103.519H53.6667V57.5104ZM169.625 34.5062H177.292V80.5145H169.625V34.5062ZM177.292 49.8423H184.958V80.5145H177.292V49.8423ZM184.958 26.8382H192.625V80.5145H184.958V26.8382ZM192.625 42.1743H200.292V80.5145H192.625V42.1743ZM200.292 34.5062H207.958V80.5145H200.292V34.5062Z" fill="#CED2DB"/>
<path d="M61.3333 103.519C61.3333 114.106 52.7524 122.689 42.1667 122.689C31.5809 122.689 23 114.106 23 103.519C23 92.931 31.5809 84.3485 42.1667 84.3485C52.7524 84.3485 61.3333 92.931 61.3333 103.519Z" fill="#5DE2F8"/>
<path d="M207.958 80.5145C207.958 91.1022 199.377 99.6846 188.792 99.6846C178.206 99.6846 169.625 91.1022 169.625 80.5145C169.625 69.9269 178.206 61.3444 188.792 61.3444C199.377 61.3444 207.958 69.9269 207.958 80.5145Z" fill="#00D17F"/>
<path fill-rule="evenodd" clip-rule="evenodd" d="M42.1667 84.3485C31.5809 84.3485 23 92.931 23 103.519H61.3333C61.3333 92.931 52.7524 84.3485 42.1667 84.3485Z" fill="#0052FF"/>
<path fill-rule="evenodd" clip-rule="evenodd" d="M188.792 61.3444C178.206 61.3444 169.625 69.9269 169.625 80.5145H207.958C207.958 69.9269 199.377 61.3444 188.792 61.3444Z" fill="#0A0B0D"/>
<path d="M128.297 96.227H120.878C120.562 96.227 120.309 95.9789 120.309 95.6687V88.3809C120.309 88.0708 120.057 87.8227 119.741 87.8227H112.322C112.006 87.8227 111.754 87.5746 111.754 87.2645V80.4005C111.754 80.0903 112.006 79.8422 112.322 79.8422H119.741C120.057 79.8422 120.309 79.5941 120.309 79.284V71.5723C120.309 71.2622 120.057 71.0141 119.741 71.0141H111.89C111.575 71.0141 111.322 71.2622 111.322 71.5723V78.8602C111.322 79.1703 111.069 79.4184 110.754 79.4184H103.334C103.019 79.4184 102.766 79.6665 102.766 79.9766V87.6883C102.766 87.9984 103.019 88.2465 103.334 88.2465H110.754C111.069 88.2465 111.322 88.4946 111.322 88.8047V96.0926C111.322 96.4027 111.575 96.6508 111.89 96.6508H119.31C119.625 96.6508 119.878 96.8989 119.878 97.209V104.073C119.878 104.383 119.625 104.631 119.31 104.631H111.89C111.575 104.631 111.322 104.879 111.322 105.189V112.901C111.322 113.211 111.575 113.459 111.89 113.459H119.741C120.057 113.459 120.309 113.211 120.309 112.901V105.613C120.309 105.303 120.562 105.055 120.878 105.055H128.297C128.613 105.055 128.865 104.807 128.865 104.497V96.7852C128.865 96.4751 128.613 96.227 128.297 96.227Z" fill="black"/>
</svg>
