<svg width="240" height="220" viewBox="0 0 240 220" fill="none" xmlns="http://www.w3.org/2000/svg">
<mask id="mask0_2586_4531" style="mask-type:alpha" maskUnits="userSpaceOnUse" x="0" y="0" width="240" height="220">
<rect width="240" height="220" fill="#D9D9D9"/>
</mask>
<g mask="url(#mask0_2586_4531)">
<mask id="mask1_2586_4531" style="mask-type:luminance" maskUnits="userSpaceOnUse" x="-36" y="-51" width="323" height="323">
<g opacity="0.134885">
<path d="M274.08 -51H-23.08C-30.2155 -51 -36 -45.2155 -36 -38.08V259.08C-36 266.216 -30.2155 272 -23.08 272H274.08C281.216 272 287 266.216 287 259.08V-38.08C287 -45.2155 281.216 -51 274.08 -51Z" fill="url(#paint0_linear_2586_4531)"/>
</g>
</mask>
<g mask="url(#mask1_2586_4531)">
<path opacity="0.134885" fill-rule="evenodd" clip-rule="evenodd" d="M1.21991 288.432L81.5407 226.646L34.6981 161.763L-46.0091 224.622L-48.6018 247.559L-32.5181 277.47L1.21991 288.432Z" fill="url(#paint1_linear_2586_4531)"/>
</g>
<mask id="mask2_2586_4531" style="mask-type:luminance" maskUnits="userSpaceOnUse" x="-36" y="-51" width="323" height="323">
<g opacity="0.134885">
<path d="M274.08 -51H-23.08C-30.2155 -51 -36 -45.2155 -36 -38.08V259.08C-36 266.216 -30.2155 272 -23.08 272H274.08C281.216 272 287 266.216 287 259.08V-38.08C287 -45.2155 281.216 -51 274.08 -51Z" fill="url(#paint2_linear_2586_4531)"/>
</g>
</mask>
<g mask="url(#mask2_2586_4531)">
<path opacity="0.134885" fill-rule="evenodd" clip-rule="evenodd" d="M250.48 -68.2206L173.503 -2.31546L223.677 60.0273L300.983 -6.96966L302.372 -30.011L284.745 -59.0392L250.48 -68.2206Z" fill="url(#paint3_linear_2586_4531)"/>
</g>
<mask id="mask3_2586_4531" style="mask-type:luminance" maskUnits="userSpaceOnUse" x="-36" y="-51" width="323" height="323">
<g opacity="0.185407">
<path d="M274.08 -51H-23.08C-30.2155 -51 -36 -45.2155 -36 -38.08V259.08C-36 266.216 -30.2155 272 -23.08 272H274.08C281.216 272 287 266.216 287 259.08V-38.08C287 -45.2155 281.216 -51 274.08 -51Z" fill="#1DA2B4"/>
</g>
</mask>
<g mask="url(#mask3_2586_4531)">
<path opacity="0.185407" fill-rule="evenodd" clip-rule="evenodd" d="M125.904 20.8676C102.239 20.8676 79.5429 30.2684 62.8093 47.002C46.0757 63.7357 36.6748 86.4314 36.6748 110.096C36.6748 133.761 46.0757 156.457 62.8093 173.191C79.5429 189.924 102.239 199.325 125.904 199.325C149.568 199.325 172.264 189.924 188.998 173.191C205.731 156.457 215.132 133.761 215.132 110.096C215.132 86.4314 205.731 63.7357 188.998 47.002C172.264 30.2684 149.568 20.8676 125.904 20.8676Z" fill="#1DA2B4"/>
</g>
<mask id="mask4_2586_4531" style="mask-type:luminance" maskUnits="userSpaceOnUse" x="-36" y="-51" width="323" height="323">
<g opacity="0.0590065">
<path d="M274.08 -51H-23.08C-30.2155 -51 -36 -45.2155 -36 -38.08V259.08C-36 266.216 -30.2155 272 -23.08 272H274.08C281.216 272 287 266.216 287 259.08V-38.08C287 -45.2155 281.216 -51 274.08 -51Z" fill="#1DA2B4"/>
</g>
</mask>
<g mask="url(#mask4_2586_4531)">
<path opacity="0.0590065" fill-rule="evenodd" clip-rule="evenodd" d="M125.5 6.33252C97.8731 6.33252 71.3777 17.3073 51.8425 36.8425C32.3073 56.3777 21.3325 82.8731 21.3325 110.5C21.3325 138.127 32.3073 164.622 51.8425 184.158C71.3777 203.693 97.8731 214.668 125.5 214.668C153.127 214.668 179.622 203.693 199.158 184.158C218.693 164.622 229.668 138.127 229.668 110.5C229.668 82.8731 218.693 56.3777 199.158 36.8425C179.622 17.3073 153.127 6.33252 125.5 6.33252Z" fill="#1DA2B4"/>
</g>
<mask id="mask5_2586_4531" style="mask-type:luminance" maskUnits="userSpaceOnUse" x="-36" y="-51" width="323" height="323">
<g opacity="0.137469">
<path d="M274.08 -51H-23.08C-30.2155 -51 -36 -45.2155 -36 -38.08V259.08C-36 266.216 -30.2155 272 -23.08 272H274.08C281.216 272 287 266.216 287 259.08V-38.08C287 -45.2155 281.216 -51 274.08 -51Z" fill="#1DA2B4"/>
</g>
</mask>
<g mask="url(#mask5_2586_4531)">
<path opacity="0.137469" fill-rule="evenodd" clip-rule="evenodd" d="M26.985 194.48C20.9885 194.48 15.2375 196.862 10.9973 201.102C6.75712 205.343 4.375 211.093 4.375 217.09C4.375 223.087 6.75712 228.837 10.9973 233.078C15.2375 237.318 20.9885 239.7 26.985 239.7C32.9815 239.7 38.7325 237.318 42.9727 233.078C47.2129 228.837 49.595 223.087 49.595 217.09C49.595 211.093 47.2129 205.343 42.9727 201.102C38.7325 196.862 32.9815 194.48 26.985 194.48Z" fill="#1DA2B4"/>
</g>
<mask id="mask6_2586_4531" style="mask-type:luminance" maskUnits="userSpaceOnUse" x="-36" y="-51" width="323" height="323">
<g opacity="0.137469">
<path d="M274.08 -51H-23.08C-30.2155 -51 -36 -45.2155 -36 -38.08V259.08C-36 266.216 -30.2155 272 -23.08 272H274.08C281.216 272 287 266.216 287 259.08V-38.08C287 -45.2155 281.216 -51 274.08 -51Z" fill="#1DA2B4"/>
</g>
</mask>
<g mask="url(#mask6_2586_4531)">
<path opacity="0.137469" fill-rule="evenodd" clip-rule="evenodd" d="M245.01 -25.9675C243.207 -25.9675 241.422 -25.6125 239.757 -24.9226C238.091 -24.2327 236.578 -23.2216 235.303 -21.9468C234.029 -20.6721 233.018 -19.1588 232.328 -17.4933C231.638 -15.8278 231.283 -14.0428 231.283 -12.24C231.283 -10.4373 231.638 -8.65224 232.328 -6.98674C233.018 -5.32125 234.029 -3.80794 235.303 -2.53322C236.578 -1.2585 238.091 -0.247345 239.757 0.442528C241.422 1.1324 243.207 1.48747 245.01 1.48747C246.813 1.48747 248.598 1.1324 250.263 0.442528C251.929 -0.247345 253.442 -1.2585 254.717 -2.53322C255.992 -3.80794 257.003 -5.32125 257.693 -6.98674C258.383 -8.65224 258.738 -10.4373 258.738 -12.24C258.738 -14.0428 258.383 -15.8278 257.693 -17.4933C257.003 -19.1588 255.992 -20.6721 254.717 -21.9468C253.442 -23.2216 251.929 -24.2327 250.263 -24.9226C248.598 -25.6125 246.813 -25.9675 245.01 -25.9675Z" fill="#1DA2B4"/>
</g>
<mask id="mask7_2586_4531" style="mask-type:luminance" maskUnits="userSpaceOnUse" x="-36" y="-51" width="323" height="323">
<g opacity="0.137469">
<path d="M274.08 -51H-23.08C-30.2155 -51 -36 -45.2155 -36 -38.08V259.08C-36 266.216 -30.2155 272 -23.08 272H274.08C281.216 272 287 266.216 287 259.08V-38.08C287 -45.2155 281.216 -51 274.08 -51Z" fill="#1DA2B4"/>
</g>
</mask>
<g mask="url(#mask7_2586_4531)">
<path opacity="0.137469" fill-rule="evenodd" clip-rule="evenodd" d="M230.879 47.515C229.272 47.515 227.732 48.1531 226.596 49.2889C225.46 50.4246 224.822 51.965 224.822 53.5713C224.822 55.1775 225.46 56.7179 226.596 57.8537C227.732 58.9894 229.272 59.6275 230.879 59.6275C232.485 59.6275 234.025 58.9894 235.161 57.8537C236.297 56.7179 236.935 55.1775 236.935 53.5713C236.935 51.965 236.297 50.4246 235.161 49.2889C234.025 48.1531 232.485 47.515 230.879 47.515Z" fill="#1DA2B4"/>
</g>
<mask id="mask8_2586_4531" style="mask-type:luminance" maskUnits="userSpaceOnUse" x="-36" y="-51" width="323" height="323">
<g opacity="0.137469">
<path d="M274.08 -51H-23.08C-30.2155 -51 -36 -45.2155 -36 -38.08V259.08C-36 266.216 -30.2155 272 -23.08 272H274.08C281.216 272 287 266.216 287 259.08V-38.08C287 -45.2155 281.216 -51 274.08 -51Z" fill="#1DA2B4"/>
</g>
</mask>
<g mask="url(#mask8_2586_4531)">
<path opacity="0.137469" fill-rule="evenodd" clip-rule="evenodd" d="M24.1588 155.72C22.5526 155.72 21.0121 156.358 19.8764 157.494C18.7406 158.63 18.1025 160.17 18.1025 161.776C18.1025 163.382 18.7406 164.923 19.8764 166.059C21.0121 167.194 22.5526 167.832 24.1588 167.832C25.765 167.832 27.3054 167.194 28.4412 166.059C29.577 164.923 30.215 163.382 30.215 161.776C30.215 160.17 29.577 158.63 28.4412 157.494C27.3054 156.358 25.765 155.72 24.1588 155.72Z" fill="#1DA2B4"/>
</g>
<path d="M125.904 48.3225C109.306 48.3225 93.3886 54.9159 81.6524 66.6521C69.9161 78.3884 63.3228 94.3062 63.3228 110.904C63.3228 127.501 69.9161 143.419 81.6524 155.155C93.3886 166.892 109.306 173.485 125.904 173.485C142.502 173.485 158.419 166.892 170.156 155.155C181.892 143.419 188.485 127.501 188.485 110.904C188.485 94.3062 181.892 78.3884 170.156 66.6521C158.419 54.9159 142.502 48.3225 125.904 48.3225Z" fill="white"/>
<mask id="mask9_2586_4531" style="mask-type:luminance" maskUnits="userSpaceOnUse" x="46" y="31" width="159" height="159">
<path d="M125.5 32.1725C115.214 32.1725 105.029 34.1985 95.5257 38.1348C86.0226 42.0711 77.3878 47.8407 70.1144 55.1141C62.8411 62.3875 57.0715 71.0222 53.1352 80.5253C49.1989 90.0285 47.1729 100.214 47.1729 110.5C47.1729 120.786 49.1989 130.971 53.1352 140.475C57.0715 149.978 62.8411 158.613 70.1144 165.886C77.3878 173.159 86.0226 178.929 95.5257 182.865C105.029 186.801 115.214 188.827 125.5 188.827C135.786 188.827 145.972 186.801 155.475 182.865C164.978 178.929 173.613 173.159 180.886 165.886C188.16 158.613 193.929 149.978 197.866 140.475C201.802 130.971 203.828 120.786 203.828 110.5C203.828 100.214 201.802 90.0285 197.866 80.5253C193.929 71.0222 188.16 62.3875 180.886 55.1141C173.613 47.8407 164.978 42.0711 155.475 38.1348C145.972 34.1985 135.786 32.1725 125.5 32.1725V32.1725Z" stroke="#1DA2B4" stroke-width="2" stroke-dasharray="2 2"/>
</mask>
<g mask="url(#mask9_2586_4531)">
<path d="M125.5 32.1725C115.214 32.1725 105.029 34.1985 95.5257 38.1348C86.0226 42.0711 77.3878 47.8407 70.1144 55.1141C62.8411 62.3875 57.0715 71.0222 53.1352 80.5253C49.1989 90.0285 47.1729 100.214 47.1729 110.5C47.1729 120.786 49.1989 130.971 53.1352 140.475C57.0715 149.978 62.8411 158.613 70.1144 165.886C77.3878 173.159 86.0226 178.929 95.5257 182.865C105.029 186.801 115.214 188.827 125.5 188.827C135.786 188.827 145.972 186.801 155.475 182.865C164.978 178.929 173.613 173.159 180.886 165.886C188.16 158.613 193.929 149.978 197.866 140.475C201.802 130.971 203.828 120.786 203.828 110.5C203.828 100.214 201.802 90.0285 197.866 80.5253C193.929 71.0222 188.16 62.3875 180.886 55.1141C173.613 47.8407 164.978 42.0711 155.475 38.1348C145.972 34.1985 135.786 32.1725 125.5 32.1725V32.1725Z" stroke="#1DA2B4" stroke-width="2" stroke-dasharray="2 2"/>
</g>
<path fill-rule="evenodd" clip-rule="evenodd" d="M64.3439 150.033C75.1521 150.033 83.9139 141.271 83.9139 130.463C83.9139 119.654 75.1521 110.893 64.3439 110.893C53.5357 110.893 44.7739 119.654 44.7739 130.463C44.7739 141.271 53.5357 150.033 64.3439 150.033Z" fill="#E3B76D"/>
<path d="M64.3437 135.355L61.8975 131.683L64.3437 128.016L66.79 131.683L64.3437 135.355Z" fill="white"/>
<path d="M75.111 125.266H76.5753V123.439L64.344 115.785L52.1128 123.439V125.266H54.9977V137.728H53.5646V140.248H75.1235V137.728H73.6904V125.266H75.111ZM64.344 118.746L70.7307 122.746H57.9574L64.344 118.746ZM71.198 137.728H57.4901V125.266H71.198V137.728Z" fill="white"/>
<path fill-rule="evenodd" clip-rule="evenodd" d="M173.202 186.726C186.037 186.726 196.442 176.322 196.442 163.487C196.442 150.652 186.037 140.248 173.202 140.248C160.368 140.248 149.963 150.652 149.963 163.487C149.963 176.322 160.368 186.726 173.202 186.726Z" fill="#E3B76D"/>
<path fill-rule="evenodd" clip-rule="evenodd" d="M167.478 71.36C179.637 71.36 189.494 61.503 189.494 49.3438C189.494 37.1845 179.637 27.3275 167.478 27.3275C155.318 27.3275 145.461 37.1845 145.461 49.3438C145.461 61.503 155.318 71.36 167.478 71.36Z" fill="#E3B76D"/>
<path d="M169.184 59.5853C172.912 59.5853 175.583 57.4718 175.583 53.5676C175.583 50.7788 173.969 49.4579 172.706 48.8708C173.763 48.3717 175.29 46.8746 175.29 44.5556C175.29 40.9743 172.912 38.6846 168.832 38.6846H160.436V59.5853H169.184ZM168.509 47.1388H164.516V42.3246H168.509C170.241 42.3246 171.209 43.2933 171.209 44.7317C171.209 46.1701 170.241 47.1388 168.509 47.1388ZM168.773 55.9453H164.516V50.8082H168.773C170.622 50.8082 171.503 51.953 171.503 53.3621C171.503 54.7711 170.622 55.9453 168.773 55.9453Z" fill="white"/>
<path opacity="0.369965" fill-rule="evenodd" clip-rule="evenodd" d="M64.2719 55.78C67.6494 55.78 70.3875 53.0419 70.3875 49.6643C70.3875 46.2868 67.6494 43.5487 64.2719 43.5487C60.8943 43.5487 58.1562 46.2868 58.1562 49.6643C58.1562 53.0419 60.8943 55.78 64.2719 55.78Z" fill="#E3B76D"/>
<path fill-rule="evenodd" clip-rule="evenodd" d="M125.643 146.684C145.488 146.684 161.576 130.596 161.576 110.75C161.576 90.9044 145.488 74.8163 125.643 74.8163C105.797 74.8163 89.709 90.9044 89.709 110.75C89.709 130.596 105.797 146.684 125.643 146.684Z" fill="#1DA2B4"/>
<path d="M185.217 168.205V174.495H162.194V152.479H185.217V158.769H186.656V168.205H185.217ZM183.778 161.914H180.9C180.037 161.914 179.461 162.543 179.461 163.487C179.461 164.431 180.037 165.06 180.9 165.06H183.778V161.914ZM182.339 158.769V155.624H165.072V171.35H182.339V168.205H180.9C178.454 168.205 176.584 166.16 176.584 163.487C176.584 160.814 178.454 158.769 180.9 158.769H182.339Z" fill="white"/>
<path d="M141.281 116.076H131.9C131.501 116.076 131.182 115.761 131.182 115.366V106.094C131.182 105.7 130.863 105.384 130.463 105.384H121.082C120.683 105.384 120.364 105.069 120.364 104.674V95.9416C120.364 95.547 120.683 95.2314 121.082 95.2314H130.463C130.863 95.2314 131.182 94.9157 131.182 94.5212V84.7102C131.182 84.3156 130.863 84 130.463 84H120.537C120.137 84 119.818 84.3156 119.818 84.7102V93.982C119.818 94.3765 119.499 94.6922 119.1 94.6922H109.719C109.319 94.6922 109 95.0078 109 95.4023V105.213C109 105.608 109.319 105.924 109.719 105.924H119.1C119.499 105.924 119.818 106.239 119.818 106.634V115.906C119.818 116.3 120.137 116.616 120.537 116.616H129.918C130.317 116.616 130.636 116.931 130.636 117.326V126.058C130.636 126.453 130.317 126.769 129.918 126.769H120.537C120.137 126.769 119.818 127.084 119.818 127.479V137.29C119.818 137.684 120.137 138 120.537 138H130.463C130.863 138 131.182 137.684 131.182 137.29V128.018C131.182 127.623 131.501 127.308 131.9 127.308H141.281C141.681 127.308 142 126.992 142 126.598V116.787C142 116.392 141.681 116.076 141.281 116.076Z" fill="white"/>
</g>
<defs>
<linearGradient id="paint0_linear_2586_4531" x1="26408.3" y1="22746.5" x2="2475.49" y2="7160.99" gradientUnits="userSpaceOnUse">
<stop stop-color="#EEEEEE" stop-opacity="0"/>
<stop offset="1" stop-color="#1DA2B4"/>
</linearGradient>
<linearGradient id="paint1_linear_2586_4531" x1="11434.2" y1="-7257.9" x2="2404.44" y2="-438.783" gradientUnits="userSpaceOnUse">
<stop stop-color="#EEEEEE" stop-opacity="0"/>
<stop offset="1" stop-color="#1DA2B4"/>
</linearGradient>
<linearGradient id="paint2_linear_2586_4531" x1="26408.3" y1="22746.5" x2="2475.49" y2="7160.99" gradientUnits="userSpaceOnUse">
<stop stop-color="#EEEEEE" stop-opacity="0"/>
<stop offset="1" stop-color="#1DA2B4"/>
</linearGradient>
<linearGradient id="paint3_linear_2586_4531" x1="-10771.8" y1="8066.12" x2="-2111.39" y2="783.773" gradientUnits="userSpaceOnUse">
<stop stop-color="#EEEEEE" stop-opacity="0"/>
<stop offset="1" stop-color="#1DA2B4"/>
</linearGradient>
</defs>
</svg>
