<svg width="142" height="63" viewBox="0 0 142 63" fill="none" xmlns="http://www.w3.org/2000/svg">
<path d="M54.2941 45.2427C54.3599 57.3146 47.5246 60.4972 39.9871 61.9678C31.7803 63.5591 19.3713 59.0925 18.543 58.7577C18.8611 58.873 19.1793 58.9827 19.503 59.076C21.2749 59.6138 23.0194 59.8387 24.731 59.8113C26.1847 59.7839 27.611 59.5753 28.999 59.2187C29.0319 59.2077 29.0593 59.2077 29.0867 59.1967C38.4949 56.7275 48.4736 48.9247 50.1358 38.0764C50.5583 33.4782 50.4211 32.4959 49.9109 27.4038C51.6774 34.208 54.2612 39.5525 54.2886 45.2427H54.2941Z" fill="url(#paint0_linear_2555_2455)"/>
<path d="M29.092 59.1911C29.0591 59.202 29.0317 59.2075 29.0042 59.2185C27.6163 59.5752 26.19 59.7837 24.7363 59.8111C23.0247 59.8386 21.2802 59.6136 19.5083 59.0758C19.1791 58.9661 18.8609 58.8563 18.5482 58.7576C18.5373 58.7576 18.5318 58.7576 18.5208 58.7466C12.7113 56.848 8.31169 52.6887 5.01471 47.8325C-0.114544 40.2986 -3.85588 22.5639 7.03349 11.8529C14.7136 4.29698 21.6971 1.50399 25.1477 0.510805L27.3695 0.00598145C24.1383 0.752242 21.6916 4.87863 20.9236 11.2328C20.4518 15.1946 20.3805 20.5007 20.7206 26.0154C21.6368 40.7705 25.9486 52.354 29.092 59.1856V59.1911Z" fill="url(#paint1_linear_2555_2455)"/>
<path d="M50.1409 38.0703C48.5061 33.472 44.7483 28.4841 39.6465 23.1506C32.5314 15.7044 20.9233 11.2214 20.9233 11.2214C21.6859 4.87813 24.138 0.751748 27.3692 0.00548721H27.3911L27.4021 0C27.4021 0 34.8738 0.274361 40.4529 6.14568C45.9552 11.9457 48.6323 21.5867 49.5155 25.735C49.6362 26.3002 49.7678 26.8489 49.9105 27.3977C50.4152 32.4953 50.5578 33.4775 50.1354 38.0758L50.1409 38.0703Z" fill="url(#paint2_linear_2555_2455)"/>
<path d="M40.0635 38.2466H36.196C36.0314 38.2466 35.8998 38.1149 35.8998 37.9503V34.0818C35.8998 33.9172 35.7681 33.7855 35.6035 33.7855H31.736C31.5714 33.7855 31.4398 33.6538 31.4398 33.4892V29.8457C31.4398 29.6811 31.5714 29.5494 31.736 29.5494H35.6035C35.7681 29.5494 35.8998 29.4177 35.8998 29.2531V25.1596C35.8998 24.995 35.7681 24.8633 35.6035 24.8633H31.5111C31.3465 24.8633 31.2149 24.995 31.2149 25.1596V29.0281C31.2149 29.1927 31.0832 29.3244 30.9186 29.3244H27.0511C26.8865 29.3244 26.7549 29.4561 26.7549 29.6207V33.7142C26.7549 33.8788 26.8865 34.0105 27.0511 34.0105H30.9186C31.0832 34.0105 31.2149 34.1422 31.2149 34.3068V38.1753C31.2149 38.3399 31.3465 38.4716 31.5111 38.4716H35.3786C35.5432 38.4716 35.6748 38.6033 35.6748 38.7679V42.4114C35.6748 42.576 35.5432 42.7077 35.3786 42.7077H31.5111C31.3465 42.7077 31.2149 42.8394 31.2149 43.004V47.0975C31.2149 47.2621 31.3465 47.3938 31.5111 47.3938H35.6035C35.7681 47.3938 35.8998 47.2621 35.8998 47.0975V43.229C35.8998 43.0644 36.0314 42.9327 36.196 42.9327H40.0635C40.2281 42.9327 40.3597 42.801 40.3597 42.6364V38.5429C40.3597 38.3783 40.2281 38.2466 40.0635 38.2466Z" fill="#02FFA4"/>
<path d="M73.1427 34.2735C72.2058 34.2735 71.3207 34.2102 70.4872 34.0893C69.6538 33.9684 68.9871 33.8359 68.4985 33.6978V30.6346C68.7457 30.7267 69.0446 30.8131 69.3952 30.8879C69.7458 30.9628 70.1251 31.0319 70.5217 31.0837C70.9183 31.1355 71.3321 31.1816 71.7517 31.2219C72.1713 31.2622 72.5909 31.2795 73.0047 31.2795C73.5278 31.2795 73.9646 31.2507 74.3267 31.1874C74.6888 31.124 74.9762 31.0204 75.2003 30.8649C75.4245 30.7095 75.5797 30.5137 75.6717 30.2661C75.7636 30.0185 75.8096 29.7191 75.8096 29.3679C75.8096 29.0627 75.7694 28.7979 75.6946 28.5848C75.6199 28.3718 75.4762 28.176 75.2693 28.009C75.0624 27.8421 74.7693 27.6866 74.3957 27.5484C74.0221 27.4102 73.5278 27.2663 72.9128 27.1108C72.0564 26.9093 71.3436 26.6905 70.7861 26.4544C70.2286 26.2184 69.7803 25.9247 69.4412 25.5792C69.102 25.2338 68.8664 24.8135 68.7284 24.324C68.5905 23.8346 68.5215 23.2243 68.5215 22.5046C68.5215 20.8175 69.0331 19.6141 70.0504 18.9002C71.0678 18.1862 72.5047 17.8292 74.3612 17.8292C75.2636 17.8292 76.0682 17.8868 76.7637 18.002C77.4592 18.1171 78.0225 18.2495 78.4535 18.405V21.2839C78.2524 21.2206 77.9995 21.1572 77.6948 21.0881C77.3902 21.0191 77.0511 20.9557 76.6832 20.8924C76.3154 20.829 75.9418 20.783 75.5682 20.7542C75.1946 20.7254 74.8382 20.7081 74.4991 20.7081C73.5967 20.7081 72.9415 20.8233 72.5334 21.0536C72.1253 21.2839 71.9242 21.7388 71.9242 22.4124C71.9242 22.6715 71.9529 22.8961 72.0161 23.0803C72.0793 23.2646 72.2058 23.4316 72.3955 23.5755C72.5851 23.7195 72.861 23.8577 73.2231 23.9786C73.5852 24.0995 74.0566 24.2319 74.6371 24.3701C75.5854 24.6004 76.3671 24.8595 76.9706 25.1416C77.5741 25.4238 78.0512 25.7635 78.3961 26.155C78.7409 26.5466 78.9766 27.0072 79.0973 27.5369C79.218 28.0666 79.2812 28.7057 79.2812 29.46C79.2812 31.0261 78.8041 32.218 77.8558 33.0414C76.9074 33.8647 75.3325 34.2735 73.1427 34.2735Z" fill="white"/>
<path d="M87.3969 21.4003C88.4373 21.4003 89.3167 21.4866 90.0294 21.6651C90.7421 21.8436 91.3169 22.097 91.7537 22.4367C92.1905 22.7764 92.5066 23.1909 92.6963 23.6919C92.886 24.1928 92.9837 24.7686 92.9837 25.4307V34.0444H89.9949L89.673 32.5935C89.4144 33.0541 88.9431 33.4514 88.2706 33.7796C87.5981 34.1078 86.7475 34.2747 85.7186 34.2747C84.3219 34.2747 83.2644 33.9638 82.5459 33.342C81.8274 32.7201 81.4653 31.7643 81.4653 30.4746C81.4653 29.0294 81.8964 28.016 82.7643 27.4345C83.6322 26.8529 84.8967 26.5593 86.5693 26.5593H89.65V26.2368C89.65 25.8683 89.6156 25.5517 89.5466 25.2925C89.4776 25.0334 89.3454 24.8204 89.1442 24.6592C88.9431 24.498 88.6787 24.3771 88.3396 24.3022C88.0004 24.2274 87.5579 24.1871 87.0061 24.1871C86.5635 24.1871 86.1152 24.2043 85.6726 24.2446C85.2301 24.2849 84.7932 24.3425 84.3622 24.4174V21.5845C84.8392 21.5212 85.3508 21.4751 85.9025 21.4463C86.4543 21.4175 86.9544 21.4003 87.3969 21.4003ZM86.5693 31.7183C87.3337 31.7183 87.989 31.5858 88.5235 31.3152C89.058 31.0446 89.4374 30.6991 89.65 30.2673V28.8163H87.0751C86.2474 28.8163 85.6554 28.9142 85.2933 29.1157C84.9312 29.3173 84.753 29.7318 84.753 30.3594C84.753 30.8488 84.8967 31.2001 85.1783 31.4073C85.46 31.6146 85.9255 31.7183 86.5693 31.7183Z" fill="white"/>
<path d="M94.478 21.6086H98.1795L100.961 30.5678H101.099L103.996 21.6086H107.56L103.031 34.0455H98.9612L94.478 21.6086Z" fill="white"/>
<path d="M110.962 19.8801C110.594 19.8801 110.29 19.8629 110.043 19.8226C109.796 19.7823 109.606 19.7017 109.468 19.5807C109.33 19.4598 109.232 19.2813 109.181 19.051C109.129 18.8207 109.1 18.504 109.1 18.1067C109.1 17.7094 109.129 17.4158 109.181 17.1855C109.232 16.9552 109.33 16.7767 109.468 16.6558C109.606 16.5349 109.796 16.4542 110.043 16.4255C110.29 16.3967 110.594 16.3794 110.962 16.3794C111.33 16.3794 111.658 16.3967 111.893 16.4255C112.129 16.4542 112.319 16.5349 112.457 16.6558C112.595 16.7767 112.692 16.9552 112.744 17.1855C112.796 17.4158 112.825 17.721 112.825 18.1067C112.825 18.4925 112.796 18.8207 112.744 19.051C112.692 19.2813 112.595 19.4598 112.457 19.5807C112.319 19.7017 112.129 19.7823 111.893 19.8226C111.658 19.8629 111.347 19.8801 110.962 19.8801ZM109.284 21.6075H112.618V34.0444H109.284V21.6075Z" fill="white"/>
<path d="M123.147 21.3759C123.912 21.3759 124.561 21.4622 125.09 21.6407C125.619 21.8192 126.044 22.0841 126.366 22.4353C126.688 22.7865 126.918 23.2241 127.056 23.7366C127.194 24.249 127.263 24.8536 127.263 25.5445V34.043H123.929V26.4197C123.929 26.0051 123.9 25.6482 123.837 25.3487C123.774 25.0493 123.67 24.8075 123.527 24.6233C123.383 24.439 123.176 24.3066 122.917 24.2202C122.659 24.1338 122.32 24.0935 121.906 24.0935C121.216 24.0935 120.647 24.2145 120.205 24.462C119.762 24.7096 119.446 25.153 119.262 25.7979V34.043H115.928V21.6062H119.262V23.1032C119.601 22.5217 120.107 22.0841 120.779 21.8019C121.452 21.5198 122.245 21.3759 123.147 21.3759Z" fill="white"/>
<path d="M142 21.6062V33.0757C142 33.9336 141.885 34.7052 141.655 35.3904C141.425 36.0756 141.04 36.6571 140.494 37.1407C139.948 37.6244 139.241 37.9987 138.367 38.2578C137.494 38.5169 136.413 38.6493 135.126 38.6493C134.557 38.6493 133.953 38.6205 133.309 38.5687C132.666 38.5169 132.091 38.442 131.585 38.3499V35.7013C132.074 35.8222 132.614 35.9143 133.194 35.9777C133.775 36.041 134.338 36.0698 134.873 36.0698C135.545 36.0698 136.126 36.018 136.609 35.9086C137.091 35.7992 137.488 35.6264 137.793 35.3904C138.097 35.1543 138.327 34.8319 138.471 34.4346C138.614 34.0373 138.689 33.5364 138.689 32.9375V32.2696C138.431 32.8224 138.017 33.2542 137.459 33.5709C136.902 33.8876 136.063 34.043 134.942 34.043C133.93 34.043 133.102 33.8876 132.459 33.5824C131.815 33.2773 131.303 32.8454 130.918 32.2927C130.533 31.7399 130.269 31.0778 130.125 30.3005C129.981 29.5232 129.907 28.6595 129.907 27.7094C129.907 26.863 129.981 26.057 130.125 25.2912C130.269 24.5254 130.533 23.846 130.918 23.2644C131.303 22.6829 131.815 22.2223 132.459 21.8825C133.102 21.5428 133.93 21.3759 134.942 21.3759C136.074 21.3759 136.925 21.5313 137.482 21.848C138.04 22.1647 138.442 22.6138 138.689 23.1953V21.6062H142ZM135.93 31.6017C136.545 31.6017 137.04 31.5154 137.425 31.3369C137.81 31.1584 138.109 30.905 138.321 30.5768C138.534 30.2486 138.678 29.8398 138.747 29.3562C138.816 28.8725 138.85 28.3255 138.85 27.7094C138.85 27.0934 138.816 26.5752 138.747 26.1088C138.678 25.6424 138.534 25.2393 138.321 24.8996C138.109 24.5599 137.81 24.3066 137.425 24.1281C137.04 23.9496 136.545 23.8632 135.93 23.8632C135.315 23.8632 134.884 23.9726 134.539 24.1857C134.195 24.3987 133.936 24.6866 133.758 25.0378C133.58 25.3891 133.465 25.7979 133.413 26.2585C133.361 26.7191 133.332 27.2028 133.332 27.7094C133.332 28.2449 133.361 28.7516 133.413 29.218C133.465 29.6844 133.585 30.0989 133.769 30.4502C133.953 30.8014 134.218 31.0835 134.562 31.2908C134.907 31.4981 135.361 31.6017 135.93 31.6017Z" fill="white"/>
<path d="M74.4762 39.3644C75.643 39.3644 76.7005 39.468 77.6604 39.6753C78.6203 39.8826 79.4365 40.2799 80.1204 40.8614C80.8044 41.4429 81.3274 42.2606 81.6953 43.3027C82.0631 44.3449 82.2471 45.698 82.2471 47.3562C82.2471 48.9051 82.0631 50.1948 81.6953 51.214C81.3274 52.2331 80.8044 53.0507 80.1204 53.6668C79.4365 54.2829 78.6203 54.7147 77.6604 54.9681C76.7005 55.2214 75.643 55.3481 74.4762 55.3481H69.0044V39.3644H74.4762ZM74.2923 52.354C75.028 52.354 75.666 52.2792 76.212 52.1237C76.758 51.9682 77.2064 51.7034 77.5685 51.3176C77.9306 50.9318 78.1949 50.4194 78.3731 49.7745C78.5513 49.1296 78.6375 48.3235 78.6375 47.3562C78.6375 46.3256 78.5456 45.4849 78.3616 44.8343C78.1777 44.1837 77.9076 43.6655 77.5455 43.2912C77.1834 42.917 76.735 42.6579 76.189 42.5197C75.643 42.3815 75.0107 42.3124 74.2923 42.3124H72.499V52.354H74.2923Z" fill="white"/>
<path d="M94.7312 51.3867H88.2478L86.8684 55.3481H83.2358L89.1904 39.3644H93.8806L99.7892 55.3481H96.0877L94.7312 51.3867ZM93.7196 48.4848L91.6505 42.4275H91.3746L89.2594 48.4848H93.7196Z" fill="white"/>
<path d="M108.089 55.5787C106.939 55.5787 105.91 55.4578 105.008 55.2102C104.106 54.9626 103.347 54.5308 102.732 53.909C102.117 53.2871 101.651 52.4465 101.329 51.387C101.008 50.3276 100.847 48.986 100.847 47.3566C100.847 45.7271 101.008 44.3855 101.329 43.3261C101.651 42.2667 102.117 41.426 102.732 40.8042C103.347 40.1823 104.106 39.7505 105.008 39.5029C105.91 39.2553 106.939 39.1344 108.089 39.1344C109.238 39.1344 110.29 39.2553 111.193 39.5029C112.095 39.7505 112.854 40.1823 113.469 40.8042C114.084 41.426 114.543 42.2667 114.86 43.3261C115.176 44.3855 115.331 45.7271 115.331 47.3566C115.331 48.986 115.176 50.3276 114.86 51.387C114.543 52.4465 114.084 53.2871 113.469 53.909C112.854 54.5308 112.095 54.9626 111.193 55.2102C110.29 55.4578 109.256 55.5787 108.089 55.5787ZM108.089 52.6537C108.824 52.6537 109.428 52.5616 109.894 52.3774C110.359 52.1931 110.727 51.8937 110.986 51.4792C111.244 51.0646 111.428 50.5176 111.526 49.8439C111.624 49.1703 111.675 48.3411 111.675 47.3566C111.675 46.372 111.624 45.5659 111.526 44.8807C111.428 44.1955 111.244 43.6428 110.986 43.2109C110.727 42.7791 110.359 42.4682 109.894 42.2782C109.428 42.0882 108.824 41.9903 108.089 41.9903C107.353 41.9903 106.755 42.0882 106.295 42.2782C105.836 42.4682 105.474 42.7791 105.215 43.2109C104.956 43.6428 104.772 44.1955 104.675 44.8807C104.577 45.5659 104.525 46.3892 104.525 47.3566C104.525 48.3239 104.577 49.1703 104.675 49.8439C104.772 50.5176 104.956 51.0646 105.215 51.4792C105.474 51.8937 105.836 52.1931 106.295 52.3774C106.755 52.5616 107.353 52.6537 108.089 52.6537Z" fill="white"/>
<defs>
<linearGradient id="paint0_linear_2555_2455" x1="56.3184" y1="33.0063" x2="27.1748" y2="66.3063" gradientUnits="userSpaceOnUse">
<stop offset="0.02" stop-color="#02FFA4"/>
<stop offset="1" stop-color="#053F0D"/>
</linearGradient>
<linearGradient id="paint1_linear_2555_2455" x1="17.1603" y1="54.28" x2="10.9582" y2="-14.4141" gradientUnits="userSpaceOnUse">
<stop offset="0.02" stop-color="#02FFA4"/>
<stop offset="0.81" stop-color="#053F0D"/>
</linearGradient>
<linearGradient id="paint2_linear_2555_2455" x1="22.1085" y1="19.0367" x2="52.4445" y2="19.0349" gradientUnits="userSpaceOnUse">
<stop stop-color="#02FFA4"/>
<stop offset="1" stop-color="#053F0D"/>
</linearGradient>
</defs>
</svg>
