<svg width="694" height="260" viewBox="0 0 694 260" fill="none" xmlns="http://www.w3.org/2000/svg">
<mask id="mask0_2586_4538" style="mask-type:alpha" maskUnits="userSpaceOnUse" x="0" y="0" width="694" height="260">
<rect width="694" height="260" fill="#D9D9D9"/>
</mask>
<g mask="url(#mask0_2586_4538)">
<g clip-path="url(#clip0_2586_4538)">
<path d="M694 86.6001V64.1311L495.454 121.258L511.806 122.699L423.632 147.921L557.336 127.383L536.175 126.482L694 86.6001Z" fill="url(#paint0_linear_2586_4538)" stroke="#85A2DB" stroke-opacity="0.7" stroke-width="0.48715" stroke-miterlimit="10"/>
<path d="M41.5929 257.048L16.0002 241.574L97.1567 194.222L92.4705 205.68L155.319 166.62L80.1872 238.045L87.3499 223.881L41.5929 257.048Z" fill="url(#paint1_linear_2586_4538)" stroke="#85A2DB" stroke-opacity="0.7" stroke-width="0.752014" stroke-miterlimit="10"/>
<path d="M518.023 72.8393L545.904 48.7029L495.551 79.7055L508.659 77.6248L486.812 100.929L530.299 72.8393H518.023Z" fill="url(#paint2_linear_2586_4538)" stroke="#85A2DB" stroke-opacity="0.7" stroke-width="0.752014" stroke-miterlimit="10"/>
<path d="M75.4358 160.061L-9 164.321L-2.12716 133.516L108.706 144.055L88.5442 150.116L143.979 154.565L59.1845 169.304L75.4358 160.061Z" fill="url(#paint3_linear_2586_4538)" stroke="#85A2DB" stroke-opacity="0.7" stroke-width="0.752014" stroke-miterlimit="10"/>
<path d="M107.839 81.6983L47.8113 35.3713L-19 35.3713L119.812 116.181L116.198 104.117L190.642 147.821L99.8776 67.9236L107.839 81.6983Z" fill="url(#paint4_linear_2586_4538)" stroke="#85A2DB" stroke-opacity="0.7" stroke-width="0.752014" stroke-miterlimit="10"/>
<path d="M604.372 188.717L512.257 162.261L563.082 193.129L538.82 190.955L646.8 254.8L683.878 238.364L582.106 190.492L604.372 188.717Z" fill="url(#paint5_linear_2586_4538)" stroke="#85A2DB" stroke-opacity="0.7" stroke-width="0.752014" stroke-miterlimit="10"/>
</g>
<circle cx="306.706" cy="140.415" r="82.7311" fill="#87E7FF" stroke="#1B3992" stroke-width="0.752014" stroke-miterlimit="10"/>
<path d="M296.093 59.0464L296.365 54.0523L314.871 80.0013L313.51 80.5456L296.093 59.0464Z" fill="#266DF5" stroke="#1B3992" stroke-width="0.752014" stroke-miterlimit="10"/>
<path d="M290.649 81.0895V78.3681L275.954 79.7288L257.992 98.2345L240.303 109.937L222.342 136.062V157.834L231.322 180.149L239.759 183.959C244.113 180.784 251.026 175.142 243.841 177.972C234.86 181.51 231.322 171.713 228.329 163.004C225.335 154.296 226.152 142.866 229.69 140.416C233.227 137.967 237.582 140.416 240.303 142.866C243.297 128.714 249.012 119.734 259.081 105.31C267.136 93.7713 283.483 84.3552 290.649 81.0895Z" fill="#266DF5" stroke="#1B3992" stroke-width="0.752014" stroke-miterlimit="10"/>
<path d="M249.012 166.27L245.475 167.359L249.012 171.713C249.647 176.884 250.972 188.749 251.19 194.845C251.407 200.941 256.179 207.726 258.537 210.357C258.991 210.266 260.17 209.922 261.259 209.269C256.687 196.859 256.995 178.335 257.721 170.624L249.012 166.27Z" fill="#266DF5" stroke="#1B3992" stroke-width="0.752014" stroke-miterlimit="10"/>
<path d="M318.408 109.12L319.224 105.038L352.154 124.632L372.836 160.555L364.128 195.661L326.844 217.16L301.263 208.996L284.935 179.877C286.023 181.419 290.813 186.735 301.263 195.661C314.326 206.819 329.566 207.635 346.166 198.11C362.767 188.585 365.798 174.745 362.917 159.284C359.433 144.262 341.268 137.876 333.376 137.423L318.408 109.12Z" fill="#266DF5" stroke="#1B3992" stroke-width="0.752014" stroke-miterlimit="10"/>
<path d="M375.558 123L376.646 121.367L375.558 114.835L353.514 81.0898L325.484 84.3555L299.086 87.8934V91.4312C300.628 93.4269 304.311 98.0715 306.706 100.684C315.142 95.7855 343.173 89.5262 348.071 88.7098C355.038 93.2818 369.299 113.475 375.558 123Z" fill="#266DF5" stroke="#1B3992" stroke-width="0.752014" stroke-miterlimit="10"/>
<path d="M386.444 118.645L388.893 119.189L378.28 133.613L373.381 132.524L373.926 129.531L386.444 118.645Z" fill="#266DF5" stroke="#1B3992" stroke-width="0.752014" stroke-miterlimit="10"/>
<path d="M320.857 141.233L323.034 137.423H304.801L287.656 148.853L284.39 177.428C290.105 190.4 300.501 210.14 296.364 185.32C292.228 160.501 310.969 145.588 320.857 141.233Z" fill="#266DF5" stroke="#1B3992" stroke-width="0.752014" stroke-miterlimit="10"/>
<path d="M358.684 71.2924C340.178 54.3107 309.245 52.2425 296.091 53.331L315.141 80.0007L299.629 87.8928C301.353 90.1607 305.181 95.2407 306.705 97.4178C321.128 90.8864 340.723 87.3485 349.159 86.26C361.786 98.234 372.745 114.835 376.645 121.638L386.987 111.841C385.263 105.401 377.19 88.2741 358.684 71.2924Z" fill="#4585FF" stroke="#1B3992" stroke-width="0.752014" stroke-linejoin="bevel"/>
<path d="M242.208 154.024C250.698 115.271 269.875 98.3254 278.402 94.6969L293.37 111.842C295.275 111.207 300.337 109.229 305.344 106.399C314.706 114.237 321.038 130.347 323.034 137.423C315.142 139.872 289.826 156.655 295.275 180.966C301.807 210.106 324.394 207.908 328.204 207.636C332.014 207.364 364.671 200.288 366.848 171.985C369.026 143.682 344.261 132.797 335.008 134.43C334.191 131.164 320.857 107.215 319.224 105.038C321.129 103.678 340.995 96.6019 347.526 94.4247C356.67 102.262 369.842 122.546 375.285 131.708L388.892 119.19C395.968 135.246 392.158 175.251 365.488 201.104C321.277 243.962 269.966 217.433 264.795 215.256C259.625 196.75 261.53 170.624 261.53 169.264C256.903 168.447 246.834 159.467 242.208 154.024Z" fill="#4585FF" stroke="#1B3992" stroke-width="0.752014" stroke-linejoin="bevel"/>
<path d="M290.921 78.3674L275.137 58.5011C259.353 62.6739 226.26 81.9597 220.164 125.72C212.544 180.421 251.732 206.002 258.808 210.356C254.454 203.607 254.091 181.781 254.454 171.712L245.473 167.358C245.836 170.079 246.072 175.957 244.113 177.699C241.663 179.876 232.955 188.313 225.879 160.826C218.804 133.34 236.765 136.878 239.214 139.327C240.303 129.802 248.195 115.923 258.536 102.044C266.809 90.9404 283.573 81.6331 290.921 78.3674Z" fill="#4585FF" stroke="#1B3992" stroke-width="0.752014" stroke-linejoin="bevel"/>
<path d="M281.668 66.6641C269.15 71.5627 241.174 89.143 229.417 120.276C226.369 120.276 222.704 119.732 221.253 119.46" stroke="#1B3992" stroke-width="0.752014" stroke-linejoin="bevel"/>
<path d="M305.072 65.8486C314.96 64.76 338.165 64.9777 351.881 74.5571C354.058 73.2507 356.598 71.2912 357.596 70.4748" stroke="#1B3992" stroke-width="0.752014" stroke-linejoin="bevel"/>
<path d="M333.647 99.3217C337.185 104.492 344.37 115.432 344.805 117.827C346.329 116.956 355.963 111.84 360.59 109.391" stroke="#1B3992" stroke-width="0.752014" stroke-linejoin="bevel"/>
<path d="M363.583 152.934C365.76 152.299 371.04 150.159 374.741 146.675C376.646 150.757 388.076 183.414 356.235 202.464C357.324 204.859 357.777 207.272 357.868 208.179" stroke="#1B3992" stroke-width="0.752014" stroke-linejoin="bevel"/>
<path d="M262.618 204.914C269.331 208.542 287.22 214.438 305.072 208.996C307.467 213.568 311.15 221.968 312.692 225.596" stroke="#1B3992" stroke-width="0.752014" stroke-linejoin="bevel"/>
<path d="M316.502 121.094C301.172 127.535 272.361 149.941 279.763 188.041C270.837 188.041 263.707 187.315 261.257 186.952" stroke="#1B3992" stroke-width="0.752014" stroke-linejoin="bevel"/>
<path d="M253.91 121.366C261.348 128.623 278.62 143.573 288.2 145.315" stroke="#1B3992" stroke-width="0.752014" stroke-linejoin="bevel"/>
<ellipse cx="253.351" cy="87.5373" rx="14.7542" ry="7.07569" transform="rotate(-41.1118 253.351 87.5373)" fill="#266DF5" stroke="#1B3992" stroke-width="0.752014" stroke-miterlimit="10"/>
<ellipse cx="254.291" cy="88.6145" rx="14.7542" ry="5.6448" transform="rotate(-41.1118 254.291 88.6145)" fill="#87E7FF" stroke="#1B3992" stroke-width="0.752014" stroke-miterlimit="10"/>
<path d="M453.007 55.8891C446.231 48.4582 395.533 71.5591 370.382 83.4496L375.428 89.8644C377.406 88.8736 403.833 74.5713 406.377 78.8204C408.92 83.0694 369.073 120.012 316.929 148.892C264.785 177.772 202.903 198.15 201.631 194.753C200.367 191.375 217.603 180.75 226.829 175.062L226.992 174.962L224.067 167.831C216.202 173.354 155.85 210.896 161.785 221.509C167.72 232.123 248.674 196.879 320.32 155.687C391.965 114.495 459.784 63.32 453.007 55.8891Z" fill="#06F1C8" stroke="#1B3992" stroke-width="0.752014" stroke-miterlimit="10"/>
<path d="M226.994 174.962L224.07 167.831C217.421 172.501 173.259 200.053 163.349 214.874C162.36 216.353 159.567 216.996 159.332 218.186C159.969 219.509 161.02 220.721 161.788 221.51C167.723 232.123 248.677 196.879 320.323 155.687C391.968 114.495 459.787 63.3204 453.01 55.8895C452.66 55.5053 451.33 54.0102 450.888 53.5173C450.167 53.2334 450.006 54.5271 448.966 54.4697C434.773 53.6867 392.607 72.9441 370.385 83.45L375.431 89.8648C377.409 88.8739 403.836 74.5717 406.38 78.8207C408.923 83.0698 369.076 120.013 316.932 148.893C264.788 177.772 202.906 198.15 201.634 194.753C200.37 191.376 217.606 180.75 226.832 175.063L226.994 174.962Z" fill="#87E7FF" stroke="#1B3992" stroke-width="0.752014" stroke-miterlimit="10"/>
<path d="M450.653 53.0177C443.876 45.5868 393.178 68.6877 368.027 80.5782L373.073 86.993C375.051 86.0021 401.479 71.6999 404.022 75.9489C406.565 80.198 366.718 117.141 314.574 146.021C262.43 174.901 200.548 195.279 199.276 191.881C198.004 188.484 216.23 177.074 225.415 171.412L222.614 164.264C214.749 169.788 153.495 208.024 159.43 218.638C165.365 229.251 246.319 194.007 317.965 152.815C389.611 111.623 457.429 60.4486 450.653 53.0177Z" fill="#06F1C8" stroke="#1B3992" stroke-width="0.752014" stroke-miterlimit="10"/>
<g clip-path="url(#clip1_2586_4538)">
<path d="M442.323 154.429C431.082 145.614 427.198 131.785 433.64 123.57C433.744 123.438 433.847 123.306 433.951 123.175C432.419 124.812 431.436 126.381 430.109 128.073C423.667 136.288 427.551 150.117 438.792 158.932C450.033 167.747 464.389 168.221 470.831 160.006C472.295 158.139 473.611 156.866 475.189 154.449C475.472 153.997 475.717 153.551 475.896 153.052C475.48 153.897 474.982 154.713 474.379 155.481C467.942 163.736 453.586 163.261 442.323 154.429Z" fill="#4585FF" stroke="#1B3992" stroke-width="0.752014" stroke-miterlimit="10"/>
<path d="M433.95 123.174C433.847 123.306 433.744 123.438 433.64 123.57C427.198 131.785 431.082 145.614 442.323 154.429C453.564 163.244 467.92 163.718 474.362 155.503C474.965 154.735 475.463 153.919 475.878 153.074C480.007 144.747 475.871 132.636 465.658 124.627C454.614 115.966 440.539 115.358 433.95 123.174Z" fill="#87E7FF" stroke="#1B3992" stroke-width="0.752014" stroke-miterlimit="10"/>
<path d="M470.982 151.256C476.109 144.718 473.011 133.727 464.061 126.709C455.111 119.69 443.698 119.301 438.571 125.84C433.443 132.379 436.542 143.369 445.492 150.387C454.442 157.406 465.854 157.795 470.982 151.256Z" fill="white" stroke="#124AB7" stroke-width="0.752014"/>
<path d="M426.985 137.755L430.642 133.615" stroke="#1B3992" stroke-width="0.752014"/>
<path d="M428.523 146.062L432.544 141.66" stroke="#1B3992" stroke-width="0.752014"/>
<path d="M433.52 154.217L437.541 149.815" stroke="#1B3992" stroke-width="0.752014"/>
<path d="M441.904 161.278L444.871 156.107" stroke="#1B3992" stroke-width="0.752014"/>
<path d="M451.73 165.206L453.293 160.448" stroke="#1B3992" stroke-width="0.752014"/>
<path d="M460.522 165.614L461.228 161.299" stroke="#1B3992" stroke-width="0.752014"/>
<path d="M467.156 163.082L467.486 160.235" stroke="#1B3992" stroke-width="0.752014"/>
</g>
<path d="M431.439 177.403L453.156 180.601L451.747 183.728L431.439 177.403Z" fill="#4585FF" stroke="#1B3992" stroke-width="0.752014" stroke-linejoin="bevel"/>
<path d="M454.956 179.752C455.406 179.8 460.534 179.648 462.847 179.842L458.495 189.421C456.976 188.584 453.696 186.735 452.728 186.041C451.518 185.172 451.201 183.178 451.87 181.754C452.538 180.33 454.393 179.691 454.956 179.752Z" fill="white" stroke="#1B3992" stroke-width="0.752014" stroke-linejoin="bevel"/>
<path d="M568.823 174.609L568.058 170.868L538.042 186.18L538.347 187.211L568.823 174.609Z" fill="#4585FF" stroke="#1B3992" stroke-width="0.752014" stroke-linejoin="bevel"/>
<path d="M548.2 161.479L511.647 179.812L537.785 186.311L569.564 170.842L548.2 161.479Z" fill="#87E7FF" stroke="#1B3992" stroke-width="0.752014" stroke-miterlimit="10"/>
<ellipse cx="1.4995" cy="1.25152" rx="1.4995" ry="1.25152" transform="matrix(0.874032 0.485869 -0.485868 0.874032 527.088 179.794)" fill="white" stroke="#1B3992" stroke-width="0.752014"/>
<path d="M464.83 179.192C466.44 179.037 471.525 179.929 473.867 180.394L468.183 196.633C465.967 195.463 461.232 192.865 460.019 191.834C458.503 190.546 457.457 186.781 458.793 183.848C460.13 180.916 462.817 179.387 464.83 179.192Z" fill="#06F1C8" stroke="#1B3992" stroke-width="0.752014" stroke-linejoin="bevel"/>
<path d="M471.391 201.934C473.072 203.544 502.227 219.666 516.594 227.526L545.496 218.982L534.906 183.158C518.099 181.477 483.595 178.153 480.026 178.305C475.566 178.494 470.142 181.791 468.062 187.487C465.982 193.183 469.291 199.92 471.391 201.934Z" fill="#4585FF" stroke="#1B3992" stroke-width="0.752014" stroke-linejoin="bevel"/>
<g style="mix-blend-mode:darken" opacity="0.2">
<path d="M451.668 184.554L514.558 220.763L511.137 208.834L451.668 184.554Z" fill="#002771"/>
</g>
<g style="mix-blend-mode:lighten" opacity="0.6">
<path d="M452.023 183.286L508.256 198.283C508.515 197.656 509.312 196.1 510.42 194.894C511.528 193.687 514.486 191.922 515.826 191.19C494.684 187.762 452.991 181.013 452.865 181.113C452.739 181.212 452.257 182.763 452.023 183.286Z" fill="#CBDDFF"/>
</g>
<path d="M508.635 200.175C507.809 197.38 509.323 194.212 512.016 193.098L534.22 183.915C536.774 182.859 543.955 186.096 545.393 188.817C545.541 189.098 545.592 189.414 545.626 189.729L547.985 211.667C548.019 211.983 548.088 212.293 548.151 212.604C548.656 215.096 547.394 217.774 545.16 218.978C544.833 219.154 544.502 219.324 544.197 219.534L529.991 229.311C529.686 229.521 529.363 229.71 528.999 229.783C525.728 230.443 516.858 227.991 516.08 225.357L508.635 200.175Z" fill="#87E7FF" stroke="#1B3992" stroke-width="0.752014" stroke-miterlimit="10"/>
<path d="M516.66 202.877C515.834 200.083 517.347 196.915 520.04 195.801L540.716 187.25C543.409 186.136 546.261 187.499 547.087 190.294L554.032 213.787C554.859 216.582 553.345 219.75 550.652 220.864L529.976 229.415C527.283 230.528 524.431 229.166 523.605 226.371L516.66 202.877Z" fill="#06F1C8" stroke="#1B3992" stroke-width="0.752014" stroke-miterlimit="10"/>
<g style="mix-blend-mode:lighten" opacity="0.6">
<path d="M528.493 229.6L534.573 190.237C536.444 189.521 541.51 187.003 543.229 187.224C544.947 187.446 546.962 189.294 546.962 191.425L542.165 223.899L528.493 229.6Z" fill="#F8FFFE"/>
</g>
<path d="M525.871 207.677C525.045 204.882 526.558 201.714 529.251 200.6L537.348 197.252C540.041 196.138 542.893 197.501 543.719 200.295L546.62 210.108C547.446 212.902 545.933 216.07 543.24 217.184L535.143 220.533C532.45 221.646 529.597 220.284 528.771 217.489L525.871 207.677Z" fill="white" stroke="#1B3992" stroke-width="0.752014" stroke-linejoin="bevel"/>
<path d="M525.684 207.045C524.973 204.642 527.448 201.495 528.663 200.959L535.737 198.05C538.09 197.082 540.571 198.238 541.279 200.632L543.763 209.038C544.471 211.431 543.137 214.156 540.785 215.124L533.71 218.033C531.357 219.001 528.876 217.845 528.169 215.451L525.684 207.045Z" fill="#4585FF" stroke="#1B3992" stroke-width="0.752014" stroke-linejoin="bevel"/>
<path d="M525.47 206.323C524.852 204.232 527.006 201.494 528.062 201.027L534.219 198.495C536.266 197.653 538.425 198.659 539.041 200.742L541.203 208.057C541.819 210.14 540.658 212.511 538.611 213.353L532.455 215.885C530.407 216.727 528.248 215.721 527.633 213.638L525.47 206.323Z" fill="#4585FF" stroke="#1B3992" stroke-width="0.752014" stroke-linejoin="bevel"/>
<path d="M485.628 190.183L484.395 186.011L500.976 190.649L501.991 194.085L485.628 190.183Z" fill="#4585FF" stroke="#1B3992" stroke-width="0.752014" stroke-linejoin="bevel"/>
<path d="M517.788 179.264L501.033 190.827L502.019 194.162L518.891 182.996L517.788 179.264Z" fill="#4585FF" stroke="#1B3992" stroke-width="0.752014" stroke-linejoin="bevel"/>
<path d="M501.116 190.815L484.27 186.109L497.082 177.17L517.554 179.155L501.116 190.815Z" fill="#87E7FF" stroke="#1B3992" stroke-width="0.752014" stroke-miterlimit="10"/>
<path d="M497.978 193.125L495.416 193.882L496.232 196.644" stroke="#1B3992" stroke-width="0.752014" stroke-linejoin="bevel"/>
<path d="M495.167 192.453L492.605 193.21L493.422 195.973" stroke="#1B3992" stroke-width="0.752014" stroke-linejoin="bevel"/>
<path d="M491.163 191.446L488.601 192.203L489.418 194.965" stroke="#1B3992" stroke-width="0.752014" stroke-linejoin="bevel"/>
<path d="M487.844 190.685L485.282 191.443L486.099 194.205" stroke="#1B3992" stroke-width="0.752014" stroke-linejoin="bevel"/>
<ellipse cx="3.58038" cy="3.94228" rx="3.58038" ry="3.94228" transform="matrix(0.868797 -0.495169 0.495165 0.868799 483.789 199.956)" fill="#4585FF" stroke="#1B3992" stroke-width="0.752014" stroke-linejoin="bevel"/>
<ellipse cx="3.58038" cy="3.94228" rx="3.58038" ry="3.94228" transform="matrix(0.868797 -0.495168 0.495166 0.868798 481.606 201.171)" fill="#87E7FF" stroke="#1B3992" stroke-width="0.752014" stroke-linejoin="bevel"/>
<rect width="7.75832" height="3.01573" rx="1.50786" transform="matrix(0.867565 -0.497324 0.497328 0.867562 480.321 204.48)" fill="#87E7FF" stroke="#1B3992" stroke-width="0.752014" stroke-linejoin="bevel"/>
<ellipse cx="3.58038" cy="3.94228" rx="3.58038" ry="3.94228" transform="matrix(0.868799 -0.495165 0.495169 0.868796 476.054 204.52)" fill="#4585FF" stroke="#1B3992" stroke-width="0.752014" stroke-linejoin="bevel"/>
<ellipse cx="3.58038" cy="3.94228" rx="3.58038" ry="3.94228" transform="matrix(0.868797 -0.495169 0.495165 0.868799 474.312 205.735)" fill="#87E7FF" stroke="#1B3992" stroke-width="0.752014" stroke-linejoin="bevel"/>
<rect width="7.75832" height="3.01573" rx="1.50786" transform="matrix(0.867562 -0.49733 0.497323 0.867566 472.36 209.46)" fill="#87E7FF" stroke="#1B3992" stroke-width="0.752014" stroke-linejoin="bevel"/>
<path d="M484.73 219.208L484.028 216.832L437.498 243.864L438.883 248.55L484.73 219.208Z" fill="#4585FF" stroke="#1B3992" stroke-width="0.752014" stroke-linejoin="bevel"/>
<path d="M411.248 229.84L409.859 225.142L437.4 243.897L438.76 248.499L411.248 229.84Z" fill="#4585FF" stroke="#1B3992" stroke-width="0.752014" stroke-linejoin="bevel"/>
<path d="M437.383 243.755L410.234 225.812C409.513 225.335 409.639 224.241 410.45 223.942L464.29 204.023C465.609 203.535 467.085 203.736 468.225 204.559L483.086 215.287C484.336 216.189 484.228 218.083 482.885 218.838L438.482 243.795C438.137 243.988 437.713 243.973 437.383 243.755Z" fill="#87E7FF" stroke="#1B3992" stroke-width="0.752014" stroke-miterlimit="10"/>
<ellipse cx="1.4995" cy="1.25152" rx="1.4995" ry="1.25152" transform="matrix(0.874031 0.48587 -0.485866 0.874033 418.269 223.082)" fill="white" stroke="#1B3992" stroke-width="0.752014"/>
<ellipse cx="1.4995" cy="1.25152" rx="1.4995" ry="1.25152" transform="matrix(0.874031 0.48587 -0.485866 0.874033 470.956 209.888)" fill="white" stroke="#1B3992" stroke-width="0.752014"/>
<ellipse cx="1.4995" cy="1.25152" rx="1.4995" ry="1.25152" transform="matrix(0.874032 0.485869 -0.485868 0.874032 546.963 164.158)" fill="white" stroke="#1B3992" stroke-width="0.752014"/>
<ellipse cx="1.4995" cy="1.25152" rx="1.4995" ry="1.25152" transform="matrix(0.874032 0.485868 -0.485869 0.874032 436.139 236.82)" fill="white" stroke="#1B3992" stroke-width="0.752014"/>
<path d="M79.435 66.7367C83.1381 72.9856 104.894 87.8564 115.309 94.5106C129.851 104.286 162.468 119.392 171.437 119.97C180.405 120.549 203.84 117.077 210.783 97.6932C217.726 78.3093 201.814 69.0513 198.921 66.7367C196.028 64.4221 143.952 28.5476 122.254 21.0252C97.3727 15.239 82.6175 27.9693 77.4099 36.938C72.2023 45.9067 74.8061 58.9257 79.435 66.7367Z" fill="#87E7FF" stroke="#1B3992" stroke-width="0.752014" stroke-miterlimit="10"/>
<mask id="mask1_2586_4538" style="mask-type:alpha" maskUnits="userSpaceOnUse" x="74" y="19" width="139" height="102">
<path d="M79.435 66.7367C83.1381 72.9856 104.894 87.8564 115.309 94.5106C129.851 104.286 162.468 119.392 171.437 119.97C180.405 120.549 203.84 117.077 210.783 97.6932C217.726 78.3093 201.814 69.0513 198.921 66.7367C196.028 64.4221 143.952 28.5476 122.254 21.0252C97.3727 15.239 82.6175 27.9693 77.4099 36.938C72.2023 45.9067 74.8061 58.9257 79.435 66.7367Z" fill="#4585FF"/>
</mask>
<g mask="url(#mask1_2586_4538)">
<path d="M70.7737 50.4906C71.5918 53.9505 66.8247 60.4505 66.7598 62.633L72.4258 73.6805L157.9 128.835L195.734 120.579L212.283 104.827C183.684 85.7653 122.949 46.4734 108.806 41.798C91.1276 35.9537 68.4627 40.7171 70.7737 50.4906Z" fill="#4585FF" stroke="#1B3992" stroke-width="0.752014" stroke-linejoin="bevel"/>
<path d="M79.3389 53.9595C74.4963 58.0457 77.3211 68.2724 79.3389 72.8749L91.2561 84.6027L143.842 117.327L170.703 125.272L189.997 119.219C194.159 117.832 199.077 111.993 185.457 99.7354C168.433 84.4136 117.36 56.6071 107.524 52.2565C97.6875 47.9058 85.3922 48.8516 79.3389 53.9595Z" fill="#266DF5" stroke="#1B3992" stroke-width="0.752014" stroke-miterlimit="10"/>
<g style="mix-blend-mode:darken" opacity="0.8">
<path d="M86.1114 65.5229C82.6838 69.8395 85.9526 77.4768 88.0155 80.7558L129.432 125.981L174.339 128.679L199.094 117.571L197.19 104.876C194.704 101.068 189.446 94.4983 188.303 98.6875C186.875 103.924 180.528 103.765 174.339 103.765C168.151 103.765 135.938 79.4864 118.8 69.648C101.662 59.8097 90.3959 60.1271 86.1114 65.5229Z" fill="#0051ED"/>
</g>
<g style="mix-blend-mode:lighten" opacity="0.6">
<path d="M106.9 73.4577C88.7462 63.9367 88.8628 73.934 91.1903 80.1228L141.968 117.889L176.244 125.506C180.793 124.237 188.875 121.476 184.813 120.587C179.735 119.476 129.591 85.3589 106.9 73.4577Z" fill="#CBDDFF"/>
</g>
<path d="M189.794 97.1765C188.731 108.19 173.777 118.692 156.326 117.843" stroke="#1B3992" stroke-width="0.752014" stroke-linejoin="bevel"/>
<path d="M119.534 58.4944C114.887 64.5951 102.384 76.7457 89.5547 76.5424" stroke="#1B3992" stroke-width="0.752014" stroke-linejoin="bevel"/>
<path d="M147.542 73.9952C142.216 80.9464 128.828 95.1083 117.885 96.1462" stroke="#1B3992" stroke-width="0.752014" stroke-linejoin="bevel"/>
<path d="M172.363 89.6618C168.59 96.5009 158.308 110.203 147.365 110.297" stroke="#1B3992" stroke-width="0.752014" stroke-linejoin="bevel"/>
<path d="M77.5977 36.985C82.3303 33.523 99.1087 30.1742 128.361 44.4758C157.614 58.7774 195.985 85.0714 211.515 96.4307" stroke="#1B3992" stroke-width="0.752014" stroke-linejoin="bevel"/>
<path d="M102.133 20.2001C104.659 20.0053 110.113 20.6261 111.719 24.6677C113.726 29.7197 119.397 45.328 105.944 51.4777" stroke="#1B3992" stroke-width="0.752014" stroke-linejoin="bevel"/>
<path d="M79.435 66.7367C83.1381 72.9856 104.894 87.8564 115.309 94.5106C129.851 104.286 162.468 119.392 171.437 119.97C180.405 120.549 203.84 117.077 210.783 97.6932C217.726 78.3093 201.814 69.0513 198.921 66.7367C196.028 64.4221 143.952 28.5476 122.254 21.0252C97.3727 15.239 82.6175 27.9693 77.4099 36.938C72.2023 45.9067 74.8061 58.9257 79.435 66.7367Z" stroke="#1B3992" stroke-width="0.752014" stroke-linejoin="bevel"/>
</g>
<path d="M131.331 89.2749C123.821 87.3972 117.744 90.5517 115.644 92.3637C113.421 94.5873 112.185 100.392 114.779 105.58C117.373 110.768 147.018 124.602 148.253 124.85C149.489 125.097 160.606 120.403 162.088 118.673C163.57 116.944 161.594 108.421 160.606 106.445C159.617 104.469 140.719 91.6221 131.331 89.2749Z" fill="#4585FF" stroke="#1B3992" stroke-width="0.752014" stroke-linejoin="bevel"/>
<mask id="mask2_2586_4538" style="mask-type:alpha" maskUnits="userSpaceOnUse" x="113" y="88" width="50" height="37">
<path d="M131.33 89.2749C123.82 87.3972 117.743 90.5517 115.643 92.3637C113.42 94.5873 112.184 100.392 114.778 105.58C117.372 110.768 147.017 124.602 148.252 124.85C149.488 125.097 160.605 120.403 162.087 118.673C163.569 116.944 161.593 108.421 160.605 106.445C159.616 104.469 140.718 91.6221 131.33 89.2749Z" fill="#D9D9D9"/>
</mask>
<g mask="url(#mask2_2586_4538)">
<path d="M124.361 98.1985C118.088 98.8804 114.842 101.877 113.831 103.842C113.944 104.164 114.32 105.035 114.926 105.948C117.622 103.168 119.559 100.725 128.405 100.725C135.481 100.725 153.762 112.856 162.018 118.922C162.271 118.529 162.776 117.422 162.776 116.142C160.165 113.699 152.667 109.571 145.843 105.359C139.02 101.147 131.712 97.3995 124.361 98.1985Z" fill="#87E7FF" stroke="#1B3992" stroke-width="0.752014" stroke-miterlimit="10"/>
<path d="M161.992 118.904C161.593 119.132 158.113 121.94 148.5 124.864C141.657 122.826 120.289 111.839 114.926 105.949C117.622 103.169 119.56 100.726 128.405 100.726C135.474 100.726 153.724 112.832 161.992 118.904C162.035 118.879 162.043 118.884 162.018 118.922C162.01 118.916 162.001 118.91 161.992 118.904Z" fill="#266DF5"/>
<path d="M121.62 111.324C122.531 110.919 124.86 110.352 126.885 111.324C129.416 112.539 137.718 116.487 138.831 117.398C139.722 118.127 140.282 120.267 140.451 121.246" stroke="#1B3992" stroke-width="0.752014" stroke-linejoin="bevel"/>
<path d="M137.287 98.1362C136.89 97.5764 137.219 93.4307 137.433 91.4277L140.903 93.2073C140.923 95.239 140.822 99.3316 140.262 99.4483C139.562 99.5941 137.783 98.8358 137.287 98.1362Z" fill="#06F1C8" stroke="#1B3992" stroke-width="0.752014" stroke-miterlimit="10"/>
<path d="M144.728 102.33C144.331 101.771 144.66 97.6248 144.874 95.6219L148.344 97.4015C148.364 99.4332 148.263 103.526 147.703 103.642C147.003 103.788 145.224 103.03 144.728 102.33Z" fill="#06F1C8" stroke="#1B3992" stroke-width="0.752014" stroke-miterlimit="10"/>
<path d="M152.877 107.303C152.481 106.743 152.81 102.597 153.023 100.595L156.494 102.374C156.513 104.406 156.412 108.498 155.852 108.615C155.152 108.761 153.373 108.003 152.877 107.303Z" fill="#06F1C8" stroke="#1B3992" stroke-width="0.752014" stroke-miterlimit="10"/>
<path d="M127.9 88.7411V98.3455" stroke="#1B3992" stroke-width="0.752014" stroke-linejoin="bevel"/>
</g>
<path d="M144.826 47.1248C146.395 41.7172 146.231 35.3553 145.952 32.8502C151.12 34.8753 181.635 54.8973 196.246 64.6552C196.756 67.4619 197.602 74.6499 196.902 80.9485C196.027 88.8218 188.154 84.6665 186.623 83.901C185.092 83.1356 149.332 58.391 147.515 57.7368C145.698 57.0826 142.863 53.8843 144.826 47.1248Z" fill="#4585FF" stroke="#1B3992" stroke-width="0.752014" stroke-linejoin="bevel"/>
<path d="M148.585 49.4924C149.423 47.893 149.315 38.7964 149.156 34.4481C150.984 34.4481 179.18 53.1735 193.049 62.5363C193.43 65.2974 194.135 72.0765 193.906 77.1037C193.621 83.3877 189.146 81.0074 187.527 79.9601C185.908 78.9128 154.012 57.6805 151.346 56.2523C148.68 54.8241 147.538 51.4917 148.585 49.4924Z" fill="#06F1C8" stroke="#1B3992" stroke-width="0.752014" stroke-miterlimit="10"/>
<ellipse cx="152.814" cy="52.5447" rx="1.4995" ry="1.25152" transform="rotate(29.0694 152.814 52.5447)" fill="white" stroke="#1B3992" stroke-width="0.752014"/>
<ellipse cx="1.4995" cy="1.25152" rx="1.4995" ry="1.25152" transform="matrix(0.874032 0.485869 -0.485868 0.874032 188.601 74.7034)" fill="white" stroke="#1B3992" stroke-width="0.752014"/>
<ellipse cx="1.4995" cy="1.25152" rx="1.4995" ry="1.25152" transform="matrix(0.874032 0.485869 -0.485868 0.874032 188.601 61.8384)" fill="white" stroke="#1B3992" stroke-width="0.752014"/>
<ellipse cx="1.4995" cy="1.25152" rx="1.4995" ry="1.25152" transform="matrix(0.874032 0.485869 -0.485868 0.874032 171.076 63.6629)" fill="white" stroke="#1B3992" stroke-width="0.752014"/>
<ellipse cx="1.4995" cy="1.25152" rx="1.4995" ry="1.25152" transform="matrix(0.874032 0.485869 -0.485868 0.874032 153.835 39.3928)" fill="white" stroke="#1B3992" stroke-width="0.752014"/>
<path d="M214.378 71.8076C212.501 71.9183 204.025 76.4545 200.022 78.7088C200.022 83.1255 207.89 85.7491 209.547 86.1632C211.203 86.5773 223.765 80.3655 223.765 78.7088C223.765 77.0521 216.725 71.6691 214.378 71.8076Z" fill="#4585FF" stroke="#1B3992" stroke-width="0.752014" stroke-linejoin="bevel"/>
<path d="M203.846 76.8908C206.092 79.4581 211.183 84.6503 213.57 84.8817" stroke="#1B3992" stroke-width="0.752014" stroke-linejoin="bevel"/>
<path d="M136.221 107.487V103.192C138.625 103.781 149.903 110.678 155.24 114.052L149.903 114.359L136.221 107.487Z" fill="#266DF5" stroke="#1B3992" stroke-width="0.752014" stroke-miterlimit="10"/>
<path d="M128.517 180C135.406 171.942 145.782 169.496 151.671 174.531C151.766 174.612 151.86 174.693 151.955 174.773C150.789 173.587 149.656 172.808 148.443 171.771C142.554 166.737 132.178 169.182 125.289 177.24C118.4 185.299 117.598 195.929 123.487 200.963C124.825 202.108 125.728 203.124 127.47 204.369C127.796 204.594 128.12 204.789 128.484 204.937C127.87 204.603 127.281 204.208 126.73 203.737C120.812 198.704 121.614 188.074 128.517 180Z" fill="#4585FF" stroke="#1B3992" stroke-width="0.752014" stroke-miterlimit="10"/>
<path d="M151.956 174.772C151.861 174.692 151.767 174.611 151.673 174.53C145.783 169.495 135.407 171.941 128.518 179.999C121.629 188.058 120.827 198.688 126.716 203.722C127.267 204.193 127.856 204.588 128.469 204.923C134.514 208.245 143.624 205.559 149.883 198.238C156.652 190.32 157.545 179.903 151.956 174.772Z" fill="#87E7FF" stroke="#1B3992" stroke-width="0.752014" stroke-miterlimit="10"/>
<path d="M129.97 201.35C134.658 205.357 142.904 203.404 148.389 196.988C153.874 190.572 154.521 182.122 149.834 178.115C145.147 174.108 136.9 176.061 131.415 182.477C125.93 188.893 125.283 197.342 129.97 201.35Z" fill="white" stroke="#124AB7" stroke-width="0.752014"/>
<path d="M141.362 169.15L144.317 171.992" stroke="#1B3992" stroke-width="0.752014"/>
<path d="M135.155 170.03L138.293 173.15" stroke="#1B3992" stroke-width="0.752014"/>
<path d="M128.952 173.479L132.089 176.599" stroke="#1B3992" stroke-width="0.752014"/>
<path d="M123.453 179.474L127.194 181.836" stroke="#1B3992" stroke-width="0.752014"/>
<path d="M120.231 186.637L123.71 187.945" stroke="#1B3992" stroke-width="0.752014"/>
<path d="M119.654 193.143L122.831 193.802" stroke="#1B3992" stroke-width="0.752014"/>
<path d="M121.322 198.141L123.423 198.476" stroke="#1B3992" stroke-width="0.752014"/>
<path d="M193.114 239.108L204.099 202.723L214.738 235.15L193.114 239.108Z" fill="#4585FF" stroke="#1B3992" stroke-width="0.752014" stroke-miterlimit="10"/>
<path d="M178.442 221.538L203.509 202.506L193.098 239.484L178.442 221.538Z" fill="#87E7FF" stroke="#1B3992" stroke-width="0.752014" stroke-miterlimit="10"/>
<path d="M192.24 243.976L175.756 227.022L186.895 258.601L192.24 243.976Z" fill="#87E7FF" stroke="#1B3992" stroke-width="0.752014" stroke-miterlimit="10"/>
<path d="M187.575 258.66L211.42 239.47L192.158 243.898L187.575 258.66Z" fill="#4585FF" stroke="#1B3992" stroke-width="0.752014" stroke-miterlimit="10"/>
<path d="M208.522 236.139L210.92 239.612L192.151 244.062L175.617 225.934L182.001 225.951L193.181 239.257L208.522 236.139Z" fill="#266DF5" stroke="#1B3992" stroke-width="0.752014" stroke-miterlimit="10"/>
<g filter="url(#filter0_d_2586_4538)">
<path d="M340.328 180.58L333.859 178.412C333.583 178.32 333.436 178.028 333.527 177.756L335.67 171.363C335.761 171.09 335.614 170.799 335.339 170.707L328.87 168.539C328.595 168.446 328.447 168.155 328.539 167.883L330.557 161.861C330.648 161.589 330.941 161.445 331.217 161.537L337.686 163.706C337.961 163.798 338.254 163.654 338.345 163.382L340.613 156.617C340.704 156.344 340.557 156.053 340.281 155.961L333.436 153.666C333.161 153.574 332.868 153.718 332.777 153.99L330.634 160.384C330.543 160.656 330.249 160.8 329.974 160.707L323.505 158.539C323.23 158.447 322.937 158.591 322.846 158.863L320.578 165.628C320.487 165.9 320.634 166.192 320.909 166.284L327.378 168.452C327.653 168.544 327.801 168.836 327.71 169.108L325.567 175.501C325.475 175.773 325.623 176.065 325.898 176.157L332.367 178.325C332.642 178.418 332.789 178.709 332.698 178.981L330.68 185.003C330.589 185.275 330.295 185.419 330.02 185.327L323.551 183.158C323.276 183.066 322.983 183.21 322.892 183.482L320.624 190.247C320.533 190.519 320.68 190.811 320.955 190.903L327.801 193.197C328.076 193.29 328.369 193.146 328.46 192.874L330.603 186.48C330.694 186.208 330.987 186.064 331.263 186.157L337.732 188.325C338.007 188.417 338.3 188.273 338.391 188.001L340.659 181.236C340.75 180.964 340.603 180.672 340.328 180.58Z" fill="white"/>
<path d="M340.328 180.58L333.859 178.412C333.583 178.32 333.436 178.028 333.527 177.756L335.67 171.363C335.761 171.09 335.614 170.799 335.339 170.707L328.87 168.539C328.595 168.446 328.447 168.155 328.539 167.883L330.557 161.861C330.648 161.589 330.941 161.445 331.217 161.537L337.686 163.706C337.961 163.798 338.254 163.654 338.345 163.382L340.613 156.617C340.704 156.344 340.557 156.053 340.281 155.961L333.436 153.666C333.161 153.574 332.868 153.718 332.777 153.99L330.634 160.384C330.543 160.656 330.249 160.8 329.974 160.707L323.505 158.539C323.23 158.447 322.937 158.591 322.846 158.863L320.578 165.628C320.487 165.9 320.634 166.192 320.909 166.284L327.378 168.452C327.653 168.544 327.801 168.836 327.71 169.108L325.567 175.501C325.475 175.773 325.623 176.065 325.898 176.157L332.367 178.325C332.642 178.418 332.789 178.709 332.698 178.981L330.68 185.003C330.589 185.275 330.295 185.419 330.02 185.327L323.551 183.158C323.276 183.066 322.983 183.21 322.892 183.482L320.624 190.247C320.533 190.519 320.68 190.811 320.955 190.903L327.801 193.197C328.076 193.29 328.369 193.146 328.46 192.874L330.603 186.48C330.694 186.208 330.987 186.064 331.263 186.157L337.732 188.325C338.007 188.417 338.3 188.273 338.391 188.001L340.659 181.236C340.75 180.964 340.603 180.672 340.328 180.58Z" stroke="#1B3992"/>
</g>
<path d="M462.461 135.521L459.158 138.473C459.017 138.599 458.806 138.588 458.681 138.449L455.764 135.184C455.64 135.045 455.428 135.035 455.287 135.16L451.984 138.113C451.843 138.238 451.632 138.228 451.507 138.089L448.759 135.014C448.635 134.875 448.648 134.663 448.789 134.537L452.092 131.585C452.233 131.46 452.246 131.248 452.122 131.109L449.034 127.654C448.91 127.516 448.698 127.505 448.558 127.63L445.062 130.754C444.922 130.88 444.909 131.092 445.033 131.23L447.951 134.495C448.075 134.634 448.062 134.846 447.921 134.972L444.618 137.924C444.477 138.049 444.464 138.261 444.588 138.4L447.676 141.855C447.8 141.993 448.012 142.004 448.152 141.878L451.455 138.926C451.596 138.801 451.808 138.811 451.932 138.95L454.85 142.215C454.974 142.354 455.186 142.365 455.326 142.239L458.63 139.287C458.77 139.161 458.982 139.172 459.106 139.311L461.854 142.386C461.978 142.525 461.965 142.736 461.825 142.862L458.521 145.814C458.381 145.94 458.368 146.151 458.492 146.29L461.579 149.745C461.703 149.884 461.915 149.895 462.056 149.769L465.551 146.645C465.692 146.52 465.705 146.308 465.581 146.169L462.663 142.904C462.539 142.765 462.552 142.554 462.692 142.428L465.996 139.476C466.136 139.35 466.149 139.139 466.025 139L462.938 135.545C462.814 135.406 462.602 135.395 462.461 135.521Z" fill="#4585FF"/>
<path d="M142.259 194.555L140.138 192.434C140.047 192.343 140.046 192.2 140.136 192.111L142.233 190.014C142.322 189.924 142.321 189.781 142.231 189.69L140.109 187.569C140.019 187.479 140.018 187.335 140.107 187.246L142.082 185.271C142.171 185.182 142.315 185.182 142.405 185.273L144.527 187.394C144.617 187.485 144.761 187.485 144.85 187.396L147.069 185.177C147.158 185.088 147.157 184.944 147.067 184.854L144.822 182.609C144.732 182.519 144.588 182.518 144.499 182.607L142.402 184.704C142.313 184.793 142.169 184.793 142.079 184.702L139.957 182.581C139.867 182.49 139.723 182.49 139.634 182.579L137.415 184.798C137.326 184.887 137.327 185.03 137.417 185.121L139.539 187.242C139.629 187.333 139.63 187.476 139.541 187.566L137.444 189.662C137.355 189.752 137.355 189.895 137.446 189.986L139.567 192.107C139.658 192.198 139.658 192.341 139.569 192.43L137.594 194.405C137.505 194.495 137.361 194.494 137.271 194.403L135.149 192.282C135.059 192.192 134.916 192.191 134.826 192.28L132.607 194.499C132.518 194.588 132.519 194.732 132.609 194.822L134.854 197.067C134.945 197.157 135.088 197.158 135.177 197.069L137.274 194.972C137.364 194.883 137.507 194.883 137.598 194.974L139.719 197.095C139.809 197.186 139.953 197.187 140.042 197.097L142.261 194.878C142.35 194.789 142.35 194.646 142.259 194.555Z" fill="#4585FF"/>
</g>
<defs>
<filter id="filter0_d_2586_4538" x="320.051" y="153.139" width="22.1353" height="40.5868" filterUnits="userSpaceOnUse" color-interpolation-filters="sRGB">
<feFlood flood-opacity="0" result="BackgroundImageFix"/>
<feColorMatrix in="SourceAlpha" type="matrix" values="0 0 0 0 0 0 0 0 0 0 0 0 0 0 0 0 0 0 127 0" result="hardAlpha"/>
<feOffset dx="1"/>
<feComposite in2="hardAlpha" operator="out"/>
<feColorMatrix type="matrix" values="0 0 0 0 0.0235294 0 0 0 0 0.945098 0 0 0 0 0.784314 0 0 0 1 0"/>
<feBlend mode="normal" in2="BackgroundImageFix" result="effect1_dropShadow_2586_4538"/>
<feBlend mode="normal" in="SourceGraphic" in2="effect1_dropShadow_2586_4538" result="shape"/>
</filter>
<linearGradient id="paint0_linear_2586_4538" x1="380.983" y1="161.243" x2="505.865" y2="221.378" gradientUnits="userSpaceOnUse">
<stop stop-color="#1B54C1" stop-opacity="0.5"/>
<stop offset="1" stop-color="#4585FF" stop-opacity="0"/>
</linearGradient>
<linearGradient id="paint1_linear_2586_4538" x1="99.7363" y1="373.204" x2="0.773151" y2="308.887" gradientUnits="userSpaceOnUse">
<stop stop-color="#1B54C1" stop-opacity="0.5"/>
<stop offset="1" stop-color="#4585FF" stop-opacity="0"/>
</linearGradient>
<linearGradient id="paint2_linear_2586_4538" x1="459.353" y1="115.426" x2="522.407" y2="113.701" gradientUnits="userSpaceOnUse">
<stop stop-color="#1B54C1" stop-opacity="0.5"/>
<stop offset="1" stop-color="#4585FF" stop-opacity="0"/>
</linearGradient>
<linearGradient id="paint3_linear_2586_4538" x1="255.517" y1="153.136" x2="42.9953" y2="143.994" gradientUnits="userSpaceOnUse">
<stop stop-color="#1B54C1" stop-opacity="0.5"/>
<stop offset="1" stop-color="#4585FF" stop-opacity="0"/>
</linearGradient>
<linearGradient id="paint4_linear_2586_4538" x1="177.874" y1="131.863" x2="111.797" y2="-7.83261" gradientUnits="userSpaceOnUse">
<stop stop-color="#1B54C1" stop-opacity="0.5"/>
<stop offset="1" stop-color="#4585FF" stop-opacity="0"/>
</linearGradient>
<linearGradient id="paint5_linear_2586_4538" x1="490.71" y1="141.447" x2="484.33" y2="199.69" gradientUnits="userSpaceOnUse">
<stop stop-color="#1B54C1" stop-opacity="0.5"/>
<stop offset="1" stop-color="#4585FF" stop-opacity="0"/>
</linearGradient>
<clipPath id="clip0_2586_4538">
<rect width="840" height="300.806" fill="white" transform="translate(1 3)"/>
</clipPath>
<clipPath id="clip1_2586_4538">
<rect width="43.8523" height="52.2496" fill="white" transform="translate(418.17 142.938) rotate(-51.8968)"/>
</clipPath>
</defs>
</svg>
