<svg width="160" height="145" viewBox="0 0 160 145" fill="none" xmlns="http://www.w3.org/2000/svg">
<circle cx="79.1613" cy="38.9032" r="36.9032" stroke="#40CEE0" stroke-width="3" stroke-linejoin="round"/>
<path d="M156.187 136.376L157.662 136.65C157.789 135.967 157.431 135.286 156.796 135.005C156.16 134.723 155.415 134.914 154.994 135.467L156.187 136.376ZM149.795 142.768L148.886 141.575C148.333 141.996 148.142 142.741 148.424 143.376C148.705 144.011 149.386 144.37 150.069 144.243L149.795 142.768ZM109.352 142.903V144.403C109.997 144.403 110.57 143.99 110.775 143.378C110.979 142.766 110.769 142.092 110.253 141.704L109.352 142.903ZM109.352 89.2258L110.253 90.4251C110.769 90.0374 110.979 89.3631 110.774 88.7509C110.57 88.1387 109.997 87.7258 109.352 87.7258V89.2258ZM149.795 89.3611L150.07 87.8864C149.387 87.7593 148.706 88.1179 148.424 88.7529C148.143 89.388 148.334 90.1333 148.886 90.5543L149.795 89.3611ZM156.187 95.753L154.994 96.662C155.415 97.2146 156.16 97.4058 156.795 97.1241C157.431 96.8424 157.789 96.1615 157.662 95.4785L156.187 95.753ZM154.994 135.467C153.242 137.767 151.186 139.823 148.886 141.575L150.704 143.961C153.218 142.046 155.465 139.799 157.381 137.285L154.994 135.467ZM154.713 136.101C154.224 138.729 152.148 140.804 149.521 141.293L150.069 144.243C153.917 143.527 156.946 140.498 157.662 136.65L154.713 136.101ZM109.352 141.403H9.99999V144.403H109.352V141.403ZM9.99999 141.403C6.41014 141.403 3.5 138.493 3.5 134.903H0.5C0.5 140.15 4.75328 144.403 9.99999 144.403V141.403ZM3.5 134.903V97.2258H0.5V134.903H3.5ZM3.5 97.2258C3.5 93.636 6.41015 90.7258 10 90.7258V87.7258C4.75329 87.7258 0.5 91.9791 0.5 97.2258H3.5ZM10 90.7258H109.352V87.7258H10V90.7258ZM97.4357 116.064C97.4357 105.582 102.467 96.2747 110.253 90.4251L108.451 88.0266C99.9431 94.4185 94.4357 104.598 94.4357 116.064H97.4357ZM110.253 141.704C102.467 135.854 97.4357 126.547 97.4357 116.064H94.4357C94.4357 127.53 99.9433 137.711 108.451 144.102L110.253 141.704ZM148.886 90.5543C151.186 92.3063 153.242 94.3622 154.994 96.662L157.38 94.844C155.465 92.3301 153.218 90.083 150.704 88.1679L148.886 90.5543ZM149.521 90.8358C152.149 91.3248 154.224 93.3998 154.713 96.0274L157.662 95.4785C156.946 91.6314 153.917 88.6024 150.07 87.8864L149.521 90.8358Z" fill="#40CEE0"/>
<circle cx="131.161" cy="116.065" r="26.8387" stroke="#40CEE0" stroke-width="3" stroke-linejoin="round"/>
<path d="M114.723 112.66C114.723 110.668 115.279 108.72 116.321 107.067C117.364 105.415 118.844 104.131 120.573 103.381C122.302 102.632 124.201 102.45 126.028 102.859C127.854 103.268 129.525 104.249 130.826 105.677C132.127 104.249 133.798 103.268 135.624 102.859C137.451 102.45 139.35 102.632 141.079 103.381C142.808 104.131 144.288 105.415 145.33 107.067C146.372 108.72 146.929 110.668 146.929 112.66C146.933 114.224 146.591 115.767 145.933 117.165C145.274 118.562 144.316 119.774 143.137 120.702L132.523 130.041C131.933 130.56 131.189 130.838 130.424 130.825C129.659 130.813 128.924 130.51 128.349 129.971L118.011 120.275C116.979 119.336 116.15 118.168 115.583 116.854C115.015 115.539 114.721 114.108 114.723 112.66Z" fill="#40CEE0"/>
</svg>
