<svg width="161" height="146" viewBox="0 0 161 146" fill="none" xmlns="http://www.w3.org/2000/svg">
<circle cx="79.6559" cy="39.1398" r="37.1398" stroke="#40CEE0" stroke-width="3" stroke-linejoin="round"/>
<path d="M157.187 137.222L158.664 137.485C158.785 136.803 158.424 136.127 157.79 135.848C157.155 135.57 156.413 135.762 155.993 136.313L157.187 137.222ZM150.727 143.682L149.819 142.488C149.267 142.908 149.075 143.65 149.354 144.285C149.632 144.919 150.309 145.28 150.991 145.158L150.727 143.682ZM110.039 143.807V145.307C110.685 145.307 111.258 144.894 111.462 144.281C111.667 143.669 111.456 142.995 110.94 142.607L110.039 143.807ZM110.039 89.785L110.94 90.9843C111.456 90.5966 111.667 89.9223 111.462 89.3101C111.258 88.6979 110.685 88.285 110.039 88.285V89.785ZM150.727 89.9098L150.991 88.4332C150.309 88.3114 149.632 88.6726 149.354 89.307C149.075 89.9415 149.268 90.684 149.819 91.1036L150.727 89.9098ZM157.187 96.3698L155.993 97.2781C156.413 97.8295 157.155 98.0218 157.79 97.7434C158.424 97.4649 158.785 96.7883 158.664 96.1062L157.187 96.3698ZM155.993 136.313C154.223 138.639 152.145 140.718 149.819 142.488L151.635 144.875C154.177 142.942 156.447 140.671 158.381 138.13L155.993 136.313ZM155.71 136.958C155.235 139.624 153.129 141.729 150.464 142.205L150.991 145.158C154.893 144.462 157.967 141.388 158.664 137.485L155.71 136.958ZM110.039 142.307H9.99999V145.307H110.039V142.307ZM9.99999 142.307C6.41014 142.307 3.5 139.396 3.5 135.807H0.5C0.5 141.053 4.75328 145.307 9.99999 145.307V142.307ZM3.5 135.807V97.785H0.5V135.807H3.5ZM3.5 97.785C3.5 94.1952 6.41015 91.285 10 91.285V88.285C4.75329 88.285 0.5 92.5383 0.5 97.785H3.5ZM10 91.285H110.039V88.285H10V91.285ZM98.0373 116.796C98.0373 106.243 103.102 96.8731 110.94 90.9843L109.138 88.5858C100.579 95.0169 95.0373 105.259 95.0373 116.796H98.0373ZM110.94 142.607C103.102 136.718 98.0373 127.349 98.0373 116.796H95.0373C95.0373 128.332 100.579 138.575 109.138 145.006L110.94 142.607ZM149.819 91.1036C152.145 92.8735 154.223 94.9521 155.993 97.2781L158.381 95.4615C156.447 92.9203 154.177 90.6497 151.636 88.7161L149.819 91.1036ZM150.464 91.3865C153.129 91.8623 155.235 93.968 155.71 96.6334L158.664 96.1062C157.967 92.2039 154.893 89.1298 150.991 88.4332L150.464 91.3865Z" fill="#40CEE0"/>
<circle cx="131.99" cy="116.796" r="27.0108" stroke="#40CEE0" stroke-width="3" stroke-linejoin="round"/>
<ellipse cx="131.989" cy="116.796" rx="14.2998" ry="27.0108" stroke="#40CEE0" stroke-width="3" stroke-linejoin="round"/>
<line x1="104.979" y1="116.885" x2="155.823" y2="116.885" stroke="#40CEE0" stroke-width="3" stroke-linejoin="round"/>
<path d="M131.919 90.937L131.919 143.807" stroke="#40CEE0" stroke-width="3" stroke-linejoin="round"/>
</svg>
