<svg width="36" height="36" viewBox="0 0 36 36" fill="none" xmlns="http://www.w3.org/2000/svg">
<g filter="url(#filter0_b_2537_923)">
<rect x="36" y="36" width="36" height="36" rx="18" transform="rotate(-180 36 36)" fill="black"/>
</g>
<path d="M26.7123 18.9163C27.2239 18.4126 27.2239 17.5874 26.7123 17.0837L19.2952 9.78253C18.8541 9.34837 18.1463 9.34837 17.7053 9.78253C17.2543 10.2265 17.2543 10.9537 17.7053 11.3977L24.4124 18L17.7053 24.6023C17.2543 25.0463 17.2543 25.7735 17.7053 26.2175C18.1463 26.6516 18.8541 26.6516 19.2952 26.2175L26.7123 18.9163Z" fill="white"/>
<rect x="26.5005" y="19.125" width="18" height="2.25" rx="1.125" transform="rotate(-180 26.5005 19.125)" fill="white"/>
<defs>
<filter id="filter0_b_2537_923" x="-30.8571" y="-30.8571" width="97.7143" height="97.7143" filterUnits="userSpaceOnUse" color-interpolation-filters="sRGB">
<feFlood flood-opacity="0" result="BackgroundImageFix"/>
<feGaussianBlur in="BackgroundImageFix" stdDeviation="15.4286"/>
<feComposite in2="SourceAlpha" operator="in" result="effect1_backgroundBlur_2537_923"/>
<feBlend mode="normal" in="SourceGraphic" in2="effect1_backgroundBlur_2537_923" result="shape"/>
</filter>
</defs>
</svg>
