<svg width="176" height="176" viewBox="0 0 176 176" fill="none" xmlns="http://www.w3.org/2000/svg">
<path d="M175 1H1V175H175V1Z" fill="white" stroke="black" stroke-width="2"/>
<path d="M1.89209 130.385C6.60354 125.022 16.819 113.297 19.986 109.304C29.2212 99.3175 55.9465 79.5683 88.9673 80.4553C102.914 79.9015 136.124 84.8942 157.383 109.304C162.661 115.776 172.738 129.053 175 130.385" stroke="black" stroke-width="2"/>
<path d="M14.3848 117V174.108" stroke="black" stroke-width="2"/>
<path d="M25.9844 102.723V173.215" stroke="black" stroke-width="2"/>
<path d="M38.4771 94.6923V174.108" stroke="black" stroke-width="2"/>
<path d="M50.9692 87.5538V174.108" stroke="black" stroke-width="2"/>
<path d="M63.4614 83.9846V174.108" stroke="black" stroke-width="2"/>
<path d="M75.0615 80.4154V174.108" stroke="black" stroke-width="2"/>
<path d="M87.5537 80.4154V174.108" stroke="black" stroke-width="2"/>
<path d="M100.046 80.4154V174.108" stroke="black" stroke-width="2"/>
<path d="M111.646 82.2V173.215" stroke="black" stroke-width="2"/>
<path d="M124.139 87.5538V174.108" stroke="black" stroke-width="2"/>
<path d="M136.631 92.9077V174.108" stroke="black" stroke-width="2"/>
<path d="M149.123 100.046V174.108" stroke="black" stroke-width="2"/>
<path d="M160.723 113.431V173.215" stroke="black" stroke-width="2"/>
<path d="M130.384 141.985H117.892V154.477H130.384V141.985Z" fill="white" stroke="black" stroke-width="2"/>
<path d="M57.2155 107.185H44.7231V119.677H57.2155V107.185Z" fill="white" stroke="black" stroke-width="2"/>
<path d="M63.9079 155.369C68.0967 155.369 71.4925 151.973 71.4925 147.785C71.4925 143.596 68.0967 140.2 63.9079 140.2C59.719 140.2 56.3232 143.596 56.3232 147.785C56.3232 151.973 59.719 155.369 63.9079 155.369Z" fill="#40D6E0"/>
<path d="M97.3694 119.677C101.312 119.677 104.508 116.281 104.508 112.092C104.508 107.903 101.312 104.508 97.3694 104.508C93.427 104.508 90.231 107.903 90.231 112.092C90.231 116.281 93.427 119.677 97.3694 119.677Z" fill="#1127EE"/>
<path d="M97.3694 119.677C101.312 119.677 104.508 116.281 104.508 112.092C104.508 107.903 101.312 104.508 97.3694 104.508C93.427 104.508 90.231 107.903 90.231 112.092C90.231 116.281 93.427 119.677 97.3694 119.677Z" fill="#1127EE"/>
<path fill-rule="evenodd" clip-rule="evenodd" d="M119.222 132.232L124.138 114.323L105.789 119.123L110.03 123.261L91.4353 140.515L69.8835 119.183L67.6682 116.991L65.4276 119.159L41.1538 142.637L45.5846 147.001L67.6167 125.689L89.1234 146.976L91.2937 149.123L93.5332 147.045L114.482 127.606L119.222 132.232Z" fill="black"/>
<path d="M19.3917 64.3329C29.802 60.1827 35.8743 64.3329 38.4769 66.8223C32.4046 75.1228 26.91 73.7394 19.3917 71.8024L7.24609 68.4831L19.3917 64.3329Z" fill="#1127EE"/>
<path d="M29.5537 73.277H37.5467H144.661C140.825 78.9877 128.674 80.4154 123.079 80.4154H29.5537V73.277Z" fill="black"/>
<path d="M37.5845 73.2769V50.0769H54.3659V54.7169H74.343V50.0769H93.5202V54.7169H112.698V50.0769H118.292C122.127 53.7887 130.012 56.779 133.474 57.8106C142.425 59.666 144.661 68.8943 144.661 73.2769H37.5845Z" fill="#40D6E0" stroke="black" stroke-width="2"/>
<path fill-rule="evenodd" clip-rule="evenodd" d="M40.2617 65.2461H139.144C140.029 66.7329 140.662 67.9031 141.092 69.7076H40.2617V65.2461Z" fill="white"/>
</svg>
