<svg width="297" height="274" viewBox="0 0 297 274" fill="none" xmlns="http://www.w3.org/2000/svg">
<path d="M286 26H39V273H286V26Z" fill="white" stroke="black" stroke-width="1.5"/>
<path d="M146.152 194.808L98 268L154.248 224.846L190.895 235.846L262.91 159.269L292.313 182.538L297 81L190.895 108.923L222.854 132.615L176.407 202.846L146.152 194.808Z" fill="#40D6E0"/>
<path d="M44.5067 111.073L69.3892 100.392L81.1489 106.47C83.5681 107.721 86.5073 106.318 87.0727 103.642L89.5862 91.7486L120.851 75.7685C127.443 70.0281 124.728 60.2224 122.547 56.037L105.582 17.9605C100.153 9.54615 89.6935 10.4865 85.1426 12.0085L13.4035 44.296C4.87233 49.0576 5.43245 59.3255 6.77891 63.8643L25.1985 105.447C28.8177 113.339 39.5787 112.486 44.5067 111.073Z" fill="#02FFA4" stroke="black" stroke-width="1.5"/>
<path d="M39.5067 100.082L64.3893 89.5067L76.1489 95.5252C78.5681 96.7635 81.5073 95.3738 82.0727 92.7245L84.5862 80.9492L115.851 65.1269C122.443 59.4438 119.728 49.735 117.547 45.5911L100.582 7.89156C95.1531 -0.439427 84.6935 0.491627 80.1426 1.99853L8.40352 33.9664C-0.127674 38.6808 0.432454 48.847 1.77891 53.3409L20.1985 94.5115C23.8177 102.326 34.5787 101.481 39.5067 100.082Z" fill="white" stroke="black" stroke-width="1.5"/>
<path d="M130 232.778L127 225L120.667 226.482L119 229.444L123 235L130 232.778Z" fill="white" stroke="black" stroke-width="1.5"/>
<path d="M120.579 222.733L124.631 224.565L122.053 226.03L120.579 228.228L120.947 232.99L125 235.189L124.631 238.485L121.315 250.208L120.947 257.535L118 259L114.316 256.436L111 251.308L111.369 243.248L113.211 241.05V235.555L111.369 235.189V223.832L114.684 222L120.579 222.733Z" fill="black"/>
<path d="M228 187.714L224.7 184L219.567 185.857L217 193.286L217.733 197L226.167 194.028L228 187.714Z" fill="white"/>
<path d="M253 182L225 205" stroke="black" stroke-width="1.5"/>
<path d="M201 105C199.666 106.506 197 111.022 197 117.043C197 123.692 196.2 137.592 193 140" stroke="black" stroke-width="1.5"/>
<path d="M154 121C153.667 125.271 153.2 135.054 154 140.024L153 154" stroke="black" stroke-width="1.5"/>
<path d="M183 91C184.772 94.1589 189.15 100.556 195.528 100.872C199.324 101.06 200.691 102.846 204.639 109.164C206.663 111.929 213.37 116.825 224 114.298" stroke="black" stroke-width="1.5"/>
<path d="M174 101L175.313 105H179.687L181 101" stroke="black" stroke-width="1.5"/>
<path d="M174 106L173.273 115.6L166 122" stroke="black" stroke-width="1.5"/>
<path d="M178.272 106L179 118.06C175.726 123.964 166.702 133.662 156.806 123.713L154.987 121.452L152.803 118.06C152.197 116.804 151.348 113.01 152.803 107.885" stroke="black" stroke-width="1.5"/>
<path d="M159 112C159.244 114.839 161.122 121.056 166.683 123.207L174 125" stroke="black" stroke-width="1.5"/>
<path d="M163 100.647L171.077 106L176.846 97.3526L183 103.118V92" stroke="black" stroke-width="1.5"/>
<path d="M196.42 53L195 50.375C196.301 48.75 200.039 45.2 204.58 44L206 46.2499" stroke="black" stroke-width="1.5"/>
<path d="M195.87 49C194.494 47.9158 190.991 45.7475 187.989 45.7475C186.488 44.9343 184.387 42.4949 187.989 39.2424C186.863 37.6162 185.437 34.2823 188.74 33.957C188.74 33.1439 189.34 31.5989 191.742 31.9242C191.742 30.9756 192.342 29.3221 194.744 30.2979L195.87 31.9242H199.247C199.873 31.9242 201.348 32.9 202.249 36.803L203 43.3081" stroke="black" stroke-width="1.5"/>
<path d="M187 35L191 39" stroke="black" stroke-width="1.5"/>
<path d="M191 33L195 38" stroke="black" stroke-width="1.5"/>
<path d="M190 43C190.648 41.4907 192.955 39.3778 197 43" stroke="black" stroke-width="1.5"/>
<path d="M178 91V95" stroke="black" stroke-width="1.5"/>
<path d="M219.107 153C219.75 151.466 221.959 148.474 225.659 148.781C230.155 149.676 239.917 149.625 243 142.261C241.587 134.208 236.371 117.409 226.814 114.649C223.346 113.498 214.868 109.203 208.702 101.225C208.06 100.203 207.855 96.6238 212.171 90.4871L221.034 77.0645C221.805 76.0419 222.653 72.9994 219.878 69.0107L209.473 46C206.904 46 200.687 47.6874 196.371 54.4372L204.078 70.545V75.1466L195.6 84.3512L189.819 85.1184L177.873 95.0894L175.946 97.3902L164 95.0894" stroke="black" stroke-width="1.5"/>
<path d="M179.234 67.1361C180.452 64.7806 182.887 61.9205 178.422 60.0697C177.475 59.677 176.799 58.4992 174.769 56.5363C173.011 54.9659 168.6 53.2386 165.029 58.8918C162.052 57.7141 156.18 57.1644 156.505 64.388C154.341 64.7806 150.255 66.9006 151.229 72.2397C150.011 74.3334 148.631 78.9924 152.853 80.8768C153.123 82.709 154.882 86.2944 159.752 85.9807" stroke="black" stroke-width="1.5"/>
<path d="M168.349 179.548L189.464 170.366C193.15 168.223 195.991 168.071 197.527 169.601L217.491 196C216.877 188.348 220.051 185.415 221.715 184.905C227.857 183.68 232.465 178.018 234 175.34L211.732 143.584C208.354 137.156 199.063 138.866 194.84 140.524L152.607 153.914C151.455 155.062 148.922 160.112 148 171.131" stroke="black" stroke-width="1.5"/>
<path d="M128 224L122 225" stroke="black" stroke-width="1.5"/>
<path d="M130 233L125 235" stroke="black" stroke-width="1.5"/>
<path d="M122.01 233.761C118.818 229.191 122.542 225.51 124.803 224.241C119.377 220.586 113.764 222.21 111.636 223.48V235.284H113.232V240.615L111.636 242.138C109.083 252.496 114.829 257.623 118.02 258.892C120.893 259.502 121.877 257.37 122.01 256.227C121.372 251.048 122.808 245.438 123.606 243.281L126 235.284L122.01 233.761Z" stroke="black" stroke-width="1.5"/>
<path d="M162.942 69.0981C164.117 65.7111 168.035 67.2164 169.602 67.9691C172.344 69.0981 172.736 67.5176 173.52 66.4638C175.478 63.8295 178.351 65.3349 179.396 66.4638C178.769 69.1736 180.963 73.1118 182.138 74.743C186.527 82.57 182.138 88.2901 179.396 90.1714C175.008 92.5804 167.643 89.1679 164.509 87.161C160.434 86.5589 159.155 82.8964 159.024 81.1402C158.711 76.6242 161.506 77.0006 162.942 77.7534V72.8611V69.0981Z" stroke="black" stroke-width="1.5"/>
<path d="M160.4 93.3878L154.801 98.041L158.4 100.755L152 105.796L158.801 112L164 93" stroke="black" stroke-width="1.5"/>
<path d="M79 144H84.6466M81.3526 146.823C82.294 146.823 84.7412 147.53 87 146.117" stroke="black" stroke-width="1.5"/>
<path d="M84 149.8C84.6668 149.8 86.3995 150.6 88 149" stroke="black" stroke-width="1.5"/>
<path d="M91 136C92.111 138.334 94.6668 143 96 143" stroke="black" stroke-width="1.5"/>
<path d="M93 134C94.4002 136.571 97.7594 141.971 100 143" stroke="black" stroke-width="1.5"/>
<path d="M87.9795 136C88.1449 137.667 87.3813 141 83 141" stroke="black" stroke-width="1.5"/>
<path d="M165 88L164 93" stroke="black" stroke-width="1.5"/>
<path d="M163.244 93H160.177L155.959 96.0917L144.073 95.3193L141.006 98.4109L137.556 102.276L94.6144 132.034L93.4639 133.966C92.825 134.224 91.5465 134.894 91.5465 135.512C91.5465 136.131 88.9909 135.77 87.7131 135.512L83.1121 136.285L79.6615 139.377C79.0226 140.537 78.2811 143.01 80.4277 143.628C80.5558 144.659 81.0419 146.72 81.9617 146.72C82.0897 148.008 82.9586 150.508 85.4123 150.198C85.4123 150.714 86.0257 151.744 88.4794 151.744C88.7355 152.388 89.7063 153.29 91.5465 151.744C92.825 150.971 95.5342 148.498 96.1476 144.788L96.5311 141.696H99.2147L138.323 123.531C139.217 123.145 141.39 122.604 142.924 123.531L147.141 130.488V154.836C144.202 160.633 138.323 173.387 138.323 178.024C139.345 177.895 142.54 177.174 147.141 175.319C148.93 177.766 154.656 183.126 163.244 184.981C164.139 185.496 165.775 187.377 165.161 190.778C163.755 199.151 160.944 216.362 160.944 218.217H157.877L154.426 221.695L129.121 230.971C127.715 232.774 126.36 237.85 132.188 243.724C132.955 245.528 134.259 249.908 133.338 253C144.713 249.264 169.455 240.478 177.431 235.222C179.347 234.32 183.258 231.203 183.565 225.947L192 183.048V168.749" stroke="black" stroke-width="1.5"/>
<path d="M225 184L229 188" stroke="black" stroke-width="1.5"/>
<path d="M242.883 182.03C247.735 176.543 251.981 179.743 253.497 182.03C254.408 183.092 253.877 185.52 253.497 186.601L245.158 196.508L242.124 197.271L237.576 202.223L236.438 204.891C232.799 210.377 228.856 209.209 227.34 207.939L219 197.271C219.303 195.441 224.939 194.73 227.719 194.603L229.235 188.507L237.576 185.459L242.883 182.03Z" stroke="black" stroke-width="1.5"/>
<path d="M178.524 65.2134C178.433 65.3969 178.054 65.9382 177.868 65.983C177.37 65.7155 176.722 65.3811 176.198 65.0994C175.934 64.9571 175.444 64.9767 175.154 65.0246C174.633 65.1108 174.291 65.5123 173.84 65.762C173.444 65.9808 173.142 66.1922 172.829 66.5281C172.552 66.8257 172.288 67.0933 171.942 67.2905C171.218 67.7026 170.481 67.5652 169.699 67.522C169.367 67.5037 169.053 67.3297 168.722 67.3297C168.465 67.3297 168.146 67.2946 167.887 67.2619C167.308 67.1887 166.789 67.009 166.195 67.009C165.754 67.009 165.332 67.0203 164.896 67.0696C164.526 67.1114 163.918 67.189 163.723 67.5862C163.113 68.8327 163.081 70.3165 163.081 71.7044C163.081 72.6307 163.021 73.5682 163.021 74.4838C163.021 75.2226 162.734 76.0395 162.544 76.7423C162.445 77.1096 162.362 77.6094 162.187 77.9392C162.131 78.045 161.752 77.9111 161.65 77.9111C161.235 77.9111 160.856 77.7186 160.431 77.7186C159.919 77.7186 159.617 78.1401 159.431 78.6167C159.309 78.9261 159.418 79.2842 159.441 79.6035C159.482 80.2147 159.503 80.8244 159.503 81.4384C159.503 82.488 159.53 83.4847 159.669 84.516C159.682 84.6125 159.762 85.5042 159.649 85.5388C159.443 85.6022 159.185 85.7721 159 85.899C158.846 86.004 158.677 86.0216 158.49 85.9772C158.097 85.8835 157.693 85.8123 157.311 85.6847C156.981 85.5747 156.562 85.6015 156.257 85.414C155.76 85.1088 155.728 82.956 155.403 82.956C154.333 82.956 154.399 82.0636 153.793 81.21C153.582 80.9139 153.213 80.6862 152.915 80.5079C152.604 80.3225 152.441 79.975 152.302 79.6423C151.832 78.5194 152.051 76.9312 152.051 75.7449C152.051 75.2345 152.23 74.7327 152.23 74.2237C152.23 73.6683 152.729 73.0374 152.912 72.5313L152.917 72.5172C153.049 72.152 153.17 71.8179 153.184 71.4196C153.194 71.1306 152.806 70.7683 152.806 70.4751C152.806 70.344 152.326 69.5488 152.806 69.7702C152.993 69.4093 152.737 68.7357 152.912 68.3603C153.121 67.9104 153.591 67.4628 153.793 67.009C153.924 66.7144 154.325 66.5347 154.445 66.2456C154.566 65.9533 155.242 66.0038 155.403 65.7264C155.582 65.4178 156.002 65.042 156.314 64.8928C156.97 64.5789 157.482 64.2691 157.652 63.4498C157.809 62.6909 157.242 61.2986 157.652 60.6064C158.157 59.7523 159.361 59.3758 160.015 58.6722C160.429 58.2267 161.399 58.6722 161.948 58.6722C162.498 58.6722 163.016 58.4798 163.571 58.4798C163.917 58.4798 164.271 58.544 164.631 58.544C164.992 58.544 165.207 58.5647 165.495 58.323C165.808 58.0615 166.132 57.7635 166.42 57.4538C166.739 57.1107 167.024 56.74 167.344 56.3956C167.841 55.8606 168.42 55.5608 169.043 55.2591C169.78 54.9024 170.659 54.9891 171.428 55.081C171.824 55.1282 172.325 55.3675 172.68 55.5584C172.952 55.7042 173.378 55.9709 173.664 56.0394C174 56.1197 174.283 56.5133 174.515 56.7626C174.732 56.9958 174.872 57.311 175.091 57.5464C175.304 57.775 175.548 57.9883 175.751 58.2233C176.082 58.6062 176.538 58.9371 176.973 59.171C177.312 59.353 177.546 59.6111 177.837 59.8551C178.105 60.0786 178.25 60.194 178.464 60.4678C178.674 60.7363 178.697 61.3513 178.792 61.6898C178.887 62.0317 179 62.3223 179 62.6803C179 63.2575 178.702 63.7898 178.702 64.3797C178.702 64.6833 178.656 64.9434 178.524 65.2134Z" fill="black"/>
<path d="M225.927 205L254 181.889L252.177 180.806L249.625 179L245.615 179.361L241.969 182.25L235.771 185.5L229.208 188.028L228.114 193.445L223.74 194.167L219 196.334L225.927 205Z" fill="black"/>
<path d="M175.167 105L174 100.882L175.555 98L177.889 98.412L181 100.882L179.445 105H175.167Z" fill="black"/>
<path d="M172.745 115.826L173.316 102L179 102.945L177.846 107.97L178.526 116.611L176.145 122.109L172.065 124.858L169.13 127.214L165.943 128L161.182 127.214L156.421 124.073L152 116.611V111.112V105.309L158.121 111.898L162.202 120.931H165.943L172.745 115.826Z" fill="black"/>
<path d="M169.002 80.506C169.81 80.2894 170.185 79.0651 169.838 77.7716C169.491 76.478 168.555 75.605 167.747 75.8216C166.938 76.0383 166.564 77.2625 166.91 78.5561C167.257 79.8496 168.193 80.7226 169.002 80.506Z" fill="black"/>
<path d="M169.002 80.506C169.81 80.2894 170.185 79.0651 169.838 77.7716C169.491 76.478 168.555 75.605 167.747 75.8216C166.938 76.0383 166.564 77.2625 166.91 78.5561C167.257 79.8496 168.193 80.7226 169.002 80.506Z" fill="black"/>
<path d="M178.371 77.9958C179.18 77.7791 179.554 76.5549 179.208 75.2613C178.861 73.9678 177.925 73.0947 177.116 73.3114C176.308 73.528 175.933 74.7522 176.28 76.0458C176.627 77.3394 177.563 78.2124 178.371 77.9958Z" fill="black"/>
<path d="M178.371 77.9958C179.18 77.7791 179.554 76.5549 179.208 75.2613C178.861 73.9678 177.925 73.0947 177.116 73.3114C176.308 73.528 175.933 74.7522 176.28 76.0458C176.627 77.3394 177.563 78.2124 178.371 77.9958Z" fill="black"/>
<path d="M172 80.0787C172.458 79.1036 173.847 77.3708 175.737 78.2338C176.424 78.5385 177.571 79.7189 176.666 82" stroke="black" stroke-width="1.5"/>
<path d="M166 74C166.222 73.4839 166.417 73.1874 167 72" stroke="black" stroke-width="1.5"/>
<path d="M173 69C173.423 69 175.546 69 177 69" stroke="black" stroke-width="1.5"/>
<path d="M169 84C169.412 85.1483 171.388 87.3472 176 86.9534" stroke="black" stroke-width="1.5"/>
<path d="M19.9986 60.9583C18.8568 61.4505 17.7985 61.5922 16.8236 61.3834C15.8539 61.1618 15.1147 60.5476 14.6061 59.5408L17.7887 58.1689C18.0701 58.698 18.431 58.8675 18.8715 58.6776C19.0334 58.6079 19.1527 58.5138 19.2296 58.3953C19.3116 58.2641 19.3177 58.1175 19.2479 57.9557C19.1511 57.7309 18.9522 57.6034 18.6513 57.5732C18.3466 57.534 17.8992 57.5349 17.3093 57.576C16.6049 57.6238 16.0059 57.6315 15.5122 57.5991C15.0275 57.5628 14.556 57.4089 14.0978 57.1374C13.6396 56.8658 13.2813 56.4179 13.0228 55.7937C12.7554 55.1734 12.6861 54.5796 12.8147 54.0124C12.9484 53.4324 13.2411 52.9118 13.6926 52.4506C14.1531 51.9856 14.7295 51.6039 15.4218 51.3055C16.5905 50.8016 17.6328 50.6722 18.5486 50.9171C19.4734 51.1581 20.165 51.7608 20.6234 52.7253L17.4003 54.1146C17.2751 53.8488 17.1243 53.6846 16.9481 53.6219C16.7718 53.5593 16.5938 53.5668 16.414 53.6443C16.2881 53.6985 16.2041 53.788 16.1619 53.9128C16.1159 54.0286 16.1258 54.1629 16.1917 54.3158C16.2847 54.5315 16.4791 54.661 16.7749 54.704C17.0757 54.7343 17.5295 54.7359 18.1362 54.7089C18.8355 54.674 19.4229 54.6766 19.8987 54.7168C20.3834 54.753 20.849 54.8934 21.2956 55.138C21.7422 55.3826 22.0856 55.7836 22.3259 56.341C22.5778 56.9254 22.6607 57.5133 22.5745 58.1049C22.4845 58.6874 22.2214 59.2272 21.7854 59.7243C21.3494 60.2214 20.7538 60.6328 19.9986 60.9583ZM22.607 55.2124C22.2621 54.4123 22.0985 53.6619 22.1163 52.9612C22.1392 52.2477 22.3231 51.6354 22.6678 51.1244C23.0086 50.6043 23.4757 50.2164 24.0691 49.9606C24.5636 49.7475 25.0352 49.6668 25.4839 49.7185C25.9288 49.7613 26.3212 49.9173 26.6612 50.1865L26.2136 49.1482L29.1939 47.8634L32.4725 55.4693L29.4922 56.754L29.0446 55.7156C29.0069 56.1476 28.8528 56.5445 28.5824 56.9063C28.308 57.2591 27.9236 57.5421 27.4291 57.7553C26.8358 58.011 26.2349 58.0888 25.6267 57.9885C25.0146 57.8793 24.4432 57.5925 23.9126 57.1283C23.3871 56.6512 22.9519 56.0125 22.607 55.2124ZM27.8529 52.9511C27.6785 52.5465 27.4394 52.2764 27.1358 52.1408C26.8321 52.0052 26.5185 52.0071 26.1948 52.1466C25.8711 52.2861 25.6544 52.5129 25.5445 52.8267C25.4346 53.1406 25.4668 53.4999 25.6412 53.9044C25.8156 54.309 26.0547 54.5791 26.3583 54.7147C26.662 54.8503 26.9756 54.8484 27.2993 54.7089C27.623 54.5694 27.8397 54.3427 27.9496 54.0288C28.0595 53.7149 28.0273 53.3556 27.8529 52.9511ZM36.4471 50.3818L35.6088 45.0982L38.7914 43.7263L39.5347 52.425L35.7992 54.0353L29.9853 47.5223L33.1679 46.1504L36.4471 50.3818ZM40.8344 42.126C40.313 42.3508 39.8349 42.3916 39.4001 42.2485C38.9653 42.1055 38.6568 41.8227 38.4746 41.4001C38.2886 40.9686 38.2929 40.5457 38.4874 40.1313C38.6781 39.708 39.0341 39.3839 39.5555 39.1592C40.068 38.9383 40.5436 38.9038 40.9822 39.0559C41.417 39.1989 41.7274 39.4862 41.9135 39.9178C42.0956 40.3403 42.0894 40.7588 41.8949 41.1731C41.7004 41.5875 41.3469 41.9051 40.8344 42.126ZM42.5794 42.0934L45.8581 49.6992L42.8643 50.9898L39.5856 43.3839L42.5794 42.0934ZM49.2351 39.1604C50.1072 38.7845 50.9119 38.784 51.6493 39.1591C52.3957 39.5304 52.984 40.215 53.4141 41.2129L55.315 45.6227L52.3347 46.9074L50.5966 42.8752C50.4416 42.5156 50.2206 42.275 49.9337 42.1535C49.6519 42.0191 49.3491 42.0217 49.0255 42.1612C48.6928 42.3046 48.4786 42.5248 48.3828 42.822C48.2832 43.1102 48.3108 43.4341 48.4659 43.7937L50.204 47.8259L47.2102 49.1164L43.9316 41.5105L46.9254 40.22L47.4253 41.3798C47.504 40.9194 47.6883 40.4935 47.978 40.1021C48.2766 39.7068 48.6957 39.3929 49.2351 39.1604ZM56.0315 36.1827C56.5259 35.9696 56.9976 35.8889 57.4463 35.9406C57.8912 35.9834 58.2836 36.1394 58.6235 36.4087L58.1759 35.3703L61.1562 34.0856L64.3767 41.5566C64.6829 42.2668 64.8316 42.9703 64.8227 43.6671C64.8139 44.3638 64.5929 45.0135 64.1597 45.616C63.7354 46.2147 63.0693 46.7097 62.1613 47.1011C60.9386 47.6282 59.8436 47.759 58.8763 47.4937C57.9219 47.2334 57.1841 46.6347 56.6628 45.6973L59.6026 44.4301C59.8541 44.7908 60.263 44.849 60.8294 44.6049C61.18 44.4538 61.4154 44.2456 61.5357 43.9806C61.656 43.7155 61.6096 43.3357 61.3964 42.8413L61.0069 41.9377C60.9693 42.3697 60.8152 42.7667 60.5447 43.1284C60.2704 43.4813 59.886 43.7642 59.3915 43.9774C58.7981 44.2332 58.1973 44.3109 57.5891 44.2106C56.9769 44.1014 56.4056 43.8146 55.875 43.3504C55.3495 42.8733 54.9143 42.2347 54.5693 41.4345C54.2244 40.6344 54.0609 39.884 54.0787 39.1833C54.1016 38.4698 54.2854 37.8576 54.6302 37.3465C54.971 36.8264 55.4381 36.4385 56.0315 36.1827ZM59.8152 39.1732C59.6408 38.7686 59.4018 38.4985 59.0981 38.3629C58.7945 38.2273 58.4808 38.2292 58.1572 38.3688C57.8335 38.5083 57.6167 38.735 57.5068 39.0489C57.397 39.3628 57.4292 39.722 57.6036 40.1266C57.778 40.5311 58.017 40.8012 58.3207 40.9368C58.6244 41.0725 58.938 41.0705 59.2617 40.931C59.5853 40.7915 59.8021 40.5648 59.912 40.2509C60.0219 39.937 59.9896 39.5778 59.8152 39.1732ZM20.1074 69.966C19.9069 69.5008 19.8294 69.0415 19.8749 68.588C19.9185 68.13 20.0727 67.7235 20.3374 67.3684C20.6001 67.0087 20.9483 66.7355 21.3819 66.5485C21.9103 66.3208 22.4165 66.2525 22.9004 66.3439C23.3869 66.4287 23.8143 66.6623 24.1826 67.0445L23.627 67.2839C23.3533 67.0217 23.0375 66.8605 22.6795 66.8006C22.3261 66.7387 21.953 66.7924 21.56 66.9618C21.2122 67.1117 20.9334 67.3284 20.7234 67.6117C20.518 67.893 20.4024 68.2214 20.3768 68.5966C20.3491 68.9674 20.4219 69.3538 20.5952 69.7558C20.7685 70.1578 20.9994 70.476 21.2879 70.7105C21.5765 70.9449 21.8935 71.0841 22.2392 71.1279C22.5893 71.1698 22.9382 71.1158 23.286 70.9659C23.679 70.7965 23.9752 70.5643 24.1748 70.2694C24.377 69.968 24.4777 69.6301 24.4769 69.2555L25.0324 69.016C25.0555 69.5417 24.9309 70.0105 24.6586 70.4224C24.3862 70.8344 23.9881 71.1533 23.4642 71.3792C23.0306 71.5661 22.5938 71.6338 22.1539 71.5824C21.712 71.5265 21.3106 71.3595 20.9497 71.0812C20.5887 70.803 20.308 70.4313 20.1074 69.966ZM28.2158 69.3469C27.868 69.4969 27.521 69.5554 27.1748 69.5225C26.8311 69.4832 26.5167 69.3563 26.2314 69.1419C25.9487 68.921 25.7246 68.6185 25.5591 68.2346C25.3936 67.8507 25.3309 67.4814 25.3708 67.1268C25.4088 66.7676 25.5347 66.4509 25.7486 66.1766C25.9604 65.8978 26.2403 65.6835 26.5881 65.5335C26.9359 65.3836 27.2838 65.3273 27.632 65.3647C27.9828 65.3956 28.2995 65.5215 28.5822 65.7425C28.8674 65.9569 29.0928 66.2561 29.2583 66.64C29.4219 67.0194 29.4846 67.3887 29.4466 67.7479C29.4086 68.107 29.2814 68.427 29.065 68.7077C28.8467 68.984 28.5636 69.197 28.2158 69.3469ZM28.0377 68.9337C28.2816 68.8285 28.4841 68.677 28.6451 68.479C28.8042 68.2765 28.8993 68.0374 28.9303 67.7616C28.964 67.4793 28.9107 67.1755 28.7705 66.8503C28.6303 66.5251 28.4493 66.2791 28.2274 66.1123C28.0036 65.941 27.7645 65.8459 27.51 65.8271C27.2535 65.8037 27.0033 65.8446 26.7594 65.9497C26.5155 66.0549 26.314 66.2087 26.1549 66.4112C25.9939 66.6091 25.8988 66.8483 25.8697 67.1286C25.8432 67.4025 25.9 67.7021 26.0402 68.0273C26.1803 68.3525 26.3601 68.6017 26.5794 68.775C26.8013 68.9418 27.0382 69.0378 27.2901 69.0631C27.5446 69.082 27.7938 69.0388 28.0377 68.9337ZM31.0307 63.6024C31.4734 63.4116 31.8941 63.3936 32.2929 63.5484C32.6897 63.6987 33.0001 64.0335 33.224 64.5529L34.1586 66.721L33.6911 66.9225L32.7799 64.8087C32.6066 64.4067 32.3726 64.1433 32.0778 64.0187C31.7876 63.8921 31.4686 63.9037 31.1208 64.0536C30.764 64.2074 30.5281 64.443 30.4132 64.7604C30.2982 65.0777 30.3352 65.4554 30.5241 65.8936L31.3944 67.9125L30.9201 68.117L29.3255 64.4178L29.7998 64.2133L30.0714 64.8434C30.0915 64.567 30.1869 64.3223 30.3576 64.1095C30.5263 63.8921 30.7507 63.7231 31.0307 63.6024ZM35.3181 61.7543C35.7607 61.5635 36.1814 61.5455 36.5802 61.7003C36.9771 61.8506 37.2874 62.1854 37.5114 62.7048L38.4459 64.8728L37.9784 65.0744L37.0672 62.9605C36.894 62.5586 36.6599 62.2952 36.3652 62.1706C36.0749 62.0439 35.7559 62.0556 35.4081 62.2055C35.0513 62.3593 34.8154 62.5949 34.7005 62.9122C34.5856 63.2296 34.6225 63.6073 34.8114 64.0454L35.6817 66.0644L35.2074 66.2688L33.6129 62.5697L34.0871 62.3652L34.3587 62.9953C34.3788 62.7188 34.4742 62.4742 34.6449 62.2614C34.8136 62.044 35.038 61.875 35.3181 61.7543ZM41.9626 60.9387C42.0327 61.1013 42.0817 61.2275 42.1097 61.3172L39.0406 62.6402C39.1748 62.9143 39.3458 63.1245 39.5534 63.2707C39.761 63.4169 39.9866 63.499 40.2301 63.5173C40.4717 63.531 40.7099 63.4872 40.9447 63.3859C41.2519 63.2536 41.4772 63.068 41.6207 62.8294C41.7687 62.5889 41.8221 62.3275 41.7808 62.0454L42.2822 61.8293C42.3476 62.2295 42.2809 62.6091 42.0821 62.968C41.8859 63.3204 41.5642 63.5929 41.117 63.7857C40.7693 63.9356 40.4245 63.9932 40.0828 63.9584C39.7391 63.919 39.4269 63.7912 39.1462 63.5748C38.868 63.3519 38.6462 63.0485 38.4807 62.6646C38.3152 62.2807 38.2469 61.9111 38.2759 61.5558C38.3048 61.2005 38.424 60.8867 38.6333 60.6144C38.8426 60.3421 39.1234 60.13 39.4757 59.9781C39.828 59.8262 40.1683 59.7706 40.4964 59.8113C40.8291 59.85 41.1219 59.9701 41.3749 60.1717C41.6304 60.3669 41.8263 60.6225 41.9626 60.9387ZM41.4757 61.1325C41.3615 60.855 41.2038 60.6445 41.0026 60.5009C40.806 60.3554 40.5869 60.2757 40.3453 60.262C40.1037 60.2483 39.8655 60.2921 39.6306 60.3934C39.2783 60.5452 39.0266 60.7876 38.8756 61.1205C38.7245 61.4535 38.724 61.8313 38.8741 62.254L41.4757 61.1325ZM42.6952 60.8478C42.5297 60.4639 42.4624 60.0966 42.4933 59.7458C42.5223 59.3906 42.6392 59.0777 42.844 58.8073C43.0469 58.5324 43.3222 58.32 43.67 58.1701C44.1261 57.9735 44.5497 57.9248 44.9406 58.0241C45.3361 58.1214 45.6604 58.3458 45.9137 58.6972L45.4056 58.9163C45.2275 58.677 45.0002 58.5287 44.7236 58.4711C44.4496 58.4071 44.1568 58.4423 43.8452 58.5766C43.5968 58.6837 43.3975 58.8365 43.2475 59.0351C43.0974 59.2337 43.0123 59.4712 42.9923 59.7477C42.9747 60.0177 43.0361 60.3153 43.1763 60.6405C43.3164 60.9657 43.4917 61.2169 43.7019 61.394C43.9167 61.5692 44.1478 61.6705 44.3952 61.6977C44.6426 61.725 44.8905 61.685 45.139 61.578C45.4506 61.4436 45.6782 61.2571 45.8217 61.0185C45.9678 60.7735 46.0141 60.5018 45.9605 60.2035L46.4686 59.9845C46.5463 60.4009 46.4858 60.7885 46.287 61.1474C46.0882 61.5062 45.7629 61.783 45.3113 61.9777C44.9635 62.1276 44.621 62.1842 44.2838 62.1474C43.9447 62.1062 43.637 61.9764 43.3607 61.758C43.0826 61.5351 42.8607 61.2317 42.6952 60.8478ZM47.0586 57.2477L48.0486 59.5444C48.146 59.7702 48.2561 59.9076 48.3789 59.9564C48.5017 60.0052 48.6715 59.9829 48.8883 59.8895L49.3219 59.7025L49.4971 60.109L48.989 60.3281C48.6548 60.4722 48.3732 60.5025 48.1444 60.419C47.9137 60.331 47.7214 60.1086 47.5676 59.7518L46.5776 57.455L46.0627 57.677L45.8903 57.2773L46.4052 57.0553L46.0051 56.1271L46.4862 55.9198L46.8863 56.8479L47.9025 56.4099L48.0748 56.8096L47.0586 57.2477ZM50.3741 58.7991L50.4347 60.8779L50.1095 61.018L49.8456 59.0269L50.3741 58.7991ZM52.0705 56.1878C51.87 55.7226 51.7925 55.2633 51.838 54.8098C51.8816 54.3518 52.0358 53.9453 52.3005 53.5902C52.5632 53.2305 52.9114 52.9573 53.345 52.7703C53.8734 52.5425 54.3796 52.4743 54.8635 52.5656C55.35 52.6505 55.7774 52.8841 56.1457 53.2663L55.5901 53.5057C55.3164 53.2435 55.0006 53.0823 54.6427 53.0224C54.2893 52.9605 53.9161 53.0142 53.5231 53.1836C53.1754 53.3335 52.8965 53.5502 52.6865 53.8335C52.4811 54.1148 52.3656 54.4432 52.3399 54.8184C52.3122 55.1892 52.3851 55.5756 52.5583 55.9776C52.7316 56.3796 52.9625 56.6978 53.2511 56.9323C53.5396 57.1667 53.8567 57.3059 54.2023 57.3497C54.5524 57.3916 54.9014 57.3376 55.2491 57.1877C55.6421 57.0183 55.9384 56.7861 56.138 56.4912C56.3401 56.1898 56.4408 55.8519 56.44 55.4773L56.9956 55.2378C57.0186 55.7634 56.894 56.2323 56.6217 56.6442C56.3494 57.0562 55.9512 57.3751 55.4273 57.6009C54.9937 57.7879 54.5569 57.8556 54.117 57.8042C53.6752 57.7483 53.2737 57.5813 52.9128 57.303C52.5518 57.0248 52.2711 56.6531 52.0705 56.1878ZM60.1789 55.5687C59.8312 55.7187 59.4842 55.7772 59.1379 55.7443C58.7943 55.705 58.4798 55.5781 58.1945 55.3637C57.9118 55.1427 57.6877 54.8403 57.5223 54.4564C57.3568 54.0725 57.294 53.7032 57.3339 53.3486C57.3719 52.9894 57.4978 52.6727 57.7117 52.3984C57.9236 52.1196 58.2034 51.9052 58.5512 51.7553C58.899 51.6054 59.247 51.5491 59.5951 51.5865C59.9459 51.6174 60.2626 51.7433 60.5453 51.9643C60.8306 52.1787 61.0559 52.4779 61.2214 52.8618C61.385 53.2412 61.4478 53.6105 61.4098 53.9697C61.3718 54.3288 61.2446 54.6488 61.0282 54.9295C60.8098 55.2058 60.5267 55.4188 60.1789 55.5687ZM60.0008 55.1555C60.2447 55.0503 60.4472 54.8988 60.6082 54.7008C60.7673 54.4983 60.8624 54.2592 60.8934 53.9833C60.9271 53.701 60.8738 53.3973 60.7336 53.0721C60.5934 52.7469 60.4124 52.5009 60.1905 52.3341C59.9667 52.1628 59.7276 52.0677 59.4731 52.0489C59.2166 52.0255 58.9665 52.0664 58.7226 52.1715C58.4787 52.2767 58.2772 52.4305 58.1181 52.633C57.957 52.8309 57.8619 53.0701 57.8328 53.3504C57.8063 53.6243 57.8631 53.9239 58.0033 54.2491C58.1435 54.5743 58.3232 54.8235 58.5425 54.9968C58.7644 55.1636 59.0013 55.2596 59.2532 55.2849C59.5077 55.3038 59.7569 55.2606 60.0008 55.1555ZM61.1963 49.1208L63.3575 54.1343L62.8832 54.3387L60.7221 49.3252L61.1963 49.1208ZM62.7445 48.4534L64.9057 53.4669L64.4314 53.6714L62.2703 48.6578L62.7445 48.4534ZM64.9626 51.2411C64.7991 50.8617 64.7305 50.4976 64.7569 50.1488C64.7858 49.7935 64.9005 49.4817 65.1008 49.2132C65.3036 48.9383 65.5744 48.7279 65.9132 48.5818C66.2655 48.43 66.6031 48.3808 66.9262 48.4344C67.2537 48.486 67.5284 48.6139 67.7504 48.8182L67.3999 48.0052L67.8742 47.8008L69.4688 51.4999L68.9945 51.7044L68.6411 50.8846C68.6327 51.1882 68.5358 51.479 68.3504 51.7571C68.1676 52.0287 67.9 52.2405 67.5477 52.3923C67.2135 52.5364 66.8768 52.5878 66.5376 52.5465C66.203 52.5033 65.8966 52.3703 65.6184 52.1474C65.3448 51.9226 65.1262 51.6205 64.9626 51.2411ZM68.1972 49.8548C68.0687 49.5567 67.8948 49.321 67.6755 49.1477C67.4562 48.9745 67.2142 48.8726 66.9493 48.8422C66.689 48.8098 66.4323 48.8481 66.1794 48.9571C65.9174 49.0701 65.7079 49.23 65.5507 49.437C65.3936 49.644 65.3027 49.8867 65.2781 50.1651C65.2561 50.4371 65.3112 50.7266 65.4436 51.0337C65.5741 51.3364 65.7477 51.5775 65.9644 51.7573C66.1837 51.9305 66.4235 52.0334 66.6839 52.0657C66.9423 52.0936 67.2024 52.0511 67.4644 51.9382C67.7173 51.8291 67.9214 51.6689 68.0766 51.4573C68.2363 51.2439 68.3285 50.998 68.3531 50.7195C68.3777 50.4411 68.3257 50.1529 68.1972 49.8548ZM69.7777 47.9523C69.7887 47.6423 69.8856 47.3515 70.0685 47.0798C70.2558 46.8063 70.5234 46.5945 70.8712 46.4446C71.2099 46.2986 71.5466 46.2472 71.8812 46.2904C72.2139 46.3291 72.5171 46.4608 72.7908 46.6857C73.067 46.904 73.2869 47.2029 73.4504 47.5823C73.614 47.9617 73.6813 48.329 73.6523 48.6843C73.6279 49.0376 73.5142 49.3517 73.3114 49.6266C73.113 49.8996 72.8467 50.1081 72.5125 50.2522C72.1602 50.404 71.8212 50.4564 71.4956 50.4093C71.1726 50.3557 70.8969 50.2255 70.6685 50.0187L71.0189 50.8317L70.5515 51.0332L68.3903 46.0197L68.8578 45.8182L69.7777 47.9523ZM72.9694 47.7896C72.837 47.4825 72.6621 47.2446 72.4448 47.0758C72.23 46.9006 71.9934 46.7991 71.735 46.7712C71.4766 46.7433 71.2164 46.7858 70.9545 46.8988C70.7015 47.0078 70.4952 47.169 70.3355 47.3825C70.1803 47.594 70.0904 47.839 70.0658 48.1174C70.0412 48.3958 70.0931 48.684 70.2216 48.9821C70.3501 49.2802 70.5241 49.5159 70.7434 49.6892C70.9627 49.8625 71.2025 49.9653 71.4628 49.9977C71.7277 50.0281 71.9866 49.9888 72.2395 49.8798C72.5015 49.7669 72.711 49.6069 72.8682 49.3999C73.0234 49.1884 73.111 48.9444 73.1311 48.6679C73.1537 48.385 73.0998 48.0923 72.9694 47.7896ZM75.2181 48.0897L75.2787 50.1685L74.9535 50.3086L74.6897 48.3175L75.2181 48.0897ZM76.9146 45.4784C76.714 45.0132 76.6365 44.5539 76.6821 44.1004C76.7257 43.6424 76.8798 43.2359 77.1445 42.8808C77.4072 42.5211 77.7554 42.2478 78.189 42.0609C78.7175 41.8331 79.2237 41.7649 79.7076 41.8562C80.1941 41.9411 80.6214 42.1746 80.9897 42.5568L80.4342 42.7963C80.1604 42.5341 79.8446 42.3729 79.4867 42.313C79.1333 42.2511 78.7601 42.3048 78.3672 42.4742C78.0194 42.6241 77.7405 42.8407 77.5306 43.1241C77.3251 43.4054 77.2096 43.7338 77.1839 44.109C77.1563 44.4798 77.2291 44.8662 77.4024 45.2682C77.5757 45.6701 77.8066 45.9884 78.0951 46.2228C78.3836 46.4573 78.7007 46.5965 79.0463 46.6403C79.3964 46.6822 79.7454 46.6282 80.0932 46.4783C80.4861 46.3089 80.7824 46.0767 80.982 45.7818C81.1841 45.4804 81.2848 45.1424 81.284 44.7679L81.8396 44.5284C81.8627 45.054 81.738 45.5228 81.4657 45.9348C81.1934 46.3468 80.7953 46.6657 80.2713 46.8915C79.8377 47.0785 79.401 47.1462 78.961 47.0948C78.5192 47.0389 78.1178 46.8719 77.7568 46.5936C77.3959 46.3154 77.1151 45.9437 76.9146 45.4784ZM82.5433 42.2567C82.5479 41.9816 82.6291 41.735 82.7869 41.517C82.9492 41.2971 83.1861 41.12 83.4978 40.9856L83.711 41.4802L83.5822 41.5357C83.239 41.6837 83.0034 41.895 82.8754 42.1698C82.7475 42.4445 82.777 42.7987 82.9639 43.2323L83.8546 45.2987L83.3804 45.5031L81.7858 41.804L82.26 41.5995L82.5433 42.2567ZM88.3028 40.963C88.3729 41.1256 88.4219 41.2518 88.4499 41.3415L85.3808 42.6645C85.5151 42.9387 85.686 43.1488 85.8936 43.295C86.1012 43.4412 86.3268 43.5234 86.5703 43.5416C86.8119 43.5553 87.0501 43.5115 87.285 43.4103C87.5921 43.2779 87.8174 43.0924 87.961 42.8537C88.109 42.6132 88.1624 42.3518 88.1211 42.0697L88.6224 41.8536C88.6879 42.2539 88.6212 42.6334 88.4224 42.9923C88.2261 43.3447 87.9044 43.6172 87.4573 43.81C87.1095 43.9599 86.7647 44.0175 86.423 43.9827C86.0794 43.9433 85.7672 43.8155 85.4864 43.5991C85.2082 43.3762 84.9864 43.0728 84.8209 42.6889C84.6554 42.305 84.5872 41.9354 84.6161 41.5801C84.6451 41.2248 84.7642 40.911 84.9735 40.6387C85.1829 40.3664 85.4637 40.1543 85.816 40.0024C86.1683 39.8505 86.5085 39.7949 86.8367 39.8356C87.1694 39.8743 87.4622 39.9944 87.7151 40.196C87.9706 40.3912 88.1665 40.6468 88.3028 40.963ZM87.8159 41.1568C87.7017 40.8794 87.544 40.6688 87.3428 40.5252C87.1462 40.3797 86.9271 40.3001 86.6855 40.2864C86.444 40.2727 86.2057 40.3164 85.9709 40.4177C85.6186 40.5695 85.3669 40.8119 85.2158 41.1449C85.0647 41.4778 85.0643 41.8556 85.2143 42.2783L87.8159 41.1568ZM89.0325 40.8654C88.869 40.486 88.8004 40.1219 88.8268 39.7731C88.8558 39.4178 88.9704 39.1059 89.1707 38.8375C89.3735 38.5626 89.6443 38.3521 89.9831 38.2061C90.3354 38.0542 90.6731 38.0051 90.9961 38.0587C91.3236 38.1103 91.5984 38.2382 91.8203 38.4425L91.4699 37.6295L91.9441 37.425L93.5387 41.1242L93.0645 41.3287L92.7111 40.5089C92.7027 40.8124 92.6058 41.1033 92.4204 41.3814C92.2375 41.653 91.9699 41.8647 91.6176 42.0166C91.2834 42.1607 90.9467 42.2121 90.6076 42.1708C90.2729 42.1276 89.9665 41.9946 89.6884 41.7717C89.4147 41.5469 89.1961 41.2448 89.0325 40.8654ZM92.2672 39.4791C92.1387 39.181 91.9648 38.9453 91.7455 38.772C91.5262 38.5988 91.2841 38.4969 91.0192 38.4665C90.7589 38.4341 90.5023 38.4724 90.2493 38.5814C89.9874 38.6943 89.7778 38.8543 89.6206 39.0613C89.4635 39.2683 89.3726 39.511 89.348 39.7894C89.326 40.0613 89.3812 40.3509 89.5136 40.658C89.644 40.9606 89.8176 41.2018 90.0343 41.3815C90.2536 41.5548 90.4935 41.6576 90.7538 41.69C91.0122 41.7179 91.2724 41.6754 91.5343 41.5624C91.7873 41.4534 91.9913 41.2931 92.1465 41.0816C92.3063 40.8682 92.3984 40.6222 92.423 40.3438C92.4476 40.0654 92.3957 39.7772 92.2672 39.4791ZM93.8156 37.0923L94.8057 39.389C94.903 39.6149 95.0131 39.7522 95.1359 39.801C95.2587 39.8499 95.4285 39.8275 95.6453 39.7341L96.0789 39.5472L96.2542 39.9537L95.7461 40.1727C95.4118 40.3168 95.1303 40.3471 94.9015 40.2636C94.6708 40.1756 94.4785 39.9532 94.3247 39.5964L93.3346 37.2997L92.8197 37.5216L92.6474 37.1219L93.1623 36.8999L92.7622 35.9717L93.2432 35.7644L93.6433 36.6926L94.6596 36.2545L94.8319 36.6542L93.8156 37.0923ZM99.5041 36.1345C99.5742 36.2971 99.6232 36.4233 99.6512 36.513L96.5821 37.836C96.7164 38.1102 96.8873 38.3203 97.0949 38.4665C97.3026 38.6127 97.5281 38.6949 97.7716 38.7131C98.0132 38.7268 98.2514 38.683 98.4863 38.5818C98.7934 38.4494 99.0188 38.2639 99.1623 38.0252C99.3103 37.7847 99.3637 37.5233 99.3224 37.2412L99.8238 37.0251C99.8892 37.4254 99.8225 37.8049 99.6237 38.1638C99.4274 38.5162 99.1058 38.7887 98.6586 38.9815C98.3108 39.1314 97.9661 39.189 97.6243 39.1542C97.2807 39.1148 96.9685 38.987 96.6877 38.7706C96.4096 38.5477 96.1877 38.2443 96.0222 37.8604C95.8567 37.4765 95.7885 37.1069 95.8174 36.7516C95.8464 36.3963 95.9655 36.0825 96.1748 35.8102C96.3842 35.5379 96.665 35.3258 97.0173 35.1739C97.3696 35.022 97.7098 34.9664 98.038 35.0071C98.3707 35.0458 98.6635 35.1659 98.9164 35.3675C99.1719 35.5627 99.3678 35.8183 99.5041 36.1345ZM99.0173 36.3283C98.903 36.0508 98.7453 35.8403 98.5442 35.6967C98.3475 35.5512 98.1284 35.4716 97.8868 35.4579C97.6453 35.4442 97.4071 35.4879 97.1722 35.5892C96.8199 35.741 96.5682 35.9834 96.4171 36.3164C96.2661 36.6493 96.2656 37.0271 96.4156 37.4498L99.0173 36.3283ZM101.347 37.7986C101.247 37.8414 101.149 37.8436 101.052 37.805C100.96 37.7645 100.892 37.6946 100.849 37.5952C100.807 37.4959 100.803 37.4009 100.839 37.3105C100.878 37.2135 100.947 37.1436 101.046 37.1008C101.141 37.0599 101.234 37.0597 101.327 37.1002C101.422 37.1342 101.491 37.2009 101.534 37.3003C101.576 37.3996 101.579 37.4978 101.54 37.5948C101.506 37.6898 101.442 37.7577 101.347 37.7986ZM100.076 34.8515C99.977 34.8943 99.8788 34.8964 99.7819 34.8579C99.6894 34.8174 99.6218 34.7475 99.579 34.6481C99.5361 34.5487 99.5327 34.4538 99.5687 34.3633C99.6072 34.2664 99.6762 34.1965 99.7756 34.1536C99.8704 34.1127 99.9641 34.1125 100.056 34.153C100.151 34.1871 100.22 34.2538 100.263 34.3531C100.306 34.4525 100.308 34.5507 100.27 34.6476C100.236 34.7426 100.171 34.8106 100.076 34.8515Z" fill="black"/>
<path d="M67.9332 28.8615C68.9311 28.4313 69.8904 28.2577 70.811 28.3406C71.7406 28.4196 72.5627 28.7315 73.2773 29.2764C73.9919 29.8212 74.5468 30.5521 74.9421 31.4691C75.3335 32.3772 75.4839 33.2825 75.3933 34.1851C75.3026 35.0877 74.9708 35.9131 74.3977 36.6612C73.8298 37.3964 73.0469 37.9791 72.0489 38.4093L68.0707 40.1241L63.955 30.5764L67.9332 28.8615ZM70.6282 35.8554C71.3025 35.5647 71.758 35.1498 71.9946 34.6107C72.2313 34.0716 72.2024 33.4604 71.9079 32.7771C71.6133 32.0938 71.1888 31.6532 70.6344 31.4551C70.0799 31.257 69.4655 31.3033 68.7912 31.5939L68.0765 31.902L69.9135 36.1635L70.6282 35.8554ZM76.0488 32.1755C75.7039 31.3753 75.5403 30.6249 75.5581 29.9243C75.5811 29.2108 75.7649 28.5985 76.1096 28.0874C76.4504 27.5674 76.9176 27.1795 77.5109 26.9237C78.0054 26.7105 78.477 26.6298 78.9258 26.6816C79.3706 26.7244 79.763 26.8804 80.103 27.1496L79.6554 26.1112L82.6357 24.8265L85.9143 32.4324L82.934 33.7171L82.4864 32.6787C82.4487 33.1107 82.2946 33.5076 82.0242 33.8694C81.7498 34.2222 81.3654 34.5052 80.8709 34.7183C80.2776 34.9741 79.6768 35.0519 79.0685 34.9516C78.4564 34.8423 77.885 34.5556 77.3544 34.0913C76.8289 33.6142 76.3937 32.9756 76.0488 32.1755ZM81.2947 29.9141C81.1203 29.5096 80.8812 29.2395 80.5776 29.1039C80.2739 28.9682 79.9603 28.9702 79.6366 29.1097C79.313 29.2492 79.0962 29.4759 78.9863 29.7898C78.8764 30.1037 78.9086 30.4629 79.083 30.8675C79.2574 31.2721 79.4965 31.5422 79.8001 31.6778C80.1038 31.8134 80.4175 31.8115 80.7411 31.672C81.0648 31.5324 81.2815 31.3057 81.3914 30.9918C81.5013 30.6779 81.4691 30.3187 81.2947 29.9141ZM90.9135 30.3893C90.1493 30.7188 89.3937 30.8579 88.6467 30.8068C87.8997 30.7556 87.225 30.5134 86.6224 30.0802C86.025 29.6341 85.5558 29.0155 85.2148 28.2243C84.8737 27.4332 84.7481 26.6718 84.8378 25.9401C84.9326 25.1956 85.2179 24.5343 85.6936 23.9561C86.1693 23.3779 86.7893 22.9241 87.5534 22.5947C88.3176 22.2653 89.0732 22.1261 89.8202 22.1773C90.5672 22.2284 91.2394 22.477 91.8368 22.9231C92.4393 23.3563 92.9111 23.9685 93.2522 24.7597C93.5932 25.5508 93.7163 26.3187 93.6214 27.0632C93.5317 27.7948 93.249 28.4497 92.7733 29.0279C92.2976 29.6061 91.6776 30.0599 90.9135 30.3893ZM89.7973 27.8001C90.076 27.68 90.2633 27.4713 90.3591 27.1742C90.451 26.868 90.4039 26.4992 90.2179 26.0677C90.0319 25.6361 89.798 25.3532 89.5162 25.2188C89.2305 25.0754 88.9483 25.0638 88.6696 25.1839C88.3909 25.3041 88.2056 25.5172 88.1137 25.8233C88.0179 26.1205 88.063 26.4848 88.249 26.9164C88.435 27.3479 88.6664 27.6373 88.9431 27.7846C89.2249 27.9189 89.5096 27.9241 89.7973 27.8001ZM97.3619 27.6256C96.8405 27.8504 96.3623 27.8913 95.9275 27.7482C95.4927 27.6051 95.1843 27.3223 95.0021 26.8998C94.8161 26.4682 94.8203 26.0453 95.0149 25.631C95.2055 25.2076 95.5616 24.8836 96.083 24.6588C96.5955 24.4379 97.071 24.4035 97.5097 24.5555C97.9445 24.6986 98.2549 24.9859 98.4409 25.4174C98.6231 25.84 98.6169 26.2584 98.4224 26.6728C98.2278 27.0871 97.8743 27.4047 97.3619 27.6256Z" fill="url(#paint0_linear_2586_4520)"/>
<path d="M56.3133 66.2571C56.6141 66.197 56.8948 66.2394 57.1554 66.3842C57.414 66.5244 57.6027 66.7323 57.7214 67.0078C57.8928 67.4053 57.8891 67.7818 57.7103 68.1374C57.534 68.4865 57.1975 68.7681 56.7007 68.9823L54.4852 69.9373L52.4351 65.1812L54.576 64.2584C55.0593 64.05 55.4841 63.9981 55.8505 64.1026C56.2214 64.2052 56.4887 64.4461 56.6522 64.8255C56.7729 65.1056 56.7987 65.3703 56.7294 65.6197C56.6647 65.8672 56.526 66.0797 56.3133 66.2571ZM54.423 66.6059L55.1818 66.2788C55.3715 66.1971 55.4985 66.0941 55.5628 65.97C55.6297 65.8394 55.6281 65.6928 55.558 65.5302C55.488 65.3676 55.3825 65.2658 55.2416 65.2247C55.1052 65.1817 54.9422 65.2011 54.7525 65.2829L53.9937 65.61L54.423 66.6059ZM56.0944 68.135C56.2886 68.0513 56.4192 67.9441 56.4861 67.8135C56.5555 67.6764 56.5542 67.5243 56.4822 67.3572C56.4102 67.1901 56.2972 67.0835 56.1434 67.0373C55.9941 66.9892 55.8224 67.007 55.6282 67.0907L54.7881 67.4528L55.2407 68.503L56.0944 68.135ZM58.7517 64.3624C58.7977 64.0962 58.8969 63.8606 59.0496 63.6555C59.2003 63.446 59.3998 63.2877 59.6482 63.1806L60.1768 64.4069L59.8584 64.5441C59.5693 64.6687 59.3798 64.8254 59.2898 65.0142C59.1978 65.1984 59.219 65.4464 59.3533 65.758L60.1097 67.5128L58.9512 68.0122L57.3216 64.2317L58.4801 63.7323L58.7517 64.3624ZM60.6328 62.3384C60.4295 62.426 60.2371 62.4393 60.0555 62.3784C59.8764 62.3109 59.749 62.1891 59.673 62.013C59.5951 61.8323 59.5941 61.656 59.67 61.4841C59.7484 61.3056 59.8892 61.1726 60.0925 61.085C60.2912 60.9994 60.4801 60.9902 60.6591 61.0577C60.8407 61.1186 60.9705 61.2395 61.0484 61.4201C61.1243 61.5963 61.123 61.7736 61.0446 61.952C60.9688 62.1239 60.8315 62.2527 60.6328 62.3384ZM61.378 62.4831L63.0077 66.2636L61.8491 66.763L60.2195 62.9825L61.378 62.4831ZM62.7991 64.104C62.6317 63.7155 62.557 63.3434 62.575 62.9875C62.5975 62.6296 62.7011 62.3172 62.8859 62.05C63.0707 61.7829 63.3189 61.5822 63.6305 61.4479C63.879 61.3408 64.1272 61.2954 64.3752 61.3116C64.6278 61.326 64.8507 61.3959 65.0441 61.5214L64.2877 59.7667L65.4462 59.2673L67.6074 64.2808L66.4489 64.7802L66.2152 64.2382C66.1847 64.4656 66.0912 64.6773 65.9346 64.8733C65.7826 65.0674 65.5734 65.2219 65.3069 65.3367C64.9953 65.4711 64.6789 65.5137 64.3578 65.4647C64.0348 65.4111 63.7355 65.2696 63.4599 65.0403C63.1868 64.8045 62.9666 64.4924 62.7991 64.104ZM65.634 62.89C65.5094 62.6009 65.3298 62.4079 65.0952 62.3108C64.865 62.2119 64.6348 62.212 64.4045 62.3113C64.1741 62.4106 64.0136 62.5789 63.9231 62.8161C63.8351 63.0468 63.8534 63.3067 63.978 63.5958C64.1026 63.8849 64.281 64.0811 64.513 64.1846C64.7477 64.2817 64.9802 64.2805 65.2105 64.1812C65.4409 64.0819 65.5991 63.9147 65.6851 63.6794C65.7757 63.4422 65.7586 63.179 65.634 62.89ZM68.2288 59.4657C68.4953 59.3508 68.7513 59.3047 68.9968 59.3275C69.2467 59.3483 69.4639 59.4234 69.6482 59.5528L69.4175 59.0176L70.576 58.5182L72.2028 62.2919C72.3527 62.6396 72.418 62.9837 72.3987 63.3241C72.3858 63.6671 72.2732 63.9835 72.0607 64.2732C71.8527 64.5611 71.5386 64.7955 71.1186 64.9766C70.5585 65.218 70.0471 65.2804 69.5845 65.1639C69.1238 65.0518 68.7712 64.7807 68.5268 64.3504L69.6718 63.8569C69.7703 63.9858 69.9048 64.0617 70.0753 64.0846C70.2478 64.112 70.4334 64.0829 70.6321 63.9972C70.8715 63.8941 71.0311 63.7423 71.1107 63.5419C71.1968 63.3441 71.1747 63.0939 71.0442 62.7913L70.8135 62.256C70.7765 62.4809 70.683 62.6926 70.5329 62.8912C70.3809 63.0852 70.1717 63.2397 69.9052 63.3546C69.5936 63.4889 69.2772 63.5316 68.9561 63.4825C68.6331 63.4289 68.3338 63.2875 68.0582 63.0581C67.7851 62.8223 67.5649 62.5102 67.3974 62.1218C67.23 61.7334 67.1553 61.3612 67.1733 61.0053C67.1957 60.6475 67.2994 60.335 67.4842 60.0679C67.669 59.8008 67.9172 59.6 68.2288 59.4657ZM70.2323 60.9078C70.1077 60.6187 69.9281 60.4257 69.6935 60.3287C69.4633 60.2297 69.2331 60.2299 69.0027 60.3291C68.7724 60.4284 68.6119 60.5967 68.5214 60.8339C68.4334 61.0647 68.4517 61.3246 68.5763 61.6136C68.7009 61.9027 68.8792 62.099 69.1113 62.2025C69.346 62.2995 69.5785 62.2984 69.8088 62.1991C70.0392 62.0998 70.1974 61.9325 70.2834 61.6972C70.374 61.46 70.3569 61.1969 70.2323 60.9078ZM75.7664 58.45C75.8131 58.5584 75.855 58.6742 75.8921 58.7975L73.2702 59.9277C73.3895 60.1548 73.5419 60.3033 73.7274 60.3733C73.9154 60.4369 74.1066 60.4268 74.3008 60.3431C74.5899 60.2184 74.7383 60.0099 74.7461 59.7173L75.9791 59.1857C76.023 59.4614 76.0042 59.7346 75.9227 60.0054C75.8458 60.2742 75.7075 60.5187 75.5077 60.7387C75.308 60.9587 75.0545 61.1349 74.7474 61.2673C74.377 61.4269 74.0132 61.49 73.656 61.4565C73.2988 61.423 72.9756 61.2946 72.6865 61.0711C72.3973 60.8476 72.168 60.5394 71.9987 60.1464C71.8293 59.7534 71.7603 59.3761 71.7919 59.0144C71.8279 58.6507 71.9564 58.3275 72.1773 58.0448C72.3983 57.7621 72.6962 57.54 73.071 57.3784C73.4369 57.2207 73.7952 57.1573 74.1459 57.1882C74.4967 57.2191 74.8124 57.3428 75.0932 57.5592C75.3784 57.7736 75.6029 58.0705 75.7664 58.45ZM74.4493 58.6562C74.3637 58.4574 74.2278 58.3285 74.0417 58.2695C73.8555 58.2105 73.6608 58.2248 73.4576 58.3124C73.2634 58.3961 73.1229 58.5237 73.036 58.695C72.9537 58.8644 72.9415 59.0597 72.9995 59.2811L74.4493 58.6562ZM80.338 57.6282L80.7615 58.6105L80.172 58.8646C79.752 59.0457 79.3807 59.0852 79.0582 58.9832C78.7338 58.8767 78.4713 58.5908 78.2708 58.1256L77.6224 56.6215L77.1617 56.8201L76.747 55.8581L77.2077 55.6595L76.8105 54.7381L77.9691 54.2387L78.3662 55.1601L79.125 54.833L79.5398 55.795L78.7809 56.1221L79.4351 57.6397C79.4838 57.7527 79.546 57.8223 79.6216 57.8486C79.6972 57.8749 79.7982 57.8608 79.9247 57.8063L80.338 57.6282ZM83.151 57.6448C82.7806 57.8044 82.4123 57.8694 82.0461 57.8399C81.6843 57.8083 81.3544 57.6828 81.0562 57.4632C80.7625 57.2416 80.531 56.9344 80.3616 56.5414C80.1942 56.153 80.133 55.775 80.1781 55.4074C80.2212 55.0353 80.3577 54.706 80.5877 54.4194C80.8177 54.1328 81.1178 53.9097 81.4882 53.75C81.8586 53.5904 82.2269 53.5254 82.5931 53.5549C82.9594 53.5845 83.2925 53.7114 83.5927 53.9355C83.8909 54.1551 84.1237 54.4591 84.2911 54.8475C84.4586 55.236 84.5185 55.6172 84.4708 55.9912C84.4257 56.3588 84.286 56.6869 84.0515 56.9754C83.8215 57.262 83.5214 57.4851 83.151 57.6448ZM82.7188 56.6421C82.9401 56.5466 83.0925 56.3845 83.176 56.1557C83.2639 55.925 83.2427 55.6583 83.1123 55.3557C82.9818 55.0531 82.8048 54.8536 82.5811 54.7572C82.362 54.6588 82.1417 54.6573 81.9204 54.7527C81.6946 54.8501 81.5422 55.0122 81.4632 55.2391C81.3823 55.4614 81.4081 55.7261 81.5405 56.0333C81.6709 56.3359 81.8434 56.5373 82.0581 56.6376C82.2772 56.736 82.4974 56.7375 82.7188 56.6421ZM91.6508 48.2767L92.4612 53.5672L91.0587 54.1717L88.9507 51.3688L89.514 54.8376L88.1116 55.4422L84.8554 51.2059L86.0953 50.6715L88.2719 53.8385L87.6264 50.0114L88.9001 49.4624L91.2055 52.574L90.4042 48.814L91.6508 48.2767ZM97.0046 49.2949C97.0513 49.4033 97.0932 49.5191 97.1303 49.6424L94.5083 50.7726C94.6276 50.9997 94.78 51.1483 94.9655 51.2183C95.1536 51.2818 95.3448 51.2717 95.539 51.188C95.828 51.0634 95.9765 50.8548 95.9842 50.5622L97.2173 50.0307C97.2612 50.3064 97.2424 50.5796 97.1609 50.8504C97.084 51.1192 96.9456 51.3636 96.7459 51.5836C96.5461 51.8036 96.2927 51.9798 95.9856 52.1122C95.6152 52.2719 95.2514 52.335 94.8942 52.3015C94.537 52.268 94.2138 52.1395 93.9246 51.916C93.6355 51.6925 93.4062 51.3843 93.2368 50.9914C93.0674 50.5984 92.9985 50.2211 93.03 49.8593C93.0661 49.4957 93.1946 49.1725 93.4155 48.8898C93.6364 48.6071 93.9343 48.3849 94.3092 48.2233C94.6751 48.0656 95.0334 48.0022 95.3841 48.0331C95.7349 48.064 96.0506 48.1877 96.3314 48.4041C96.6166 48.6186 96.841 48.9155 97.0046 49.2949ZM95.6875 49.5011C95.6018 49.3024 95.466 49.1735 95.2798 49.1145C95.0937 49.0554 94.899 49.0697 94.6958 49.1574C94.5016 49.2411 94.361 49.3686 94.2742 49.5399C94.1919 49.7093 94.1797 49.9047 94.2377 50.1261L95.6875 49.5011ZM98.2165 47.238C98.2489 47.0151 98.3434 46.8057 98.5 46.6097C98.6565 46.4136 98.8657 46.2592 99.1277 46.1463C99.4393 46.0119 99.7557 45.9693 100.077 46.0183C100.398 46.0674 100.694 46.2075 100.965 46.4388C101.241 46.6682 101.462 46.977 101.63 47.3655C101.797 47.7539 101.871 48.1293 101.85 48.4917C101.832 48.8475 101.732 49.1613 101.549 49.4329C101.364 49.7001 101.116 49.9008 100.804 50.0351C100.538 50.15 100.283 50.1983 100.039 50.1801C99.7936 50.1574 99.5764 50.0823 99.3876 49.9548L99.6154 50.4833L98.4569 50.9827L96.2957 45.9691L97.4542 45.4697L98.2165 47.238ZM100.451 47.8736C100.326 47.5846 100.148 47.3938 99.9148 47.3013C99.6847 47.2023 99.4522 47.2034 99.2173 47.3047C98.987 47.404 98.8265 47.5722 98.736 47.8094C98.6499 48.0447 98.6692 48.3069 98.7938 48.5959C98.9184 48.885 99.0958 49.079 99.3259 49.178C99.5605 49.275 99.793 49.2739 100.023 49.1746C100.254 49.0753 100.414 48.907 100.505 48.6698C100.593 48.4281 100.575 48.1627 100.451 47.8736ZM102.886 44.8636C102.696 44.3725 102.693 43.9317 102.878 43.5413C103.064 43.1508 103.411 42.8456 103.922 42.6256C104.26 42.4795 104.575 42.4136 104.865 42.4279C105.159 42.4402 105.411 42.5217 105.621 42.6724C105.835 42.8211 105.997 43.0219 106.106 43.2749C106.234 43.573 106.265 43.849 106.198 44.1029C106.128 44.3524 106.009 44.5538 105.839 44.7072L105.851 44.7343C106.146 44.7092 106.41 44.7638 106.645 44.8983C106.88 45.0328 107.064 45.2559 107.198 45.5675C107.319 45.8475 107.361 46.1242 107.323 46.3975C107.288 46.6643 107.173 46.9122 106.977 47.1412C106.786 47.3683 106.521 47.5549 106.182 47.7009C105.64 47.9345 105.149 47.9882 104.709 47.8619C104.273 47.7336 103.931 47.4047 103.681 46.875L104.805 46.3902C104.896 46.587 105.02 46.7207 105.179 46.7914C105.336 46.8576 105.519 46.8459 105.726 46.7563C105.903 46.6804 106.017 46.5723 106.069 46.4321C106.123 46.2854 106.115 46.1284 106.043 45.9613C105.949 45.7445 105.812 45.6189 105.631 45.5844C105.453 45.5434 105.212 45.5882 104.91 45.7186L104.693 45.8121L104.287 44.8703L104.504 44.7769C104.734 44.6776 104.903 44.5594 105.01 44.4222C105.119 44.2786 105.13 44.1052 105.042 43.9019C104.972 43.7393 104.873 43.6323 104.743 43.5809C104.614 43.5296 104.47 43.5379 104.312 43.6061C104.141 43.6801 104.034 43.7875 103.993 43.9284C103.957 44.0673 103.965 44.2165 104.017 44.3759L102.886 44.8636Z" fill="#00E276"/>
<defs>
<linearGradient id="paint0_linear_2586_4520" x1="73.38" y1="41.4121" x2="95.7979" y2="28.2345" gradientUnits="userSpaceOnUse">
<stop stop-color="#00F19A"/>
<stop offset="1" stop-color="#00E0FF"/>
</linearGradient>
</defs>
</svg>
