<svg width="85" height="38" viewBox="0 0 85 38" fill="none" xmlns="http://www.w3.org/2000/svg">
<path d="M32.5 27.0821C32.5394 34.3082 28.4478 36.2133 23.9359 37.0936C19.0234 38.0461 11.5955 35.3724 11.0996 35.1721C11.2901 35.2411 11.4805 35.3067 11.6743 35.3626C12.7349 35.6845 13.7792 35.8191 14.8037 35.8027C15.6739 35.7863 16.5277 35.6615 17.3585 35.448C17.3782 35.4414 17.3946 35.4414 17.411 35.4348C23.0427 33.9568 29.0159 29.2861 30.0109 22.7924C30.2638 20.0399 30.1817 19.4519 29.8763 16.4038C30.9337 20.4767 32.4803 23.6759 32.4967 27.0821H32.5Z" fill="url(#paint0_linear_2537_895)"/>
<path d="M17.4143 35.4315C17.3946 35.438 17.3782 35.4413 17.3617 35.4479C16.5309 35.6614 15.6772 35.7862 14.807 35.8026C13.7824 35.8191 12.7382 35.6844 11.6775 35.3625C11.4805 35.2968 11.29 35.2311 11.1029 35.172C11.0963 35.172 11.093 35.172 11.0864 35.1654C7.60892 34.0289 4.97532 31.5392 3.00177 28.6323C-0.0685651 24.1226 -2.3081 13.5067 4.2102 7.09514C8.8075 2.57223 12.9877 0.900361 15.0532 0.305846L16.3832 0.00366211C14.449 0.450369 12.9845 2.9204 12.5247 6.72398C12.2423 9.09547 12.1996 12.2717 12.4032 15.5727C12.9516 24.405 15.5327 31.3389 17.4143 35.4282V35.4315Z" fill="url(#paint1_linear_2537_895)"/>
<path d="M30.0138 22.7886C29.0353 20.0361 26.7859 17.0504 23.732 13.8578C19.4729 9.40056 12.5244 6.71703 12.5244 6.71703C12.9809 2.92002 14.4487 0.449992 16.3829 0.00328461H16.396L16.4026 0C16.4026 0 20.8751 0.164231 24.2147 3.67876C27.5083 7.1506 29.1108 12.9217 29.6395 15.4048C29.7117 15.7431 29.7905 16.0716 29.8759 16.4001C30.178 19.4515 30.2634 20.0394 30.0106 22.7919L30.0138 22.7886Z" fill="url(#paint2_linear_2537_895)"/>
<path d="M23.9813 22.894H21.6663C21.5678 22.894 21.489 22.8151 21.489 22.7166V20.401C21.489 20.3024 21.4101 20.2236 21.3116 20.2236H18.9966C18.8981 20.2236 18.8192 20.1448 18.8192 20.0462V17.8652C18.8192 17.7667 18.8981 17.6879 18.9966 17.6879H21.3116C21.4101 17.6879 21.489 17.609 21.489 17.5105V15.0602C21.489 14.9616 21.4101 14.8828 21.3116 14.8828H18.8619C18.7634 14.8828 18.6846 14.9616 18.6846 15.0602V17.3758C18.6846 17.4744 18.6058 17.5532 18.5073 17.5532H16.1922C16.0937 17.5532 16.0149 17.632 16.0149 17.7306V20.1809C16.0149 20.2794 16.0937 20.3583 16.1922 20.3583H18.5073C18.6058 20.3583 18.6846 20.4371 18.6846 20.5356V22.8513C18.6846 22.9498 18.7634 23.0286 18.8619 23.0286H21.177C21.2755 23.0286 21.3543 23.1075 21.3543 23.206V25.387C21.3543 25.4855 21.2755 25.5644 21.177 25.5644H18.8619C18.7634 25.5644 18.6846 25.6432 18.6846 25.7417V28.1921C18.6846 28.2906 18.7634 28.3694 18.8619 28.3694H21.3116C21.4101 28.3694 21.489 28.2906 21.489 28.1921V25.8764C21.489 25.7779 21.5678 25.699 21.6663 25.699H23.9813C24.0799 25.699 24.1587 25.6202 24.1587 25.5217V23.0713C24.1587 22.9728 24.0799 22.894 23.9813 22.894Z" fill="#02FFA4"/>
<path d="M43.7819 20.5161C43.2211 20.5161 42.6913 20.4782 42.1924 20.4058C41.6935 20.3334 41.2944 20.2541 41.002 20.1714V18.3378C41.1499 18.393 41.3288 18.4447 41.5387 18.4895C41.7486 18.5343 41.9756 18.5756 42.213 18.6067C42.4504 18.6377 42.6981 18.6653 42.9493 18.6894C43.2005 18.7135 43.4516 18.7238 43.6993 18.7238C44.0124 18.7238 44.2739 18.7066 44.4907 18.6687C44.7074 18.6308 44.8794 18.5687 45.0136 18.4757C45.1478 18.3826 45.2407 18.2654 45.2957 18.1172C45.3508 17.969 45.3783 17.7898 45.3783 17.5796C45.3783 17.3969 45.3542 17.2384 45.3095 17.1108C45.2648 16.9833 45.1788 16.8661 45.0549 16.7662C44.931 16.6662 44.7556 16.5732 44.5319 16.4905C44.3083 16.4077 44.0124 16.3216 43.6443 16.2285C43.1316 16.1079 42.705 15.9769 42.3713 15.8356C42.0376 15.6943 41.7692 15.5185 41.5662 15.3117C41.3632 15.1049 41.2221 14.8533 41.1396 14.5604C41.057 14.2674 41.0157 13.9021 41.0157 13.4712C41.0157 12.4614 41.3219 11.7411 41.9309 11.3137C42.5399 10.8863 43.4 10.6726 44.5113 10.6726C45.0515 10.6726 45.5331 10.7071 45.9494 10.776C46.3657 10.8449 46.7029 10.9242 46.961 11.0173V12.7406C46.8405 12.7026 46.6892 12.6647 46.5068 12.6234C46.3245 12.582 46.1215 12.5441 45.9013 12.5062C45.6811 12.4683 45.4574 12.4407 45.2338 12.4235C45.0102 12.4062 44.7969 12.3959 44.5939 12.3959C44.0537 12.3959 43.6615 12.4648 43.4172 12.6027C43.1729 12.7406 43.0525 13.0128 43.0525 13.4161C43.0525 13.5712 43.0697 13.7056 43.1076 13.8159C43.1454 13.9262 43.2211 14.0261 43.3346 14.1123C43.4482 14.1985 43.6133 14.2812 43.8301 14.3536C44.0468 14.4259 44.3289 14.5052 44.6764 14.5879C45.2441 14.7258 45.712 14.8809 46.0733 15.0498C46.4346 15.2187 46.7201 15.422 46.9266 15.6564C47.133 15.8907 47.274 16.1665 47.3463 16.4836C47.4185 16.8006 47.4564 17.1832 47.4564 17.6347C47.4564 18.5722 47.1708 19.2856 46.6031 19.7785C46.0355 20.2714 45.0927 20.5161 43.7819 20.5161Z" fill="black"/>
<path d="M52.3143 12.8101C52.937 12.8101 53.4634 12.8618 53.8901 12.9686C54.3167 13.0754 54.6607 13.2271 54.9222 13.4304C55.1837 13.6338 55.3729 13.8819 55.4865 14.1818C55.6 14.4817 55.6585 14.8263 55.6585 15.2227V20.3788H53.8694L53.6767 19.5102C53.5219 19.786 53.2398 20.0238 52.8373 20.2202C52.4347 20.4167 51.9255 20.5166 51.3097 20.5166C50.4736 20.5166 49.8406 20.3305 49.4105 19.9583C48.9804 19.5861 48.7637 19.0139 48.7637 18.2419C48.7637 17.3768 49.0217 16.7702 49.5412 16.4221C50.0607 16.074 50.8177 15.8982 51.8189 15.8982H53.663V15.7052C53.663 15.4846 53.6423 15.295 53.6011 15.14C53.5598 14.9849 53.4806 14.8573 53.3602 14.7608C53.2398 14.6643 53.0815 14.5919 52.8785 14.5471C52.6756 14.5023 52.4106 14.4782 52.0803 14.4782C51.8154 14.4782 51.5471 14.4885 51.2821 14.5127C51.0172 14.5368 50.7557 14.5713 50.4977 14.6161V12.9203C50.7833 12.8824 51.0895 12.8549 51.4198 12.8376C51.7501 12.8204 52.0494 12.8101 52.3143 12.8101ZM51.8189 18.9863C52.2764 18.9863 52.6687 18.9071 52.9886 18.7451C53.3086 18.5831 53.5357 18.3763 53.663 18.1178V17.2493H52.1216C51.6262 17.2493 51.2718 17.3079 51.0551 17.4285C50.8383 17.5491 50.7317 17.7973 50.7317 18.173C50.7317 18.4659 50.8177 18.6762 50.9863 18.8002C51.1548 18.9243 51.4335 18.9863 51.8189 18.9863Z" fill="black"/>
<path d="M56.5527 12.9348H58.7684L60.4337 18.2977H60.5162L62.2503 12.9348H64.3834L61.6722 20.3794H59.2363L56.5527 12.9348Z" fill="black"/>
<path d="M66.4201 11.9002C66.2 11.9002 66.0176 11.8899 65.8697 11.8657C65.7217 11.8416 65.6082 11.7934 65.5256 11.721C65.443 11.6486 65.3846 11.5418 65.3536 11.4039C65.3226 11.266 65.3054 11.0765 65.3054 10.8387C65.3054 10.6008 65.3226 10.4251 65.3536 10.2872C65.3846 10.1493 65.443 10.0425 65.5256 9.97012C65.6082 9.89775 65.7217 9.84949 65.8697 9.83226C66.0176 9.81503 66.2 9.80469 66.4201 9.80469C66.6403 9.80469 66.8365 9.81503 66.9775 9.83226C67.1186 9.84949 67.2321 9.89775 67.3147 9.97012C67.3973 10.0425 67.4558 10.1493 67.4867 10.2872C67.5177 10.4251 67.5349 10.6077 67.5349 10.8387C67.5349 11.0696 67.5177 11.266 67.4867 11.4039C67.4558 11.5418 67.3973 11.6486 67.3147 11.721C67.2321 11.7934 67.1186 11.8416 66.9775 11.8657C66.8365 11.8899 66.6507 11.9002 66.4201 11.9002ZM65.4155 12.9342H67.411V20.3788H65.4155V12.9342Z" fill="black"/>
<path d="M73.7139 12.7954C74.1715 12.7954 74.5603 12.8471 74.8768 12.954C75.1933 13.0608 75.4479 13.2193 75.6406 13.4296C75.8333 13.6398 75.9709 13.9018 76.0534 14.2085C76.136 14.5153 76.1773 14.8772 76.1773 15.2907V20.3779H74.1818V15.8146C74.1818 15.5665 74.1646 15.3528 74.1268 15.1736C74.0889 14.9943 74.027 14.8496 73.941 14.7393C73.8549 14.629 73.7311 14.5497 73.5763 14.498C73.4214 14.4463 73.2185 14.4222 72.9707 14.4222C72.5579 14.4222 72.2173 14.4946 71.9523 14.6428C71.6874 14.791 71.4982 15.0564 71.3881 15.4424V20.3779H69.3926V12.9333H71.3881V13.8294C71.5911 13.4813 71.8938 13.2193 72.2964 13.0505C72.6989 12.8816 73.1737 12.7954 73.7139 12.7954Z" fill="black"/>
<path d="M84.9996 12.9333V19.7989C84.9996 20.3124 84.9308 20.7743 84.7932 21.1844C84.6556 21.5946 84.4251 21.9427 84.0982 22.2322C83.7714 22.5217 83.3482 22.7457 82.8252 22.9008C82.3022 23.0559 81.6554 23.1352 80.8847 23.1352C80.5441 23.1352 80.1829 23.1179 79.7975 23.0869C79.4122 23.0559 79.0681 23.0111 78.7654 22.956V21.3705C79.0578 21.4429 79.3812 21.498 79.7287 21.536C80.0762 21.5739 80.4134 21.5911 80.7334 21.5911C81.1359 21.5911 81.4834 21.5601 81.7724 21.4946C82.0614 21.4291 82.2988 21.3257 82.4812 21.1844C82.6635 21.0431 82.8011 20.8501 82.8871 20.6123C82.9731 20.3745 83.0179 20.0746 83.0179 19.7162V19.3164C82.8631 19.6472 82.6153 19.9057 82.2816 20.0953C81.9479 20.2849 81.4455 20.3779 80.7746 20.3779C80.1691 20.3779 79.6737 20.2849 79.2883 20.1022C78.903 19.9195 78.5968 19.661 78.3663 19.3301C78.1358 18.9993 77.9775 18.6029 77.8915 18.1376C77.8055 17.6723 77.7607 17.1553 77.7607 16.5867C77.7607 16.08 77.8055 15.5975 77.8915 15.1391C77.9775 14.6807 78.1358 14.274 78.3663 13.9259C78.5968 13.5778 78.903 13.3021 79.2883 13.0987C79.6737 12.8954 80.1691 12.7954 80.7746 12.7954C81.4524 12.7954 81.9616 12.8885 82.2954 13.078C82.6291 13.2676 82.8699 13.5364 83.0179 13.8845V12.9333H84.9996ZM81.3664 18.9166C81.7346 18.9166 82.0304 18.8649 82.261 18.758C82.4915 18.6512 82.6704 18.4995 82.7977 18.3031C82.925 18.1066 83.011 17.8619 83.0523 17.5724C83.0936 17.2829 83.1142 16.9554 83.1142 16.5867C83.1142 16.2179 83.0936 15.9077 83.0523 15.6285C83.011 15.3493 82.925 15.1081 82.7977 14.9047C82.6704 14.7014 82.4915 14.5497 82.261 14.4429C82.0304 14.336 81.7346 14.2843 81.3664 14.2843C80.9983 14.2843 80.7402 14.3498 80.5338 14.4773C80.3274 14.6049 80.1726 14.7772 80.0659 14.9874C79.9592 15.1977 79.8904 15.4424 79.8595 15.7181C79.8285 15.9938 79.8113 16.2834 79.8113 16.5867C79.8113 16.9072 79.8285 17.2105 79.8595 17.4897C79.8904 17.7688 79.9627 18.017 80.0728 18.2272C80.1829 18.4375 80.3411 18.6064 80.5476 18.7304C80.754 18.8545 81.0258 18.9166 81.3664 18.9166Z" fill="black"/>
<path d="M44.5803 23.5632C45.2787 23.5632 45.9118 23.6253 46.4864 23.7493C47.0609 23.8734 47.5495 24.1112 47.9589 24.4593C48.3683 24.8075 48.6814 25.2969 48.9016 25.9207C49.1218 26.5445 49.2319 27.3545 49.2319 28.3471C49.2319 29.2742 49.1218 30.0463 48.9016 30.6563C48.6814 31.2664 48.3683 31.7558 47.9589 32.1246C47.5495 32.4933 47.0609 32.7518 46.4864 32.9035C45.9118 33.0551 45.2787 33.131 44.5803 33.131H41.3049V23.5632H44.5803ZM44.4702 31.3387C44.9106 31.3387 45.2925 31.2939 45.6194 31.2009C45.9462 31.1078 46.2146 30.9493 46.4313 30.7184C46.6481 30.4874 46.8063 30.1807 46.913 29.7947C47.0197 29.4087 47.0713 28.9261 47.0713 28.3471C47.0713 27.7302 47.0162 27.227 46.9061 26.8375C46.796 26.448 46.6343 26.1378 46.4176 25.9138C46.2008 25.6898 45.9324 25.5347 45.6056 25.452C45.2787 25.3692 44.9003 25.3279 44.4702 25.3279H43.3968V31.3387H44.4702Z" fill="black"/>
<path d="M56.7043 30.7597H52.8234L51.9977 33.131H49.8232L53.3876 23.5632H56.1951L59.732 33.131H57.5163L56.7043 30.7597ZM56.0988 29.0226L54.8602 25.3968H54.695L53.4289 29.0226H56.0988Z" fill="black"/>
<path d="M64.7003 33.269C64.0122 33.269 63.3963 33.1966 62.8562 33.0484C62.316 32.9002 61.8619 32.6417 61.4937 32.2695C61.1256 31.8973 60.8469 31.3941 60.6542 30.7599C60.4616 30.1257 60.3652 29.3227 60.3652 28.3473C60.3652 27.3719 60.4616 26.5688 60.6542 25.9347C60.8469 25.3005 61.1256 24.7973 61.4937 24.425C61.8619 24.0528 62.316 23.7943 62.8562 23.6461C63.3963 23.4979 64.0122 23.4255 64.7003 23.4255C65.3884 23.4255 66.018 23.4979 66.5582 23.6461C67.0984 23.7943 67.5525 24.0528 67.9206 24.425C68.2888 24.7973 68.564 25.3005 68.7532 25.9347C68.9425 26.5688 69.0354 27.3719 69.0354 28.3473C69.0354 29.3227 68.9425 30.1257 68.7532 30.7599C68.564 31.3941 68.2888 31.8973 67.9206 32.2695C67.5525 32.6417 67.0984 32.9002 66.5582 33.0484C66.018 33.1966 65.3987 33.269 64.7003 33.269ZM64.7003 31.5181C65.1407 31.5181 65.5019 31.463 65.7806 31.3527C66.0593 31.2424 66.2795 31.0632 66.4343 30.815C66.5892 30.5669 66.6993 30.2394 66.7577 29.8362C66.8162 29.4329 66.8472 28.9366 66.8472 28.3473C66.8472 27.7579 66.8162 27.2754 66.7577 26.8652C66.6993 26.4551 66.5892 26.1242 66.4343 25.8657C66.2795 25.6072 66.0593 25.4211 65.7806 25.3074C65.5019 25.1936 65.1407 25.135 64.7003 25.135C64.2599 25.135 63.9021 25.1936 63.6269 25.3074C63.3516 25.4211 63.1349 25.6072 62.98 25.8657C62.8252 26.1242 62.7151 26.4551 62.6566 26.8652C62.5981 27.2754 62.5672 27.7682 62.5672 28.3473C62.5672 28.9263 62.5981 29.4329 62.6566 29.8362C62.7151 30.2394 62.8252 30.5669 62.98 30.815C63.1349 31.0632 63.3516 31.2424 63.6269 31.3527C63.9021 31.463 64.2599 31.5181 64.7003 31.5181Z" fill="black"/>
<defs>
<linearGradient id="paint0_linear_2537_895" x1="33.7117" y1="19.7574" x2="16.2666" y2="39.6906" gradientUnits="userSpaceOnUse">
<stop offset="0.02" stop-color="#02FFA4"/>
<stop offset="1" stop-color="#053F0D"/>
</linearGradient>
<linearGradient id="paint1_linear_2537_895" x1="10.2721" y1="32.4918" x2="6.55953" y2="-8.62813" gradientUnits="userSpaceOnUse">
<stop offset="0.02" stop-color="#02FFA4"/>
<stop offset="0.81" stop-color="#053F0D"/>
</linearGradient>
<linearGradient id="paint2_linear_2537_895" x1="13.2338" y1="11.3953" x2="31.3928" y2="11.3942" gradientUnits="userSpaceOnUse">
<stop stop-color="#02FFA4"/>
<stop offset="1" stop-color="#053F0D"/>
</linearGradient>
</defs>
</svg>
