<svg width="165" height="142" viewBox="0 0 165 142" fill="none" xmlns="http://www.w3.org/2000/svg">
<mask id="mask0_2586_4523" style="mask-type:alpha" maskUnits="userSpaceOnUse" x="0" y="0" width="165" height="142">
<rect width="165" height="142" fill="#D9D9D9"/>
</mask>
<g mask="url(#mask0_2586_4523)">
<path d="M11.4334 66.3325C11.4384 66.3325 11.4424 66.3285 11.4424 66.3235C11.4424 66.3185 11.4384 66.3145 11.4334 66.3145C11.4284 66.3145 11.4243 66.3185 11.4243 66.3235C11.4243 66.3285 11.4284 66.3325 11.4334 66.3325Z" fill="#40D6E0" stroke="#40D6E0"/>
<path d="M11.9336 61.5289C11.9336 61.5289 11.9165 61.5204 11.9165 61.5118C11.9165 61.5033 11.9251 61.4948 11.9336 61.4948C11.9422 61.4948 11.9507 61.5033 11.9507 61.5118C11.9507 61.5204 11.9422 61.5289 11.9336 61.5289Z" fill="#40D6E0" stroke="#40D6E0"/>
<path d="M12.7727 56.773C12.7727 56.773 12.7471 56.7645 12.7471 56.7474C12.7471 56.7303 12.7556 56.7218 12.7727 56.7218C12.7899 56.7218 12.7984 56.7303 12.7984 56.7474C12.7984 56.7645 12.7899 56.773 12.7727 56.773Z" fill="#40D6E0" stroke="#40D6E0"/>
<path d="M13.943 52.0844C13.9596 52.0844 13.973 52.0711 13.973 52.0546C13.973 52.038 13.9596 52.0247 13.943 52.0247C13.9265 52.0247 13.9131 52.038 13.9131 52.0546C13.9131 52.0711 13.9265 52.0844 13.943 52.0844Z" fill="#40D6E0" stroke="#40D6E0"/>
<path d="M15.4392 47.4924C15.4179 47.4924 15.4009 47.4754 15.4009 47.4542C15.4009 47.433 15.4179 47.416 15.4392 47.416C15.4605 47.416 15.4775 47.433 15.4775 47.4542C15.4775 47.4754 15.4605 47.4924 15.4392 47.4924Z" fill="#40D6E0" stroke="#40D6E0"/>
<path d="M17.2617 43.0189C17.2361 43.0189 17.2148 42.9977 17.2148 42.9722C17.2148 42.9468 17.2361 42.9255 17.2617 42.9255C17.2872 42.9255 17.3085 42.9468 17.3085 42.9722C17.3085 42.9977 17.2872 43.0189 17.2617 43.0189Z" fill="#40D6E0" stroke="#40D6E0"/>
<path d="M19.3891 38.6807C19.3594 38.6807 19.334 38.6554 19.334 38.6258C19.334 38.5963 19.3594 38.5709 19.3891 38.5709C19.4188 38.5709 19.4442 38.5963 19.4442 38.6258C19.4442 38.6554 19.4188 38.6807 19.3891 38.6807Z" fill="#40D6E0" stroke="#40D6E0"/>
<path d="M21.8229 34.5027C21.858 34.5027 21.8864 34.4743 21.8864 34.4393C21.8864 34.4043 21.858 34.376 21.8229 34.376C21.7877 34.376 21.7593 34.4043 21.7593 34.4393C21.7593 34.4743 21.7877 34.5027 21.8229 34.5027Z" fill="#40D6E0" stroke="#40D6E0"/>
<path d="M24.5398 30.5029C24.5017 30.5029 24.4678 30.4733 24.4678 30.4311C24.4678 30.3888 24.4974 30.3593 24.5398 30.3593C24.5822 30.3593 24.6119 30.3888 24.6119 30.4311C24.6119 30.4733 24.5822 30.5029 24.5398 30.5029Z" fill="#40D6E0" stroke="#40D6E0"/>
<path d="M27.528 26.701C27.4856 26.701 27.4517 26.6672 27.4517 26.625C27.4517 26.5827 27.4856 26.549 27.528 26.549C27.5704 26.549 27.6043 26.5827 27.6043 26.625C27.6043 26.6672 27.5704 26.701 27.528 26.701Z" fill="#40D6E0" stroke="#40D6E0"/>
<path d="M30.7796 23.1145C30.733 23.1145 30.6948 23.0765 30.6948 23.03C30.6948 22.9836 30.733 22.9456 30.7796 22.9456C30.8262 22.9456 30.8644 22.9836 30.8644 23.03C30.8644 23.0765 30.8262 23.1145 30.7796 23.1145Z" fill="#40D6E0" stroke="#40D6E0"/>
<path d="M34.2686 19.7652C34.3201 19.7652 34.3618 19.7236 34.3618 19.6723C34.3618 19.621 34.3201 19.5793 34.2686 19.5793C34.217 19.5793 34.1753 19.621 34.1753 19.6723C34.1753 19.7236 34.217 19.7652 34.2686 19.7652Z" fill="#40D6E0" stroke="#40D6E0"/>
<path d="M37.9862 16.6687C38.0471 16.6687 38.0964 16.6196 38.0964 16.5589C38.0964 16.4983 38.0471 16.4491 37.9862 16.4491C37.9253 16.4491 37.876 16.4983 37.876 16.5589C37.876 16.6196 37.9253 16.6687 37.9862 16.6687Z" fill="#40D6E0" stroke="#40D6E0"/>
<path d="M41.9112 13.8469C41.8391 13.8469 41.7798 13.7877 41.7798 13.7159C41.7798 13.6441 41.8391 13.585 41.9112 13.585C41.9833 13.585 42.0426 13.6441 42.0426 13.7159C42.0426 13.7877 41.9833 13.8469 41.9112 13.8469Z" fill="#40D6E0" stroke="#40D6E0"/>
<path d="M46.0276 11.2997C45.9428 11.2997 45.875 11.2322 45.875 11.1477C45.875 11.0632 45.9428 10.9956 46.0276 10.9956C46.1124 10.9956 46.1802 11.0632 46.1802 11.1477C46.1802 11.2322 46.1124 11.2997 46.0276 11.2997Z" fill="#40D6E0" stroke="#40D6E0"/>
<path d="M50.3087 9.04386C50.2155 9.04386 50.1392 8.96783 50.1392 8.8749C50.1392 8.78197 50.2155 8.70593 50.3087 8.70593C50.402 8.70593 50.4783 8.78197 50.4783 8.8749C50.4783 8.96783 50.402 9.04386 50.3087 9.04386Z" fill="#40D6E0" stroke="#40D6E0"/>
<path d="M54.743 7.09697C54.637 7.09697 54.5522 7.01248 54.5522 6.90688C54.5522 6.80128 54.637 6.7168 54.743 6.7168C54.849 6.7168 54.9338 6.80128 54.9338 6.90688C54.9338 7.01248 54.849 7.09697 54.743 7.09697Z" fill="#40D6E0" stroke="#40D6E0"/>
<path d="M59.3037 5.46233C59.1851 5.46233 59.0918 5.3694 59.0918 5.25112C59.0918 5.13285 59.1851 5.03992 59.3037 5.03992C59.4224 5.03992 59.5157 5.13285 59.5157 5.25112C59.5157 5.3694 59.4224 5.46233 59.3037 5.46233Z" fill="#40D6E0" stroke="#40D6E0"/>
<path d="M63.9665 4.15252C64.0953 4.15252 64.1997 4.0485 64.1997 3.92019C64.1997 3.79188 64.0953 3.68787 63.9665 3.68787C63.8378 3.68787 63.7334 3.79188 63.7334 3.92019C63.7334 4.0485 63.8378 4.15252 63.9665 4.15252Z" fill="#40D6E0" stroke="#40D6E0"/>
<path d="M68.7184 3.16849C68.5785 3.16849 68.4683 3.05444 68.4683 2.91927C68.4683 2.78409 68.5827 2.67004 68.7184 2.67004C68.854 2.67004 68.9685 2.78409 68.9685 2.91927C68.9685 3.05444 68.854 3.16849 68.7184 3.16849Z" fill="#40D6E0" stroke="#40D6E0"/>
<path d="M73.5262 2.52201C73.676 2.52201 73.7975 2.40097 73.7975 2.25166C73.7975 2.10236 73.676 1.98132 73.5262 1.98132C73.3764 1.98132 73.2549 2.10236 73.2549 2.25166C73.2549 2.40097 73.3764 2.52201 73.5262 2.52201Z" fill="#40D6E0" stroke="#40D6E0"/>
<path d="M78.3667 2.20976C78.2056 2.20976 78.0742 2.07881 78.0742 1.91829C78.0742 1.75778 78.2056 1.62683 78.3667 1.62683C78.5278 1.62683 78.6592 1.75778 78.6592 1.91829C78.6592 2.07881 78.5278 2.20976 78.3667 2.20976Z" fill="#40D6E0" stroke="#40D6E0"/>
<path d="M83.2206 2.23073C83.0468 2.23073 82.9111 2.09134 82.9111 1.92237C82.9111 1.75341 83.051 1.61401 83.2206 1.61401C83.3901 1.61401 83.53 1.75341 83.53 1.92237C83.53 2.09134 83.3901 2.23073 83.2206 2.23073Z" fill="#40D6E0" stroke="#40D6E0"/>
<path d="M88.0616 2.58132C87.8793 2.58132 87.731 2.43348 87.731 2.25184C87.731 2.07021 87.8793 1.92236 88.0616 1.92236C88.2439 1.92236 88.3922 2.07021 88.3922 2.25184C88.3922 2.43348 88.2439 2.58132 88.0616 2.58132Z" fill="#40D6E0" stroke="#40D6E0"/>
<path d="M92.8679 3.26993C93.0623 3.26993 93.2198 3.11296 93.2198 2.91932C93.2198 2.72569 93.0623 2.56873 92.8679 2.56873C92.6736 2.56873 92.5161 2.72569 92.5161 2.91932C92.5161 3.11296 92.6736 3.26993 92.8679 3.26993Z" fill="#40D6E0" stroke="#40D6E0"/>
<path d="M97.6198 4.28785C97.8234 4.28785 97.9886 4.12332 97.9886 3.92035C97.9886 3.71739 97.8234 3.55286 97.6198 3.55286C97.4161 3.55286 97.251 3.71739 97.251 3.92035C97.251 4.12332 97.4161 4.28785 97.6198 4.28785Z" fill="#40D6E0" stroke="#40D6E0"/>
<path d="M102.283 5.64369C102.067 5.64369 101.893 5.4705 101.893 5.25507C101.893 5.03964 102.067 4.86646 102.283 4.86646C102.499 4.86646 102.673 5.03964 102.673 5.25507C102.673 5.4705 102.499 5.64369 102.283 5.64369Z" fill="#40D6E0" stroke="#40D6E0"/>
<path d="M106.844 7.31654C106.619 7.31654 106.433 7.13491 106.433 6.9068C106.433 6.6787 106.615 6.49707 106.844 6.49707C107.073 6.49707 107.255 6.6787 107.255 6.9068C107.255 7.13491 107.073 7.31654 106.844 7.31654Z" fill="#40D6E0" stroke="#40D6E0"/>
<path d="M111.278 9.30617C111.041 9.30617 110.846 9.11609 110.846 8.87532C110.846 8.63454 111.036 8.44446 111.278 8.44446C111.52 8.44446 111.71 8.63454 111.71 8.87532C111.71 9.11609 111.52 9.30617 111.278 9.30617Z" fill="#40D6E0" stroke="#40D6E0"/>
<path d="M115.56 11.5999C115.31 11.5999 115.11 11.3971 115.11 11.1521C115.11 10.9071 115.314 10.7043 115.56 10.7043C115.806 10.7043 116.009 10.9071 116.009 11.1521C116.009 11.3971 115.806 11.5999 115.56 11.5999Z" fill="#40D6E0" stroke="#40D6E0"/>
<path d="M119.675 14.1892C119.935 14.1892 120.146 13.9793 120.146 13.7203C120.146 13.4614 119.935 13.2515 119.675 13.2515C119.415 13.2515 119.205 13.4614 119.205 13.7203C119.205 13.9793 119.415 14.1892 119.675 14.1892Z" fill="#40D6E0" stroke="#40D6E0"/>
<path d="M123.597 17.0529C123.868 17.0529 124.088 16.8335 124.088 16.5629C124.088 16.2923 123.868 16.0729 123.597 16.0729C123.325 16.0729 123.105 16.2923 123.105 16.5629C123.105 16.8335 123.325 17.0529 123.597 17.0529Z" fill="#40D6E0" stroke="#40D6E0"/>
<path d="M127.314 20.1787C127.595 20.1787 127.823 19.9518 127.823 19.6718C127.823 19.3919 127.595 19.1649 127.314 19.1649C127.033 19.1649 126.805 19.3919 126.805 19.6718C126.805 19.9518 127.033 20.1787 127.314 20.1787Z" fill="#40D6E0" stroke="#40D6E0"/>
<path d="M130.803 23.5498C131.088 23.5498 131.32 23.3191 131.32 23.0345C131.32 22.7499 131.088 22.5192 130.803 22.5192C130.517 22.5192 130.286 22.7499 130.286 23.0345C130.286 23.3191 130.517 23.5498 130.803 23.5498Z" fill="#40D6E0" stroke="#40D6E0"/>
<path d="M134.054 27.1528C133.761 27.1528 133.528 26.9162 133.528 26.629C133.528 26.3418 133.766 26.1052 134.054 26.1052C134.342 26.1052 134.58 26.3418 134.58 26.629C134.58 26.9162 134.342 27.1528 134.054 27.1528Z" fill="#40D6E0" stroke="#40D6E0"/>
<path d="M137.042 30.9673C136.746 30.9673 136.508 30.7308 136.508 30.4351C136.508 30.1394 136.746 29.9028 137.042 29.9028C137.339 29.9028 137.577 30.1394 137.577 30.4351C137.577 30.7308 137.339 30.9673 137.042 30.9673Z" fill="#40D6E0" stroke="#40D6E0"/>
<path d="M139.759 34.9844C140.059 34.9844 140.302 34.7424 140.302 34.4438C140.302 34.1451 140.059 33.9031 139.759 33.9031C139.46 33.9031 139.217 34.1451 139.217 34.4438C139.217 34.7424 139.46 34.9844 139.759 34.9844Z" fill="#40D6E0" stroke="#40D6E0"/>
<path d="M142.193 39.1831C142.498 39.1831 142.744 38.9372 142.744 38.634C142.744 38.3307 142.498 38.0848 142.193 38.0848C141.889 38.0848 141.642 38.3307 141.642 38.634C141.642 38.9372 141.889 39.1831 142.193 39.1831Z" fill="#40D6E0" stroke="#40D6E0"/>
<path d="M144.321 43.5341C144.011 43.5341 143.766 43.2849 143.766 42.9807C143.766 42.6766 144.016 42.4274 144.321 42.4274C144.626 42.4274 144.876 42.6766 144.876 42.9807C144.876 43.2849 144.626 43.5341 144.321 43.5341Z" fill="#40D6E0" stroke="#40D6E0"/>
<path d="M146.143 48.0241C145.83 48.0241 145.58 47.7707 145.58 47.4623C145.58 47.154 145.834 46.9005 146.143 46.9005C146.453 46.9005 146.707 47.154 146.707 47.4623C146.707 47.7707 146.453 48.0241 146.143 48.0241Z" fill="#40D6E0" stroke="#40D6E0"/>
<path d="M147.64 52.6327C147.956 52.6327 148.212 52.3774 148.212 52.0624C148.212 51.7475 147.956 51.4922 147.64 51.4922C147.324 51.4922 147.067 51.7475 147.067 52.0624C147.067 52.3774 147.324 52.6327 147.64 52.6327Z" fill="#40D6E0" stroke="#40D6E0"/>
<path d="M148.81 57.334C149.131 57.334 149.391 57.0749 149.391 56.7553C149.391 56.4357 149.131 56.1766 148.81 56.1766C148.489 56.1766 148.229 56.4357 148.229 56.7553C148.229 57.0749 148.489 57.334 148.81 57.334Z" fill="#40D6E0" stroke="#40D6E0"/>
<path d="M149.649 62.1031C149.323 62.1031 149.06 61.8412 149.06 61.516C149.06 61.1907 149.323 60.9288 149.649 60.9288C149.976 60.9288 150.239 61.1907 150.239 61.516C150.239 61.8412 149.976 62.1031 149.649 62.1031Z" fill="#40D6E0" stroke="#40D6E0"/>
<path d="M150.149 66.9225C149.819 66.9225 149.552 66.6564 149.552 66.3269C149.552 65.9974 149.819 65.7313 150.149 65.7313C150.48 65.7313 150.747 65.9974 150.747 66.3269C150.747 66.6564 150.48 66.9225 150.149 66.9225Z" fill="#40D6E0" stroke="#40D6E0"/>
<path d="M150.905 71.2545C150.958 70.9275 150.735 70.6195 150.406 70.5667C150.078 70.5138 149.769 70.7361 149.716 71.0631C149.663 71.3902 149.886 71.6981 150.214 71.751C150.543 71.8038 150.852 71.5815 150.905 71.2545Z" fill="#40D6E0" stroke="#40D6E0"/>
<path d="M150.149 76.5957C149.819 76.5957 149.552 76.3296 149.552 76.0001C149.552 75.6707 149.819 75.4045 150.149 75.4045C150.48 75.4045 150.747 75.6707 150.747 76.0001C150.747 76.3296 150.48 76.5957 150.149 76.5957Z" fill="#40D6E0" stroke="#40D6E0"/>
<path d="M149.645 81.3987C149.319 81.3987 149.056 81.1368 149.056 80.8115C149.056 80.4863 149.319 80.2244 149.645 80.2244C149.972 80.2244 150.235 80.4863 150.235 80.8115C150.235 81.1368 149.972 81.3987 149.645 81.3987Z" fill="#40D6E0" stroke="#40D6E0"/>
<path d="M148.805 86.1552C148.483 86.1552 148.225 85.8933 148.225 85.5765C148.225 85.2597 148.487 84.9978 148.805 84.9978C149.123 84.9978 149.386 85.2597 149.386 85.5765C149.386 85.8933 149.123 86.1552 148.805 86.1552Z" fill="#40D6E0" stroke="#40D6E0"/>
<path d="M147.636 90.8394C147.318 90.8394 147.06 90.5817 147.06 90.2649C147.06 89.9481 147.318 89.6904 147.636 89.6904C147.954 89.6904 148.213 89.9481 148.213 90.2649C148.213 90.5817 147.954 90.8394 147.636 90.8394Z" fill="#40D6E0" stroke="#40D6E0"/>
<path d="M146.139 95.4311C145.826 95.4311 145.571 95.1777 145.571 94.8651C145.571 94.5525 145.826 94.2991 146.139 94.2991C146.453 94.2991 146.707 94.5525 146.707 94.8651C146.707 95.1777 146.453 95.4311 146.139 95.4311Z" fill="#40D6E0" stroke="#40D6E0"/>
<path d="M144.317 99.9087C144.007 99.9087 143.757 99.6595 143.757 99.3511C143.757 99.0428 144.007 98.7936 144.317 98.7936C144.626 98.7936 144.876 99.0428 144.876 99.3511C144.876 99.6595 144.626 99.9087 144.317 99.9087Z" fill="#40D6E0" stroke="#40D6E0"/>
<path d="M142.184 104.247C142.489 104.247 142.735 104.001 142.735 103.698C142.735 103.394 142.489 103.149 142.184 103.149C141.88 103.149 141.633 103.394 141.633 103.698C141.633 104.001 141.88 104.247 142.184 104.247Z" fill="#40D6E0" stroke="#40D6E0"/>
<path d="M139.755 108.425C139.455 108.425 139.213 108.184 139.213 107.884C139.213 107.584 139.455 107.343 139.755 107.343C140.056 107.343 140.298 107.584 140.298 107.884C140.298 108.184 140.056 108.425 139.755 108.425Z" fill="#40D6E0" stroke="#40D6E0"/>
<path d="M137.038 112.425C136.741 112.425 136.504 112.184 136.504 111.892C136.504 111.601 136.746 111.36 137.038 111.36C137.331 111.36 137.572 111.601 137.572 111.892C137.572 112.184 137.331 112.425 137.038 112.425Z" fill="#40D6E0" stroke="#40D6E0"/>
<path d="M134.046 116.222C133.753 116.222 133.52 115.985 133.52 115.698C133.52 115.411 133.757 115.174 134.046 115.174C134.334 115.174 134.571 115.411 134.571 115.698C134.571 115.985 134.334 116.222 134.046 116.222Z" fill="#40D6E0" stroke="#40D6E0"/>
<path d="M130.799 119.808C130.51 119.808 130.277 119.576 130.277 119.289C130.277 119.002 130.51 118.769 130.799 118.769C131.087 118.769 131.32 119.002 131.32 119.289C131.32 119.576 131.087 119.808 130.799 119.808Z" fill="#40D6E0" stroke="#40D6E0"/>
<path d="M127.305 123.162C127.021 123.162 126.792 122.934 126.792 122.651C126.792 122.368 127.021 122.14 127.305 122.14C127.589 122.14 127.818 122.368 127.818 122.651C127.818 122.934 127.589 123.162 127.305 123.162Z" fill="#40D6E0" stroke="#40D6E0"/>
<path d="M123.588 126.254C123.316 126.254 123.092 126.035 123.092 125.76C123.092 125.486 123.312 125.266 123.588 125.266C123.863 125.266 124.084 125.486 124.084 125.76C124.084 126.035 123.863 126.254 123.588 126.254Z" fill="#40D6E0" stroke="#40D6E0"/>
<path d="M119.663 129.08C119.4 129.08 119.188 128.869 119.188 128.607C119.188 128.345 119.4 128.134 119.663 128.134C119.926 128.134 120.138 128.345 120.138 128.607C120.138 128.869 119.926 129.08 119.663 129.08Z" fill="#40D6E0" stroke="#40D6E0"/>
<path d="M115.551 131.627C115.301 131.627 115.097 131.425 115.097 131.175C115.097 130.926 115.301 130.724 115.551 130.724C115.801 130.724 116.004 130.926 116.004 131.175C116.004 131.425 115.801 131.627 115.551 131.627Z" fill="#40D6E0" stroke="#40D6E0"/>
<path d="M111.265 133.879C111.504 133.879 111.698 133.686 111.698 133.448C111.698 133.21 111.504 133.017 111.265 133.017C111.027 133.017 110.833 133.21 110.833 133.448C110.833 133.686 111.027 133.879 111.265 133.879Z" fill="#40D6E0" stroke="#40D6E0"/>
<path d="M106.832 135.83C106.603 135.83 106.417 135.644 106.417 135.416C106.417 135.188 106.603 135.002 106.832 135.002C107.061 135.002 107.247 135.188 107.247 135.416C107.247 135.644 107.061 135.83 106.832 135.83Z" fill="#40D6E0" stroke="#40D6E0"/>
<path d="M102.27 137.461C102.054 137.461 101.876 137.283 101.876 137.068C101.876 136.852 102.054 136.675 102.27 136.675C102.486 136.675 102.664 136.852 102.664 137.068C102.664 137.283 102.486 137.461 102.27 137.461Z" fill="#40D6E0" stroke="#40D6E0"/>
<path d="M97.6074 138.771C97.3997 138.771 97.2344 138.602 97.2344 138.399C97.2344 138.196 97.3997 138.027 97.6074 138.027C97.8151 138.027 97.9804 138.196 97.9804 138.399C97.9804 138.602 97.8151 138.771 97.6074 138.771Z" fill="#40D6E0" stroke="#40D6E0"/>
<path d="M92.8596 139.755C92.6646 139.755 92.5078 139.598 92.5078 139.4C92.5078 139.201 92.6646 139.049 92.8596 139.049C93.0546 139.049 93.2157 139.205 93.2157 139.4C93.2157 139.594 93.0589 139.755 92.8596 139.755Z" fill="#40D6E0" stroke="#40D6E0"/>
<path d="M88.0527 140.401C87.8661 140.401 87.7178 140.253 87.7178 140.067C87.7178 139.881 87.8661 139.733 88.0527 139.733C88.2392 139.733 88.3875 139.881 88.3875 140.067C88.3875 140.253 88.2392 140.401 88.0527 140.401Z" fill="#40D6E0" stroke="#40D6E0"/>
<path d="M83.2072 140.713C83.0334 140.713 82.8936 140.574 82.8936 140.401C82.8936 140.228 83.0334 140.088 83.2072 140.088C83.381 140.088 83.5209 140.228 83.5209 140.401C83.5209 140.574 83.381 140.713 83.2072 140.713Z" fill="#40D6E0" stroke="#40D6E0"/>
<path d="M78.354 140.693C78.1929 140.693 78.0615 140.562 78.0615 140.401C78.0615 140.241 78.1929 140.11 78.354 140.11C78.5151 140.11 78.6465 140.241 78.6465 140.401C78.6465 140.562 78.5151 140.693 78.354 140.693Z" fill="#40D6E0" stroke="#40D6E0"/>
<path d="M73.5128 140.338C73.665 140.338 73.7884 140.215 73.7884 140.063C73.7884 139.911 73.665 139.788 73.5128 139.788C73.3607 139.788 73.2373 139.911 73.2373 140.063C73.2373 140.215 73.3607 140.338 73.5128 140.338Z" fill="#40D6E0" stroke="#40D6E0"/>
<path d="M68.706 139.649C68.5661 139.649 68.4517 139.535 68.4517 139.396C68.4517 139.256 68.5661 139.142 68.706 139.142C68.8459 139.142 68.9603 139.256 68.9603 139.396C68.9603 139.535 68.8459 139.649 68.706 139.649Z" fill="#40D6E0" stroke="#40D6E0"/>
<path d="M63.9582 138.627C63.8311 138.627 63.7251 138.521 63.7251 138.394C63.7251 138.268 63.8311 138.162 63.9582 138.162C64.0854 138.162 64.1914 138.268 64.1914 138.394C64.1914 138.521 64.0854 138.627 63.9582 138.627Z" fill="#40D6E0" stroke="#40D6E0"/>
<path d="M59.2911 137.275C59.1724 137.275 59.0791 137.178 59.0791 137.064C59.0791 136.95 59.1766 136.853 59.2911 136.853C59.4055 136.853 59.503 136.95 59.503 137.064C59.503 137.178 59.4055 137.275 59.2911 137.275Z" fill="#40D6E0" stroke="#40D6E0"/>
<path d="M54.7297 135.602C54.6237 135.602 54.5347 135.518 54.5347 135.408C54.5347 135.298 54.6195 135.214 54.7297 135.214C54.8399 135.214 54.9247 135.298 54.9247 135.408C54.9247 135.518 54.8399 135.602 54.7297 135.602Z" fill="#40D6E0" stroke="#40D6E0"/>
<path d="M50.2959 133.613C50.3918 133.613 50.4697 133.535 50.4697 133.44C50.4697 133.344 50.3918 133.266 50.2959 133.266C50.1999 133.266 50.1221 133.344 50.1221 133.44C50.1221 133.535 50.1999 133.613 50.2959 133.613Z" fill="#40D6E0" stroke="#40D6E0"/>
<path d="M46.0144 131.315C46.0987 131.315 46.167 131.247 46.167 131.163C46.167 131.079 46.0987 131.011 46.0144 131.011C45.9301 131.011 45.8618 131.079 45.8618 131.163C45.8618 131.247 45.9301 131.315 46.0144 131.315Z" fill="#40D6E0" stroke="#40D6E0"/>
<path d="M41.9029 128.73C41.8308 128.73 41.7715 128.671 41.7715 128.599C41.7715 128.527 41.8308 128.468 41.9029 128.468C41.975 128.468 42.0343 128.527 42.0343 128.599C42.0343 128.671 41.975 128.73 41.9029 128.73Z" fill="#40D6E0" stroke="#40D6E0"/>
<path d="M37.9777 125.866C37.9142 125.866 37.8633 125.815 37.8633 125.751C37.8633 125.688 37.9142 125.637 37.9777 125.637C38.0413 125.637 38.0922 125.688 38.0922 125.751C38.0922 125.815 38.0413 125.866 37.9777 125.866Z" fill="#40D6E0" stroke="#40D6E0"/>
<path d="M34.2642 122.736C34.2133 122.736 34.1709 122.694 34.1709 122.643C34.1709 122.592 34.2133 122.55 34.2642 122.55C34.315 122.55 34.3574 122.592 34.3574 122.643C34.3574 122.694 34.315 122.736 34.2642 122.736Z" fill="#40D6E0" stroke="#40D6E0"/>
<path d="M30.7713 119.365C30.7247 119.365 30.6865 119.327 30.6865 119.28C30.6865 119.234 30.7247 119.196 30.7713 119.196C30.8179 119.196 30.8561 119.234 30.8561 119.28C30.8561 119.327 30.8179 119.365 30.7713 119.365Z" fill="#40D6E0" stroke="#40D6E0"/>
<path d="M27.5241 115.766C27.4817 115.766 27.4478 115.732 27.4478 115.69C27.4478 115.647 27.4817 115.614 27.5241 115.614C27.5664 115.614 27.6004 115.647 27.6004 115.69C27.6004 115.732 27.5664 115.766 27.5241 115.766Z" fill="#40D6E0" stroke="#40D6E0"/>
<path d="M24.5315 111.947C24.4934 111.947 24.4595 111.918 24.4595 111.875C24.4595 111.833 24.4891 111.803 24.5315 111.803C24.5739 111.803 24.6036 111.833 24.6036 111.875C24.6036 111.918 24.5739 111.947 24.5315 111.947Z" fill="#40D6E0" stroke="#40D6E0"/>
<path d="M21.8141 107.93C21.7802 107.93 21.7505 107.901 21.7505 107.867C21.7505 107.833 21.7802 107.804 21.8141 107.804C21.848 107.804 21.8777 107.833 21.8777 107.867C21.8777 107.901 21.848 107.93 21.8141 107.93Z" fill="#40D6E0" stroke="#40D6E0"/>
<path d="M19.3852 103.736C19.3555 103.736 19.3301 103.71 19.3301 103.681C19.3301 103.651 19.3555 103.626 19.3852 103.626C19.4149 103.626 19.4403 103.651 19.4403 103.681C19.4403 103.71 19.4149 103.736 19.3852 103.736Z" fill="#40D6E0" stroke="#40D6E0"/>
<path d="M17.2578 99.3811C17.2322 99.3811 17.2109 99.3599 17.2109 99.3344C17.2109 99.309 17.2322 99.2877 17.2578 99.2877C17.2833 99.2877 17.3046 99.309 17.3046 99.3344C17.3046 99.3599 17.2833 99.3811 17.2578 99.3811Z" fill="#40D6E0" stroke="#40D6E0"/>
<path d="M15.4343 94.8907C15.413 94.8907 15.396 94.8738 15.396 94.8525C15.396 94.8313 15.413 94.8143 15.4343 94.8143C15.4556 94.8143 15.4726 94.8313 15.4726 94.8525C15.4726 94.8738 15.4556 94.8907 15.4343 94.8907Z" fill="#40D6E0" stroke="#40D6E0"/>
<path d="M13.9391 90.2824C13.9391 90.2824 13.9092 90.2696 13.9092 90.2526C13.9092 90.2355 13.922 90.2227 13.9391 90.2227C13.9562 90.2227 13.9691 90.2355 13.9691 90.2526C13.9691 90.2696 13.9562 90.2824 13.9391 90.2824Z" fill="#40D6E0" stroke="#40D6E0"/>
<path d="M12.7683 85.5813C12.7683 85.5813 12.7427 85.5727 12.7427 85.5557C12.7427 85.5386 12.7512 85.53 12.7683 85.53C12.7855 85.53 12.794 85.5386 12.794 85.5557C12.794 85.5727 12.7855 85.5813 12.7683 85.5813Z" fill="#40D6E0" stroke="#40D6E0"/>
<path d="M11.9336 80.8121C11.9431 80.8121 11.9507 80.8045 11.9507 80.795C11.9507 80.7856 11.9431 80.778 11.9336 80.778C11.9242 80.778 11.9165 80.7856 11.9165 80.795C11.9165 80.8045 11.9242 80.8121 11.9336 80.8121Z" fill="#40D6E0" stroke="#40D6E0"/>
<path d="M11.429 75.9932C11.434 75.9932 11.438 75.9891 11.438 75.9841C11.438 75.9791 11.434 75.9751 11.429 75.9751C11.424 75.9751 11.4199 75.9791 11.4199 75.9841C11.4199 75.9891 11.424 75.9932 11.429 75.9932Z" fill="#40D6E0" stroke="#40D6E0"/>
<path d="M147.069 76.0059C147.069 76.0059 147.06 76.0059 147.06 75.9968C147.06 75.9878 147.06 75.9878 147.069 75.9878C147.078 75.9878 147.078 75.9878 147.078 75.9968C147.078 76.0059 147.078 76.0059 147.069 76.0059Z" fill="#40D6E0" stroke="#40D6E0"/>
<path d="M146.543 80.8209C146.543 80.8209 146.525 80.8124 146.525 80.8038C146.525 80.7953 146.534 80.7867 146.543 80.7867C146.551 80.7867 146.56 80.7953 146.56 80.8038C146.56 80.8124 146.551 80.8209 146.543 80.8209Z" fill="#40D6E0" stroke="#40D6E0"/>
<path d="M145.665 85.5899C145.679 85.5899 145.691 85.5785 145.691 85.5643C145.691 85.5502 145.679 85.5387 145.665 85.5387C145.651 85.5387 145.64 85.5502 145.64 85.5643C145.64 85.5785 145.651 85.5899 145.665 85.5899Z" fill="#40D6E0" stroke="#40D6E0"/>
<path d="M144.44 90.2795C144.44 90.2795 144.406 90.2665 144.406 90.245C144.406 90.2235 144.419 90.2106 144.44 90.2106C144.462 90.2106 144.475 90.2235 144.475 90.245C144.475 90.2665 144.462 90.2795 144.44 90.2795Z" fill="#40D6E0" stroke="#40D6E0"/>
<path d="M142.871 94.8659C142.85 94.8659 142.829 94.8489 142.829 94.8234C142.829 94.798 142.846 94.781 142.871 94.781C142.897 94.781 142.914 94.798 142.914 94.8234C142.914 94.8489 142.897 94.8659 142.871 94.8659Z" fill="#40D6E0" stroke="#40D6E0"/>
<path d="M140.972 99.322C140.946 99.322 140.921 99.3008 140.921 99.2713C140.921 99.2417 140.942 99.2206 140.972 99.2206C141.001 99.2206 141.023 99.2417 141.023 99.2713C141.023 99.3008 141.001 99.322 140.972 99.322Z" fill="#40D6E0" stroke="#40D6E0"/>
<path d="M138.751 103.631C138.721 103.631 138.696 103.605 138.696 103.576C138.696 103.546 138.721 103.521 138.751 103.521C138.781 103.521 138.806 103.546 138.806 103.576C138.806 103.605 138.781 103.631 138.751 103.631Z" fill="#40D6E0" stroke="#40D6E0"/>
<path d="M136.216 107.766C136.182 107.766 136.152 107.736 136.152 107.703C136.152 107.669 136.182 107.639 136.216 107.639C136.25 107.639 136.28 107.669 136.28 107.703C136.28 107.736 136.25 107.766 136.216 107.766Z" fill="#40D6E0" stroke="#40D6E0"/>
<path d="M133.388 111.702C133.428 111.702 133.461 111.67 133.461 111.631C133.461 111.591 133.428 111.559 133.388 111.559C133.349 111.559 133.316 111.591 133.316 111.631C133.316 111.67 133.349 111.702 133.388 111.702Z" fill="#40D6E0" stroke="#40D6E0"/>
<path d="M130.286 115.428C130.239 115.428 130.205 115.39 130.205 115.348C130.205 115.306 130.243 115.268 130.286 115.268C130.328 115.268 130.366 115.306 130.366 115.348C130.366 115.39 130.328 115.428 130.286 115.428Z" fill="#40D6E0" stroke="#40D6E0"/>
<path d="M126.916 118.917C126.865 118.917 126.827 118.879 126.827 118.829C126.827 118.778 126.865 118.74 126.916 118.74C126.967 118.74 127.005 118.778 127.005 118.829C127.005 118.879 126.967 118.917 126.916 118.917Z" fill="#40D6E0" stroke="#40D6E0"/>
<path d="M123.304 122.157C123.249 122.157 123.202 122.111 123.202 122.056C123.202 122.001 123.249 121.955 123.304 121.955C123.359 121.955 123.406 122.001 123.406 122.056C123.406 122.111 123.359 122.157 123.304 122.157Z" fill="#40D6E0" stroke="#40D6E0"/>
<path d="M119.464 125.14C119.396 125.14 119.341 125.085 119.341 125.017C119.341 124.949 119.396 124.895 119.464 124.895C119.532 124.895 119.587 124.949 119.587 125.017C119.587 125.085 119.532 125.14 119.464 125.14Z" fill="#40D6E0" stroke="#40D6E0"/>
<path d="M115.415 127.83C115.335 127.83 115.271 127.767 115.271 127.686C115.271 127.606 115.335 127.543 115.415 127.543C115.496 127.543 115.559 127.606 115.559 127.686C115.559 127.767 115.496 127.83 115.415 127.83Z" fill="#40D6E0" stroke="#40D6E0"/>
<path d="M111.185 130.225C111.092 130.225 111.02 130.154 111.02 130.061C111.02 129.968 111.092 129.896 111.185 129.896C111.278 129.896 111.35 129.968 111.35 130.061C111.35 130.154 111.278 130.225 111.185 130.225Z" fill="#40D6E0" stroke="#40D6E0"/>
<path d="M106.793 132.299C106.692 132.299 106.607 132.215 106.607 132.113C106.607 132.012 106.692 131.928 106.793 131.928C106.895 131.928 106.98 132.012 106.98 132.113C106.98 132.215 106.895 132.299 106.793 132.299Z" fill="#40D6E0" stroke="#40D6E0"/>
<path d="M102.258 134.052C102.372 134.052 102.465 133.96 102.465 133.845C102.465 133.731 102.372 133.638 102.258 133.638C102.143 133.638 102.05 133.731 102.05 133.845C102.05 133.96 102.143 134.052 102.258 134.052Z" fill="#40D6E0" stroke="#40D6E0"/>
<path d="M97.6117 135.463C97.4845 135.463 97.3828 135.362 97.3828 135.235C97.3828 135.108 97.4845 135.007 97.6117 135.007C97.7389 135.007 97.8406 135.108 97.8406 135.235C97.8406 135.362 97.7389 135.463 97.6117 135.463Z" fill="#40D6E0" stroke="#40D6E0"/>
<path d="M92.8766 136.532C92.7409 136.532 92.6265 136.422 92.6265 136.283C92.6265 136.143 92.7367 136.033 92.8766 136.033C93.0164 136.033 93.1267 136.143 93.1267 136.283C93.1267 136.422 93.0164 136.532 92.8766 136.532Z" fill="#40D6E0" stroke="#40D6E0"/>
<path d="M88.0735 137.254C87.9252 137.254 87.8022 137.136 87.8022 136.984C87.8022 136.832 87.9209 136.714 88.0735 136.714C88.2261 136.714 88.3448 136.832 88.3448 136.984C88.3448 137.136 88.2261 137.254 88.0735 137.254Z" fill="#40D6E0" stroke="#40D6E0"/>
<path d="M83.229 137.622C83.0679 137.622 82.9365 137.491 82.9365 137.33C82.9365 137.17 83.0679 137.039 83.229 137.039C83.3901 137.039 83.5215 137.17 83.5215 137.33C83.5215 137.491 83.3901 137.622 83.229 137.622Z" fill="#40D6E0" stroke="#40D6E0"/>
<path d="M78.3749 137.643C78.2011 137.643 78.0654 137.504 78.0654 137.335C78.0654 137.166 78.2053 137.026 78.3749 137.026C78.5444 137.026 78.6843 137.166 78.6843 137.335C78.6843 137.504 78.5444 137.643 78.3749 137.643Z" fill="#40D6E0" stroke="#40D6E0"/>
<path d="M73.5303 137.318C73.3481 137.318 73.1997 137.17 73.1997 136.988C73.1997 136.807 73.3481 136.659 73.5303 136.659C73.7126 136.659 73.861 136.807 73.861 136.988C73.861 137.17 73.7126 137.318 73.5303 137.318Z" fill="#40D6E0" stroke="#40D6E0"/>
<path d="M68.7273 136.637C68.9216 136.637 69.0792 136.481 69.0792 136.287C69.0792 136.093 68.9216 135.936 68.7273 135.936C68.533 135.936 68.3755 136.093 68.3755 136.287C68.3755 136.481 68.533 136.637 68.7273 136.637Z" fill="#40D6E0" stroke="#40D6E0"/>
<path d="M63.9883 135.616C63.7806 135.616 63.6152 135.451 63.6152 135.244C63.6152 135.037 63.7806 134.872 63.9883 134.872C64.196 134.872 64.3613 135.037 64.3613 135.244C64.3613 135.451 64.196 135.616 63.9883 135.616Z" fill="#40D6E0" stroke="#40D6E0"/>
<path d="M59.3381 134.242C59.5558 134.242 59.7323 134.067 59.7323 133.85C59.7323 133.633 59.5558 133.457 59.3381 133.457C59.1203 133.457 58.9438 133.633 58.9438 133.85C58.9438 134.067 59.1203 134.242 59.3381 134.242Z" fill="#40D6E0" stroke="#40D6E0"/>
<path d="M54.8021 132.536C54.5732 132.536 54.3867 132.35 54.3867 132.122C54.3867 131.894 54.5732 131.708 54.8021 131.708C55.031 131.708 55.2176 131.894 55.2176 132.122C55.2176 132.35 55.031 132.536 54.8021 132.536Z" fill="#40D6E0" stroke="#40D6E0"/>
<path d="M50.4102 130.504C50.1686 130.504 49.9736 130.31 49.9736 130.069C49.9736 129.828 50.1686 129.634 50.4102 129.634C50.6519 129.634 50.8469 129.828 50.8469 130.069C50.8469 130.31 50.6519 130.504 50.4102 130.504Z" fill="#40D6E0" stroke="#40D6E0"/>
<path d="M46.18 128.156C46.4328 128.156 46.6378 127.951 46.6378 127.699C46.6378 127.447 46.4328 127.243 46.18 127.243C45.9271 127.243 45.7222 127.447 45.7222 127.699C45.7222 127.951 45.9271 128.156 46.18 128.156Z" fill="#40D6E0" stroke="#40D6E0"/>
<path d="M42.1318 125.503C41.869 125.503 41.6528 125.287 41.6528 125.025C41.6528 124.764 41.8648 124.548 42.1318 124.548C42.3989 124.548 42.6108 124.764 42.6108 125.025C42.6108 125.287 42.3989 125.503 42.1318 125.503Z" fill="#40D6E0" stroke="#40D6E0"/>
<path d="M38.2956 122.567C38.0201 122.567 37.7954 122.343 37.7954 122.068C37.7954 121.794 38.0201 121.57 38.2956 121.57C38.5711 121.57 38.7958 121.794 38.7958 122.068C38.7958 122.343 38.5711 122.567 38.2956 122.567Z" fill="#40D6E0" stroke="#40D6E0"/>
<path d="M34.6794 119.352C34.3954 119.352 34.1665 119.124 34.1665 118.841C34.1665 118.558 34.3954 118.33 34.6794 118.33C34.9634 118.33 35.1923 118.558 35.1923 118.841C35.1923 119.124 34.9634 119.352 34.6794 119.352Z" fill="#40D6E0" stroke="#40D6E0"/>
<path d="M31.31 115.88C31.0217 115.88 30.7886 115.648 30.7886 115.361C30.7886 115.074 31.0217 114.841 31.31 114.841C31.5982 114.841 31.8314 115.074 31.8314 115.361C31.8314 115.648 31.5982 115.88 31.31 115.88Z" fill="#40D6E0" stroke="#40D6E0"/>
<path d="M28.2027 112.176C27.9102 112.176 27.6729 111.939 27.6729 111.648C27.6729 111.356 27.9102 111.12 28.2027 111.12C28.4952 111.12 28.7326 111.356 28.7326 111.648C28.7326 111.939 28.4952 112.176 28.2027 112.176Z" fill="#40D6E0" stroke="#40D6E0"/>
<path d="M25.3753 108.252C25.6726 108.252 25.9136 108.011 25.9136 107.715C25.9136 107.419 25.6726 107.179 25.3753 107.179C25.0779 107.179 24.8369 107.419 24.8369 107.715C24.8369 108.011 25.0779 108.252 25.3753 108.252Z" fill="#40D6E0" stroke="#40D6E0"/>
<path d="M22.8403 104.133C22.5393 104.133 22.2935 103.888 22.2935 103.588C22.2935 103.288 22.5393 103.043 22.8403 103.043C23.1413 103.043 23.3871 103.288 23.3871 103.588C23.3871 103.888 23.1413 104.133 22.8403 104.133Z" fill="#40D6E0" stroke="#40D6E0"/>
<path d="M20.6144 99.8412C20.3092 99.8412 20.0591 99.592 20.0591 99.2879C20.0591 98.9837 20.3092 98.7345 20.6144 98.7345C20.9196 98.7345 21.1697 98.9837 21.1697 99.2879C21.1697 99.592 20.9196 99.8412 20.6144 99.8412Z" fill="#40D6E0" stroke="#40D6E0"/>
<path d="M18.7112 95.4017C18.4018 95.4017 18.1475 95.1525 18.1475 94.8399C18.1475 94.5273 18.3976 94.2781 18.7112 94.2781C19.0249 94.2781 19.275 94.5273 19.275 94.8399C19.275 95.1525 19.0249 95.4017 18.7112 95.4017Z" fill="#40D6E0" stroke="#40D6E0"/>
<path d="M17.147 90.8314C17.463 90.8314 17.7192 90.5761 17.7192 90.2612C17.7192 89.9462 17.463 89.6909 17.147 89.6909C16.8309 89.6909 16.5747 89.9462 16.5747 90.2612C16.5747 90.5761 16.8309 90.8314 17.147 90.8314Z" fill="#40D6E0" stroke="#40D6E0"/>
<path d="M15.9177 86.1598C15.5997 86.1598 15.3369 85.9022 15.3369 85.5811C15.3369 85.2601 15.5955 85.0024 15.9177 85.0024C16.2398 85.0024 16.4984 85.2601 16.4984 85.5811C16.4984 85.9022 16.2398 86.1598 15.9177 86.1598Z" fill="#40D6E0" stroke="#40D6E0"/>
<path d="M15.0399 81.4118C14.7135 81.4118 14.4507 81.15 14.4507 80.8247C14.4507 80.4994 14.7135 80.2375 15.0399 80.2375C15.3663 80.2375 15.6291 80.4994 15.6291 80.8247C15.6291 81.15 15.3663 81.4118 15.0399 81.4118Z" fill="#40D6E0" stroke="#40D6E0"/>
<path d="M14.5148 76.6089C14.1842 76.6089 13.9214 76.3427 13.9214 76.0175C13.9214 75.6922 14.1884 75.4219 14.5148 75.4219C14.8412 75.4219 15.1083 75.688 15.1083 76.0175C15.1083 76.347 14.8412 76.6089 14.5148 76.6089Z" fill="#40D6E0" stroke="#40D6E0"/>
<path d="M14.3368 71.785C14.0019 71.785 13.7349 71.5146 13.7349 71.1851C13.7349 70.8557 14.0062 70.5853 14.3368 70.5853C14.6674 70.5853 14.9387 70.8557 14.9387 71.1851C14.9387 71.5146 14.6674 71.785 14.3368 71.785Z" fill="#40D6E0" stroke="#40D6E0"/>
<path d="M14.5108 66.9439C14.1801 66.9439 13.9131 66.6778 13.9131 66.3483C13.9131 66.0188 14.1801 65.7527 14.5108 65.7527C14.8414 65.7527 15.1085 66.0188 15.1085 66.3483C15.1085 66.6778 14.8414 66.9439 14.5108 66.9439Z" fill="#40D6E0" stroke="#40D6E0"/>
<path d="M15.036 62.1246C14.7096 62.1246 14.4468 61.8627 14.4468 61.5375C14.4468 61.2122 14.7096 60.9503 15.036 60.9503C15.3624 60.9503 15.6252 61.2122 15.6252 61.5375C15.6252 61.8627 15.3624 62.1246 15.036 62.1246Z" fill="#40D6E0" stroke="#40D6E0"/>
<path d="M15.9094 57.3597C15.5872 57.3597 15.3286 57.102 15.3286 56.781C15.3286 56.4599 15.5872 56.2023 15.9094 56.2023C16.2315 56.2023 16.4901 56.4599 16.4901 56.781C16.4901 57.102 16.2315 57.3597 15.9094 57.3597Z" fill="#40D6E0" stroke="#40D6E0"/>
<path d="M17.1348 52.6666C16.8168 52.6666 16.5625 52.409 16.5625 52.0964C16.5625 51.7838 16.8211 51.5261 17.1348 51.5261C17.4484 51.5261 17.707 51.7838 17.707 52.0964C17.707 52.409 17.4484 52.6666 17.1348 52.6666Z" fill="#40D6E0" stroke="#40D6E0"/>
<path d="M18.6986 48.0793C18.3849 48.0793 18.1348 47.8259 18.1348 47.5175C18.1348 47.2091 18.3891 46.9557 18.6986 46.9557C19.008 46.9557 19.2623 47.2091 19.2623 47.5175C19.2623 47.8259 19.008 48.0793 18.6986 48.0793Z" fill="#40D6E0" stroke="#40D6E0"/>
<path d="M20.5978 43.6186C20.9045 43.6186 21.1531 43.3708 21.1531 43.0652C21.1531 42.7596 20.9045 42.5118 20.5978 42.5118C20.2911 42.5118 20.0425 42.7596 20.0425 43.0652C20.0425 43.3708 20.2911 43.6186 20.5978 43.6186Z" fill="#40D6E0" stroke="#40D6E0"/>
<path d="M22.8188 39.3142C22.5178 39.3142 22.272 39.0692 22.272 38.7693C22.272 38.4694 22.5178 38.2244 22.8188 38.2244C23.1198 38.2244 23.3656 38.4694 23.3656 38.7693C23.3656 39.0692 23.1198 39.3142 22.8188 39.3142Z" fill="#40D6E0" stroke="#40D6E0"/>
<path d="M25.3499 35.1746C25.6472 35.1746 25.8882 34.9344 25.8882 34.6381C25.8882 34.3419 25.6472 34.1017 25.3499 34.1017C25.0526 34.1017 24.8115 34.3419 24.8115 34.6381C24.8115 34.9344 25.0526 35.1746 25.3499 35.1746Z" fill="#40D6E0" stroke="#40D6E0"/>
<path d="M28.1767 31.2381C27.8842 31.2381 27.6426 31.0015 27.6426 30.7058C27.6426 30.4101 27.88 30.1736 28.1767 30.1736C28.4734 30.1736 28.7108 30.4101 28.7108 30.7058C28.7108 31.0015 28.4734 31.2381 28.1767 31.2381Z" fill="#40D6E0" stroke="#40D6E0"/>
<path d="M31.28 27.5163C31.5703 27.5163 31.8057 27.2818 31.8057 26.9925C31.8057 26.7033 31.5703 26.4688 31.28 26.4688C30.9897 26.4688 30.7544 26.7033 30.7544 26.9925C30.7544 27.2818 30.9897 27.5163 31.28 27.5163Z" fill="#40D6E0" stroke="#40D6E0"/>
<path d="M34.6456 24.0232C34.3616 24.0232 34.1284 23.7951 34.1284 23.5079C34.1284 23.2207 34.3573 22.9926 34.6456 22.9926C34.9338 22.9926 35.1627 23.2207 35.1627 23.5079C35.1627 23.7951 34.9338 24.0232 34.6456 24.0232Z" fill="#40D6E0" stroke="#40D6E0"/>
<path d="M38.2574 20.7789C37.9776 20.7789 37.7529 20.555 37.7529 20.2762C37.7529 19.9974 37.9776 19.7736 38.2574 19.7736C38.5371 19.7736 38.7618 19.9974 38.7618 20.2762C38.7618 20.555 38.5371 20.7789 38.2574 20.7789Z" fill="#40D6E0" stroke="#40D6E0"/>
<path d="M42.098 17.797C41.8309 17.797 41.6147 17.5815 41.6147 17.3154C41.6147 17.0493 41.8309 16.8339 42.098 16.8339C42.365 16.8339 42.5812 17.0493 42.5812 17.3154C42.5812 17.5815 42.365 17.797 42.098 17.797Z" fill="#40D6E0" stroke="#40D6E0"/>
<path d="M46.1417 15.1018C45.8874 15.1018 45.6797 14.8948 45.6797 14.6413C45.6797 14.3879 45.8874 14.1809 46.1417 14.1809C46.3961 14.1809 46.6038 14.3879 46.6038 14.6413C46.6038 14.8948 46.3961 15.1018 46.1417 15.1018Z" fill="#40D6E0" stroke="#40D6E0"/>
<path d="M50.3725 12.711C50.616 12.711 50.8134 12.5143 50.8134 12.2717C50.8134 12.0291 50.616 11.8324 50.3725 11.8324C50.129 11.8324 49.9316 12.0291 49.9316 12.2717C49.9316 12.5143 50.129 12.711 50.3725 12.711Z" fill="#40D6E0" stroke="#40D6E0"/>
<path d="M54.7639 10.6285C54.9957 10.6285 55.1836 10.4413 55.1836 10.2103C55.1836 9.97934 54.9957 9.79211 54.7639 9.79211C54.5321 9.79211 54.3442 9.97934 54.3442 10.2103C54.3442 10.4413 54.5321 10.6285 54.7639 10.6285Z" fill="#40D6E0" stroke="#40D6E0"/>
<path d="M59.3003 8.87983C59.0799 8.87983 58.9019 8.70241 58.9019 8.48276C58.9019 8.26311 59.0799 8.08569 59.3003 8.08569C59.5207 8.08569 59.6988 8.26311 59.6988 8.48276C59.6988 8.70241 59.5207 8.87983 59.3003 8.87983Z" fill="#40D6E0" stroke="#40D6E0"/>
<path d="M63.9456 7.46466C63.7379 7.46466 63.5684 7.29569 63.5684 7.08871C63.5684 6.88173 63.7379 6.71277 63.9456 6.71277C64.1533 6.71277 64.3229 6.88173 64.3229 7.08871C64.3229 7.29569 64.1533 7.46466 63.9456 7.46466Z" fill="#40D6E0" stroke="#40D6E0"/>
<path d="M68.6803 6.39178C68.4853 6.39178 68.3242 6.23126 68.3242 6.03695C68.3242 5.84264 68.4853 5.68213 68.6803 5.68213C68.8753 5.68213 69.0364 5.84264 69.0364 6.03695C69.0364 6.23126 68.8753 6.39178 68.6803 6.39178Z" fill="#40D6E0" stroke="#40D6E0"/>
<path d="M73.4838 5.66924C73.2973 5.66924 73.1489 5.52139 73.1489 5.33553C73.1489 5.14967 73.2973 5.00183 73.4838 5.00183C73.6703 5.00183 73.8187 5.14967 73.8187 5.33553C73.8187 5.52139 73.6703 5.66924 73.4838 5.66924Z" fill="#40D6E0" stroke="#40D6E0"/>
<path d="M78.3244 5.29777C78.4977 5.29777 78.6381 5.15782 78.6381 4.98519C78.6381 4.81255 78.4977 4.67261 78.3244 4.67261C78.1512 4.67261 78.0107 4.81255 78.0107 4.98519C78.0107 5.15782 78.1512 5.29777 78.3244 5.29777Z" fill="#40D6E0" stroke="#40D6E0"/>
<path d="M83.1821 5.27677C83.3437 5.27677 83.4746 5.14628 83.4746 4.98531C83.4746 4.82434 83.3437 4.69385 83.1821 4.69385C83.0206 4.69385 82.8896 4.82434 82.8896 4.98531C82.8896 5.14628 83.0206 5.27677 83.1821 5.27677Z" fill="#40D6E0" stroke="#40D6E0"/>
<path d="M88.0237 5.59757C88.1736 5.59757 88.295 5.47653 88.295 5.32723C88.295 5.17792 88.1736 5.05688 88.0237 5.05688C87.8739 5.05688 87.7524 5.17792 87.7524 5.32723C87.7524 5.47653 87.8739 5.59757 88.0237 5.59757Z" fill="#40D6E0" stroke="#40D6E0"/>
<path d="M92.8302 6.27786C92.6903 6.27786 92.5801 6.16381 92.5801 6.02864C92.5801 5.89347 92.6945 5.77942 92.8302 5.77942C92.9658 5.77942 93.0803 5.89347 93.0803 6.02864C93.0803 6.16381 92.9658 6.27786 92.8302 6.27786Z" fill="#40D6E0" stroke="#40D6E0"/>
<path d="M97.5692 7.29983C97.4421 7.29983 97.3403 7.19845 97.3403 7.07173C97.3403 6.945 97.4421 6.84363 97.5692 6.84363C97.6964 6.84363 97.7981 6.945 97.7981 7.07173C97.7981 7.19845 97.6964 7.29983 97.5692 7.29983Z" fill="#40D6E0" stroke="#40D6E0"/>
<path d="M102.219 8.6686C102.104 8.6686 102.011 8.57567 102.011 8.46162C102.011 8.34757 102.104 8.25464 102.219 8.25464C102.333 8.25464 102.427 8.34757 102.427 8.46162C102.427 8.57567 102.333 8.6686 102.219 8.6686Z" fill="#40D6E0" stroke="#40D6E0"/>
<path d="M106.755 10.3751C106.649 10.3751 106.569 10.2907 106.569 10.1893C106.569 10.0879 106.654 10.0034 106.755 10.0034C106.857 10.0034 106.942 10.0879 106.942 10.1893C106.942 10.2907 106.857 10.3751 106.755 10.3751Z" fill="#40D6E0" stroke="#40D6E0"/>
<path d="M111.146 12.411C111.24 12.411 111.316 12.3354 111.316 12.2421C111.316 12.1488 111.24 12.0731 111.146 12.0731C111.052 12.0731 110.977 12.1488 110.977 12.2421C110.977 12.3354 111.052 12.411 111.146 12.411Z" fill="#40D6E0" stroke="#40D6E0"/>
<path d="M115.382 14.7555C115.464 14.7555 115.53 14.6893 115.53 14.6077C115.53 14.526 115.464 14.4598 115.382 14.4598C115.3 14.4598 115.233 14.526 115.233 14.6077C115.233 14.6893 115.3 14.7555 115.382 14.7555Z" fill="#40D6E0" stroke="#40D6E0"/>
<path d="M119.426 17.4037C119.358 17.4037 119.298 17.3488 119.298 17.277C119.298 17.2052 119.353 17.1503 119.426 17.1503C119.498 17.1503 119.553 17.2052 119.553 17.277C119.553 17.3488 119.498 17.4037 119.426 17.4037Z" fill="#40D6E0" stroke="#40D6E0"/>
<path d="M123.266 20.3396C123.206 20.3396 123.16 20.2932 123.16 20.234C123.16 20.1749 123.206 20.1284 123.266 20.1284C123.325 20.1284 123.372 20.1749 123.372 20.234C123.372 20.2932 123.325 20.3396 123.266 20.3396Z" fill="#40D6E0" stroke="#40D6E0"/>
<path d="M126.882 23.55C126.931 23.55 126.971 23.5103 126.971 23.4613C126.971 23.4123 126.931 23.3726 126.882 23.3726C126.833 23.3726 126.793 23.4123 126.793 23.4613C126.793 23.5103 126.833 23.55 126.882 23.55Z" fill="#40D6E0" stroke="#40D6E0"/>
<path d="M130.252 27.0222C130.205 27.0222 130.171 26.9842 130.171 26.9419C130.171 26.8997 130.21 26.8617 130.252 26.8617C130.294 26.8617 130.332 26.8997 130.332 26.9419C130.332 26.9842 130.294 27.0222 130.252 27.0222Z" fill="#40D6E0" stroke="#40D6E0"/>
<path d="M133.363 30.7267C133.321 30.7267 133.291 30.693 133.291 30.6549C133.291 30.6169 133.325 30.5831 133.363 30.5831C133.401 30.5831 133.435 30.6169 133.435 30.6549C133.435 30.693 133.401 30.7267 133.363 30.7267Z" fill="#40D6E0" stroke="#40D6E0"/>
<path d="M136.195 34.6509C136.157 34.6509 136.131 34.6213 136.131 34.5875C136.131 34.5537 136.161 34.5242 136.195 34.5242C136.229 34.5242 136.259 34.5537 136.259 34.5875C136.259 34.6213 136.229 34.6509 136.195 34.6509Z" fill="#40D6E0" stroke="#40D6E0"/>
<path d="M138.729 38.7651C138.7 38.7651 138.67 38.7398 138.67 38.706C138.67 38.6722 138.695 38.6469 138.729 38.6469C138.763 38.6469 138.789 38.6722 138.789 38.706C138.789 38.7398 138.763 38.7651 138.729 38.7651Z" fill="#40D6E0" stroke="#40D6E0"/>
<path d="M140.956 43.0571C140.93 43.0571 140.905 43.036 140.905 43.0064C140.905 42.9768 140.926 42.9557 140.956 42.9557C140.985 42.9557 141.007 42.9768 141.007 43.0064C141.007 43.036 140.985 43.0571 140.956 43.0571Z" fill="#40D6E0" stroke="#40D6E0"/>
<path d="M142.858 47.497C142.837 47.497 142.816 47.48 142.816 47.4546C142.816 47.4291 142.833 47.4121 142.858 47.4121C142.884 47.4121 142.901 47.4291 142.901 47.4546C142.901 47.48 142.884 47.497 142.858 47.497Z" fill="#40D6E0" stroke="#40D6E0"/>
<path d="M144.428 52.0682C144.428 52.0682 144.393 52.0552 144.393 52.0337C144.393 52.0122 144.406 51.9993 144.428 51.9993C144.449 51.9993 144.462 52.0122 144.462 52.0337C144.462 52.0552 144.449 52.0682 144.428 52.0682Z" fill="#40D6E0" stroke="#40D6E0"/>
<path d="M145.656 56.7393C145.656 56.7393 145.63 56.7265 145.63 56.7137C145.63 56.7009 145.643 56.6881 145.656 56.6881C145.669 56.6881 145.682 56.7009 145.682 56.7137C145.682 56.7265 145.669 56.7393 145.656 56.7393Z" fill="#40D6E0" stroke="#40D6E0"/>
<path d="M146.534 61.4873C146.534 61.4873 146.517 61.4787 146.517 61.4702C146.517 61.4617 146.525 61.4531 146.534 61.4531C146.542 61.4531 146.551 61.4617 146.551 61.4702C146.551 61.4787 146.542 61.4873 146.534 61.4873Z" fill="#40D6E0" stroke="#40D6E0"/>
<path d="M147.064 66.2864C147.064 66.2864 147.055 66.2864 147.055 66.2774C147.055 66.2683 147.055 66.2683 147.064 66.2683C147.073 66.2683 147.073 66.2683 147.073 66.2774C147.073 66.2864 147.073 66.2864 147.064 66.2864Z" fill="#40D6E0" stroke="#40D6E0"/>
<path d="M17.5969 66.3328C17.5969 66.3328 17.5879 66.3328 17.5879 66.3237C17.5879 66.3147 17.5879 66.3147 17.5969 66.3147C17.606 66.3147 17.606 66.3147 17.606 66.3237C17.606 66.3328 17.606 66.3328 17.5969 66.3328Z" fill="#40D6E0" stroke="#40D6E0"/>
<path d="M18.148 61.5332C18.148 61.5332 18.1309 61.5246 18.1309 61.5161C18.1309 61.5076 18.1394 61.499 18.148 61.499C18.1565 61.499 18.1651 61.5076 18.1651 61.5161C18.1651 61.5246 18.1565 61.5332 18.148 61.5332Z" fill="#40D6E0" stroke="#40D6E0"/>
<path d="M19.0677 56.7895C19.0818 56.7895 19.0933 56.7781 19.0933 56.7639C19.0933 56.7498 19.0818 56.7383 19.0677 56.7383C19.0535 56.7383 19.042 56.7498 19.042 56.7639C19.042 56.7781 19.0535 56.7895 19.0677 56.7895Z" fill="#40D6E0" stroke="#40D6E0"/>
<path d="M20.3524 52.1313C20.3524 52.1313 20.3179 52.114 20.3179 52.0968C20.3179 52.0796 20.3351 52.0624 20.3524 52.0624C20.3697 52.0624 20.3869 52.0796 20.3869 52.0968C20.3869 52.114 20.3697 52.1313 20.3524 52.1313Z" fill="#40D6E0" stroke="#40D6E0"/>
<path d="M21.9928 47.5849C21.9672 47.5849 21.9502 47.5637 21.9502 47.5424C21.9502 47.5212 21.9715 47.5 21.9928 47.5C22.014 47.5 22.0353 47.5212 22.0353 47.5424C22.0353 47.5637 22.014 47.5849 21.9928 47.5849Z" fill="#40D6E0" stroke="#40D6E0"/>
<path d="M23.9806 43.1793C24.0086 43.1793 24.0314 43.1566 24.0314 43.1286C24.0314 43.1006 24.0086 43.0779 23.9806 43.0779C23.9525 43.0779 23.9297 43.1006 23.9297 43.1286C23.9297 43.1566 23.9525 43.1793 23.9806 43.1793Z" fill="#40D6E0" stroke="#40D6E0"/>
<path d="M26.303 38.938C26.2691 38.938 26.2437 38.9126 26.2437 38.8788C26.2437 38.845 26.2691 38.8197 26.303 38.8197C26.3369 38.8197 26.3623 38.845 26.3623 38.8788C26.3623 38.9126 26.3369 38.938 26.303 38.938Z" fill="#40D6E0" stroke="#40D6E0"/>
<path d="M28.9487 34.8914C28.9105 34.8914 28.8809 34.8618 28.8809 34.8238C28.8809 34.7858 28.9105 34.7562 28.9487 34.7562C28.9868 34.7562 29.0165 34.7858 29.0165 34.8238C29.0165 34.8618 28.9868 34.8914 28.9487 34.8914Z" fill="#40D6E0" stroke="#40D6E0"/>
<path d="M31.8903 31.0518C31.9324 31.0518 31.9666 31.0178 31.9666 30.9758C31.9666 30.9338 31.9324 30.8998 31.8903 30.8998C31.8481 30.8998 31.814 30.9338 31.814 30.9758C31.814 31.0178 31.8481 31.0518 31.8903 31.0518Z" fill="#40D6E0" stroke="#40D6E0"/>
<path d="M35.1248 27.4527C35.1716 27.4527 35.2096 27.4148 35.2096 27.3682C35.2096 27.3215 35.1716 27.2837 35.1248 27.2837C35.078 27.2837 35.04 27.3215 35.04 27.3682C35.04 27.4148 35.078 27.4527 35.1248 27.4527Z" fill="#40D6E0" stroke="#40D6E0"/>
<path d="M38.6221 24.103C38.5712 24.103 38.5288 24.0607 38.5288 24.01C38.5288 23.9594 38.5712 23.9171 38.6221 23.9171C38.6729 23.9171 38.7153 23.9594 38.7153 24.01C38.7153 24.0607 38.6729 24.103 38.6221 24.103Z" fill="#40D6E0" stroke="#40D6E0"/>
<path d="M42.3649 21.0446C42.3014 21.0446 42.2505 20.9939 42.2505 20.9306C42.2505 20.8672 42.3014 20.8165 42.3649 20.8165C42.4285 20.8165 42.4794 20.8672 42.4794 20.9306C42.4794 20.9939 42.4285 21.0446 42.3649 21.0446Z" fill="#40D6E0" stroke="#40D6E0"/>
<path d="M46.3363 18.2782C46.26 18.2782 46.2007 18.219 46.2007 18.143C46.2007 18.0669 46.26 18.0078 46.3363 18.0078C46.4126 18.0078 46.472 18.0669 46.472 18.143C46.472 18.219 46.4126 18.2782 46.3363 18.2782Z" fill="#40D6E0" stroke="#40D6E0"/>
<path d="M50.5079 15.8237C50.5945 15.8237 50.6648 15.7537 50.6648 15.6674C50.6648 15.5811 50.5945 15.5111 50.5079 15.5111C50.4213 15.5111 50.3511 15.5811 50.3511 15.6674C50.3511 15.7537 50.4213 15.8237 50.5079 15.8237Z" fill="#40D6E0" stroke="#40D6E0"/>
<path d="M54.8571 13.6948C54.7553 13.6948 54.6748 13.6146 54.6748 13.5132C54.6748 13.4118 54.7553 13.3315 54.8571 13.3315C54.9588 13.3315 55.0394 13.4118 55.0394 13.5132C55.0394 13.6146 54.9588 13.6948 54.8571 13.6948Z" fill="#40D6E0" stroke="#40D6E0"/>
<path d="M59.3592 11.9082C59.4716 11.9082 59.5627 11.8174 59.5627 11.7054C59.5627 11.5935 59.4716 11.5027 59.3592 11.5027C59.2469 11.5027 59.1558 11.5935 59.1558 11.7054C59.1558 11.8174 59.2469 11.9082 59.3592 11.9082Z" fill="#40D6E0" stroke="#40D6E0"/>
<path d="M63.9883 10.472C63.8654 10.472 63.7637 10.3707 63.7637 10.2482C63.7637 10.1257 63.8654 10.0243 63.9883 10.0243C64.1113 10.0243 64.213 10.1257 64.213 10.2482C64.213 10.3707 64.1113 10.472 63.9883 10.472Z" fill="#40D6E0" stroke="#40D6E0"/>
<path d="M68.7141 9.39466C68.5785 9.39466 68.4683 9.28483 68.4683 9.14966C68.4683 9.01449 68.5785 8.90466 68.7141 8.90466C68.8498 8.90466 68.96 9.01449 68.96 9.14966C68.96 9.28483 68.8498 9.39466 68.7141 9.39466Z" fill="#40D6E0" stroke="#40D6E0"/>
<path d="M73.5127 8.6808C73.6602 8.6808 73.7797 8.56165 73.7797 8.41468C73.7797 8.2677 73.6602 8.14856 73.5127 8.14856C73.3652 8.14856 73.2456 8.2677 73.2456 8.41468C73.2456 8.56165 73.3652 8.6808 73.5127 8.6808Z" fill="#40D6E0" stroke="#40D6E0"/>
<path d="M78.3586 8.33876C78.1975 8.33876 78.0703 8.20781 78.0703 8.05152C78.0703 7.89523 78.2017 7.76428 78.3586 7.76428C78.5154 7.76428 78.6468 7.89523 78.6468 8.05152C78.6468 8.20781 78.5154 8.33876 78.3586 8.33876Z" fill="#40D6E0" stroke="#40D6E0"/>
<path d="M83.2116 8.35991C83.0378 8.35991 82.8979 8.22051 82.8979 8.04732C82.8979 7.87414 83.0378 7.73474 83.2116 7.73474C83.3854 7.73474 83.5253 7.87414 83.5253 8.04732C83.5253 8.22051 83.3854 8.35991 83.2116 8.35991Z" fill="#40D6E0" stroke="#40D6E0"/>
<path d="M88.0566 8.7487C88.2415 8.7487 88.3914 8.5993 88.3914 8.415C88.3914 8.2307 88.2415 8.0813 88.0566 8.0813C87.8716 8.0813 87.7217 8.2307 87.7217 8.415C87.7217 8.5993 87.8716 8.7487 88.0566 8.7487Z" fill="#40D6E0" stroke="#40D6E0"/>
<path d="M92.8556 9.50029C92.6606 9.50029 92.4995 9.33978 92.4995 9.14547C92.4995 8.95116 92.6606 8.79065 92.8556 8.79065C93.0506 8.79065 93.2117 8.95116 93.2117 9.14547C93.2117 9.33978 93.0506 9.50029 92.8556 9.50029Z" fill="#40D6E0" stroke="#40D6E0"/>
<path d="M97.5862 10.6199C97.3785 10.6199 97.209 10.451 97.209 10.244C97.209 10.037 97.3785 9.86804 97.5862 9.86804C97.794 9.86804 97.9635 10.037 97.9635 10.244C97.9635 10.451 97.794 10.6199 97.5862 10.6199Z" fill="#40D6E0" stroke="#40D6E0"/>
<path d="M102.215 12.1022C101.994 12.1022 101.816 11.9248 101.816 11.7052C101.816 11.4855 101.994 11.3081 102.215 11.3081C102.435 11.3081 102.613 11.4855 102.613 11.7052C102.613 11.9248 102.435 12.1022 102.215 12.1022Z" fill="#40D6E0" stroke="#40D6E0"/>
<path d="M106.717 13.9312C106.484 13.9312 106.297 13.7454 106.297 13.513C106.297 13.2807 106.484 13.0948 106.717 13.0948C106.95 13.0948 107.137 13.2807 107.137 13.513C107.137 13.7454 106.95 13.9312 106.717 13.9312Z" fill="#40D6E0" stroke="#40D6E0"/>
<path d="M111.066 16.1026C110.82 16.1026 110.621 15.9041 110.621 15.6591C110.621 15.4141 110.82 15.2156 111.066 15.2156C111.312 15.2156 111.511 15.4141 111.511 15.6591C111.511 15.9041 111.312 16.1026 111.066 16.1026Z" fill="#40D6E0" stroke="#40D6E0"/>
<path d="M115.238 18.6034C114.979 18.6034 114.771 18.3964 114.771 18.1387C114.771 17.8811 114.979 17.6741 115.238 17.6741C115.496 17.6741 115.704 17.8811 115.704 18.1387C115.704 18.3964 115.496 18.6034 115.238 18.6034Z" fill="#40D6E0" stroke="#40D6E0"/>
<path d="M119.205 21.4081C119.474 21.4081 119.692 21.1906 119.692 20.9223C119.692 20.654 119.474 20.4365 119.205 20.4365C118.936 20.4365 118.717 20.654 118.717 20.9223C118.717 21.1906 118.936 21.4081 119.205 21.4081Z" fill="#40D6E0" stroke="#40D6E0"/>
<path d="M122.948 24.5087C122.668 24.5087 122.439 24.2806 122.439 24.0018C122.439 23.723 122.668 23.4949 122.948 23.4949C123.227 23.4949 123.456 23.723 123.456 24.0018C123.456 24.2806 123.227 24.5087 122.948 24.5087Z" fill="#40D6E0" stroke="#40D6E0"/>
<path d="M126.449 27.875C126.161 27.875 125.932 27.6427 125.932 27.3597C125.932 27.0767 126.165 26.8444 126.449 26.8444C126.733 26.8444 126.966 27.0767 126.966 27.3597C126.966 27.6427 126.733 27.875 126.449 27.875Z" fill="#40D6E0" stroke="#40D6E0"/>
<path d="M129.679 31.4908C129.97 31.4908 130.205 31.2563 130.205 30.967C130.205 30.6777 129.97 30.4432 129.679 30.4432C129.389 30.4432 129.154 30.6777 129.154 30.967C129.154 31.2563 129.389 31.4908 129.679 31.4908Z" fill="#40D6E0" stroke="#40D6E0"/>
<path d="M132.625 35.3474C132.329 35.3474 132.091 35.1067 132.091 34.8152C132.091 34.5237 132.333 34.283 132.625 34.283C132.918 34.283 133.16 34.5237 133.16 34.8152C133.16 35.1067 132.918 35.3474 132.625 35.3474Z" fill="#40D6E0" stroke="#40D6E0"/>
<path d="M135.27 39.4154C134.969 39.4154 134.728 39.1746 134.728 38.8747C134.728 38.5748 134.969 38.334 135.27 38.334C135.571 38.334 135.813 38.5748 135.813 38.8747C135.813 39.1746 135.571 39.4154 135.27 39.4154Z" fill="#40D6E0" stroke="#40D6E0"/>
<path d="M137.594 43.6733C137.289 43.6733 137.043 43.4283 137.043 43.1242C137.043 42.8201 137.289 42.5751 137.594 42.5751C137.899 42.5751 138.145 42.8201 138.145 43.1242C138.145 43.4283 137.899 43.6733 137.594 43.6733Z" fill="#40D6E0" stroke="#40D6E0"/>
<path d="M139.585 48.0917C139.894 48.0917 140.145 47.8421 140.145 47.5341C140.145 47.2262 139.894 46.9766 139.585 46.9766C139.276 46.9766 139.026 47.2262 139.026 47.5341C139.026 47.8421 139.276 48.0917 139.585 48.0917Z" fill="#40D6E0" stroke="#40D6E0"/>
<path d="M141.227 52.6535C140.913 52.6535 140.659 52.4001 140.659 52.0875C140.659 51.7749 140.913 51.5215 141.227 51.5215C141.54 51.5215 141.795 51.7749 141.795 52.0875C141.795 52.4001 141.54 52.6535 141.227 52.6535Z" fill="#40D6E0" stroke="#40D6E0"/>
<path d="M142.511 57.3258C142.829 57.3258 143.088 57.0686 143.088 56.7514C143.088 56.4341 142.829 56.1769 142.511 56.1769C142.193 56.1769 141.935 56.4341 141.935 56.7514C141.935 57.0686 142.193 57.3258 142.511 57.3258Z" fill="#40D6E0" stroke="#40D6E0"/>
<path d="M143.431 62.0863C143.754 62.0863 144.016 61.8253 144.016 61.5033C144.016 61.1814 143.754 60.9204 143.431 60.9204C143.108 60.9204 142.846 61.1814 142.846 61.5033C142.846 61.8253 143.108 62.0863 143.431 62.0863Z" fill="#40D6E0" stroke="#40D6E0"/>
<path d="M143.982 66.9016C143.651 66.9016 143.388 66.6355 143.388 66.3102C143.388 65.985 143.655 65.7189 143.982 65.7189C144.308 65.7189 144.575 65.985 144.575 66.3102C144.575 66.6355 144.308 66.9016 143.982 66.9016Z" fill="#40D6E0" stroke="#40D6E0"/>
<path d="M144.168 71.7468C143.833 71.7468 143.566 71.4764 143.566 71.1469C143.566 70.8175 143.838 70.5471 144.168 70.5471C144.499 70.5471 144.77 70.8175 144.77 71.1469C144.77 71.4764 144.499 71.7468 144.168 71.7468Z" fill="#40D6E0" stroke="#40D6E0"/>
<path d="M143.986 76.5749C143.655 76.5749 143.388 76.3087 143.388 75.9793C143.388 75.6498 143.655 75.3837 143.986 75.3837C144.317 75.3837 144.584 75.6498 144.584 75.9793C144.584 76.3087 144.317 76.5749 143.986 76.5749Z" fill="#40D6E0" stroke="#40D6E0"/>
<path d="M143.435 81.3774C143.109 81.3774 142.846 81.1155 142.846 80.7903C142.846 80.465 143.109 80.2031 143.435 80.2031C143.762 80.2031 144.025 80.465 144.025 80.7903C144.025 81.1155 143.762 81.3774 143.435 81.3774Z" fill="#40D6E0" stroke="#40D6E0"/>
<path d="M142.515 86.1172C142.193 86.1172 141.935 85.8596 141.935 85.5385C141.935 85.2175 142.193 84.9598 142.515 84.9598C142.837 84.9598 143.096 85.2175 143.096 85.5385C143.096 85.8596 142.837 86.1172 142.515 86.1172Z" fill="#40D6E0" stroke="#40D6E0"/>
<path d="M141.235 90.776C140.921 90.776 140.663 90.5226 140.663 90.2058C140.663 89.8889 140.917 89.6355 141.235 89.6355C141.553 89.6355 141.807 89.8889 141.807 90.2058C141.807 90.5226 141.553 90.776 141.235 90.776Z" fill="#40D6E0" stroke="#40D6E0"/>
<path d="M139.595 95.3215C139.285 95.3215 139.031 95.0723 139.031 94.7597C139.031 94.4471 139.281 94.1979 139.595 94.1979C139.908 94.1979 140.158 94.4471 140.158 94.7597C140.158 95.0723 139.908 95.3215 139.595 95.3215Z" fill="#40D6E0" stroke="#40D6E0"/>
<path d="M137.606 99.7269C137.301 99.7269 137.051 99.4777 137.051 99.1736C137.051 98.8695 137.301 98.6202 137.606 98.6202C137.911 98.6202 138.161 98.8695 138.161 99.1736C138.161 99.4777 137.911 99.7269 137.606 99.7269Z" fill="#40D6E0" stroke="#40D6E0"/>
<path d="M135.283 103.968C134.982 103.968 134.736 103.723 134.736 103.423C134.736 103.123 134.982 102.878 135.283 102.878C135.584 102.878 135.83 103.123 135.83 103.423C135.83 103.723 135.584 103.968 135.283 103.968Z" fill="#40D6E0" stroke="#40D6E0"/>
<path d="M132.642 108.019C132.346 108.019 132.104 107.778 132.104 107.482C132.104 107.187 132.346 106.946 132.642 106.946C132.939 106.946 133.181 107.187 133.181 107.482C133.181 107.778 132.939 108.019 132.642 108.019Z" fill="#40D6E0" stroke="#40D6E0"/>
<path d="M129.696 111.855C129.404 111.855 129.167 111.618 129.167 111.327C129.167 111.035 129.404 110.799 129.696 110.799C129.989 110.799 130.226 111.035 130.226 111.327C130.226 111.618 129.989 111.855 129.696 111.855Z" fill="#40D6E0" stroke="#40D6E0"/>
<path d="M126.467 115.458C126.178 115.458 125.945 115.225 125.945 114.938C125.945 114.651 126.178 114.418 126.467 114.418C126.755 114.418 126.988 114.651 126.988 114.938C126.988 115.225 126.755 115.458 126.467 115.458Z" fill="#40D6E0" stroke="#40D6E0"/>
<path d="M122.969 118.807C122.685 118.807 122.457 118.579 122.457 118.296C122.457 118.013 122.685 117.785 122.969 117.785C123.253 117.785 123.482 118.013 123.482 118.296C123.482 118.579 123.253 118.807 122.969 118.807Z" fill="#40D6E0" stroke="#40D6E0"/>
<path d="M119.226 121.87C118.955 121.87 118.734 121.65 118.734 121.38C118.734 121.109 118.955 120.89 119.226 120.89C119.497 120.89 119.718 121.109 119.718 121.38C119.718 121.65 119.497 121.87 119.226 121.87Z" fill="#40D6E0" stroke="#40D6E0"/>
<path d="M115.259 124.632C115 124.632 114.788 124.421 114.788 124.163C114.788 123.906 115 123.695 115.259 123.695C115.517 123.695 115.729 123.906 115.729 124.163C115.729 124.421 115.517 124.632 115.259 124.632Z" fill="#40D6E0" stroke="#40D6E0"/>
<path d="M111.087 127.087C111.333 127.087 111.532 126.888 111.532 126.643C111.532 126.398 111.333 126.199 111.087 126.199C110.841 126.199 110.642 126.398 110.642 126.643C110.642 126.888 110.841 127.087 111.087 127.087Z" fill="#40D6E0" stroke="#40D6E0"/>
<path d="M106.738 129.22C106.972 129.22 107.162 129.031 107.162 128.797C107.162 128.564 106.972 128.375 106.738 128.375C106.504 128.375 106.314 128.564 106.314 128.797C106.314 129.031 106.504 129.22 106.738 129.22Z" fill="#40D6E0" stroke="#40D6E0"/>
<path d="M102.237 131.007C102.016 131.007 101.834 130.825 101.834 130.605C101.834 130.386 102.016 130.204 102.237 130.204C102.457 130.204 102.639 130.386 102.639 130.605C102.639 130.825 102.457 131.007 102.237 131.007Z" fill="#40D6E0" stroke="#40D6E0"/>
<path d="M97.6071 132.447C97.8178 132.447 97.9886 132.277 97.9886 132.067C97.9886 131.857 97.8178 131.686 97.6071 131.686C97.3964 131.686 97.2256 131.857 97.2256 132.067C97.2256 132.277 97.3964 132.447 97.6071 132.447Z" fill="#40D6E0" stroke="#40D6E0"/>
<path d="M92.8808 133.524C92.6816 133.524 92.5205 133.364 92.5205 133.165C92.5205 132.967 92.6816 132.806 92.8808 132.806C93.08 132.806 93.2411 132.967 93.2411 133.165C93.2411 133.364 93.08 133.524 92.8808 133.524Z" fill="#40D6E0" stroke="#40D6E0"/>
<path d="M88.0824 134.234C88.2674 134.234 88.4173 134.084 88.4173 133.9C88.4173 133.716 88.2674 133.566 88.0824 133.566C87.8975 133.566 87.7476 133.716 87.7476 133.9C87.7476 134.084 87.8975 134.234 88.0824 134.234Z" fill="#40D6E0" stroke="#40D6E0"/>
<path d="M83.237 134.58C83.0632 134.58 82.9233 134.44 82.9233 134.267C82.9233 134.094 83.0632 133.955 83.237 133.955C83.4108 133.955 83.5507 134.094 83.5507 134.267C83.5507 134.44 83.4108 134.58 83.237 134.58Z" fill="#40D6E0" stroke="#40D6E0"/>
<path d="M78.3838 134.563C78.2227 134.563 78.0913 134.432 78.0913 134.272C78.0913 134.111 78.2227 133.98 78.3838 133.98C78.5449 133.98 78.6763 134.111 78.6763 134.272C78.6763 134.432 78.5449 134.563 78.3838 134.563Z" fill="#40D6E0" stroke="#40D6E0"/>
<path d="M73.5384 134.175C73.39 134.175 73.2671 134.052 73.2671 133.904C73.2671 133.756 73.39 133.634 73.5384 133.634C73.6868 133.634 73.8097 133.756 73.8097 133.904C73.8097 134.052 73.6868 134.175 73.5384 134.175Z" fill="#40D6E0" stroke="#40D6E0"/>
<path d="M68.7394 133.422C68.6037 133.422 68.4893 133.313 68.4893 133.173C68.4893 133.034 68.5995 132.924 68.7394 132.924C68.8792 132.924 68.9895 133.034 68.9895 133.173C68.9895 133.313 68.8792 133.422 68.7394 133.422Z" fill="#40D6E0" stroke="#40D6E0"/>
<path d="M64.0092 132.303C63.882 132.303 63.7803 132.202 63.7803 132.075C63.7803 131.949 63.882 131.847 64.0092 131.847C64.1364 131.847 64.2381 131.949 64.2381 132.075C64.2381 132.202 64.1364 132.303 64.0092 132.303Z" fill="#40D6E0" stroke="#40D6E0"/>
<path d="M59.3797 130.825C59.2653 130.825 59.1763 130.732 59.1763 130.622C59.1763 130.512 59.2695 130.419 59.3797 130.419C59.49 130.419 59.5832 130.512 59.5832 130.622C59.5832 130.732 59.49 130.825 59.3797 130.825Z" fill="#40D6E0" stroke="#40D6E0"/>
<path d="M54.8786 128.992C54.7768 128.992 54.6963 128.911 54.6963 128.81C54.6963 128.709 54.7768 128.628 54.8786 128.628C54.9803 128.628 55.0608 128.709 55.0608 128.81C55.0608 128.911 54.9803 128.992 54.8786 128.992Z" fill="#40D6E0" stroke="#40D6E0"/>
<path d="M50.5253 126.825C50.6143 126.825 50.6864 126.753 50.6864 126.664C50.6864 126.576 50.6143 126.504 50.5253 126.504C50.4364 126.504 50.3643 126.576 50.3643 126.664C50.3643 126.753 50.4364 126.825 50.5253 126.825Z" fill="#40D6E0" stroke="#40D6E0"/>
<path d="M46.3538 124.328C46.431 124.328 46.4936 124.266 46.4936 124.189C46.4936 124.112 46.431 124.049 46.3538 124.049C46.2765 124.049 46.2139 124.112 46.2139 124.189C46.2139 124.266 46.2765 124.328 46.3538 124.328Z" fill="#40D6E0" stroke="#40D6E0"/>
<path d="M42.3858 121.519C42.3222 121.519 42.2671 121.468 42.2671 121.401C42.2671 121.333 42.318 121.283 42.3858 121.283C42.4536 121.283 42.5045 121.333 42.5045 121.401C42.5045 121.468 42.4536 121.519 42.3858 121.519Z" fill="#40D6E0" stroke="#40D6E0"/>
<path d="M38.6431 118.419C38.6946 118.419 38.7363 118.377 38.7363 118.326C38.7363 118.274 38.6946 118.233 38.6431 118.233C38.5916 118.233 38.5498 118.274 38.5498 118.326C38.5498 118.377 38.5916 118.419 38.6431 118.419Z" fill="#40D6E0" stroke="#40D6E0"/>
<path d="M35.1414 115.056C35.1882 115.056 35.2262 115.018 35.2262 114.972C35.2262 114.925 35.1882 114.887 35.1414 114.887C35.0946 114.887 35.0566 114.925 35.0566 114.972C35.0566 115.018 35.0946 115.056 35.1414 115.056Z" fill="#40D6E0" stroke="#40D6E0"/>
<path d="M31.9074 111.436C31.865 111.436 31.8311 111.402 31.8311 111.36C31.8311 111.318 31.865 111.284 31.9074 111.284C31.9497 111.284 31.9837 111.318 31.9837 111.36C31.9837 111.402 31.9497 111.436 31.9074 111.436Z" fill="#40D6E0" stroke="#40D6E0"/>
<path d="M28.9614 107.584C28.9232 107.584 28.8936 107.554 28.8936 107.516C28.8936 107.478 28.9232 107.449 28.9614 107.449C28.9995 107.449 29.0292 107.478 29.0292 107.516C29.0292 107.554 28.9995 107.584 28.9614 107.584Z" fill="#40D6E0" stroke="#40D6E0"/>
<path d="M26.3162 103.52C26.2823 103.52 26.2568 103.495 26.2568 103.461C26.2568 103.427 26.2823 103.402 26.3162 103.402C26.3501 103.402 26.3755 103.427 26.3755 103.461C26.3755 103.495 26.3501 103.52 26.3162 103.52Z" fill="#40D6E0" stroke="#40D6E0"/>
<path d="M23.9933 99.2625C24.0213 99.2625 24.0441 99.2398 24.0441 99.2118C24.0441 99.1838 24.0213 99.1611 23.9933 99.1611C23.9652 99.1611 23.9424 99.1838 23.9424 99.2118C23.9424 99.2398 23.9652 99.2625 23.9933 99.2625Z" fill="#40D6E0" stroke="#40D6E0"/>
<path d="M22.0011 94.84C21.9755 94.84 21.9585 94.8188 21.9585 94.7976C21.9585 94.7763 21.9798 94.7551 22.0011 94.7551C22.0223 94.7551 22.0436 94.7763 22.0436 94.7976C22.0436 94.8188 22.0223 94.84 22.0011 94.84Z" fill="#40D6E0" stroke="#40D6E0"/>
<path d="M20.3563 90.279C20.3563 90.279 20.3218 90.2618 20.3218 90.2445C20.3218 90.2273 20.339 90.2101 20.3563 90.2101C20.3736 90.2101 20.3909 90.2273 20.3909 90.2445C20.3909 90.2618 20.3736 90.279 20.3563 90.279Z" fill="#40D6E0" stroke="#40D6E0"/>
<path d="M19.0721 85.6064C19.0721 85.6064 19.0464 85.5936 19.0464 85.5808C19.0464 85.568 19.0592 85.5552 19.0721 85.5552C19.0849 85.5552 19.0977 85.568 19.0977 85.5808C19.0977 85.5936 19.0849 85.6064 19.0721 85.6064Z" fill="#40D6E0" stroke="#40D6E0"/>
<path d="M18.1519 80.85C18.1613 80.85 18.169 80.8423 18.169 80.8329C18.169 80.8234 18.1613 80.8158 18.1519 80.8158C18.1424 80.8158 18.1348 80.8234 18.1348 80.8329C18.1348 80.8423 18.1424 80.85 18.1519 80.85Z" fill="#40D6E0" stroke="#40D6E0"/>
<path d="M17.5969 76.0355C17.6019 76.0355 17.606 76.0315 17.606 76.0265C17.606 76.0215 17.6019 76.0175 17.5969 76.0175C17.5919 76.0175 17.5879 76.0215 17.5879 76.0265C17.5879 76.0315 17.5919 76.0355 17.5969 76.0355Z" fill="#40D6E0" stroke="#40D6E0"/>
<path d="M140.9 76.0054C140.9 76.0054 140.891 76.0054 140.891 75.9963C140.891 75.9873 140.891 75.9873 140.9 75.9873C140.909 75.9873 140.909 75.9873 140.909 75.9963C140.909 76.0054 140.909 76.0054 140.9 76.0054Z" fill="#40D6E0" stroke="#40D6E0"/>
<path d="M140.319 80.8204C140.329 80.8204 140.336 80.8128 140.336 80.8033C140.336 80.7939 140.329 80.7863 140.319 80.7863C140.31 80.7863 140.302 80.7939 140.302 80.8033C140.302 80.8128 140.31 80.8204 140.319 80.8204Z" fill="#40D6E0" stroke="#40D6E0"/>
<path d="M139.353 85.573C139.353 85.573 139.327 85.5602 139.327 85.5473C139.327 85.5345 139.34 85.5217 139.353 85.5217C139.366 85.5217 139.378 85.5345 139.378 85.5473C139.378 85.5602 139.366 85.573 139.353 85.573Z" fill="#40D6E0" stroke="#40D6E0"/>
<path d="M138.005 90.2327C138.005 90.2327 137.971 90.2155 137.971 90.1983C137.971 90.1811 137.988 90.1638 138.005 90.1638C138.023 90.1638 138.04 90.1811 138.04 90.1983C138.04 90.2155 138.023 90.2327 138.005 90.2327Z" fill="#40D6E0" stroke="#40D6E0"/>
<path d="M136.28 94.7684C136.254 94.7684 136.233 94.7472 136.233 94.7217C136.233 94.6963 136.254 94.675 136.28 94.675C136.305 94.675 136.327 94.6963 136.327 94.7217C136.327 94.7472 136.305 94.7684 136.28 94.7684Z" fill="#40D6E0" stroke="#40D6E0"/>
<path d="M134.198 99.1443C134.168 99.1443 134.143 99.1189 134.143 99.0893C134.143 99.0598 134.168 99.0344 134.198 99.0344C134.227 99.0344 134.253 99.0598 134.253 99.0893C134.253 99.1189 134.227 99.1443 134.198 99.1443Z" fill="#40D6E0" stroke="#40D6E0"/>
<path d="M131.765 103.343C131.731 103.343 131.701 103.313 131.701 103.279C131.701 103.246 131.731 103.216 131.765 103.216C131.799 103.216 131.828 103.246 131.828 103.279C131.828 103.313 131.799 103.343 131.765 103.343Z" fill="#40D6E0" stroke="#40D6E0"/>
<path d="M129.001 107.331C129.041 107.331 129.073 107.298 129.073 107.259C129.073 107.219 129.041 107.187 129.001 107.187C128.961 107.187 128.929 107.219 128.929 107.259C128.929 107.298 128.961 107.331 129.001 107.331Z" fill="#40D6E0" stroke="#40D6E0"/>
<path d="M125.928 111.085C125.881 111.085 125.847 111.047 125.847 111.005C125.847 110.963 125.885 110.925 125.928 110.925C125.97 110.925 126.008 110.963 126.008 111.005C126.008 111.047 125.97 111.085 125.928 111.085Z" fill="#40D6E0" stroke="#40D6E0"/>
<path d="M122.566 114.587C122.515 114.587 122.477 114.549 122.477 114.499C122.477 114.448 122.515 114.41 122.566 114.41C122.617 114.41 122.655 114.448 122.655 114.499C122.655 114.549 122.613 114.587 122.566 114.587Z" fill="#40D6E0" stroke="#40D6E0"/>
<path d="M118.929 117.814C118.87 117.814 118.823 117.768 118.823 117.709C118.823 117.65 118.87 117.603 118.929 117.603C118.989 117.603 119.035 117.65 119.035 117.709C119.035 117.768 118.989 117.814 118.929 117.814Z" fill="#40D6E0" stroke="#40D6E0"/>
<path d="M115.051 120.746C114.978 120.746 114.923 120.687 114.923 120.619C114.923 120.552 114.983 120.493 115.051 120.493C115.118 120.493 115.178 120.552 115.178 120.619C115.178 120.687 115.118 120.746 115.051 120.746Z" fill="#40D6E0" stroke="#40D6E0"/>
<path d="M110.947 123.361C110.862 123.361 110.794 123.293 110.794 123.209C110.794 123.124 110.862 123.057 110.947 123.057C111.032 123.057 111.1 123.124 111.1 123.209C111.1 123.293 111.032 123.361 110.947 123.361Z" fill="#40D6E0" stroke="#40D6E0"/>
<path d="M106.649 125.633C106.551 125.633 106.475 125.557 106.475 125.46C106.475 125.363 106.551 125.287 106.649 125.287C106.746 125.287 106.823 125.363 106.823 125.46C106.823 125.557 106.746 125.633 106.649 125.633Z" fill="#40D6E0" stroke="#40D6E0"/>
<path d="M102.181 127.559C102.291 127.559 102.38 127.471 102.38 127.361C102.38 127.251 102.291 127.162 102.181 127.162C102.071 127.162 101.982 127.251 101.982 127.361C101.982 127.471 102.071 127.559 102.181 127.559Z" fill="#40D6E0" stroke="#40D6E0"/>
<path d="M97.5734 129.114C97.4505 129.114 97.353 129.017 97.353 128.894C97.353 128.772 97.4505 128.675 97.5734 128.675C97.6964 128.675 97.7939 128.772 97.7939 128.894C97.7939 129.017 97.6964 129.114 97.5734 129.114Z" fill="#40D6E0" stroke="#40D6E0"/>
<path d="M92.8598 130.288C92.7241 130.288 92.6182 130.178 92.6182 130.047C92.6182 129.916 92.7284 129.807 92.8598 129.807C92.9912 129.807 93.1014 129.916 93.1014 130.047C93.1014 130.178 92.9912 130.288 92.8598 130.288Z" fill="#40D6E0" stroke="#40D6E0"/>
<path d="M88.0654 131.082C87.917 131.082 87.7983 130.964 87.7983 130.816C87.7983 130.668 87.917 130.55 88.0654 130.55C88.2138 130.55 88.3325 130.668 88.3325 130.816C88.3325 130.964 88.2138 131.082 88.0654 131.082Z" fill="#40D6E0" stroke="#40D6E0"/>
<path d="M83.2243 131.492C83.0632 131.492 82.936 131.361 82.936 131.205C82.936 131.048 83.0674 130.917 83.2243 130.917C83.3811 130.917 83.5125 131.048 83.5125 131.205C83.5125 131.361 83.3811 131.492 83.2243 131.492Z" fill="#40D6E0" stroke="#40D6E0"/>
<path d="M78.3664 131.513C78.1926 131.513 78.0527 131.374 78.0527 131.201C78.0527 131.027 78.1926 130.888 78.3664 130.888C78.5402 130.888 78.6801 131.027 78.6801 131.201C78.6801 131.374 78.5402 131.513 78.3664 131.513Z" fill="#40D6E0" stroke="#40D6E0"/>
<path d="M73.5214 131.154C73.3349 131.154 73.1865 131.007 73.1865 130.821C73.1865 130.635 73.3349 130.487 73.5214 130.487C73.7079 130.487 73.8563 130.635 73.8563 130.821C73.8563 131.007 73.7079 131.154 73.5214 131.154Z" fill="#40D6E0" stroke="#40D6E0"/>
<path d="M68.727 130.407C68.5278 130.407 68.3667 130.246 68.3667 130.048C68.3667 129.849 68.5278 129.688 68.727 129.688C68.9262 129.688 69.0873 129.849 69.0873 130.048C69.0873 130.246 68.9262 130.407 68.727 130.407Z" fill="#40D6E0" stroke="#40D6E0"/>
<path d="M64.0089 129.274C63.797 129.274 63.6274 129.105 63.6274 128.894C63.6274 128.683 63.797 128.514 64.0089 128.514C64.2209 128.514 64.3905 128.683 64.3905 128.894C64.3905 129.105 64.2209 129.274 64.0089 129.274Z" fill="#40D6E0" stroke="#40D6E0"/>
<path d="M59.4012 127.766C59.1766 127.766 58.9985 127.585 58.9985 127.365C58.9985 127.145 59.1808 126.964 59.4012 126.964C59.6217 126.964 59.8039 127.145 59.8039 127.365C59.8039 127.585 59.6217 127.766 59.4012 127.766Z" fill="#40D6E0" stroke="#40D6E0"/>
<path d="M54.9335 125.891C55.17 125.891 55.3616 125.7 55.3616 125.464C55.3616 125.229 55.17 125.038 54.9335 125.038C54.6971 125.038 54.5054 125.229 54.5054 125.464C54.5054 125.7 54.6971 125.891 54.9335 125.891Z" fill="#40D6E0" stroke="#40D6E0"/>
<path d="M50.6349 123.661C50.3848 123.661 50.1855 123.458 50.1855 123.213C50.1855 122.968 50.389 122.765 50.6349 122.765C50.8807 122.765 51.0842 122.968 51.0842 123.213C51.0842 123.458 50.8807 123.661 50.6349 123.661Z" fill="#40D6E0" stroke="#40D6E0"/>
<path d="M46.5363 121.092C46.2735 121.092 46.0615 120.881 46.0615 120.619C46.0615 120.357 46.2735 120.146 46.5363 120.146C46.7991 120.146 47.0111 120.357 47.0111 120.619C47.0111 120.881 46.7991 121.092 46.5363 121.092Z" fill="#40D6E0" stroke="#40D6E0"/>
<path d="M42.6571 118.207C42.3816 118.207 42.1611 117.988 42.1611 117.713C42.1611 117.439 42.3816 117.219 42.6571 117.219C42.9326 117.219 43.1531 117.439 43.1531 117.713C43.1531 117.988 42.9326 118.207 42.6571 118.207Z" fill="#40D6E0" stroke="#40D6E0"/>
<path d="M39.0202 115.014C38.7362 115.014 38.5073 114.786 38.5073 114.503C38.5073 114.22 38.7362 113.992 39.0202 113.992C39.3043 113.992 39.5332 114.22 39.5332 114.503C39.5332 114.786 39.3043 115.014 39.0202 115.014Z" fill="#40D6E0" stroke="#40D6E0"/>
<path d="M35.6547 111.534C35.3664 111.534 35.1333 111.301 35.1333 111.014C35.1333 110.727 35.3664 110.494 35.6547 110.494C35.9429 110.494 36.1761 110.727 36.1761 111.014C36.1761 111.301 35.9429 111.534 35.6547 111.534Z" fill="#40D6E0" stroke="#40D6E0"/>
<path d="M32.5807 107.795C32.8733 107.795 33.1105 107.559 33.1105 107.267C33.1105 106.976 32.8733 106.739 32.5807 106.739C32.288 106.739 32.0508 106.976 32.0508 107.267C32.0508 107.559 32.288 107.795 32.5807 107.795Z" fill="#40D6E0" stroke="#40D6E0"/>
<path d="M29.8175 103.825C29.5208 103.825 29.2749 103.584 29.2749 103.284C29.2749 102.984 29.5165 102.743 29.8175 102.743C30.1185 102.743 30.3601 102.984 30.3601 103.284C30.3601 103.584 30.1185 103.825 29.8175 103.825Z" fill="#40D6E0" stroke="#40D6E0"/>
<path d="M27.3841 99.6467C27.6884 99.6467 27.9351 99.4009 27.9351 99.0976C27.9351 98.7943 27.6884 98.5485 27.3841 98.5485C27.0797 98.5485 26.833 98.7943 26.833 99.0976C26.833 99.4009 27.0797 99.6467 27.3841 99.6467Z" fill="#40D6E0" stroke="#40D6E0"/>
<path d="M25.2983 95.2835C25.6073 95.2835 25.8579 95.0339 25.8579 94.7259C25.8579 94.418 25.6073 94.1683 25.2983 94.1683C24.9893 94.1683 24.7388 94.418 24.7388 94.7259C24.7388 95.0339 24.9893 95.2835 25.2983 95.2835Z" fill="#40D6E0" stroke="#40D6E0"/>
<path d="M23.5778 90.7677C23.2641 90.7677 23.0098 90.5142 23.0098 90.2017C23.0098 89.8891 23.2641 89.6356 23.5778 89.6356C23.8915 89.6356 24.1458 89.8891 24.1458 90.2017C24.1458 90.5142 23.8915 90.7677 23.5778 90.7677Z" fill="#40D6E0" stroke="#40D6E0"/>
<path d="M22.2254 86.1295C21.9075 86.1295 21.6489 85.8719 21.6489 85.5551C21.6489 85.2383 21.9075 84.9806 22.2254 84.9806C22.5434 84.9806 22.8019 85.2383 22.8019 85.5551C22.8019 85.8719 22.5434 86.1295 22.2254 86.1295Z" fill="#40D6E0" stroke="#40D6E0"/>
<path d="M21.2588 81.3944C20.9366 81.3944 20.6738 81.1325 20.6738 80.8114C20.6738 80.4904 20.9366 80.2285 21.2588 80.2285C21.581 80.2285 21.8438 80.4904 21.8438 80.8114C21.8438 81.1325 21.581 81.3944 21.2588 81.3944Z" fill="#40D6E0" stroke="#40D6E0"/>
<path d="M20.6779 76.6002C21.0057 76.6002 21.2714 76.3355 21.2714 76.0089C21.2714 75.6822 21.0057 75.4175 20.6779 75.4175C20.3502 75.4175 20.0845 75.6822 20.0845 76.0089C20.0845 76.3355 20.3502 76.6002 20.6779 76.6002Z" fill="#40D6E0" stroke="#40D6E0"/>
<path d="M20.4872 71.7718C20.8196 71.7718 21.0891 71.5032 21.0891 71.172C21.0891 70.8407 20.8196 70.5721 20.4872 70.5721C20.1547 70.5721 19.8853 70.8407 19.8853 71.172C19.8853 71.5032 20.1547 71.7718 20.4872 71.7718Z" fill="#40D6E0" stroke="#40D6E0"/>
<path d="M20.6778 66.9267C21.0079 66.9267 21.2755 66.66 21.2755 66.3311C21.2755 66.0021 21.0079 65.7355 20.6778 65.7355C20.3477 65.7355 20.0801 66.0021 20.0801 66.3311C20.0801 66.66 20.3477 66.9267 20.6778 66.9267Z" fill="#40D6E0" stroke="#40D6E0"/>
<path d="M21.2543 62.1114C20.9279 62.1114 20.665 61.8495 20.665 61.5243C20.665 61.199 20.9279 60.9371 21.2543 60.9371C21.5807 60.9371 21.8435 61.199 21.8435 61.5243C21.8435 61.8495 21.5807 62.1114 21.2543 62.1114Z" fill="#40D6E0" stroke="#40D6E0"/>
<path d="M22.2209 57.3593C21.903 57.3593 21.6401 57.1016 21.6401 56.7806C21.6401 56.4596 21.8987 56.2019 22.2209 56.2019C22.543 56.2019 22.8016 56.4596 22.8016 56.7806C22.8016 57.1016 22.543 57.3593 22.2209 57.3593Z" fill="#40D6E0" stroke="#40D6E0"/>
<path d="M23.569 52.7004C23.2553 52.7004 23.001 52.447 23.001 52.1344C23.001 51.8218 23.2553 51.5684 23.569 51.5684C23.8827 51.5684 24.137 51.8218 24.137 52.1344C24.137 52.447 23.8827 52.7004 23.569 52.7004Z" fill="#40D6E0" stroke="#40D6E0"/>
<path d="M25.2939 48.1675C24.9845 48.1675 24.7344 47.9183 24.7344 47.6099C24.7344 47.3016 24.9845 47.0524 25.2939 47.0524C25.6034 47.0524 25.8535 47.3016 25.8535 47.6099C25.8535 47.9183 25.6034 48.1675 25.2939 48.1675Z" fill="#40D6E0" stroke="#40D6E0"/>
<path d="M27.3753 43.7873C27.6796 43.7873 27.9264 43.5415 27.9264 43.2382C27.9264 42.9349 27.6796 42.6891 27.3753 42.6891C27.0709 42.6891 26.8242 42.9349 26.8242 43.2382C26.8242 43.5415 27.0709 43.7873 27.3753 43.7873Z" fill="#40D6E0" stroke="#40D6E0"/>
<path d="M29.8087 39.5887C29.5077 39.5887 29.2661 39.3479 29.2661 39.048C29.2661 38.7481 29.5077 38.5073 29.8087 38.5073C30.1097 38.5073 30.3513 38.7481 30.3513 39.048C30.3513 39.3479 30.1097 39.5887 29.8087 39.5887Z" fill="#40D6E0" stroke="#40D6E0"/>
<path d="M32.5683 35.5969C32.2716 35.5969 32.0342 35.3604 32.0342 35.0647C32.0342 34.769 32.2716 34.5325 32.5683 34.5325C32.865 34.5325 33.1024 34.769 33.1024 35.0647C33.1024 35.3604 32.865 35.5969 32.5683 35.5969Z" fill="#40D6E0" stroke="#40D6E0"/>
<path d="M35.6414 31.8416C35.3531 31.8416 35.1157 31.6093 35.1157 31.3179C35.1157 31.0264 35.3489 30.7941 35.6414 30.7941C35.9338 30.7941 36.167 31.0264 36.167 31.3179C36.167 31.6093 35.9338 31.8416 35.6414 31.8416Z" fill="#40D6E0" stroke="#40D6E0"/>
<path d="M39.0079 28.3438C38.7239 28.3438 38.4907 28.1157 38.4907 27.8285C38.4907 27.5412 38.7196 27.3131 39.0079 27.3131C39.2961 27.3131 39.525 27.5412 39.525 27.8285C39.525 28.1157 39.2961 28.3438 39.0079 28.3438Z" fill="#40D6E0" stroke="#40D6E0"/>
<path d="M42.6398 25.1166C42.3643 25.1166 42.1396 24.8928 42.1396 24.6182C42.1396 24.3436 42.3643 24.1198 42.6398 24.1198C42.9154 24.1198 43.14 24.3436 43.14 24.6182C43.14 24.8928 42.9154 25.1166 42.6398 25.1166Z" fill="#40D6E0" stroke="#40D6E0"/>
<path d="M46.519 22.1812C46.2562 22.1812 46.04 21.97 46.04 21.7039C46.04 21.4378 46.252 21.2266 46.519 21.2266C46.7861 21.2266 46.998 21.4378 46.998 21.7039C46.998 21.97 46.7861 22.1812 46.519 22.1812Z" fill="#40D6E0" stroke="#40D6E0"/>
<path d="M50.6225 19.5664C50.3724 19.5664 50.1689 19.3637 50.1689 19.1145C50.1689 18.8652 50.3724 18.6625 50.6225 18.6625C50.8726 18.6625 51.0761 18.8652 51.0761 19.1145C51.0761 19.3637 50.8726 19.5664 50.6225 19.5664Z" fill="#40D6E0" stroke="#40D6E0"/>
<path d="M54.9207 17.2894C54.6833 17.2894 54.4883 17.0951 54.4883 16.8586C54.4883 16.622 54.6833 16.4277 54.9207 16.4277C55.158 16.4277 55.353 16.622 55.353 16.8586C55.353 17.0951 55.158 17.2894 54.9207 17.2894Z" fill="#40D6E0" stroke="#40D6E0"/>
<path d="M59.384 15.3677C59.1593 15.3677 58.9771 15.186 58.9771 14.9622C58.9771 14.7383 59.1593 14.5566 59.384 14.5566C59.6087 14.5566 59.7909 14.7383 59.7909 14.9622C59.7909 15.186 59.6087 15.3677 59.384 15.3677Z" fill="#40D6E0" stroke="#40D6E0"/>
<path d="M63.9917 13.8133C64.2047 13.8133 64.3774 13.6412 64.3774 13.4289C64.3774 13.2167 64.2047 13.0446 63.9917 13.0446C63.7787 13.0446 63.606 13.2167 63.606 13.4289C63.606 13.6412 63.7787 13.8133 63.9917 13.8133Z" fill="#40D6E0" stroke="#40D6E0"/>
<path d="M68.7099 12.6345C68.5107 12.6345 68.3496 12.474 68.3496 12.2754C68.3496 12.0769 68.5107 11.9164 68.7099 11.9164C68.9092 11.9164 69.0702 12.0769 69.0702 12.2754C69.0702 12.474 68.9092 12.6345 68.7099 12.6345Z" fill="#40D6E0" stroke="#40D6E0"/>
<path d="M73.4998 11.8405C73.687 11.8405 73.8389 11.6892 73.8389 11.5026C73.8389 11.316 73.687 11.1647 73.4998 11.1647C73.3125 11.1647 73.1606 11.316 73.1606 11.5026C73.1606 11.6892 73.3125 11.8405 73.4998 11.8405Z" fill="#40D6E0" stroke="#40D6E0"/>
<path d="M78.3454 11.4266C78.5187 11.4266 78.6591 11.2866 78.6591 11.114C78.6591 10.9413 78.5187 10.8014 78.3454 10.8014C78.1722 10.8014 78.0317 10.9413 78.0317 11.114C78.0317 11.2866 78.1722 11.4266 78.3454 11.4266Z" fill="#40D6E0" stroke="#40D6E0"/>
<path d="M83.2026 11.4057C83.0416 11.4057 82.9102 11.2747 82.9102 11.1142C82.9102 10.9537 83.0416 10.8228 83.2026 10.8228C83.3637 10.8228 83.4951 10.9537 83.4951 11.1142C83.4951 11.2747 83.3637 11.4057 83.2026 11.4057Z" fill="#40D6E0" stroke="#40D6E0"/>
<path d="M88.0439 11.7647C88.1914 11.7647 88.311 11.6455 88.311 11.4985C88.311 11.3516 88.1914 11.2324 88.0439 11.2324C87.8964 11.2324 87.7769 11.3516 87.7769 11.4985C87.7769 11.6455 87.8964 11.7647 88.0439 11.7647Z" fill="#40D6E0" stroke="#40D6E0"/>
<path d="M92.8425 12.5122C92.9783 12.5122 93.0884 12.4025 93.0884 12.2672C93.0884 12.1319 92.9783 12.0222 92.8425 12.0222C92.7067 12.0222 92.5967 12.1319 92.5967 12.2672C92.5967 12.4025 92.7067 12.5122 92.8425 12.5122Z" fill="#40D6E0" stroke="#40D6E0"/>
<path d="M97.5562 13.644C97.4333 13.644 97.3315 13.5427 97.3315 13.4202C97.3315 13.2977 97.4333 13.1963 97.5562 13.1963C97.6791 13.1963 97.7809 13.2977 97.7809 13.4202C97.7809 13.5427 97.6791 13.644 97.5562 13.644Z" fill="#40D6E0" stroke="#40D6E0"/>
<path d="M102.164 15.1479C102.274 15.1479 102.363 15.059 102.363 14.9494C102.363 14.8397 102.274 14.7509 102.164 14.7509C102.054 14.7509 101.964 14.8397 101.964 14.9494C101.964 15.059 102.054 15.1479 102.164 15.1479Z" fill="#40D6E0" stroke="#40D6E0"/>
<path d="M106.632 17.0233C106.534 17.0233 106.454 16.943 106.454 16.8459C106.454 16.7487 106.534 16.6685 106.632 16.6685C106.729 16.6685 106.81 16.7487 106.81 16.8459C106.81 16.943 106.729 17.0233 106.632 17.0233Z" fill="#40D6E0" stroke="#40D6E0"/>
<path d="M110.93 19.254C111.014 19.254 111.083 19.1859 111.083 19.1019C111.083 19.0179 111.014 18.9498 110.93 18.9498C110.846 18.9498 110.777 19.0179 110.777 19.1019C110.777 19.1859 110.846 19.254 110.93 19.254Z" fill="#40D6E0" stroke="#40D6E0"/>
<path d="M115.033 21.8179C114.961 21.8179 114.902 21.7588 114.902 21.687C114.902 21.6152 114.961 21.556 115.033 21.556C115.105 21.556 115.165 21.6152 115.165 21.687C115.165 21.7588 115.105 21.8179 115.033 21.8179Z" fill="#40D6E0" stroke="#40D6E0"/>
<path d="M118.917 24.703C118.858 24.703 118.811 24.6566 118.811 24.5974C118.811 24.5383 118.858 24.4918 118.917 24.4918C118.976 24.4918 119.023 24.5383 119.023 24.5974C119.023 24.6566 118.976 24.703 118.917 24.703Z" fill="#40D6E0" stroke="#40D6E0"/>
<path d="M122.549 27.896C122.498 27.896 122.46 27.8538 122.46 27.8073C122.46 27.7609 122.502 27.7186 122.549 27.7186C122.596 27.7186 122.638 27.7609 122.638 27.8073C122.638 27.8538 122.596 27.896 122.549 27.896Z" fill="#40D6E0" stroke="#40D6E0"/>
<path d="M125.915 31.3768C125.868 31.3768 125.834 31.3388 125.834 31.2966C125.834 31.2543 125.873 31.2163 125.915 31.2163C125.957 31.2163 125.996 31.2543 125.996 31.2966C125.996 31.3388 125.957 31.3768 125.915 31.3768Z" fill="#40D6E0" stroke="#40D6E0"/>
<path d="M128.992 35.1152C128.954 35.1152 128.92 35.0814 128.92 35.0434C128.92 35.0053 128.954 34.9716 128.992 34.9716C129.03 34.9716 129.064 35.0053 129.064 35.0434C129.064 35.0814 129.03 35.1152 128.992 35.1152Z" fill="#40D6E0" stroke="#40D6E0"/>
<path d="M131.756 39.0861C131.723 39.0861 131.693 39.0565 131.693 39.0227C131.693 38.9889 131.723 38.9594 131.756 38.9594C131.79 38.9594 131.82 38.9889 131.82 39.0227C131.82 39.0565 131.79 39.0861 131.756 39.0861Z" fill="#40D6E0" stroke="#40D6E0"/>
<path d="M134.189 43.2635C134.16 43.2635 134.134 43.2382 134.134 43.2086C134.134 43.179 134.16 43.1537 134.189 43.1537C134.219 43.1537 134.244 43.179 134.244 43.2086C134.244 43.2382 134.219 43.2635 134.189 43.2635Z" fill="#40D6E0" stroke="#40D6E0"/>
<path d="M136.275 47.6276C136.301 47.6276 136.322 47.6067 136.322 47.5809C136.322 47.5551 136.301 47.5342 136.275 47.5342C136.249 47.5342 136.229 47.5551 136.229 47.5809C136.229 47.6067 136.249 47.6276 136.275 47.6276Z" fill="#40D6E0" stroke="#40D6E0"/>
<path d="M138.001 52.1429C138.001 52.1429 137.962 52.126 137.962 52.1047C137.962 52.0835 137.979 52.0665 138.001 52.0665C138.022 52.0665 138.039 52.0835 138.039 52.1047C138.039 52.126 138.022 52.1429 138.001 52.1429Z" fill="#40D6E0" stroke="#40D6E0"/>
<path d="M139.348 56.7767C139.363 56.7767 139.374 56.7652 139.374 56.7511C139.374 56.7369 139.363 56.7255 139.348 56.7255C139.334 56.7255 139.323 56.7369 139.323 56.7511C139.323 56.7652 139.334 56.7767 139.348 56.7767Z" fill="#40D6E0" stroke="#40D6E0"/>
<path d="M140.319 61.5118C140.329 61.5118 140.336 61.5042 140.336 61.4947C140.336 61.4853 140.329 61.4777 140.319 61.4777C140.31 61.4777 140.302 61.4853 140.302 61.4947C140.302 61.5042 140.31 61.5118 140.319 61.5118Z" fill="#40D6E0" stroke="#40D6E0"/>
<path d="M140.9 66.3115C140.9 66.3115 140.891 66.3115 140.891 66.3025C140.891 66.2935 140.891 66.2935 140.9 66.2935C140.909 66.2935 140.909 66.2935 140.909 66.3025C140.909 66.3115 140.909 66.3115 140.9 66.3115Z" fill="#40D6E0" stroke="#40D6E0"/>
<path fill-rule="evenodd" clip-rule="evenodd" d="M126.762 121.87L130.264 125.005L133.91 107.603L117.016 113.146L120.477 116.244C98.5129 136.557 68.1718 140.908 48.2514 126.341C49.1959 127.371 50.197 128.361 51.2549 129.308C70.9925 146.976 103.554 143.334 126.762 121.87Z" fill="#40CEE0"/>
<path fill-rule="evenodd" clip-rule="evenodd" d="M35.5698 20.5661L32.0678 17.4313L28.4218 34.8335L45.3156 29.2899L41.8549 26.1921C63.819 5.87919 94.1602 1.52802 114.081 16.0958C113.136 15.0656 112.135 14.0752 111.077 13.1283C91.3395 -4.53965 58.7782 -0.897455 35.5698 20.5661Z" fill="#40CEE0"/>
<path d="M96.2389 32.6332C86.9355 27.2418 75.4581 27.2418 66.1547 32.6332L47.658 43.3523C44.6883 45.0733 42.7934 48.1906 42.7775 51.6229C42.7212 63.8465 43.7549 83.0471 48.3328 91.8526C55.0202 104.716 78.1397 118.436 81.1968 118.436C84.2539 118.436 107.373 104.716 114.061 91.8526C118.639 83.0471 119.672 63.8465 119.616 51.6229C119.6 48.1906 117.705 45.0733 114.736 43.3523L96.2389 32.6332Z" stroke="#40CEE0" stroke-width="2"/>
<mask id="path-337-inside-1_2586_4523" fill="white">
<path fill-rule="evenodd" clip-rule="evenodd" d="M68.9037 94.6266H93.6715V89.2714H99.4732V83.2467H104.828V58.9252H99.4732V52.9006H93.6715V47.5454H68.9037V52.9007H63.1024V58.9252H57.7471L57.7471 83.2467H63.1024V89.2714H68.9037V94.6266Z"/>
</mask>
<path d="M93.6715 94.6266H94.6715V95.6266H93.6715V94.6266ZM68.9037 94.6266V95.6266H67.9037V94.6266H68.9037ZM93.6715 89.2714H92.6715V88.2714H93.6715V89.2714ZM99.4732 89.2714H100.473V90.2714H99.4732V89.2714ZM99.4732 83.2467H98.4732V82.2467H99.4732V83.2467ZM104.828 83.2467H105.828V84.2467H104.828V83.2467ZM104.828 58.9252V57.9252H105.828V58.9252H104.828ZM99.4732 58.9252V59.9252H98.4732V58.9252H99.4732ZM99.4732 52.9006V51.9006H100.473V52.9006H99.4732ZM93.6715 52.9006V53.9006H92.6715V52.9006H93.6715ZM93.6715 47.5454V46.5454H94.6715V47.5454H93.6715ZM68.9037 47.5454H67.9037V46.5454H68.9037V47.5454ZM68.9037 52.9007H69.9037V53.9007H68.9037V52.9007ZM63.1024 52.9007H62.1024V51.9007H63.1024V52.9007ZM63.1024 58.9252H64.1024V59.9252H63.1024V58.9252ZM57.7471 58.9252H56.7471V57.9252H57.7471V58.9252ZM57.7471 83.2467V84.2467H56.7471L56.7471 83.2467H57.7471ZM63.1024 83.2467V82.2467H64.1024V83.2467H63.1024ZM63.1024 89.2714V90.2714H62.1024V89.2714H63.1024ZM68.9037 89.2714V88.2714H69.9037V89.2714H68.9037ZM93.6715 95.6266H68.9037V93.6266H93.6715V95.6266ZM94.6715 89.2714V94.6266H92.6715V89.2714H94.6715ZM93.6715 88.2714H99.4732V90.2714H93.6715V88.2714ZM98.4732 89.2714V83.2467H100.473V89.2714H98.4732ZM104.828 84.2467H99.4732V82.2467H104.828V84.2467ZM105.828 58.9252V83.2467H103.828V58.9252H105.828ZM99.4732 57.9252H104.828V59.9252H99.4732V57.9252ZM98.4732 58.9252V52.9006H100.473V58.9252H98.4732ZM99.4732 53.9006H93.6715V51.9006H99.4732V53.9006ZM94.6715 47.5454V52.9006H92.6715V47.5454H94.6715ZM68.9037 46.5454H93.6715V48.5454H68.9037V46.5454ZM67.9037 52.9007V47.5454H69.9037V52.9007H67.9037ZM68.9037 53.9007H63.1024V51.9007H68.9037V53.9007ZM64.1024 52.9007V58.9252H62.1024V52.9007H64.1024ZM57.7471 57.9252H63.1024V59.9252H57.7471V57.9252ZM56.7471 83.2467L56.7471 58.9252H58.7471L58.7471 83.2467H56.7471ZM63.1024 84.2467H57.7471V82.2467H63.1024V84.2467ZM64.1024 83.2467V89.2714H62.1024V83.2467H64.1024ZM63.1024 88.2714H68.9037V90.2714H63.1024V88.2714ZM67.9037 94.6266V89.2714H69.9037V94.6266H67.9037Z" fill="#40CEE0" mask="url(#path-337-inside-1_2586_4523)"/>
<path fill-rule="evenodd" clip-rule="evenodd" d="M71.0131 91.6136H91.5187V86.487H96.6447V81.3608H101.771V60.8553H96.6447V55.7287H91.5187V50.6026H71.0131V55.7287H65.8864L65.8864 60.8553H60.7603L60.7603 81.3608H65.8864V86.487L71.0131 86.487V91.6136Z" fill="white"/>
<path fill-rule="evenodd" clip-rule="evenodd" d="M71.0131 91.6136H91.5187V86.487H96.6447V81.3608H101.771V60.8553H96.6447V55.7287H91.5187V50.6026H71.0131V55.7287H65.8864L65.8864 60.8553H60.7603L60.7603 81.3608H65.8864V86.487L71.0131 86.487V91.6136Z" fill="url(#paint0_linear_2586_4523)"/>
<path fill-rule="evenodd" clip-rule="evenodd" d="M71.0131 91.6136H91.5187V86.487H96.6447V81.3608H101.771V60.8553H96.6447V55.7287H91.5187V50.6026H71.0131V55.7287H65.8864L65.8864 60.8553H60.7603L60.7603 81.3608H65.8864V86.487L71.0131 86.487V91.6136Z" fill="#40CEE0"/>
<path d="M90.6525 74.1177H84.9252C84.6815 74.1177 84.4866 73.925 84.4866 73.6841V68.0236C84.4866 67.7827 84.2916 67.59 84.0479 67.59H78.3207C78.077 67.59 77.882 67.3973 77.882 67.1564V61.8251C77.882 61.5842 78.077 61.3915 78.3207 61.3915H84.0479C84.2916 61.3915 84.4866 61.1988 84.4866 60.958V54.9682C84.4866 54.7274 84.2916 54.5347 84.0479 54.5347H77.9876C77.7439 54.5347 77.5489 54.7274 77.5489 54.9682V60.6288C77.5489 60.8696 77.3539 61.0623 77.1102 61.0623H71.383C71.1393 61.0623 70.9443 61.255 70.9443 61.4959V67.4856C70.9443 67.7265 71.1393 67.9192 71.383 67.9192H77.1102C77.3539 67.9192 77.5489 68.1119 77.5489 68.3528V74.0133C77.5489 74.2541 77.7439 74.4468 77.9876 74.4468H83.7148C83.9585 74.4468 84.1535 74.6395 84.1535 74.8804V80.2117C84.1535 80.4526 83.9585 80.6453 83.7148 80.6453H77.9876C77.7439 80.6453 77.5489 80.838 77.5489 81.0789V87.0686C77.5489 87.3095 77.7439 87.5022 77.9876 87.5022H84.0479C84.2916 87.5022 84.4866 87.3095 84.4866 87.0686V81.4081C84.4866 81.1672 84.6815 80.9745 84.9252 80.9745H90.6525C90.8962 80.9745 91.0911 80.7818 91.0911 80.5409V74.5512C91.0911 74.3104 90.8962 74.1177 90.6525 74.1177Z" fill="white"/>
</g>
<defs>
<linearGradient id="paint0_linear_2586_4523" x1="81.2606" y1="91.6136" x2="99.34" y2="61.4489" gradientUnits="userSpaceOnUse">
<stop stop-color="#2C2D35"/>
<stop offset="1" stop-color="#343540"/>
</linearGradient>
</defs>
</svg>
