<svg width="385" height="290" viewBox="0 0 385 290" fill="none" xmlns="http://www.w3.org/2000/svg">
<mask id="mask0_2586_4518" style="mask-type:alpha" maskUnits="userSpaceOnUse" x="0" y="0" width="385" height="290">
<rect width="385" height="290" fill="#D9D9D9"/>
</mask>
<g mask="url(#mask0_2586_4518)">
<mask id="mask1_2586_4518" style="mask-type:luminance" maskUnits="userSpaceOnUse" x="1" y="57" width="380" height="233">
<path d="M381 57H1V290H381V57Z" fill="white"/>
</mask>
<g mask="url(#mask1_2586_4518)">
<path d="M279.606 61.0344H251.452V279.048H279.606V61.0344Z" fill="white" stroke="#1E1E1E" stroke-width="1.5" stroke-miterlimit="10"/>
<path d="M240.287 127.536H212.133V279.048H240.287V127.536Z" fill="white" stroke="#1E1E1E" stroke-width="1.5" stroke-miterlimit="10"/>
<path d="M319.493 108.268H291.339V279.048H319.493V108.268Z" fill="white" stroke="#1E1E1E" stroke-width="1.5" stroke-miterlimit="10"/>
<path d="M200.968 101.552H172.814V279.048H200.968V101.552Z" fill="white" stroke="#1E1E1E" stroke-width="1.5" stroke-miterlimit="10"/>
<path d="M161.649 154.18H133.495V279.048H161.649V154.18Z" fill="white" stroke="#1E1E1E" stroke-width="1.5" stroke-miterlimit="10"/>
<path d="M333.177 62.702L310.741 79.6771L319.301 80.2235L265.747 174.516L236.094 130.042L194.147 227.922L167.167 189.588L133.538 237.142L135.654 245.655L167.153 201.325L195.671 241.852L237.465 144.328L266.236 187.481L325.525 83.0869L331.032 89.0075L333.177 62.702Z" fill="#15E5F2" stroke="#1E1E1E" stroke-width="1.5" stroke-miterlimit="10"/>
<path d="M150.599 216.007C118.404 190.359 91.3531 157.187 70.8723 118.234C56.1135 130.096 41.351 141.957 26.592 153.819C50.2742 198.857 81.5514 237.21 118.776 266.865C129.383 249.911 139.992 232.957 150.603 216.003L150.599 216.007Z" fill="#15E5F2" stroke="#1E1E1E" stroke-width="1.5" stroke-miterlimit="10" stroke-linejoin="round"/>
<path d="M63.9375 127.539C54.7681 135.023 45.5987 142.511 36.4328 149.995C38.6172 154.07 37.8248 159.562 34.5696 162.35C55.3891 199.175 81.4767 231.169 111.859 257.131C114.343 253.403 119.026 252.678 122.388 255.409C129.077 244.883 135.765 234.357 142.458 223.83C139.363 221.317 138.92 216.179 141.401 212.454C114.721 189.655 91.8096 161.557 73.5281 129.221C70.2765 132.006 65.9434 131.289 63.934 127.539H63.9375Z" fill="white" stroke="#1E1E1E" stroke-width="1.5" stroke-miterlimit="10" stroke-linejoin="round"/>
<path d="M100.99 211.719C107.865 202.846 107.796 189.752 101.314 181.921C94.8114 174.108 83.704 173.741 76.0192 181.639C68.3453 189.52 67.6136 203.531 74.9234 212.326C82.2226 221.131 94.1296 220.581 100.99 211.722V211.719Z" fill="#15E5F2" stroke="#1E1E1E" stroke-width="1.5" stroke-miterlimit="10" stroke-linejoin="round"/>
<path d="M100.536 186.534C99.6727 187.495 98.809 188.452 97.9453 189.412C100.012 193.201 99.5728 197.118 97.3455 199.675C95.0967 202.249 92.577 202.488 88.7399 200.214C85.9528 198.639 84.6105 198.172 83.7611 199.093C83.0436 199.871 82.8047 201.282 84.3289 203.21C85.1569 204.255 85.9849 204.952 86.7167 205.445C87.6909 206.102 88.001 207.584 87.3985 208.723C86.8165 209.826 85.5883 210.19 84.6462 209.519C83.8788 208.972 83.0365 208.222 82.1336 207.184C81.3876 208.008 80.638 208.833 79.8919 209.658C79.1103 208.676 78.3322 207.691 77.5576 206.698C78.3714 205.816 79.1851 204.934 79.9989 204.052C78.0256 200.238 78.4177 196.446 80.7093 194.043C83.2361 191.387 86.1632 192.201 89.5145 194.304C91.8381 195.754 93.1875 195.983 94.1475 194.911C95.1609 193.779 94.8329 192.055 93.5548 190.423C92.6768 189.301 91.6598 188.448 90.6571 187.816C89.6713 187.195 89.4039 185.674 90.0644 184.538C90.0894 184.495 90.1143 184.456 90.1357 184.413C90.7391 183.382 91.888 183.031 92.7624 183.606C93.8123 184.292 94.9434 185.274 95.9426 186.438C96.7528 185.553 97.5665 184.666 98.3767 183.785C99.0942 184.702 99.8117 185.617 100.54 186.527L100.536 186.534Z" fill="white"/>
<path d="M100.536 186.534C99.6727 187.495 98.809 188.452 97.9453 189.412C100.012 193.201 99.5728 197.118 97.3455 199.675C95.0967 202.249 92.577 202.488 88.7399 200.214C85.9528 198.639 84.6105 198.172 83.7611 199.093C83.0436 199.871 82.8047 201.282 84.3289 203.21C85.1569 204.255 85.9849 204.952 86.7167 205.445C87.6909 206.102 88.001 207.584 87.3985 208.723C86.8165 209.826 85.5883 210.19 84.6462 209.519C83.8788 208.972 83.0365 208.222 82.1336 207.184C81.3876 208.008 80.638 208.833 79.8919 209.658C79.1103 208.676 78.3322 207.691 77.5576 206.698C78.3714 205.816 79.1851 204.934 79.9989 204.052C78.0256 200.238 78.4177 196.446 80.7093 194.043C83.2361 191.387 86.1632 192.201 89.5145 194.304C91.8381 195.754 93.1875 195.983 94.1475 194.911C95.1609 193.779 94.8329 192.055 93.5548 190.423C92.6768 189.301 91.6598 188.448 90.6571 187.816C89.6713 187.195 89.4039 185.674 90.0644 184.538C90.0894 184.495 90.1143 184.456 90.1357 184.413C90.7391 183.382 91.888 183.031 92.7624 183.606C93.8123 184.292 94.9434 185.274 95.9426 186.438C96.7528 185.553 97.5665 184.666 98.3767 183.785C99.0942 184.702 99.8117 185.617 100.54 186.527L100.536 186.534Z" stroke="#1E1E1E" stroke-width="1.5" stroke-miterlimit="10" stroke-linejoin="round"/>
<path d="M126.356 234.557C119.022 228.272 111.951 221.613 105.162 214.597C103.999 216.11 102.835 217.621 101.675 219.135C108.556 226.247 115.723 233 123.166 239.374C124.229 237.767 125.293 236.16 126.356 234.557Z" fill="#15E5F2" stroke="#1E1E1E" stroke-width="1.5" stroke-miterlimit="10" stroke-linejoin="round"/>
<path d="M144.035 205.666C103.599 200.535 63.9373 187.002 27.149 165.774C20.1532 182.167 13.161 198.56 6.16528 214.954C48.7038 239.495 94.5583 255.146 141.312 261.08C142.218 242.609 143.125 224.138 144.032 205.666H144.035Z" fill="#15E5F2" stroke="#1E1E1E" stroke-width="1.5" stroke-miterlimit="10" stroke-linejoin="round"/>
<path d="M25.6854 176.436C21.3988 186.713 17.1121 196.989 12.8254 207.266C16.7088 209.465 18.7076 214.2 17.2513 217.95C53.2937 237.331 91.5421 250.386 130.564 256.624C130.893 252.489 134.598 249.7 138.849 250.279C139.502 238.763 140.152 227.244 140.805 215.729C136.893 215.196 133.998 211.329 134.33 207.198C100.066 201.72 66.475 190.255 34.8264 173.237C33.3701 176.983 29.2655 178.461 25.6926 176.44L25.6854 176.436Z" fill="white" stroke="#1E1E1E" stroke-width="1.5" stroke-miterlimit="10" stroke-linejoin="round"/>
<path d="M98.9442 225.723C100.565 215.429 94.108 205.07 84.6602 201.92C75.209 198.796 65.4006 203.756 62.6023 213.657C59.804 223.541 66.0181 235.003 76.6509 238.528C87.2842 242.062 97.331 235.996 98.9478 225.723H98.9442Z" fill="#15E5F2"/>
<path d="M98.9442 225.723C100.565 215.429 94.108 205.07 84.6602 201.92C75.209 198.796 65.4006 203.756 62.6023 213.657C59.804 223.541 66.0181 235.003 76.6509 238.528C87.2842 242.062 97.331 235.996 98.9478 225.723H98.9442Z" stroke="#1E1E1E" stroke-width="1.5" stroke-miterlimit="10" stroke-linejoin="round"/>
<path d="M86.2416 205.952C85.9635 207.123 85.681 208.29 85.4029 209.462C89.0474 211.494 90.5823 214.807 89.9004 217.889C89.2114 220.996 87.1445 222.377 82.7049 222.388C79.5176 222.456 78.1289 222.72 77.8437 223.852C77.6004 224.808 78.0826 226.041 80.3456 226.851C81.5729 227.291 82.6336 227.451 83.508 227.498C84.6747 227.558 85.6667 228.586 85.7032 229.776C85.7389 230.925 84.8529 231.796 83.7076 231.711C82.7726 231.639 81.6799 231.443 80.3884 231.046C80.1451 232.054 79.8991 233.064 79.6566 234.071C78.4962 233.661 77.3401 233.246 76.1871 232.825C76.462 231.739 76.7368 230.654 77.008 229.573C73.4352 227.48 71.9219 224.284 72.7321 221.292C73.6244 217.989 76.5584 217.253 80.4918 217.335C83.2147 217.389 84.4964 216.931 84.8066 215.625C85.1319 214.247 84.0035 213.037 82.0979 212.344C80.7877 211.869 79.4891 211.676 78.3108 211.647C77.1512 211.622 76.1765 210.54 76.1978 209.326C76.1978 209.284 76.1978 209.237 76.1978 209.194C76.2157 208.091 77.0402 207.269 78.079 207.309C79.3242 207.355 80.7841 207.598 82.2191 208.051C82.4901 206.966 82.7619 205.88 83.0293 204.795C84.0998 205.185 85.1711 205.57 86.2416 205.949V205.952Z" fill="white"/>
<path d="M86.2416 205.952C85.9635 207.123 85.681 208.29 85.4029 209.462C89.0474 211.494 90.5823 214.807 89.9004 217.889C89.2114 220.996 87.1445 222.377 82.7049 222.388C79.5176 222.456 78.1289 222.72 77.8437 223.852C77.6004 224.808 78.0826 226.041 80.3456 226.851C81.5729 227.291 82.6336 227.451 83.508 227.498C84.6747 227.558 85.6667 228.586 85.7032 229.776C85.7389 230.925 84.8529 231.796 83.7076 231.711C82.7726 231.639 81.6799 231.443 80.3884 231.046C80.1451 232.054 79.8991 233.064 79.6566 234.071C78.4962 233.661 77.3401 233.246 76.1871 232.825C76.462 231.739 76.7368 230.654 77.008 229.573C73.4352 227.48 71.9219 224.284 72.7321 221.292C73.6244 217.989 76.5584 217.253 80.4918 217.335C83.2147 217.389 84.4964 216.931 84.8066 215.625C85.1319 214.247 84.0035 213.037 82.0979 212.344C80.7877 211.869 79.4891 211.676 78.3108 211.647C77.1512 211.622 76.1765 210.54 76.1978 209.326C76.1978 209.284 76.1978 209.237 76.1978 209.194C76.2157 208.091 77.0402 207.269 78.079 207.309C79.3242 207.355 80.7841 207.598 82.2191 208.051C82.4901 206.966 82.7619 205.88 83.0293 204.795C84.0998 205.185 85.1711 205.57 86.2416 205.949V205.952Z" stroke="#1E1E1E" stroke-width="1.5" stroke-miterlimit="10" stroke-linejoin="round"/>
<path d="M133.552 214.75C101.736 227.326 66.6322 233.075 30.0901 231.693C32.5136 247.247 34.9407 262.805 37.3642 278.359C79.6173 279.955 120.203 273.31 156.988 258.77C149.175 244.098 141.362 229.422 133.548 214.75H133.552Z" fill="#15E5F2"/>
<path d="M133.552 214.75C101.736 227.326 66.6322 233.075 30.0901 231.693C32.5136 247.247 34.9407 262.805 37.3642 278.359C79.6173 279.955 120.203 273.31 156.988 258.77C149.175 244.098 141.362 229.422 133.548 214.75H133.552Z" stroke="#1E1E1E" stroke-width="1.5" stroke-miterlimit="10" stroke-linejoin="round"/>
<path d="M33.9164 240.545C35.5083 250.257 37.1002 259.969 38.6885 269.679C42.5255 269.793 46.1554 272.642 46.8122 276.142C81.9624 276.398 115.82 270.853 147.112 259.716C145.456 256.381 146.876 252.703 150.235 251.41C145.428 242.227 140.619 233.043 135.808 223.855C132.713 225.045 128.83 223.234 127.177 219.899C99.6976 229.68 69.966 234.55 39.099 234.322C39.7557 237.817 37.4429 240.645 33.9128 240.537L33.9164 240.545Z" fill="white" stroke="#1E1E1E" stroke-width="1.5" stroke-miterlimit="10" stroke-linejoin="round"/>
<path d="M109.903 248.729C106.362 240.095 96.9032 234.717 88.5758 236.146C80.2564 237.596 75.3841 245.448 77.8899 254.26C80.3847 263.058 90.1712 269.393 99.537 267.768C108.906 266.154 113.443 257.345 109.906 248.729H109.903Z" fill="white" stroke="#1E1E1E" stroke-width="1.5" stroke-miterlimit="10" stroke-linejoin="round"/>
<path d="M91.5777 238.62C91.9101 239.641 92.2452 240.66 92.5768 241.681C96.1643 241.763 98.8017 243.697 99.7188 246.365C100.644 249.054 99.7696 250.968 96.5387 252.792C94.2471 254.15 93.3585 254.921 93.6695 255.917C93.9298 256.756 94.847 257.513 96.8675 257.213C97.963 257.048 98.8088 256.742 99.4657 256.421C100.344 255.988 101.54 256.381 102.11 257.288C102.664 258.163 102.418 259.202 101.547 259.602C100.833 259.93 99.9479 260.223 98.8231 260.448C99.1092 261.33 99.3908 262.208 99.676 263.09C98.6448 263.247 97.61 263.401 96.5743 263.544C96.2784 262.59 95.9789 261.64 95.6785 260.687C92.1133 260.53 89.5473 258.677 88.7656 256.027C87.8975 253.103 89.7006 251.335 92.6018 249.789C94.6117 248.715 95.3327 247.84 94.961 246.701C94.5653 245.501 93.1874 245.022 91.485 245.269C90.3138 245.437 89.279 245.819 88.4046 246.28C87.5481 246.733 86.3412 246.298 85.7993 245.348C85.7779 245.312 85.7601 245.279 85.7387 245.244C85.2458 244.383 85.4704 243.409 86.245 243.016C87.1764 242.541 88.3511 242.133 89.6043 241.898C89.3039 240.948 89.0009 239.995 88.7005 239.046C89.6614 238.909 90.6177 238.77 91.5705 238.624L91.5777 238.62Z" fill="white" stroke="#1E1E1E" stroke-width="1.5" stroke-miterlimit="10" stroke-linejoin="round"/>
<path d="M136.865 239.913C129.298 242.598 121.57 244.933 113.703 246.915C114.31 248.379 114.917 249.846 115.528 251.31C123.505 249.301 131.34 246.93 139.009 244.208C138.292 242.776 137.579 241.344 136.861 239.91L136.865 239.913Z" fill="white" stroke="#1E1E1E" stroke-width="1.5" stroke-miterlimit="10" stroke-linejoin="round"/>
<path d="M74.0955 266.946V278.34C74.0955 280.183 94.6403 281.675 119.982 281.675C145.323 281.675 165.868 280.183 165.868 278.34V266.946H74.0955Z" fill="#15E5F2" stroke="#1E1E1E" stroke-miterlimit="10" stroke-linejoin="round"/>
<path d="M107.3 281.546V266.946H74.0955V278.34C74.0955 279.861 88.1266 281.147 107.3 281.546Z" fill="#15E5F2" stroke="#1E1E1E" stroke-miterlimit="10" stroke-linejoin="round"/>
<path d="M108.846 281.579C112.411 281.643 116.138 281.679 119.978 281.679C125.7 281.679 131.175 281.604 136.226 281.464V266.949H108.842V281.583L108.846 281.579Z" fill="#15E5F2" stroke="#1E1E1E" stroke-miterlimit="10" stroke-linejoin="round"/>
<path d="M138.067 281.407C154.415 280.897 165.865 279.715 165.865 278.34V266.946H138.067V281.407Z" fill="#15E5F2" stroke="#1E1E1E" stroke-miterlimit="10" stroke-linejoin="round"/>
<path d="M119.978 270.159C145.321 270.159 165.865 268.666 165.865 266.825C165.865 264.982 145.321 263.49 119.978 263.49C94.6359 263.49 74.092 264.982 74.092 266.825C74.092 268.666 94.6359 270.159 119.978 270.159Z" fill="#15E5F2" stroke="#1E1E1E" stroke-miterlimit="10" stroke-linejoin="round"/>
<path d="M157.762 266.825C157.762 268.102 140.844 269.138 119.978 269.138C99.1119 269.138 82.1941 268.102 82.1941 266.825C82.1941 265.546 99.1119 264.511 119.978 264.511C140.844 264.511 157.762 265.546 157.762 266.825Z" fill="#15E5F2" stroke="#1E1E1E" stroke-miterlimit="10" stroke-linejoin="round"/>
<path d="M66.2432 254.888V266.282C66.2432 268.124 86.7878 269.616 112.129 269.616C137.471 269.616 158.016 268.124 158.016 266.282V254.888H66.2432Z" fill="#15E5F2" stroke="#1E1E1E" stroke-miterlimit="10" stroke-linejoin="round"/>
<path d="M99.4516 269.488V254.888H66.2471V266.282C66.2471 267.803 80.2779 269.089 99.4516 269.488Z" fill="#15E5F2" stroke="#1E1E1E" stroke-miterlimit="10" stroke-linejoin="round"/>
<path d="M100.997 269.52C104.563 269.584 108.289 269.62 112.129 269.62C117.852 269.62 123.327 269.545 128.377 269.406V254.891H100.993V269.524L100.997 269.52Z" fill="#15E5F2" stroke="#1E1E1E" stroke-miterlimit="10" stroke-linejoin="round"/>
<path d="M130.215 269.349C146.562 268.838 158.013 267.657 158.013 266.282V254.888H130.215V269.349Z" fill="#15E5F2" stroke="#1E1E1E" stroke-miterlimit="10" stroke-linejoin="round"/>
<path d="M112.129 258.101C137.472 258.101 158.016 256.608 158.016 254.766C158.016 252.924 137.472 251.431 112.129 251.431C86.7869 251.431 66.2432 252.924 66.2432 254.766C66.2432 256.608 86.7869 258.101 112.129 258.101Z" fill="#15E5F2" stroke="#1E1E1E" stroke-miterlimit="10" stroke-linejoin="round"/>
<path d="M149.914 254.766C149.914 256.044 132.996 257.08 112.129 257.08C91.264 257.08 74.3455 256.044 74.3455 254.766C74.3455 253.488 91.264 252.453 112.129 252.453C132.996 252.453 149.914 253.488 149.914 254.766Z" fill="#15E5F2" stroke="#1E1E1E" stroke-miterlimit="10" stroke-linejoin="round"/>
<path d="M163.694 242.508C163.694 242.262 163.494 242.062 163.248 242.062H71.4757C71.2296 242.062 71.03 242.262 71.03 242.508V253.902C71.03 254.239 71.2619 254.469 71.4533 254.605C71.6596 254.753 71.9378 254.881 72.2589 254.994C72.9066 255.224 73.838 255.439 75.0063 255.64C77.3498 256.043 80.727 256.403 84.8831 256.705C93.2008 257.31 104.684 257.683 117.362 257.683C130.04 257.683 141.523 257.31 149.84 256.705C153.998 256.403 157.375 256.043 159.718 255.64C160.886 255.439 161.818 255.224 162.466 254.994C162.787 254.881 163.065 254.753 163.271 254.605C163.462 254.469 163.694 254.239 163.694 253.902V242.508Z" fill="#00A7BB" stroke="#1E1E1E" stroke-miterlimit="10" stroke-linejoin="round"/>
<path d="M104.671 257.554C104.791 257.557 104.907 257.511 104.993 257.427C105.078 257.344 105.126 257.229 105.126 257.108V242.508C105.126 242.262 104.927 242.062 104.681 242.062H71.4757C71.2296 242.062 71.03 242.262 71.03 242.508V253.902C71.03 254.182 71.1925 254.389 71.3463 254.521C71.5032 254.657 71.7105 254.771 71.9397 254.869C72.4019 255.069 73.0593 255.253 73.8757 255.425C75.5155 255.771 77.8882 256.088 80.8455 256.37C86.7656 256.932 95.0788 257.354 104.671 257.554Z" fill="#00A7BB" stroke="#1E1E1E" stroke-miterlimit="10" stroke-linejoin="round"/>
<path d="M106.052 257.556C106.122 257.585 106.198 257.595 106.271 257.587C109.824 257.651 113.534 257.687 117.359 257.687C123.084 257.687 128.563 257.611 133.618 257.472C133.859 257.466 134.051 257.268 134.051 257.026V242.512C134.051 242.265 133.852 242.066 133.605 242.066H106.223C105.977 242.066 105.777 242.265 105.777 242.512V257.144C105.777 257.324 105.885 257.486 106.052 257.556Z" fill="#00A7BB" stroke="#1E1E1E" stroke-miterlimit="10" stroke-linejoin="round"/>
<path d="M135.002 256.969C135.002 257.089 135.051 257.205 135.138 257.289C135.224 257.373 135.341 257.418 135.462 257.415C143.641 257.159 150.603 256.735 155.524 256.203C157.983 255.936 159.947 255.642 161.303 255.323C161.977 255.165 162.525 254.996 162.913 254.809C163.107 254.718 163.285 254.61 163.421 254.479C163.558 254.348 163.691 254.155 163.691 253.902V242.508C163.691 242.262 163.491 242.062 163.245 242.062H135.448C135.202 242.062 135.002 242.262 135.002 242.508V256.969Z" fill="#00A7BB" stroke="#1E1E1E" stroke-miterlimit="10" stroke-linejoin="round"/>
<path d="M117.359 246.167C130.038 246.167 141.52 245.794 149.838 245.189C153.994 244.887 157.371 244.527 159.714 244.124C160.883 243.923 161.814 243.709 162.462 243.479C162.783 243.365 163.061 243.237 163.267 243.09C163.459 242.953 163.691 242.723 163.691 242.387C163.691 242.05 163.459 241.82 163.267 241.683C163.061 241.535 162.783 241.409 162.462 241.294C161.814 241.064 160.883 240.849 159.714 240.649C157.371 240.246 153.994 239.886 149.838 239.583C141.52 238.979 130.038 238.605 117.359 238.605C104.68 238.605 93.1973 238.979 84.8796 239.583C80.7235 239.886 77.3463 240.246 75.0028 240.649C73.8345 240.849 72.9031 241.064 72.2554 241.294C71.9344 241.409 71.6561 241.535 71.4499 241.683C71.2585 241.82 71.0266 242.05 71.0266 242.387C71.0266 242.723 71.2585 242.953 71.4499 243.09C71.6561 243.237 71.9344 243.365 72.2554 243.479C72.9031 243.709 73.8345 243.923 75.0028 244.124C77.3463 244.527 80.7235 244.887 84.8796 245.189C93.1973 245.794 104.68 246.167 117.359 246.167Z" fill="#00A7BB" stroke="#1E1E1E" stroke-miterlimit="10" stroke-linejoin="round"/>
<path d="M117.359 245.146C127.798 245.146 137.254 244.887 144.102 244.468C147.526 244.258 150.307 244.008 152.237 243.729C153.199 243.59 153.967 243.44 154.503 243.28C154.767 243.201 155.001 243.112 155.178 243.005C155.321 242.918 155.589 242.724 155.589 242.387C155.589 242.049 155.321 241.854 155.178 241.768C155.001 241.662 154.767 241.572 154.503 241.493C153.967 241.333 153.199 241.184 152.237 241.045C150.307 240.765 147.526 240.515 144.102 240.306C137.254 239.886 127.798 239.627 117.359 239.627C106.92 239.627 97.4639 239.886 90.6143 240.306C87.1916 240.515 84.4099 240.765 82.4802 241.045C81.5176 241.184 80.7493 241.333 80.2145 241.493C79.9498 241.572 79.7163 241.662 79.5389 241.768C79.3963 241.854 79.1289 242.049 79.1289 242.387C79.1289 242.724 79.3963 242.918 79.5389 243.005C79.7163 243.112 79.9498 243.201 80.2145 243.28C80.7493 243.44 81.5176 243.59 82.4802 243.729C84.4099 244.008 87.1916 244.258 90.6143 244.468C97.4639 244.887 106.92 245.146 117.359 245.146Z" fill="#00A7BB" stroke="#1E1E1E" stroke-miterlimit="10" stroke-linejoin="round"/>
<path d="M66.2433 229.85C65.9972 229.85 65.7976 230.05 65.7976 230.296V241.69C65.7976 242.027 66.0294 242.256 66.2209 242.394C66.4271 242.542 66.7054 242.668 67.0264 242.783C67.6741 243.013 68.6056 243.228 69.7739 243.428C72.1173 243.83 75.4943 244.191 79.6512 244.494C87.9689 245.097 99.4516 245.471 112.129 245.471C124.807 245.471 136.291 245.097 144.609 244.494C148.765 244.191 152.142 243.83 154.485 243.428C155.654 243.228 156.585 243.013 157.233 242.783C157.554 242.668 157.832 242.542 158.039 242.394C158.23 242.256 158.462 242.027 158.462 241.69V230.296C158.462 230.05 158.263 229.85 158.017 229.85H66.2433Z" fill="#15E5F2" stroke="#1E1E1E" stroke-miterlimit="10" stroke-linejoin="round"/>
<path d="M99.4426 245.346C99.562 245.349 99.6779 245.302 99.7634 245.219C99.849 245.135 99.8971 245.02 99.8971 244.9V230.299C99.8971 230.053 99.6975 229.853 99.4515 229.853H66.2469C66.0007 229.853 65.8013 230.053 65.8013 230.299V241.694C65.8013 241.974 65.9638 242.18 66.1174 242.313C66.2744 242.449 66.4816 242.562 66.7108 242.661C67.1731 242.86 67.8305 243.044 68.6468 243.217C70.2867 243.563 72.6595 243.88 75.6168 244.161C81.5363 244.724 89.8495 245.146 99.4426 245.346Z" fill="#15E5F2" stroke="#1E1E1E" stroke-miterlimit="10" stroke-linejoin="round"/>
<path d="M100.823 245.344C100.894 245.374 100.969 245.384 101.043 245.376C104.594 245.439 108.306 245.475 112.129 245.475C117.855 245.475 123.334 245.4 128.39 245.261C128.63 245.253 128.823 245.056 128.823 244.815V230.299C128.823 230.053 128.623 229.853 128.377 229.853H100.994C100.748 229.853 100.548 230.053 100.548 230.299V244.932C100.548 245.113 100.657 245.276 100.823 245.344Z" fill="#15E5F2" stroke="#1E1E1E" stroke-miterlimit="10" stroke-linejoin="round"/>
<path d="M129.769 244.761C129.769 244.882 129.818 244.998 129.905 245.081C129.992 245.165 130.109 245.211 130.229 245.206C138.408 244.951 145.37 244.528 150.292 243.994C152.751 243.729 154.714 243.434 156.07 243.115C156.745 242.956 157.293 242.787 157.68 242.602C157.874 242.51 158.052 242.402 158.189 242.271C158.325 242.14 158.459 241.946 158.459 241.694V230.299C158.459 230.053 158.259 229.853 158.013 229.853H130.215C129.969 229.853 129.769 230.053 129.769 230.299V244.761Z" fill="#15E5F2" stroke="#1E1E1E" stroke-miterlimit="10" stroke-linejoin="round"/>
<path d="M112.129 233.959C124.808 233.959 136.291 233.586 144.609 232.981C148.766 232.679 152.142 232.318 154.486 231.916C155.654 231.715 156.585 231.5 157.233 231.27C157.554 231.156 157.832 231.03 158.039 230.882C158.23 230.745 158.462 230.515 158.462 230.178C158.462 229.842 158.23 229.612 158.039 229.474C157.832 229.327 157.554 229.2 157.233 229.086C156.585 228.856 155.654 228.642 154.486 228.441C152.142 228.038 148.766 227.678 144.609 227.376C136.291 226.771 124.808 226.397 112.129 226.397C99.4516 226.397 87.968 226.771 79.6512 227.376C75.4941 227.678 72.1172 228.038 69.7738 228.441C68.6055 228.642 67.6741 228.856 67.0264 229.086C66.7054 229.2 66.4271 229.327 66.2209 229.474C66.0295 229.612 65.7976 229.842 65.7976 230.178C65.7976 230.515 66.0295 230.745 66.2209 230.882C66.4271 231.03 66.7054 231.156 67.0264 231.27C67.6741 231.5 68.6055 231.715 69.7738 231.916C72.1172 232.318 75.4941 232.679 79.6512 232.981C87.968 233.586 99.4516 233.959 112.129 233.959Z" fill="#15E5F2" stroke="#1E1E1E" stroke-miterlimit="10" stroke-linejoin="round"/>
<path d="M112.129 232.938C122.568 232.938 132.024 232.679 138.874 232.259C142.296 232.05 145.078 231.8 147.008 231.52C147.97 231.381 148.739 231.232 149.274 231.071C149.538 230.993 149.772 230.903 149.949 230.797C150.092 230.71 150.359 230.516 150.359 230.178C150.359 229.84 150.092 229.647 149.949 229.56C149.772 229.453 149.538 229.364 149.274 229.285C148.739 229.124 147.97 228.975 147.008 228.836C145.078 228.557 142.296 228.306 138.874 228.097C132.024 227.678 122.568 227.418 112.129 227.418C101.69 227.418 92.2354 227.678 85.3857 228.097C81.9622 228.306 79.1814 228.557 77.2508 228.836C76.289 228.975 75.5207 229.124 74.9854 229.285C74.721 229.364 74.4871 229.453 74.3104 229.56C74.167 229.647 73.8997 229.84 73.8997 230.178C73.8997 230.516 74.167 230.71 74.3104 230.797C74.4871 230.903 74.721 230.993 74.9854 231.071C75.5207 231.232 76.289 231.381 77.2508 231.52C79.1814 231.8 81.9622 232.05 85.3857 232.259C92.2354 232.679 101.69 232.938 112.129 232.938Z" fill="#15E5F2" stroke="#1E1E1E" stroke-miterlimit="10" stroke-linejoin="round"/>
<path d="M333.937 266.863V277.822C333.937 279.592 314.181 281.028 289.81 281.028C265.439 281.028 245.683 279.592 245.683 277.822V266.863H333.933H333.937Z" fill="#15E5F2" stroke="#1E1E1E" stroke-miterlimit="10" stroke-linejoin="round"/>
<path d="M302.002 280.906V266.863H333.937V277.822C333.937 279.285 320.445 280.521 302.002 280.906Z" fill="#15E5F2" stroke="#1E1E1E" stroke-miterlimit="10" stroke-linejoin="round"/>
<path d="M300.517 280.935C297.091 280.996 293.504 281.032 289.81 281.032C284.31 281.032 279.041 280.957 274.184 280.824V266.867H300.514V280.939L300.517 280.935Z" fill="#15E5F2" stroke="#1E1E1E" stroke-miterlimit="10" stroke-linejoin="round"/>
<path d="M272.417 280.77C256.695 280.282 245.687 279.146 245.687 277.822V266.863H272.417V280.77Z" fill="#15E5F2" stroke="#1E1E1E" stroke-miterlimit="10" stroke-linejoin="round"/>
<path d="M289.81 269.952C314.18 269.952 333.937 268.516 333.937 266.745C333.937 264.974 314.18 263.538 289.81 263.538C265.439 263.538 245.683 264.974 245.683 266.745C245.683 268.516 265.439 269.952 289.81 269.952Z" fill="#15E5F2" stroke="#1E1E1E" stroke-miterlimit="10" stroke-linejoin="round"/>
<path d="M253.475 266.745C253.475 267.973 269.743 268.969 289.81 268.969C309.876 268.969 326.145 267.973 326.145 266.745C326.145 265.517 309.876 264.521 289.81 264.521C269.743 264.521 253.475 265.517 253.475 266.745Z" fill="#15E5F2" stroke="#1E1E1E" stroke-miterlimit="10" stroke-linejoin="round"/>
<path d="M341.485 255.265V266.224C341.485 267.994 321.73 269.43 297.359 269.43C272.988 269.43 253.232 267.994 253.232 266.224V255.265H341.482H341.485Z" fill="#15E5F2" stroke="#1E1E1E" stroke-miterlimit="10" stroke-linejoin="round"/>
<path d="M309.555 269.309V255.265H341.489V266.224C341.489 267.688 327.997 268.923 309.555 269.309Z" fill="#15E5F2" stroke="#1E1E1E" stroke-miterlimit="10" stroke-linejoin="round"/>
<path d="M308.067 269.337C304.64 269.398 301.053 269.434 297.359 269.434C291.858 269.434 286.59 269.362 281.732 269.227V255.269H308.063V269.341L308.067 269.337Z" fill="#15E5F2" stroke="#1E1E1E" stroke-miterlimit="10" stroke-linejoin="round"/>
<path d="M279.966 269.173C264.243 268.684 253.235 267.549 253.235 266.224V255.265H279.966V269.173Z" fill="#15E5F2" stroke="#1E1E1E" stroke-miterlimit="10" stroke-linejoin="round"/>
<path d="M297.362 258.357C321.733 258.357 341.49 256.922 341.49 255.151C341.49 253.38 321.733 251.944 297.362 251.944C272.992 251.944 253.235 253.38 253.235 255.151C253.235 256.922 272.992 258.357 297.362 258.357Z" fill="#15E5F2" stroke="#1E1E1E" stroke-miterlimit="10" stroke-linejoin="round"/>
<path d="M297.362 257.376C317.43 257.376 333.697 256.38 333.697 255.151C333.697 253.922 317.43 252.926 297.362 252.926C277.295 252.926 261.027 253.922 261.027 255.151C261.027 256.38 277.295 257.376 297.362 257.376Z" fill="#15E5F2" stroke="#1E1E1E" stroke-miterlimit="10" stroke-linejoin="round"/>
<path d="M336.457 243.364V254.323C336.457 256.093 316.701 257.529 292.33 257.529C267.959 257.529 248.203 256.093 248.203 254.323V243.364H336.453H336.457Z" fill="#15E5F2" stroke="#1E1E1E" stroke-miterlimit="10" stroke-linejoin="round"/>
<path d="M304.523 257.404V243.36H336.456V254.319C336.456 255.783 322.965 257.018 304.523 257.404Z" fill="#15E5F2" stroke="#1E1E1E" stroke-miterlimit="10" stroke-linejoin="round"/>
<path d="M303.038 257.433C299.611 257.493 296.024 257.529 292.33 257.529C286.829 257.529 281.561 257.458 276.703 257.321V243.364H303.034V257.436L303.038 257.433Z" fill="#15E5F2" stroke="#1E1E1E" stroke-miterlimit="10" stroke-linejoin="round"/>
<path d="M274.937 257.268C259.214 256.779 248.207 255.643 248.207 254.319V243.36H274.937V257.268Z" fill="#1E1E1E" stroke="#1E1E1E" stroke-miterlimit="10" stroke-linejoin="round"/>
<path d="M292.33 246.453C316.7 246.453 336.457 245.017 336.457 243.246C336.457 241.475 316.7 240.04 292.33 240.04C267.959 240.04 248.203 241.475 248.203 243.246C248.203 245.017 267.959 246.453 292.33 246.453Z" fill="#15E5F2" stroke="#1E1E1E" stroke-miterlimit="10" stroke-linejoin="round"/>
<path d="M292.33 245.47C312.397 245.47 328.665 244.474 328.665 243.246C328.665 242.018 312.397 241.022 292.33 241.022C272.262 241.022 255.995 242.018 255.995 243.246C255.995 244.474 272.262 245.47 292.33 245.47Z" fill="#15E5F2" stroke="#1E1E1E" stroke-miterlimit="10" stroke-linejoin="round"/>
<path d="M341.485 231.62V242.578C341.485 244.349 321.73 245.785 297.359 245.785C272.988 245.785 253.232 244.349 253.232 242.578V231.62H341.482H341.485Z" fill="#00A7BB" stroke="#1E1E1E" stroke-miterlimit="10" stroke-linejoin="round"/>
<path d="M309.555 245.664V231.62H341.489V242.578C341.489 244.043 327.997 245.277 309.555 245.664Z" fill="#00A7BB" stroke="#1E1E1E" stroke-miterlimit="10" stroke-linejoin="round"/>
<path d="M308.067 245.692C304.64 245.753 301.053 245.788 297.359 245.788C291.858 245.788 286.59 245.714 281.732 245.582V231.623H308.063V245.696L308.067 245.692Z" fill="#00A7BB" stroke="#1E1E1E" stroke-miterlimit="10" stroke-linejoin="round"/>
<path d="M279.966 245.528C264.243 245.039 253.235 243.903 253.235 242.578V231.62H279.966V245.528Z" fill="#1E1E1E" stroke="#1E1E1E" stroke-miterlimit="10" stroke-linejoin="round"/>
<path d="M297.362 234.712C321.733 234.712 341.49 233.277 341.49 231.506C341.49 229.735 321.733 228.299 297.362 228.299C272.992 228.299 253.235 229.735 253.235 231.506C253.235 233.277 272.992 234.712 297.362 234.712Z" fill="#00A7BB" stroke="#1E1E1E" stroke-miterlimit="10" stroke-linejoin="round"/>
<path d="M297.362 233.73C317.43 233.73 333.697 232.734 333.697 231.506C333.697 230.277 317.43 229.281 297.362 229.281C277.295 229.281 261.027 230.277 261.027 231.506C261.027 232.734 277.295 233.73 297.362 233.73Z" fill="#00A7BB" stroke="#1E1E1E" stroke-miterlimit="10" stroke-linejoin="round"/>
<path d="M379.843 216.521L377.19 225.78C376.762 227.277 359.726 223.709 339.139 217.807C318.551 211.908 302.207 205.913 302.639 204.417L305.291 195.158L379.846 216.521H379.843Z" fill="#15E5F2" stroke="#1E1E1E" stroke-miterlimit="10"/>
<path d="M349.471 220.652L352.869 208.79L379.846 216.521L377.193 225.78C376.84 227.015 365.14 224.795 349.471 220.656V220.652Z" fill="#1E1E1E" stroke="#1E1E1E" stroke-miterlimit="10"/>
<path d="M348.208 220.317C345.298 219.539 342.258 218.7 339.142 217.807C334.495 216.475 330.061 215.139 325.993 213.851L329.369 202.057L351.613 208.43L348.208 220.317Z" fill="#15E5F2" stroke="#1E1E1E" stroke-miterlimit="10"/>
<path d="M324.508 213.379C311.344 209.159 302.318 205.534 302.639 204.417L305.291 195.158L327.873 201.628L324.511 213.375L324.508 213.379Z" fill="#15E5F2" stroke="#1E1E1E" stroke-miterlimit="10"/>
<path d="M305.32 195.058C304.891 196.554 321.231 202.549 341.819 208.448C362.406 214.346 379.442 217.918 379.871 216.421C380.299 214.925 363.959 208.93 343.371 203.031C322.784 197.132 305.748 193.562 305.32 195.058Z" fill="#15E5F2" stroke="#1E1E1E" stroke-miterlimit="10"/>
<path d="M311.897 196.943C311.601 197.982 325.104 202.76 342.057 207.62C359.012 212.479 372.996 215.575 373.292 214.535C373.588 213.497 360.086 208.719 343.132 203.86C326.178 199 312.193 195.904 311.897 196.943Z" fill="#15E5F2" stroke="#1E1E1E" stroke-miterlimit="10"/>
<path d="M355.735 152.805L358.558 162.011C359.015 163.5 342.786 169.799 322.312 176.08C301.839 182.361 284.871 186.245 284.414 184.76L281.591 175.554L355.735 152.805Z" fill="#15E5F2" stroke="#1E1E1E" stroke-miterlimit="10"/>
<path d="M332.52 172.833L328.905 161.035L355.732 152.805L358.554 162.011C358.933 163.242 347.915 167.756 332.52 172.833Z" fill="#15E5F2" stroke="#1E1E1E" stroke-miterlimit="10"/>
<path d="M331.282 173.241C328.42 174.176 325.414 175.129 322.312 176.08C317.69 177.497 313.247 178.793 309.132 179.932L305.537 168.206L327.659 161.418L331.282 173.241Z" fill="#15E5F2" stroke="#1E1E1E" stroke-miterlimit="10"/>
<path d="M307.633 180.346C294.298 183.985 284.754 185.87 284.414 184.76L281.591 175.554L304.049 168.663L307.633 180.346Z" fill="#1E1E1E" stroke="#1E1E1E" stroke-miterlimit="10"/>
<path d="M281.559 175.455C282.016 176.944 298.984 173.059 319.457 166.774C339.931 160.493 356.161 154.195 355.703 152.706C355.246 151.216 338.278 155.101 317.805 161.386C297.332 167.667 281.102 173.966 281.559 175.455Z" fill="#15E5F2" stroke="#1E1E1E" stroke-miterlimit="10"/>
<path d="M288.105 173.447C288.422 174.48 302.346 171.123 319.203 165.949C336.065 160.775 349.475 155.748 349.157 154.715C348.839 153.684 334.915 157.04 318.058 162.214C301.196 167.388 287.787 172.416 288.105 173.447Z" fill="#15E5F2" stroke="#1E1E1E" stroke-miterlimit="10"/>
<path d="M122.174 131.727L122.72 138.398L126.593 134.034L139.116 123.772L128.438 127.139C128.438 127.139 123.18 129.696 122.937 130.031C122.695 130.367 122.174 131.727 122.174 131.727Z" fill="#8D5D00" stroke="#1E1E1E" stroke-width="0.457662" stroke-linecap="round" stroke-linejoin="round"/>
<path d="M116.499 128.861L139.116 123.772L122.173 131.727L116.499 128.861Z" fill="#FFC700" stroke="#1E1E1E" stroke-width="0.457662" stroke-linecap="round" stroke-linejoin="round"/>
<path d="M130.872 136.665L123.901 133.184L139.116 123.772L130.872 136.665Z" fill="#FFC700" stroke="#1E1E1E" stroke-width="0.457662" stroke-linecap="round" stroke-linejoin="round"/>
<path d="M119.533 135.43C120.578 135.037 121.346 134.952 121.353 134.952L121.303 134.466C121.271 134.466 120.464 134.559 119.361 134.973L119.533 135.43Z" stroke="#1E1E1E" stroke-width="0.457662" stroke-miterlimit="10"/>
<path d="M108.371 174.847C109.288 174.008 110.113 173.109 110.823 172.166L111.212 172.459C110.484 173.426 109.638 174.351 108.7 175.208L108.371 174.847ZM112.708 169.063C112.947 168.559 113.168 168.038 113.361 167.51C113.582 166.91 113.775 166.285 113.939 165.645L114.41 165.767C114.243 166.42 114.043 167.063 113.814 167.678C113.614 168.221 113.39 168.759 113.143 169.274L112.704 169.063H112.708ZM114.674 158.401L115.16 158.39C115.188 159.715 115.149 160.928 115.039 162.1L114.553 162.054C114.663 160.9 114.699 159.704 114.671 158.401H114.674ZM113.982 151.092L114.464 151.024C114.667 152.452 114.813 153.616 114.921 154.69L114.435 154.74C114.328 153.673 114.182 152.513 113.978 151.092H113.982ZM113.436 147.421C113.243 146.106 113.182 144.861 113.251 143.721L113.736 143.75C113.668 144.857 113.728 146.071 113.914 147.349V147.378L113.436 147.446V147.424V147.421ZM114.047 140.058C114.535 138.858 115.249 137.812 116.163 136.948L116.499 137.301C115.635 138.115 114.964 139.105 114.499 140.24L114.05 140.055L114.047 140.058Z" stroke="#1E1E1E" stroke-width="0.457662" stroke-miterlimit="10"/>
</g>
</g>
</svg>
