<svg width="401" height="295" viewBox="0 0 401 295" fill="none" xmlns="http://www.w3.org/2000/svg">
<mask id="mask0_2586_4519" style="mask-type:alpha" maskUnits="userSpaceOnUse" x="0" y="0" width="385" height="290">
<rect width="385" height="290" fill="#D9D9D9"/>
</mask>
<g mask="url(#mask0_2586_4519)">
</g>
<path d="M204.717 279.183L350.202 280.4L349.389 275.533L347.357 262.556L343.7 251.2L338.01 240.25L328.664 228.489L317.691 219.161L307.125 212.672L301.436 210.239L303.468 209.428L309.97 202.939L314.847 194.828L317.285 189.15L323.787 186.311L328.664 181.85L329.476 177.794L328.664 173.739L325.819 171.711L310.783 167.25L305.093 142.106L285.587 140.483L268.925 159.544L253.076 170.494L248.606 174.55L247.793 179.822L252.264 185.094L259.985 189.15L261.61 191.989L265.674 198.478L259.172 208.617L254.702 219.567L237.227 238.628L234.383 241.872L232.351 239.439L225.442 247.55L215.283 260.122L208.781 270.667L204.717 279.183Z" fill="white" stroke="black" stroke-width="2"/>
<path d="M266.391 32.8083H27.7373V199.844H266.391V32.8083Z" fill="white" stroke="black" stroke-width="1.5"/>
<path d="M167.704 108.981L152.933 149.831L159.114 151.728L169.674 109.581C169.798 109.085 169.54 108.574 169.067 108.38C168.523 108.156 167.903 108.43 167.704 108.981Z" fill="black"/>
<path d="M47.6885 33.5679V200.453" stroke="black" stroke-width="1.5"/>
<path d="M47.6885 52.7188H265.63" stroke="black" stroke-width="1.5"/>
<g style="mix-blend-mode:multiply">
<path d="M47.6879 32.2H27.1274V200.453H47.6879V32.2Z" fill="#15E5F2"/>
</g>
<mask id="mask1_2586_4519" style="mask-type:luminance" maskUnits="userSpaceOnUse" x="131" y="75" width="114" height="86">
<path d="M133.17 89.0191C131.9 84.2871 134.711 79.3767 139.554 78.5779C149.472 76.9421 159.615 76.9598 169.566 78.6503C182.444 80.8383 194.696 85.7763 205.485 93.1274C216.274 100.479 225.344 110.069 232.075 121.241C237.276 129.875 240.986 139.295 243.071 149.109C244.088 153.902 240.53 158.303 235.65 158.845C230.771 159.388 226.429 155.86 225.297 151.092C223.567 143.813 220.72 136.825 216.839 130.383C211.426 121.4 204.134 113.691 195.46 107.78C186.787 101.87 176.936 97.9 166.582 96.1407C159.157 94.8794 151.599 94.7764 144.176 95.8195C139.314 96.5025 134.44 93.752 133.17 89.0191Z" fill="#C7E800" stroke="black" stroke-width="3"/>
</mask>
<g mask="url(#mask1_2586_4519)">
<path d="M133.17 89.0191C131.9 84.2871 134.711 79.3767 139.554 78.5779C149.472 76.9421 159.615 76.9598 169.566 78.6503C182.444 80.8383 194.696 85.7763 205.485 93.1274C216.274 100.479 225.344 110.069 232.075 121.241C237.276 129.875 240.986 139.295 243.071 149.109C244.088 153.902 240.53 158.303 235.65 158.845C230.771 159.388 226.429 155.86 225.297 151.092C223.567 143.813 220.72 136.825 216.839 130.383C211.426 121.4 204.134 113.691 195.46 107.78C186.787 101.87 176.936 97.9 166.582 96.1407C159.157 94.8794 151.599 94.7764 144.176 95.8195C139.314 96.5025 134.44 93.752 133.17 89.0191Z" fill="#15E5F2" stroke="black" stroke-width="3"/>
</g>
<mask id="mask2_2586_4519" style="mask-type:luminance" maskUnits="userSpaceOnUse" x="74" y="83" width="55" height="53">
<path d="M80.4803 132.787C76.0476 130.681 74.1281 125.36 76.662 121.163C81.2603 113.548 86.9665 106.636 93.6069 100.66C100.247 94.6848 107.724 89.7321 115.788 85.9523C120.232 83.8697 125.338 86.323 126.98 90.9407C128.622 95.5575 126.171 100.582 121.779 102.77C115.892 105.702 110.418 109.422 105.513 113.837C100.607 118.252 96.3354 123.302 92.8063 128.842C90.1728 132.976 84.9129 134.893 80.4803 132.787Z" fill="#1127EE" stroke="black" stroke-width="3"/>
</mask>
<g mask="url(#mask2_2586_4519)">
<path d="M80.4803 132.787C76.0476 130.681 74.1281 125.36 76.662 121.163C81.2603 113.548 86.9665 106.636 93.6069 100.66C100.247 94.6848 107.724 89.7321 115.788 85.9523C120.232 83.8697 125.338 86.323 126.98 90.9407C128.622 95.5575 126.171 100.582 121.779 102.77C115.892 105.702 110.418 109.422 105.513 113.837C100.607 118.252 96.3354 123.302 92.8063 128.842C90.1728 132.976 84.9129 134.893 80.4803 132.787Z" fill="#23EE11" stroke="black" stroke-width="3"/>
</g>
<mask id="mask3_2586_4519" style="mask-type:luminance" maskUnits="userSpaceOnUse" x="63" y="136" width="23" height="25">
<path d="M72.9941 159.287C68.1121 158.771 64.5293 154.39 65.5212 149.592C65.9298 147.615 66.4044 145.653 66.9444 143.709C68.2554 138.988 73.4467 136.72 78.0267 138.484C82.6068 140.248 84.8294 145.377 83.6318 150.128C83.5187 150.577 83.4099 151.027 83.3053 151.478C82.1988 156.251 77.8762 159.803 72.9941 159.287Z" fill="white" stroke="black" stroke-width="3"/>
</mask>
<g mask="url(#mask3_2586_4519)">
<path d="M72.9941 159.287C68.1121 158.771 64.5293 154.39 65.5212 149.592C65.9298 147.615 66.4044 145.653 66.9444 143.709C68.2554 138.988 73.4467 136.72 78.0267 138.484C82.6068 140.248 84.8294 145.377 83.6318 150.128C83.5187 150.577 83.4099 151.027 83.3053 151.478C82.1988 156.251 77.8762 159.803 72.9941 159.287Z" fill="white" stroke="black" stroke-width="3"/>
</g>
<path d="M173.11 106.067C181.059 106.067 187.502 99.6364 187.502 91.7039C187.502 83.7715 181.059 77.3409 173.11 77.3409C165.161 77.3409 158.718 83.7715 158.718 91.7039C158.718 99.6364 165.161 106.067 173.11 106.067Z" fill="black"/>
<path d="M154.603 163.519C159.145 163.519 162.827 159.844 162.827 155.311C162.827 150.778 159.145 147.104 154.603 147.104C150.061 147.104 146.378 150.778 146.378 155.311C146.378 159.844 150.061 163.519 154.603 163.519Z" fill="black"/>
<path d="M173.11 101.355C180.722 101.355 186.893 95.197 186.893 87.6005C186.893 80.004 180.722 73.8459 173.11 73.8459C165.498 73.8459 159.328 80.004 159.328 87.6005C159.328 95.197 165.498 101.355 173.11 101.355Z" fill="white" stroke="black" stroke-width="1.5"/>
<path d="M60.0251 48.0065C62.7165 48.0065 64.8983 45.8291 64.8983 43.1432C64.8983 40.4573 62.7165 38.2799 60.0251 38.2799C57.3337 38.2799 55.1519 40.4573 55.1519 43.1432C55.1519 45.8291 57.3337 48.0065 60.0251 48.0065Z" stroke="black" stroke-width="1.5"/>
<path d="M75.1032 48.0065C77.7946 48.0065 79.9764 45.8291 79.9764 43.1432C79.9764 40.4573 77.7946 38.2799 75.1032 38.2799C72.4118 38.2799 70.23 40.4573 70.23 43.1432C70.23 45.8291 72.4118 48.0065 75.1032 48.0065Z" stroke="black" stroke-width="1.5"/>
<path d="M90.1843 48.0065C92.8757 48.0065 95.0575 45.8291 95.0575 43.1432C95.0575 40.4573 92.8757 38.2799 90.1843 38.2799C87.4929 38.2799 85.311 40.4573 85.311 43.1432C85.311 45.8291 87.4929 48.0065 90.1843 48.0065Z" stroke="black" stroke-width="1.5"/>
<path d="M97.0254 233.761V255.661H183.991" stroke="black" stroke-width="1.5" stroke-linecap="round"/>
<path d="M110.03 237.817L132.46 218.35L150.812 237.817L167.736 225.042" stroke="black" stroke-width="2" stroke-linecap="round"/>
<path d="M132.381 223.217C134.85 223.217 136.851 221.219 136.851 218.756C136.851 216.292 134.85 214.294 132.381 214.294C129.912 214.294 127.911 216.292 127.911 218.756C127.911 221.219 129.912 223.217 132.381 223.217Z" fill="#15E5F2"/>
<path d="M109.623 241.264C111.756 241.264 113.484 239.539 113.484 237.411C113.484 235.283 111.756 233.558 109.623 233.558C107.491 233.558 105.763 235.283 105.763 237.411C105.763 239.539 107.491 241.264 109.623 241.264Z" fill="#40D6E0" stroke="#40D6E0" stroke-width="1.5"/>
<path d="M150.262 241.872C152.731 241.872 154.732 239.875 154.732 237.411C154.732 234.947 152.731 232.95 150.262 232.95C147.793 232.95 145.792 234.947 145.792 237.411C145.792 239.875 147.793 241.872 150.262 241.872Z" fill="#23EE11"/>
<mask id="mask4_2586_4519" style="mask-type:alpha" maskUnits="userSpaceOnUse" x="188" y="88" width="213" height="192">
<path d="M386.053 88.1667H202.947C194.692 88.1667 188 93.9649 188 101.117V267.049C188 274.202 194.692 280 202.947 280H386.053C394.308 280 401 274.202 401 267.049V101.117C401 93.9649 394.308 88.1667 386.053 88.1667Z" fill="white"/>
</mask>
<g mask="url(#mask4_2586_4519)">
<path d="M281.075 214.825L289.157 223.213L279.621 238.213L272.994 223.213" stroke="black" stroke-width="1.5"/>
<path d="M304.349 211.599L292.55 223.374L302.086 238.053L309.036 221.439" stroke="black" stroke-width="1.5"/>
<path d="M292.388 223.213H289.479L283.66 232.568L287.378 237.568H292.388L297.56 231.6L292.388 223.213Z" fill="black" stroke="black" stroke-width="1.5"/>
<path d="M279.62 263.699L287.377 237.568H292.712L300.955 261.441C296.17 270.345 291.203 272.248 289.318 272.087C284.533 271.313 280.858 266.172 279.62 263.699Z" fill="black" stroke="black" stroke-width="1.5"/>
<path d="M272.67 223.052C271.539 237.676 273.252 267.925 289.156 271.925C301.117 270.958 312.561 242.795 308.552 214.664M302.086 210.148C310.222 214.395 326.523 221.281 341.263 245.928C343.566 250.253 348.497 263.042 349.797 279.589" stroke="black" stroke-width="1.5"/>
<path d="M219.333 255.15L231.294 272.571L245.517 255.15L232.748 239.505C223.858 248.484 205.401 270.538 202.685 286.926C202.847 293.002 208.18 303.476 228.222 296.766L241.476 286.926" stroke="black" stroke-width="1.5"/>
<path d="M282.853 168.532C280.213 166.435 273.091 163.499 265.721 168.532" stroke="black" stroke-width="1.5"/>
<path d="M294.166 168.371C297.291 165.36 305.416 161.145 312.916 168.371" stroke="black" stroke-width="1.5"/>
<path d="M314.694 176.274C316.903 173.371 322.646 168.661 327.948 173.049C330.695 176.274 332.311 184.049 316.795 189.34C315.502 194.932 310.168 207.115 299.177 211.116C296.16 212.567 288.574 214.793 282.368 212.083" stroke="black" stroke-width="1.5"/>
<path d="M280.915 197.888C283.016 200.147 289.805 203.308 300.149 197.888" stroke="black" stroke-width="1.5"/>
<path d="M258.771 174.5C256.993 172.511 252.694 169.435 249.72 173.048C248.157 174.984 246.261 179.952 251.174 184.339C252.952 185.898 257.219 189.017 260.064 189.017C261.734 192.081 265.236 198.276 265.883 198.534" stroke="black" stroke-width="1.5"/>
<path d="M260.063 173.371C283.339 174.661 284.632 158.639 282.368 150.466C282.368 146.466 286.463 146.434 288.51 146.918C292.389 149.499 295.298 147.993 296.269 146.918C303.381 146.272 303.973 156.65 303.381 161.919C309.07 177.146 319.974 174.823 324.716 171.758C330.663 170.468 328.702 163.37 326.978 159.983C324.134 157.273 324.284 151.434 324.716 148.853C324.845 134.143 319.812 127.454 317.28 125.949C312.366 121.174 301.225 120.734 296.269 121.11C293.295 116.981 289.857 116.378 288.51 116.593C269.115 116.981 261.465 126.97 260.063 131.917C260.063 137.207 256.723 143.154 255.053 145.466C248.846 151.531 247.51 156.381 247.618 158.047C246.325 169.145 255.376 172.887 260.063 173.371Z" fill="black" stroke="black" stroke-width="1.5"/>
<path d="M273.962 193.41C279.874 193.41 284.667 188.627 284.667 182.727C284.667 176.827 279.874 172.044 273.962 172.044C268.05 172.044 263.258 176.827 263.258 182.727C263.258 188.627 268.05 193.41 273.962 193.41Z" fill="#15E5F2" stroke="black" stroke-width="1.5"/>
<path d="M302.411 193.41C308.323 193.41 313.115 188.627 313.115 182.727C313.115 176.827 308.323 172.044 302.411 172.044C296.499 172.044 291.706 176.827 291.706 182.727C291.706 188.627 296.499 193.41 302.411 193.41Z" fill="#15E5F2" stroke="black" stroke-width="1.5"/>
<path d="M284.956 181.597H291.583" stroke="black" stroke-width="1.5"/>
<path d="M262.973 183.049H259.255" stroke="black" stroke-width="1.5"/>
<path d="M313.562 182.565H317.118" stroke="black" stroke-width="1.5"/>
<path d="M255.216 219.181L236.143 240.149L234.042 241.601L245.034 254.667L266.53 224.826C275.581 223.793 280.969 215.363 282.531 211.277C284.859 205.728 281.562 201.33 279.622 199.824L288.512 184.985C288.253 182.791 285.064 183.103 283.501 183.533C282.726 180.178 279.838 182.135 278.491 183.533L269.601 197.083C263.006 197.212 257.263 211.868 255.216 219.181Z" fill="white"/>
<path d="M283.501 183.533C282.726 180.178 279.838 182.135 278.491 183.533L269.601 197.083C263.006 197.212 257.263 211.868 255.216 219.181L236.143 240.149L234.042 241.601L245.034 254.667L266.53 224.826C275.581 223.793 280.969 215.363 282.531 211.277C284.859 205.728 281.562 201.33 279.622 199.824L288.512 184.985C288.253 182.791 285.064 183.103 283.501 183.533ZM283.501 183.533L274.612 197.083" stroke="black" stroke-width="1.5"/>
</g>
</svg>
