<svg width="20" height="20" viewBox="0 0 20 20" fill="none" xmlns="http://www.w3.org/2000/svg">
<rect width="20" height="20" fill="white"/>
<path d="M17.9999 14.1849C18.0193 17.7424 16.005 18.6803 13.7837 19.1136C11.3653 19.5826 7.70846 18.2663 7.46436 18.1677C7.55812 18.2016 7.65188 18.234 7.74726 18.2615C8.26943 18.4199 8.78352 18.4862 9.2879 18.4781C9.71631 18.4701 10.1366 18.4086 10.5456 18.3035C10.5553 18.3003 10.5634 18.3003 10.5715 18.297C13.344 17.5694 16.2846 15.27 16.7745 12.0731C16.8989 10.718 16.8585 10.4286 16.7082 8.92798C17.2287 10.9331 17.9902 12.5081 17.9982 14.1849H17.9999Z" fill="url(#paint0_linear_2720_2)"/>
<path d="M10.5731 18.2955C10.5634 18.2987 10.5553 18.3004 10.5473 18.3036C10.1383 18.4087 9.71793 18.4701 9.28953 18.4782C8.78514 18.4863 8.27106 18.42 7.74889 18.2615C7.65189 18.2292 7.55813 18.1969 7.46598 18.1678C7.46275 18.1678 7.46113 18.1678 7.4579 18.1645C5.7459 17.605 4.44937 16.3793 3.47778 14.9483C1.96625 12.7281 0.863711 7.50185 4.0727 4.34541C6.33596 2.11876 8.39392 1.2957 9.41077 1.00301L10.0655 0.854248C9.11332 1.07416 8.3923 2.29017 8.16598 4.16269C8.02695 5.33018 8.00593 6.89384 8.10616 8.51896C8.37614 12.8671 9.6468 16.2807 10.5731 18.2939V18.2955Z" fill="url(#paint1_linear_2720_2)"/>
<path d="M16.7761 12.0712C16.2944 10.7162 15.187 9.24628 13.6835 7.67453C11.5868 5.48023 8.16602 4.15911 8.16602 4.15911C8.39073 2.28983 9.11335 1.07383 10.0655 0.853912H10.072L10.0752 0.852295C10.0752 0.852295 12.2771 0.933146 13.9212 2.66336C15.5426 4.37256 16.3316 7.21368 16.5918 8.43615C16.6274 8.6027 16.6662 8.76441 16.7082 8.92611C16.857 10.4283 16.899 10.7178 16.7745 12.0728L16.7761 12.0712Z" fill="url(#paint2_linear_2720_2)"/>
<path d="M13.8062 12.1231H12.6665C12.618 12.1231 12.5792 12.0843 12.5792 12.0358V10.8958C12.5792 10.8473 12.5404 10.8085 12.4919 10.8085H11.3522C11.3037 10.8085 11.2649 10.7697 11.2649 10.7212V9.64746C11.2649 9.59895 11.3037 9.56014 11.3522 9.56014H12.4919C12.5404 9.56014 12.5792 9.52133 12.5792 9.47282V8.26652C12.5792 8.21801 12.5404 8.1792 12.4919 8.1792H11.2859C11.2374 8.1792 11.1986 8.21801 11.1986 8.26652V9.40652C11.1986 9.45503 11.1598 9.49384 11.1113 9.49384H9.97157C9.92308 9.49384 9.88428 9.53265 9.88428 9.58116V10.7875C9.88428 10.836 9.92308 10.8748 9.97157 10.8748H11.1113C11.1598 10.8748 11.1986 10.9136 11.1986 10.9621V12.1021C11.1986 12.1506 11.2374 12.1894 11.2859 12.1894H12.4256C12.4741 12.1894 12.5129 12.2282 12.5129 12.2767V13.3505C12.5129 13.399 12.4741 13.4378 12.4256 13.4378H11.2859C11.2374 13.4378 11.1986 13.4766 11.1986 13.5251V14.7314C11.1986 14.7799 11.2374 14.8187 11.2859 14.8187H12.4919C12.5404 14.8187 12.5792 14.7799 12.5792 14.7314V13.5914C12.5792 13.5429 12.618 13.5041 12.6665 13.5041H13.8062C13.8547 13.5041 13.8935 13.4653 13.8935 13.4167V12.2104C13.8935 12.1619 13.8547 12.1231 13.8062 12.1231Z" fill="#02FFA4"/>
<defs>
<linearGradient id="paint0_linear_2720_2" x1="18.5964" y1="10.579" x2="10.0081" y2="20.3922" gradientUnits="userSpaceOnUse">
<stop offset="0.02" stop-color="#02FFA4"/>
<stop offset="1" stop-color="#053F0D"/>
</linearGradient>
<linearGradient id="paint1_linear_2720_2" x1="7.05698" y1="16.8483" x2="5.22928" y2="-3.39522" gradientUnits="userSpaceOnUse">
<stop offset="0.02" stop-color="#02FFA4"/>
<stop offset="0.81" stop-color="#053F0D"/>
</linearGradient>
<linearGradient id="paint2_linear_2720_2" x1="8.51527" y1="6.46223" x2="17.455" y2="6.46168" gradientUnits="userSpaceOnUse">
<stop stop-color="#02FFA4"/>
<stop offset="1" stop-color="#053F0D"/>
</linearGradient>
</defs>
</svg>
