<svg width="289" height="257" viewBox="0 0 289 257" fill="none" xmlns="http://www.w3.org/2000/svg">
<g filter="url(#filter0_d_2586_4539)">
<path d="M184.425 206.981C241.721 206.981 288.169 160.647 288.169 103.491C288.169 46.3343 241.721 0 184.425 0C127.128 0 80.6807 46.3343 80.6807 103.491C80.6807 160.647 127.128 206.981 184.425 206.981Z" fill="#FFC727"/>
<path opacity="0.1" d="M127.834 47.0351C150.126 24.3154 185.916 16.7298 215.626 28.3586C264.69 46.7569 284.212 106.96 255.041 150.563C233.326 183.947 188.723 196.985 152.468 180.46C99.8341 157.147 87.1357 87.2444 127.834 47.0351ZM127.834 47.0351C105.263 69.013 98.6256 104.975 111.863 133.481C133.913 182.741 199.674 194.556 237.546 156.461C275.771 118.681 263.91 53.0443 214.51 31.0664C185.934 17.8797 149.884 24.5009 127.852 47.0166L127.834 47.0351Z" fill="black"/>
<path opacity="0.1" d="M215.734 111.855H197.105C196.324 111.855 195.692 111.225 195.692 110.446V91.8618C195.692 91.0828 195.059 90.4522 194.279 90.4522H175.649C174.868 90.4522 174.236 89.8216 174.236 89.0427V71.5346C174.236 70.7556 174.868 70.125 175.649 70.125H194.279C195.059 70.125 195.692 69.4944 195.692 68.7155V49.0559C195.692 48.277 195.059 47.6464 194.279 47.6464H174.571C173.79 47.6464 173.158 48.277 173.158 49.0559V67.6398C173.158 68.4187 172.526 69.0493 171.745 69.0493H153.116C152.335 69.0493 151.703 69.6799 151.703 70.4589V90.1184C151.703 90.8973 152.335 91.5279 153.116 91.5279H171.745C172.526 91.5279 173.158 92.1585 173.158 92.9375V111.521C173.158 112.3 173.79 112.931 174.571 112.931H193.2C193.981 112.931 194.613 113.561 194.613 114.34V131.848C194.613 132.627 193.981 133.258 193.2 133.258H174.571C173.79 133.258 173.158 133.889 173.158 134.668V154.327C173.158 155.106 173.79 155.737 174.571 155.737H194.279C195.059 155.737 195.692 155.106 195.692 154.327V135.743C195.692 134.964 196.324 134.334 197.105 134.334H215.734C216.515 134.334 217.147 133.703 217.147 132.924V113.265C217.147 112.486 216.515 111.855 215.734 111.855Z" fill="black"/>
<path d="M184.425 206.981C241.721 206.981 288.169 160.647 288.169 103.491C288.169 46.3343 241.721 0 184.425 0C127.128 0 80.6807 46.3343 80.6807 103.491C80.6807 160.647 127.128 206.981 184.425 206.981Z" fill="#FFC727"/>
<path opacity="0.1" d="M127.834 47.0351C150.126 24.3154 185.916 16.7298 215.626 28.3586C264.69 46.7569 284.212 106.96 255.041 150.563C233.326 183.947 188.723 196.985 152.468 180.46C99.8341 157.147 87.1357 87.2444 127.834 47.0351ZM127.834 47.0351C105.263 69.013 98.6256 104.975 111.863 133.481C133.913 182.741 199.674 194.556 237.546 156.461C275.771 118.681 263.91 53.0443 214.51 31.0664C185.934 17.8797 149.884 24.5009 127.852 47.0166L127.834 47.0351Z" fill="black"/>
<path opacity="0.1" d="M215.734 111.855H197.105C196.324 111.855 195.692 111.225 195.692 110.446V91.8618C195.692 91.0828 195.059 90.4522 194.279 90.4522H175.649C174.868 90.4522 174.236 89.8216 174.236 89.0427V71.5346C174.236 70.7556 174.868 70.125 175.649 70.125H194.279C195.059 70.125 195.692 69.4944 195.692 68.7155V49.0559C195.692 48.277 195.059 47.6464 194.279 47.6464H174.571C173.79 47.6464 173.158 48.277 173.158 49.0559V67.6398C173.158 68.4187 172.526 69.0493 171.745 69.0493H153.116C152.335 69.0493 151.703 69.6799 151.703 70.4589V90.1184C151.703 90.8973 152.335 91.5279 153.116 91.5279H171.745C172.526 91.5279 173.158 92.1585 173.158 92.9375V111.521C173.158 112.3 173.79 112.931 174.571 112.931H193.2C193.981 112.931 194.613 113.561 194.613 114.34V131.848C194.613 132.627 193.981 133.258 193.2 133.258H174.571C173.79 133.258 173.158 133.889 173.158 134.668V154.327C173.158 155.106 173.79 155.737 174.571 155.737H194.279C195.059 155.737 195.692 155.106 195.692 154.327V135.743C195.692 134.964 196.324 134.334 197.105 134.334H215.734C216.515 134.334 217.147 133.703 217.147 132.924V113.265C217.147 112.486 216.515 111.855 215.734 111.855Z" fill="black"/>
<path d="M103.605 47.5342L120.561 50.6501L124.335 68.4735L128.128 50.6501L145.084 47.5157L128.202 43.3983L124.335 26.5764L120.487 43.3983L103.605 47.5342Z" fill="white"/>
<path d="M102.716 66.544C105.207 66.544 105.226 70.4203 102.716 70.4203C100.206 70.4203 100.206 66.544 102.716 66.544Z" fill="white"/>
</g>
<g filter="url(#filter1_d_2586_4539)">
<path d="M38.1236 119.678C19.9212 142.848 22.5665 184.534 44.0508 212.782C65.5238 241.036 97.6966 245.157 115.899 221.987C134.108 198.828 131.456 157.131 109.99 128.888C88.5165 100.633 56.3438 96.5127 38.1414 119.683L38.1236 119.678ZM37.6539 161.275C37.6503 162.381 37.6777 163.515 37.7408 164.658C37.6664 163.521 37.6569 162.392 37.6539 161.275Z" fill="#EBEBEB"/>
<path d="M64.7648 216.677C89.0193 233.402 115.515 218.63 118.473 186.578C120.233 169.443 114.477 150.778 104.284 137.362C100.063 131.807 95.0831 127.149 89.5571 123.883C63.5565 108.071 37.6686 127.662 37.6652 161.287C37.7571 143.129 46.3981 127.547 59.3664 122.902C73.6969 117.463 89.6232 125.161 100.546 139.542C107.881 149.195 112.969 161.852 113.784 175.564C116.072 209.729 90.7278 230.485 65.2128 215.04C60.0776 212.03 55.3475 207.619 51.3253 202.327C44.1448 192.887 39.1863 180.608 37.997 168.324C39.2378 181.394 44.489 194.486 52.1367 204.546C55.8393 209.42 60.1092 213.584 64.7601 216.695L64.7648 216.677Z" fill="#EBEBEB"/>
<g opacity="0.1">
<path d="M64.7648 216.678C89.0193 233.403 115.515 218.63 118.473 186.579C120.233 169.443 114.477 150.778 104.284 137.362C100.063 131.808 95.0831 127.149 89.5571 123.883C63.5565 108.071 37.6686 127.662 37.6652 161.288C37.7571 143.129 46.3981 127.547 59.3664 122.903C73.6969 117.464 89.6232 125.161 100.546 139.543C107.881 149.195 112.969 161.852 113.784 175.564C116.072 209.729 90.7278 230.485 65.2128 215.04C60.0776 212.03 55.3475 207.619 51.3253 202.327C44.1448 192.887 39.1863 180.608 37.997 168.324C39.2378 181.395 44.489 194.486 52.1367 204.546C55.8393 209.42 60.1092 213.585 64.7601 216.695L64.7648 216.678Z" fill="black"/>
</g>
<path d="M96.869 235.416L110.889 231.126C118.011 228.954 124.557 224.5 129.898 217.695C148.1 194.525 145.455 152.839 123.989 124.596C108.814 104.632 88.3096 96.7166 71.1494 101.96L57.1294 106.25C74.2896 101.006 94.7944 108.922 109.969 128.886C131.442 157.14 134.087 198.826 115.878 221.985C110.531 228.779 103.985 233.232 96.869 235.416Z" fill="#EBEBEB"/>
<g opacity="0.1">
<path d="M96.8675 235.414L110.888 231.125C118.01 228.952 124.556 224.499 129.897 217.694C148.099 194.523 145.454 152.838 123.987 124.595C108.813 104.631 88.3081 96.7153 71.1479 101.959L57.1279 106.249C74.2881 101.005 94.7929 108.921 109.967 128.885C131.44 157.139 134.085 198.824 115.877 221.983C110.529 228.777 103.983 233.231 96.8675 235.414Z" fill="black"/>
</g>
<path opacity="0.1" d="M61.9505 157.394L69.0963 162.015C69.3894 162.207 69.4921 162.616 69.314 162.931L65.0388 170.477C64.8608 170.792 64.9522 171.208 65.2566 171.393L72.4023 176.013C72.6954 176.206 72.7982 176.615 72.6201 176.93L68.5848 184.033C68.4067 184.349 68.0163 184.455 67.7166 184.252L60.5709 179.632C60.2778 179.44 59.8808 179.535 59.7027 179.851L55.1698 187.834C54.9917 188.149 55.0832 188.565 55.3876 188.75L62.9485 193.643C63.2416 193.835 63.6386 193.739 63.8167 193.424L68.0919 185.878C68.2699 185.563 68.6603 185.456 68.96 185.659L76.1058 190.28C76.3989 190.472 76.7959 190.376 76.9739 190.061L81.5068 182.078C81.6849 181.762 81.5934 181.347 81.2891 181.161L74.1433 176.541C73.8503 176.349 73.7475 175.94 73.9256 175.624L78.2008 168.079C78.3788 167.763 78.2874 167.348 77.983 167.162L70.8373 162.542C70.5442 162.35 70.4415 161.941 70.6195 161.625L74.6548 154.522C74.8329 154.207 75.2233 154.1 75.523 154.304L82.6687 158.924C82.9618 159.116 83.3588 159.02 83.5369 158.705L88.0698 150.722C88.2479 150.406 88.1564 149.991 87.8521 149.805L80.2911 144.913C79.998 144.721 79.601 144.816 79.423 145.132L75.1477 152.677C74.9697 152.993 74.5793 153.099 74.2796 152.896L67.1338 148.276C66.8408 148.084 66.4438 148.179 66.2657 148.495L61.7328 156.478C61.5547 156.793 61.6462 157.209 61.9505 157.394Z" fill="black"/>
<path d="M48.4773 164.405L46.1786 158.032L51.4741 153.219L44.6778 155.458L40.2577 150.337L42.1989 156.874L37.2543 161.512L43.7261 159.492L48.4773 164.405Z" fill="white"/>
</g>
<defs>
<filter id="filter0_d_2586_4539" x="80.6807" y="0" width="207.488" height="210.981" filterUnits="userSpaceOnUse" color-interpolation-filters="sRGB">
<feFlood flood-opacity="0" result="BackgroundImageFix"/>
<feColorMatrix in="SourceAlpha" type="matrix" values="0 0 0 0 0 0 0 0 0 0 0 0 0 0 0 0 0 0 127 0" result="hardAlpha"/>
<feOffset dy="4"/>
<feComposite in2="hardAlpha" operator="out"/>
<feColorMatrix type="matrix" values="0 0 0 0 0.540608 0 0 0 0 0.782357 0 0 0 0 0.701079 0 0 0 1 0"/>
<feBlend mode="normal" in2="BackgroundImageFix" result="effect1_dropShadow_2586_4539"/>
<feBlend mode="normal" in="SourceGraphic" in2="effect1_dropShadow_2586_4539" result="shape"/>
</filter>
<filter id="filter1_d_2586_4539" x="26.0312" y="100.383" width="119.96" height="137.608" filterUnits="userSpaceOnUse" color-interpolation-filters="sRGB">
<feFlood flood-opacity="0" result="BackgroundImageFix"/>
<feColorMatrix in="SourceAlpha" type="matrix" values="0 0 0 0 0 0 0 0 0 0 0 0 0 0 0 0 0 0 127 0" result="hardAlpha"/>
<feOffset dx="4" dy="1"/>
<feComposite in2="hardAlpha" operator="out"/>
<feColorMatrix type="matrix" values="0 0 0 0 0.239595 0 0 0 0 0.518848 0 0 0 0 0.435072 0 0 0 0.46 0"/>
<feBlend mode="normal" in2="BackgroundImageFix" result="effect1_dropShadow_2586_4539"/>
<feBlend mode="normal" in="SourceGraphic" in2="effect1_dropShadow_2586_4539" result="shape"/>
</filter>
</defs>
</svg>
