<svg width="411" height="211" viewBox="0 0 411 211" fill="none" xmlns="http://www.w3.org/2000/svg">
<g clip-path="url(#clip0_2557_3810)">
<path fill-rule="evenodd" clip-rule="evenodd" d="M340.884 -7.98208C340.884 -7.98208 328.066 58.5532 270.214 107.132C212.362 155.711 114.338 156.117 114.338 156.117C255.152 183.233 367.226 104.354 414.684 -7.98208H340.884Z" fill="url(#paint0_linear_2557_3810)" stroke="#85A2DB" stroke-width="0.526248" stroke-miterlimit="22.9256" stroke-linecap="round" stroke-linejoin="round"/>
<path fill-rule="evenodd" clip-rule="evenodd" d="M91.2314 171.029C44.8643 184.304 5.73362 207.586 -33.6797 230.475C-12.4627 230.475 8.75424 230.475 29.9793 230.475C50.9539 207.103 93.0163 172.89 119.047 168.524C109.775 169.357 100.503 170.196 91.2314 171.029Z" fill="url(#paint1_linear_2557_3810)" stroke="#85A2DB" stroke-width="0.526248" stroke-miterlimit="22.9256" stroke-linecap="round" stroke-linejoin="round"/>
<path fill-rule="evenodd" clip-rule="evenodd" d="M234.169 156.593C233.846 158.244 233.523 159.903 233.2 161.554C266.459 163.73 303.773 169.014 317.139 200.077C319.053 192.015 318.1 183.541 311.526 174.248C302.182 160.539 278.025 156.816 249.313 156.18C244.257 156.313 239.209 156.453 234.169 156.593Z" fill="url(#paint2_linear_2557_3810)" stroke="#85A2DB" stroke-width="0.526248" stroke-miterlimit="22.9256" stroke-linecap="round" stroke-linejoin="round"/>
<path fill-rule="evenodd" clip-rule="evenodd" d="M308.771 186.795C286.828 226.319 257.51 258.208 222.474 284.191C237.125 285.031 251.776 285.877 266.426 286.717C290.947 262.519 311.808 236.081 317.147 200.077C314.95 194.99 312.115 190.595 308.771 186.795Z" fill="url(#paint3_linear_2557_3810)" stroke="#85A2DB" stroke-width="0.526248" stroke-miterlimit="22.9256" stroke-linecap="round" stroke-linejoin="round"/>
<path fill-rule="evenodd" clip-rule="evenodd" d="M43.5232 120.435C19.5764 90.974 10.7891 47.6295 12.356 -4.06335H98.9279C59.4985 12.8434 22.4031 76.7125 43.5232 120.435Z" fill="url(#paint4_linear_2557_3810)" stroke="#85A2DB" stroke-width="0.526248" stroke-miterlimit="22.9256" stroke-linecap="round" stroke-linejoin="round"/>
<path fill-rule="evenodd" clip-rule="evenodd" d="M45.7359 54.2144C46.6889 83.2414 55.6376 133.696 94.4533 146.88C92.8057 148.3 91.1662 149.714 89.5186 151.134C68.1724 145.515 54.3131 134.157 43.531 120.442C33.8634 100.435 36.3833 76.2226 45.7359 54.2144Z" fill="url(#paint5_linear_2557_3810)" stroke="#85A2DB" stroke-width="0.526248" stroke-miterlimit="22.9256" stroke-linecap="round" stroke-linejoin="round"/>
</g>
<g clip-path="url(#clip1_2557_3810)">
<ellipse cx="303.309" cy="65.6265" rx="3.42061" ry="3.68374" fill="#06F1C8" stroke="#1B3992" stroke-width="0.526248" stroke-miterlimit="10"/>
<path d="M162.538 184.625C203.227 184.625 236.212 165.423 236.212 141.736C236.212 118.049 203.227 98.8463 162.538 98.8463C121.848 98.8463 88.8628 118.049 88.8628 141.736C88.8628 165.423 121.848 184.625 162.538 184.625Z" fill="white" stroke="#1B3992" stroke-width="0.526248" stroke-miterlimit="22.9256" stroke-linecap="round" stroke-linejoin="round"/>
<path d="M162.538 183.046C201.774 183.046 233.581 164.551 233.581 141.736C233.581 118.92 201.774 100.425 162.538 100.425C123.301 100.425 91.4941 118.92 91.4941 141.736C91.4941 164.551 123.301 183.046 162.538 183.046Z" fill="#87E7FF" stroke="#1B3992" stroke-width="0.526248" stroke-miterlimit="22.9256" stroke-linecap="round" stroke-linejoin="round"/>
<path d="M162.538 178.836C195.09 178.836 221.478 163.639 221.478 144.893C221.478 126.147 195.09 110.95 162.538 110.95C129.986 110.95 103.598 126.147 103.598 144.893C103.598 163.639 129.986 178.836 162.538 178.836Z" fill="white" stroke="#1B3992" stroke-width="0.526248" stroke-miterlimit="22.9256" stroke-linecap="round" stroke-linejoin="round"/>
<path d="M162.274 169.364C186.252 169.364 205.69 158.643 205.69 145.419C205.69 132.195 186.252 121.475 162.274 121.475C138.297 121.475 118.859 132.195 118.859 145.419C118.859 158.643 138.297 169.364 162.274 169.364Z" fill="#87E7FF" stroke="#1B3992" stroke-width="0.526248" stroke-miterlimit="22.9256" stroke-linecap="round" stroke-linejoin="round"/>
<path fill-rule="evenodd" clip-rule="evenodd" d="M236.212 154.051C236.212 177.622 203.225 196.729 162.538 196.729C121.85 196.729 88.8628 177.622 88.8628 154.051V142.194C89.3958 165.494 122.17 184.286 162.525 184.286C202.993 184.286 235.83 165.387 236.194 141.999L236.212 154.051Z" fill="#266DF5" stroke="#1B3992" stroke-width="0.526248" stroke-miterlimit="22.9256" stroke-linecap="round" stroke-linejoin="round"/>
<path fill-rule="evenodd" clip-rule="evenodd" d="M177.817 195.817C172.902 196.41 167.804 196.729 162.581 196.729C157.822 196.729 153.169 196.466 148.661 195.967L145.67 187.911L128.232 185.432L119.912 176.547C131.951 181.473 146.673 184.371 162.568 184.371C179.379 184.371 194.873 181.13 207.269 175.679L198.227 185.339L180.79 187.818L177.817 195.817Z" fill="#266DF5" stroke="#1B3992" stroke-width="0.526248" stroke-miterlimit="22.9256" stroke-linecap="round" stroke-linejoin="round"/>
<path fill-rule="evenodd" clip-rule="evenodd" d="M111.492 126.389L131.21 133.052L151.487 126.451L131.14 120.423L111.492 126.389Z" fill="#4585FF" stroke="#1B3992" stroke-width="0.526248" stroke-miterlimit="22.9256" stroke-linecap="round" stroke-linejoin="round"/>
<path fill-rule="evenodd" clip-rule="evenodd" d="M111.783 126.211L130.963 132.959L130.678 168.311L111.492 160.449L111.783 126.211Z" fill="#266DF5" stroke="#1B3992" stroke-width="0.526248" stroke-miterlimit="22.9256" stroke-linecap="round" stroke-linejoin="round"/>
<path fill-rule="evenodd" clip-rule="evenodd" d="M151.487 126.211L131.249 132.959L130.963 168.311L151.2 161.095L151.487 126.211Z" fill="#4585FF" stroke="#1B3992" stroke-width="0.526248" stroke-miterlimit="22.9256" stroke-linecap="round" stroke-linejoin="round"/>
<path fill-rule="evenodd" clip-rule="evenodd" d="M99.464 140.701C101.19 142.615 101.964 144.725 101.196 145.402C100.428 146.084 98.4073 145.085 96.681 143.164C94.9547 141.25 94.1806 139.14 94.9485 138.463C95.7164 137.781 97.7377 138.781 99.464 140.701Z" fill="#06F1C8" stroke="#1B3992" stroke-width="0.526248" stroke-miterlimit="22.9256" stroke-linecap="round" stroke-linejoin="round"/>
<path fill-rule="evenodd" clip-rule="evenodd" d="M226.664 139.649C224.938 141.563 224.164 143.672 224.931 144.349C225.699 145.032 227.721 144.032 229.447 142.112C231.173 140.197 231.947 138.088 231.179 137.411C230.411 136.728 228.39 137.728 226.664 139.649Z" fill="#06F1C8" stroke="#1B3992" stroke-width="0.526248" stroke-miterlimit="22.9256" stroke-linecap="round" stroke-linejoin="round"/>
<path fill-rule="evenodd" clip-rule="evenodd" d="M176.873 119.416C176.873 119.404 176.879 119.527 176.879 119.373C176.879 119.219 176.267 118.844 175.516 118.844C174.765 118.844 174.153 119.219 174.153 119.373C174.153 119.527 174.153 119.404 174.159 119.416H174.153L174.115 136.556C174.115 140.999 177.838 144.63 182.394 144.63H186.552H186.571C186.956 144.63 187.271 144.045 187.271 143.325C187.271 142.618 186.969 142.039 186.59 142.021H186.571H183.233C179.744 142.021 176.885 139.233 176.885 135.829L176.873 119.416Z" fill="#1B3992" stroke="#1B3992" stroke-width="0.526248" stroke-miterlimit="22.9256" stroke-linecap="round" stroke-linejoin="round"/>
<path fill-rule="evenodd" clip-rule="evenodd" d="M105.402 85.6001C105.402 87.9326 102.183 89.825 98.2091 89.825C94.2356 89.825 91.0166 87.9326 91.0166 85.6001V83.7328C91.0669 86.0402 94.267 87.9012 98.2091 87.9012C102.164 87.9012 105.37 86.0276 105.402 83.714V85.6001Z" fill="#06F1C8" stroke="#1B3992" stroke-width="0.526248" stroke-miterlimit="22.9256" stroke-linecap="round" stroke-linejoin="round"/>
<path fill-rule="evenodd" clip-rule="evenodd" d="M98.2027 87.9012C102.164 87.9012 105.395 86.0025 105.395 83.6763C105.395 81.35 102.164 79.4513 98.2027 79.4513C94.2418 79.4513 91.0103 81.35 91.0103 83.6763C91.0103 86.0025 94.2418 87.9012 98.2027 87.9012Z" fill="#06F1C8" stroke="#1B3992" stroke-width="0.526248" stroke-miterlimit="22.9256" stroke-linecap="round" stroke-linejoin="round"/>
<path fill-rule="evenodd" clip-rule="evenodd" d="M99.9142 107.793V144.104L96.2305 140.931L96.4569 107.881C96.9576 108.053 97.4995 108.148 98.0689 108.148C98.7275 108.148 99.3517 108.021 99.9142 107.793Z" fill="#06F1C8" stroke="#1B3992" stroke-width="0.526248" stroke-miterlimit="22.9256" stroke-linecap="round" stroke-linejoin="round"/>
<path fill-rule="evenodd" clip-rule="evenodd" d="M99.5267 99.8988C101.273 100.421 102.545 102.071 102.545 104.02C102.545 106.395 100.662 108.319 98.3355 108.319C96.0091 108.319 94.1255 106.395 94.1255 104.02C94.1255 102.071 95.3978 100.421 97.1442 99.8988C97.4748 100.81 99.2461 100.854 99.5267 99.8988Z" fill="#06F1C8" stroke="#1B3992" stroke-width="0.526248" stroke-miterlimit="22.9256" stroke-linecap="round" stroke-linejoin="round"/>
<path fill-rule="evenodd" clip-rule="evenodd" d="M99.3881 89.9001V99.7443C99.0858 100.674 97.1347 100.63 96.7568 99.7443V89.9001C97.1828 89.9373 97.6225 89.9559 98.069 89.9559C98.5156 89.9559 98.9621 89.9373 99.3881 89.9001Z" fill="#06F1C8" stroke="#1B3992" stroke-width="0.526248" stroke-miterlimit="22.9256" stroke-linecap="round" stroke-linejoin="round"/>
<path fill-rule="evenodd" clip-rule="evenodd" d="M220.951 90.714C220.951 93.0465 224.17 94.9389 228.144 94.9389C232.117 94.9389 235.336 93.0465 235.336 90.714V88.8467C235.286 91.1541 232.086 93.0151 228.144 93.0151C224.189 93.0151 220.983 91.1415 220.951 88.8279V90.714Z" fill="#06F1C8" stroke="#1B3992" stroke-width="0.526248" stroke-miterlimit="22.9256" stroke-linecap="round" stroke-linejoin="round"/>
<path fill-rule="evenodd" clip-rule="evenodd" d="M228.15 93.0213C232.111 93.0213 235.342 91.1226 235.342 88.7964C235.342 86.4702 232.111 84.5715 228.15 84.5715C224.189 84.5715 220.958 86.4702 220.958 88.7964C220.951 91.1226 224.183 93.0213 228.15 93.0213Z" fill="#06F1C8" stroke="#1B3992" stroke-width="0.526248" stroke-miterlimit="22.9256" stroke-linecap="round" stroke-linejoin="round"/>
<path fill-rule="evenodd" clip-rule="evenodd" d="M226.562 120.63V142.206L229.719 140.321L229.525 120.683C229.096 120.785 228.631 120.841 228.143 120.841C227.579 120.841 227.05 120.766 226.562 120.63Z" fill="#06F1C8" stroke="#1B3992" stroke-width="0.526248" stroke-miterlimit="22.9256" stroke-linecap="round" stroke-linejoin="round"/>
<path fill-rule="evenodd" clip-rule="evenodd" d="M226.949 112.737C225.203 113.259 223.93 114.908 223.93 116.857C223.93 119.233 225.814 121.157 228.14 121.157C230.467 121.157 232.35 119.233 232.35 116.857C232.35 114.908 231.078 113.259 229.331 112.737C229.001 113.647 227.23 113.692 226.949 112.737Z" fill="#06F1C8" stroke="#1B3992" stroke-width="0.526248" stroke-miterlimit="22.9256" stroke-linecap="round" stroke-linejoin="round"/>
<path fill-rule="evenodd" clip-rule="evenodd" d="M227.087 92.7391H227.104H227.087ZM227.087 94.6994V113.085C227.329 114.046 228.89 114.001 229.192 113.085V94.6994C228.852 94.7378 228.5 94.757 228.143 94.757C227.78 94.757 227.434 94.7378 227.087 94.6994Z" fill="#06F1C8" stroke="#1B3992" stroke-width="0.526248" stroke-miterlimit="22.9256" stroke-linecap="round" stroke-linejoin="round"/>
<path fill-rule="evenodd" clip-rule="evenodd" d="M110.828 147.704C113.015 147.704 114.795 146.661 114.795 145.391C114.795 144.121 113.009 143.077 110.828 143.077C108.64 143.077 106.86 144.121 106.86 145.391C106.86 146.661 108.64 147.704 110.828 147.704Z" fill="#D8E8FD" stroke="#1B3992" stroke-width="0.526248" stroke-miterlimit="22.9256" stroke-linecap="round" stroke-linejoin="round"/>
<path fill-rule="evenodd" clip-rule="evenodd" d="M214.118 147.704C216.306 147.704 218.085 146.661 218.085 145.391C218.085 144.121 216.3 143.077 214.118 143.077C211.93 143.077 210.151 144.121 210.151 145.391C210.151 146.661 211.93 147.704 214.118 147.704Z" fill="#D8E8FD" stroke="#1B3992" stroke-width="0.526248" stroke-miterlimit="22.9256" stroke-linecap="round" stroke-linejoin="round"/>
<path fill-rule="evenodd" clip-rule="evenodd" d="M162.47 176.443C164.658 176.443 166.437 175.399 166.437 174.129C166.437 172.853 164.651 171.815 162.47 171.815C160.282 171.815 158.502 172.859 158.502 174.129C158.502 175.405 160.282 176.443 162.47 176.443Z" fill="#D8E8FD" stroke="#1B3992" stroke-width="0.526248" stroke-miterlimit="22.9256" stroke-linecap="round" stroke-linejoin="round"/>
<path d="M289.485 88.7175C291.173 81.1685 287.894 74.0048 282.176 72.7264C282.085 72.7058 281.993 72.6853 281.901 72.6648C283.147 72.8355 284.133 73.1639 285.311 73.4271C291.029 74.7056 294.307 81.8692 292.619 89.4183C290.931 96.9673 284.914 102.053 279.196 100.774C277.897 100.484 276.873 100.393 275.328 99.9092C275.044 99.8149 274.779 99.7093 274.523 99.5597C275.005 99.7753 275.511 99.9502 276.047 100.07C281.777 101.366 287.794 96.2813 289.485 88.7175Z" fill="#4585FF" stroke="#1B3992" stroke-width="0.526248" stroke-miterlimit="10"/>
<path d="M281.901 72.6648C281.993 72.6853 282.085 72.7058 282.176 72.7263C287.894 74.0048 291.173 81.1684 289.485 88.7175C287.797 96.2665 281.78 101.352 276.062 100.073C275.527 99.9536 275.02 99.7787 274.538 99.563C269.778 97.4499 267.223 90.9262 268.757 84.0674C270.415 76.6506 276.263 71.6046 281.901 72.6648Z" fill="#87E7FF" stroke="#1B3992" stroke-width="0.526248" stroke-miterlimit="10"/>
<path d="M275.997 97.129C271.446 96.1114 268.846 90.414 270.19 84.4035C271.534 78.393 276.313 74.3454 280.864 75.363C285.415 76.3806 288.015 82.078 286.671 88.0885C285.327 94.099 280.548 98.1466 275.997 97.129Z" fill="white" stroke="#124AB7" stroke-width="0.526248"/>
<path d="M290.124 76.4545L287.065 75.9501" stroke="#1B3992" stroke-width="0.526248"/>
<path d="M292.436 80.487L289.127 79.9955" stroke="#1B3992" stroke-width="0.526248"/>
<path d="M293.202 85.6326L289.893 85.141" stroke="#1B3992" stroke-width="0.526248"/>
<path d="M292.118 91.4687L288.987 90.2936" stroke="#1B3992" stroke-width="0.526248"/>
<path d="M289.29 96.4714L286.912 94.993" stroke="#1B3992" stroke-width="0.526248"/>
<path d="M285.646 99.6355L283.797 98.0526" stroke="#1B3992" stroke-width="0.526248"/>
<path d="M281.881 100.823L280.719 99.7327" stroke="#1B3992" stroke-width="0.526248"/>
<path d="M283.413 89.1655C283.7 88.5526 282.194 87.265 279.936 86.1015L280.387 85.1291L283.278 86.431L284.22 84.408L276.322 80.8448L275.38 82.8678L278.271 84.1697L277.821 85.1508C275.478 84.2532 273.547 83.9881 273.267 84.591C272.987 85.1938 274.454 86.4602 276.667 87.6127L275.036 91.105L277.161 92.0631L278.785 88.581C281.15 89.5024 283.127 89.7785 283.413 89.1655ZM278.06 87.4811C275.581 86.3604 273.734 85.0887 273.943 84.6322C274.122 84.2525 275.712 84.5787 277.71 85.3666L277.163 86.5433C277.851 86.8988 278.559 87.2152 279.279 87.5027L279.833 86.3159C281.787 87.3002 283.118 88.2983 282.941 88.6867C282.723 89.1446 280.54 88.6018 278.06 87.4811Z" fill="#4585FF"/>
<path d="M292.334 109.303C304.381 101.718 307.998 85.8034 300.413 73.7567C292.828 61.7099 276.913 58.093 264.866 65.6781C252.82 73.2632 249.203 89.178 256.788 101.225C264.373 113.272 280.288 116.888 292.334 109.303Z" fill="url(#paint6_radial_2557_3810)" stroke="#1B3992" stroke-opacity="0.16" stroke-width="0.526248" stroke-miterlimit="22.9256" stroke-linecap="round" stroke-linejoin="round"/>
<path d="M107.641 80.8744C117.492 74.6719 120.449 61.6582 114.247 51.8074C108.044 41.9566 95.0305 38.999 85.1797 45.2014C75.3289 51.4039 72.3713 64.4176 78.5738 74.2684C84.7762 84.1192 97.79 87.0768 107.641 80.8744Z" fill="url(#paint7_radial_2557_3810)" stroke="#1B3992" stroke-opacity="0.16" stroke-width="0.526248" stroke-miterlimit="22.9256" stroke-linecap="round" stroke-linejoin="round"/>
<path fill-rule="evenodd" clip-rule="evenodd" d="M121.214 131.704L123.257 132.98L125.753 133.15L127.187 135.482L129.431 137.161L129.934 140.021L131.412 142.813L130.865 145.542L131.242 148.817L129.764 150.791L128.953 153.797L126.891 154.564L125.08 156.607L121.729 157.016L123.54 154.966L125.602 154.205L126.413 151.2L127.891 149.226L127.514 145.95L128.061 143.222L126.583 140.424L126.08 137.563L123.842 135.891L122.402 133.558L119.912 133.382L117.869 132.106L121.214 131.704Z" fill="#4585FF" stroke="#1B3992" stroke-width="0.526248" stroke-miterlimit="22.9256" stroke-linecap="round" stroke-linejoin="round"/>
<path fill-rule="evenodd" clip-rule="evenodd" d="M117.869 132.106L119.912 133.382L122.402 133.558L123.842 135.891L126.08 137.563L126.583 140.424L128.06 143.222L127.513 145.95L127.891 149.226L126.413 151.2L125.602 154.205L123.54 154.966L121.729 157.016L119.554 156.393L117.152 157.016L115.354 155.155L112.921 154.205L111.921 151.527L110.004 149.226L110.029 146.346L109.073 143.222L110.117 140.801L110.337 137.563L112.16 136.155L113.512 133.558L115.694 133.483L117.869 132.106Z" fill="#87E7FF" stroke="#1B3992" stroke-width="0.526248" stroke-miterlimit="22.9256" stroke-linecap="round" stroke-linejoin="round"/>
<path fill-rule="evenodd" clip-rule="evenodd" d="M117.932 136.067C118.076 136.067 118.221 136.073 118.359 136.086C115.184 136.4 112.971 140.122 113.355 144.68C113.757 149.44 116.838 153.294 120.239 153.294C120.78 153.294 121.295 153.193 121.786 153.011C121.069 153.488 120.258 153.746 119.378 153.746C115.976 153.746 112.896 149.785 112.493 144.907C112.097 140.021 114.53 136.067 117.932 136.067Z" fill="white" stroke="#1B3992" stroke-width="0.526248" stroke-miterlimit="22.9256" stroke-linecap="round" stroke-linejoin="round"/>
<path fill-rule="evenodd" clip-rule="evenodd" d="M118.793 136.067C122.194 136.067 125.275 139.921 125.677 144.68C126.079 149.44 123.64 153.294 120.239 153.294C116.837 153.294 113.757 149.44 113.354 144.68C112.958 139.921 115.391 136.067 118.793 136.067Z" fill="white" stroke="#1B3992" stroke-width="0.526248" stroke-miterlimit="22.9256" stroke-linecap="round" stroke-linejoin="round"/>
<path fill-rule="evenodd" clip-rule="evenodd" d="M115.781 155.595C115.159 160.084 114.052 164.283 112.757 168.364C114.109 167.798 115.461 167.232 116.806 166.666C117.844 166.232 118.875 165.799 119.912 165.365C121.654 167.276 123.395 169.187 125.137 171.099C127.419 165.346 128.94 159.335 129.192 152.904L128.953 153.79L126.891 154.557L125.074 156.601L121.723 157.009L119.547 156.393L117.146 157.009L115.781 155.595Z" fill="#06F1C8" stroke="#1B3992" stroke-width="0.526248" stroke-miterlimit="22.9256" stroke-linecap="round" stroke-linejoin="round"/>
<path fill-rule="evenodd" clip-rule="evenodd" d="M116.341 146.956C116.988 146.472 117.548 146.038 118.019 145.667C118.491 145.296 118.887 144.963 119.201 144.668C119.516 144.372 119.748 144.102 119.899 143.857C120.05 143.611 120.126 143.366 120.126 143.134C120.126 142.725 120.038 142.417 119.868 142.197C119.698 141.983 119.359 141.826 118.856 141.725C118.56 141.669 118.252 141.637 117.919 141.643C117.586 141.643 117.221 141.694 116.819 141.794V139.531C117.177 139.449 117.579 139.412 118.026 139.418C118.472 139.43 118.925 139.481 119.384 139.569C120.415 139.77 121.213 140.172 121.773 140.77C122.332 141.367 122.615 142.128 122.615 143.052C122.615 143.429 122.59 143.775 122.54 144.083C122.49 144.391 122.376 144.693 122.2 144.995C122.024 145.296 121.767 145.617 121.421 145.95C121.075 146.283 120.61 146.667 120.025 147.082L119.422 147.516V147.604L122.703 148.251V150.496L116.341 149.245V146.956Z" fill="#4585FF" stroke="#1B3992" stroke-width="0.526248" stroke-miterlimit="10" stroke-linecap="round" stroke-linejoin="round"/>
<path fill-rule="evenodd" clip-rule="evenodd" d="M112.757 168.364L113.153 169.219L120.553 166.069L119.912 165.371L112.757 168.364Z" fill="#06F1C8" stroke="#1B3992" stroke-width="0.526248" stroke-miterlimit="22.9256" stroke-linecap="round" stroke-linejoin="round"/>
<path fill-rule="evenodd" clip-rule="evenodd" d="M129.852 150.678C130.324 158.097 128.425 165.987 125.684 172.086C125.42 171.608 125.407 171.583 125.143 171.105C127.425 165.352 128.947 159.342 129.198 152.91L129.77 150.798L129.852 150.678Z" fill="#06F1C8" stroke="#1B3992" stroke-width="0.526248" stroke-miterlimit="22.9256" stroke-linecap="round" stroke-linejoin="round"/>
<path fill-rule="evenodd" clip-rule="evenodd" d="M184.24 115.756C184.24 115.743 184.246 115.871 184.246 115.711C184.246 115.551 183.634 115.16 182.883 115.16C182.132 115.16 181.52 115.551 181.52 115.711C181.52 115.871 181.52 115.743 181.527 115.756H181.52L181.482 133.595C181.482 138.22 185.205 141.999 189.761 141.999H193.919H193.938C194.323 141.999 194.639 141.39 194.639 140.641C194.639 139.904 194.336 139.302 193.957 139.283H193.938H190.6C187.111 139.283 184.252 136.381 184.252 132.839L184.24 115.756Z" fill="#1B3992" stroke="#1B3992" stroke-width="0.526248" stroke-miterlimit="22.9256" stroke-linecap="round" stroke-linejoin="round"/>
<path fill-rule="evenodd" clip-rule="evenodd" d="M171.484 145.312C171.484 148.424 167.711 150.945 163.064 150.945C158.41 150.945 154.644 148.424 154.644 145.312V139.393C154.706 142.467 158.454 144.949 163.064 144.949C167.693 144.949 171.447 142.454 171.484 139.367V145.312Z" fill="#1E57C4" stroke="#1B3992" stroke-width="0.526248" stroke-miterlimit="22.9256" stroke-linecap="round" stroke-linejoin="round"/>
<path fill-rule="evenodd" clip-rule="evenodd" d="M163.064 144.63C167.705 144.63 171.484 142.151 171.484 139.104C171.484 136.064 167.699 133.579 163.064 133.579C158.423 133.579 154.644 136.057 154.644 139.104C154.638 142.145 158.423 144.63 163.064 144.63Z" fill="white" stroke="#1B3992" stroke-width="0.526248" stroke-miterlimit="22.9256" stroke-linecap="round" stroke-linejoin="round"/>
<path fill-rule="evenodd" clip-rule="evenodd" d="M171.484 139.253C171.484 142.224 167.711 144.63 163.064 144.63C158.41 144.63 154.644 142.224 154.644 139.253V133.603C154.706 136.537 158.454 138.907 163.064 138.907C167.693 138.907 171.447 136.525 171.484 133.579V139.253Z" fill="#1E57C4" stroke="#1B3992" stroke-width="0.526248" stroke-miterlimit="22.9256" stroke-linecap="round" stroke-linejoin="round"/>
<path fill-rule="evenodd" clip-rule="evenodd" d="M163.064 138.841C167.705 138.841 171.484 136.363 171.484 133.316C171.484 130.275 167.699 127.79 163.064 127.79C158.423 127.79 154.644 130.269 154.644 133.316C154.638 136.363 158.423 138.841 163.064 138.841Z" fill="#4585FF" stroke="#1B3992" stroke-width="0.526248" stroke-miterlimit="22.9256" stroke-linecap="round" stroke-linejoin="round"/>
<path fill-rule="evenodd" clip-rule="evenodd" d="M168.852 132.344C168.852 133.9 166.376 135.157 163.327 135.157C160.272 135.157 157.801 133.894 157.801 132.344V129.381C157.84 130.919 160.298 132.157 163.327 132.157C166.363 132.157 168.826 130.912 168.852 129.369V132.344Z" fill="#1E57C4" stroke="#1B3992" stroke-width="0.526248" stroke-miterlimit="22.9256" stroke-linecap="round" stroke-linejoin="round"/>
<path fill-rule="evenodd" clip-rule="evenodd" d="M163.327 132.526C166.369 132.526 168.852 131.108 168.852 129.369C168.852 127.629 166.369 126.211 163.327 126.211C160.285 126.211 157.801 127.629 157.801 129.369C157.795 131.108 160.278 132.526 163.327 132.526Z" fill="#4585FF" stroke="#1B3992" stroke-width="0.526248" stroke-miterlimit="22.9256" stroke-linecap="round" stroke-linejoin="round"/>
<path fill-rule="evenodd" clip-rule="evenodd" d="M159.387 110.95H167.274V128.816V128.835C167.274 130.003 165.512 130.947 163.337 130.947C161.162 130.947 159.399 130.003 159.399 128.835V128.816H159.38V110.95H159.387Z" fill="#1E57C4" stroke="#1B3992" stroke-width="0.526248" stroke-miterlimit="22.9256" stroke-linecap="round" stroke-linejoin="round"/>
<path fill-rule="evenodd" clip-rule="evenodd" d="M160.829 124.079C148.722 123.707 139.077 119.403 138.37 114.033C138.332 113.667 138.326 113.326 138.332 113.222V101.378C138.54 107.303 148.129 112.143 160.33 112.667C161.636 112.722 162.929 112.728 164.235 112.686C176.682 112.277 186.536 107.382 186.744 101.378V113.228C186.751 113.332 186.713 113.954 186.706 114.039C186.006 119.385 176.423 123.677 164.38 124.079C163.201 124.115 162.015 124.115 160.829 124.079ZM138.332 100.994V100.951V100.994Z" fill="#1E57C4" stroke="#1B3992" stroke-width="0.526248" stroke-miterlimit="22.9256" stroke-linecap="round" stroke-linejoin="round"/>
<path d="M162.538 112.529C175.907 112.529 186.745 107.228 186.745 100.688C186.745 94.1489 175.907 88.8476 162.538 88.8476C149.168 88.8476 138.33 94.1489 138.33 100.688C138.33 107.228 149.168 112.529 162.538 112.529Z" fill="#4585FF" stroke="#1B3992" stroke-width="0.526248" stroke-miterlimit="22.9256" stroke-linecap="round" stroke-linejoin="round"/>
<path fill-rule="evenodd" clip-rule="evenodd" d="M190.937 27.2766C190.949 27.5807 190.956 27.8911 190.956 28.2015L190.937 52.0672C190.924 65.6378 178.747 76.7439 163.844 76.7439C148.948 76.7439 136.74 65.6378 136.752 52.0672L136.771 28.6957C137.542 36.406 149.365 42.526 163.832 42.526C178.797 42.526 190.931 35.9752 190.931 27.8911C190.931 27.682 190.918 27.4793 190.906 27.2766H190.937Z" fill="#4585FF" stroke="#1B3992" stroke-width="0.526248" stroke-miterlimit="22.9256" stroke-linecap="round" stroke-linejoin="round"/>
<path fill-rule="evenodd" clip-rule="evenodd" d="M161.462 105.143C153.833 104.911 147.745 102.272 147.302 98.9805C147.277 98.7549 147.277 98.5477 147.277 98.4806V91.2147C147.408 94.8538 153.452 97.8223 161.144 98.1454C161.967 98.1819 162.784 98.182 163.608 98.1576C171.455 97.9077 177.668 94.9025 177.799 91.2147V98.4806C177.799 98.5416 177.781 98.9256 177.774 98.9805C177.331 102.26 171.293 104.893 163.701 105.143C162.953 105.167 162.211 105.167 161.462 105.143ZM147.277 90.977V90.9526V90.977Z" fill="#4585FF" stroke="#1B3992" stroke-width="0.526248" stroke-miterlimit="22.9256" stroke-linecap="round" stroke-linejoin="round"/>
<path fill-rule="evenodd" clip-rule="evenodd" d="M162.538 98.3201C170.945 98.3201 177.799 95.0076 177.799 90.9526C177.799 86.8913 170.945 83.5851 162.538 83.5851C154.131 83.5851 147.277 86.8976 147.277 90.9526C147.277 95.0076 154.131 98.3201 162.538 98.3201Z" fill="#87E7FF" stroke="#1B3992" stroke-width="0.526248" stroke-miterlimit="22.9256" stroke-linecap="round" stroke-linejoin="round"/>
<path fill-rule="evenodd" clip-rule="evenodd" d="M168.537 76.7973C168.034 81.6709 168.289 86.4449 169.32 91.1129C169.568 92.2222 168.989 92.8392 168.461 93.182C167.036 94.0919 164.936 94.6777 162.538 94.6341C160.139 94.6777 158.04 94.0919 156.614 93.182C156.086 92.8454 155.507 92.2222 155.756 91.1129C156.831 86.2641 157.06 81.297 156.474 76.2177C158.867 76.8097 161.386 77.1276 163.982 77.1276C165.534 77.1338 167.055 77.0154 168.537 76.7973Z" fill="#266DF5" stroke="#1B3992" stroke-width="0.526248" stroke-miterlimit="22.9256" stroke-linecap="round" stroke-linejoin="round"/>
<path d="M163.854 43.064C178.822 43.064 190.956 36.5848 190.956 28.5922C190.956 20.5996 178.822 14.1204 163.854 14.1204C148.886 14.1204 136.752 20.5996 136.752 28.5922C136.752 36.5848 148.886 43.064 163.854 43.064Z" fill="#4585FF" stroke="#1B3992" stroke-width="0.526248" stroke-miterlimit="22.9256" stroke-linecap="round" stroke-linejoin="round"/>
<path fill-rule="evenodd" clip-rule="evenodd" d="M139.383 21.446C136.315 20.2911 133.254 19.1425 130.187 17.9876C129.395 17.793 128.496 17.7365 127.421 17.8997C125.68 18.8977 123.932 19.8957 122.191 20.8937C115.195 27.5344 131.048 48.4923 136.297 53.589C136.265 53.112 136.246 52.6349 136.246 52.1516L136.253 47.2809C133.179 43.1446 130.476 38.6379 128.301 33.5914C127.358 31.5327 126.943 29.4802 127.314 27.4214C127.597 26.5113 128.251 25.9966 129.187 25.7895C131.538 27.095 133.889 28.4069 136.246 29.7124L136.265 29.6559V28.9969C136.24 28.7333 136.221 28.4697 136.221 28.1998C136.234 25.7644 137.371 23.4671 139.383 21.446ZM136.278 29.0094C136.284 29.0659 136.29 29.1224 136.297 29.1726C136.29 29.1162 136.284 29.0659 136.278 29.0094Z" fill="#266DF5" stroke="#1B3992" stroke-width="0.526248" stroke-miterlimit="22.9256" stroke-linecap="round" stroke-linejoin="round"/>
<path fill-rule="evenodd" clip-rule="evenodd" d="M139.382 21.7348C136.34 20.4883 133.304 19.2486 130.261 18.0021C129.475 17.7921 128.584 17.7312 127.518 17.9073C125.859 18.9438 124.201 19.9735 122.542 21.0099C123.995 20.5425 125.454 20.2919 126.907 20.5222L136.876 25.6978L136.901 25.6301C137.038 25.2778 137.188 24.9391 137.362 24.5936L137.394 24.5326C137.512 24.3023 137.643 24.0652 137.786 23.8416L137.824 23.7807C138.029 23.4487 138.254 23.1236 138.497 22.7984L138.541 22.7374C138.616 22.6358 138.697 22.5342 138.778 22.4393L138.828 22.3784C139.002 22.1616 139.189 21.9516 139.382 21.7416V21.7348Z" fill="#4585FF" stroke="#1B3992" stroke-width="0.526248" stroke-miterlimit="22.9256" stroke-linecap="round" stroke-linejoin="round"/>
<path fill-rule="evenodd" clip-rule="evenodd" d="M132.102 27.6797C132.102 27.6797 131.355 30.3263 133.67 34.668C134.929 37.0248 136.017 38.8396 136.752 40.0116L136.745 47.8003C133.538 43.6476 130.719 39.1232 128.45 34.0568C127.466 31.9899 127.033 29.9293 127.42 27.8624C127.715 26.9487 128.397 26.432 129.374 26.2241L132.102 27.6797Z" fill="#1E57C4" stroke="#1B3992" stroke-width="0.526248" stroke-miterlimit="22.9256" stroke-linecap="round" stroke-linejoin="round"/>
<path fill-rule="evenodd" clip-rule="evenodd" d="M140.451 126.669C140.451 126.682 140.457 126.701 140.457 126.714C140.457 127.014 139.87 127.264 139.149 127.264C138.428 127.264 137.841 127.021 137.841 126.714C137.841 126.701 137.841 126.682 137.847 126.669H137.841L137.804 120.923C137.804 116.304 141.378 112.529 145.752 112.529H149.744H149.762C150.131 112.516 150.434 113.143 150.434 113.885C150.434 114.628 150.143 115.223 149.78 115.242H149.762H146.557C143.208 115.242 140.463 118.14 140.463 121.678L140.451 126.669Z" fill="#0857EF" stroke="#1B3992" stroke-width="0.526248" stroke-miterlimit="22.9256" stroke-linecap="round" stroke-linejoin="round"/>
<path d="M164.117 39.3803C177.195 39.3803 187.798 34.1969 187.798 27.8028C187.798 21.4088 177.195 16.2253 164.117 16.2253C151.038 16.2253 140.436 21.4088 140.436 27.8028C140.436 34.1969 151.038 39.3803 164.117 39.3803Z" fill="#1E57C4" stroke="#1B3992" stroke-width="0.526248" stroke-miterlimit="22.9256" stroke-linecap="round" stroke-linejoin="round"/>
<path fill-rule="evenodd" clip-rule="evenodd" d="M185.606 39.5283L185.568 39.4528L189.309 37.2775L196.269 40.3644C207.46 46.8024 207.038 61.5206 195.828 65.23C203.448 59.8859 202.442 48.0221 192.666 42.4015L185.606 39.5283Z" stroke="#1B3992" stroke-width="0.526248" stroke-miterlimit="22.9256" stroke-linecap="round" stroke-linejoin="round"/>
<path fill-rule="evenodd" clip-rule="evenodd" d="M184.977 62.0612C185.763 61.2124 186.549 60.3637 187.335 59.5149C192.226 60.4517 193.647 56.8052 194.257 52.0835C194.684 56.1576 192.22 61.1433 188.906 61.9103C186.719 62.0423 185.895 62.0549 184.977 62.0612Z" stroke="#1B3992" stroke-width="0.526248" stroke-miterlimit="22.9256" stroke-linecap="round" stroke-linejoin="round"/>
<path fill-rule="evenodd" clip-rule="evenodd" d="M185.027 67.8454C203.027 68.8199 205.85 49.9838 192.666 42.4015C190.283 41.4333 187.894 40.4588 185.511 39.4906C185.511 41.1378 185.511 42.785 185.511 44.4322C187.8 45.6519 190.082 46.8716 192.371 48.0976C196.451 51.7127 193.49 60.8542 188.906 61.9167C186.719 62.0424 185.895 62.0613 184.977 62.0676C184.99 63.0609 185.021 66.2485 185.027 67.8454Z" stroke="#1B3992" stroke-width="0.526248" stroke-miterlimit="22.9256" stroke-linecap="round" stroke-linejoin="round"/>
<path fill-rule="evenodd" clip-rule="evenodd" d="M169.404 144.359L188.951 151.087L209.051 144.422L188.888 138.336L169.404 144.359Z" fill="#06F1C8" stroke="#1B3992" stroke-width="0.526248" stroke-miterlimit="22.9256" stroke-linecap="round" stroke-linejoin="round"/>
<path fill-rule="evenodd" clip-rule="evenodd" d="M169.404 144.359L188.888 151.061V174.028L169.404 166.22V144.359Z" fill="#06F1C8" stroke="#1B3992" stroke-width="0.526248" stroke-miterlimit="22.9256" stroke-linecap="round" stroke-linejoin="round"/>
<path fill-rule="evenodd" clip-rule="evenodd" d="M209.34 144.359L188.888 151.061V174.028L209.34 163.403V144.359Z" fill="#06F1C8" stroke="#1B3992" stroke-width="0.526248" stroke-miterlimit="22.9256" stroke-linecap="round" stroke-linejoin="round"/>
<path fill-rule="evenodd" clip-rule="evenodd" d="M185.731 39.5211L185.693 39.4458L189.446 37.2753L196.428 40.3555C207.655 46.7794 207.233 61.4652 195.986 65.1664C203.631 59.8341 202.622 47.9964 192.814 42.388L185.731 39.5211Z" fill="#4585FF" stroke="#1B3992" stroke-width="0.526248" stroke-miterlimit="22.9256" stroke-linecap="round" stroke-linejoin="round"/>
<path fill-rule="evenodd" clip-rule="evenodd" d="M185.167 62.009C185.92 61.1584 186.674 60.3078 187.428 59.4573C192.119 60.3961 193.482 56.7418 194.066 52.0102C194.476 56.0929 192.113 61.0891 188.935 61.8577C186.837 61.99 186.047 62.0027 185.167 62.009Z" fill="#1E57C4" stroke="#1B3992" stroke-width="0.526248" stroke-miterlimit="22.9256" stroke-linecap="round" stroke-linejoin="round"/>
<path fill-rule="evenodd" clip-rule="evenodd" d="M185.216 67.7612C203.098 68.7366 205.902 49.8831 192.805 42.2939C190.438 41.3248 188.064 40.3494 185.697 39.3803C185.697 41.029 185.697 42.6778 185.697 44.3265C187.971 45.5473 190.238 46.7681 192.511 47.9953C196.565 51.6137 193.623 60.7635 189.07 61.827C186.897 61.9529 186.078 61.9718 185.167 61.9781C185.179 62.9723 185.21 66.1628 185.216 67.7612Z" fill="#266DF5" stroke="#1B3992" stroke-width="0.526248" stroke-miterlimit="22.9256" stroke-linecap="round" stroke-linejoin="round"/>
<path fill-rule="evenodd" clip-rule="evenodd" d="M151.575 106.834C150.789 112.468 149.406 117.742 147.777 122.866C149.475 122.156 151.166 121.446 152.864 120.735C154.165 120.194 155.46 119.647 156.762 119.107C158.95 121.508 161.137 123.91 163.325 126.305C166.192 119.075 168.097 111.531 168.418 103.452L168.116 104.571L165.526 105.533L163.25 108.104L159.044 108.614L156.309 107.834L153.291 108.614L151.575 106.834Z" fill="#06F1C8" stroke="#1B3992" stroke-width="0.526248" stroke-miterlimit="22.9256" stroke-linecap="round" stroke-linejoin="round"/>
<path fill-rule="evenodd" clip-rule="evenodd" d="M147.777 122.866L148.274 123.942L157.566 119.987L156.762 119.107L147.777 122.866Z" fill="#06F1C8" stroke="#1B3992" stroke-width="0.526248" stroke-miterlimit="22.9256" stroke-linecap="round" stroke-linejoin="round"/>
<path fill-rule="evenodd" clip-rule="evenodd" d="M169.241 100.654C169.832 109.972 167.45 119.874 164.004 127.538C163.671 126.941 163.658 126.909 163.325 126.306C166.192 119.075 168.097 111.531 168.418 103.452L169.134 100.799L169.241 100.654Z" fill="#06F1C8" stroke="#1B3992" stroke-width="0.526248" stroke-miterlimit="22.9256" stroke-linecap="round" stroke-linejoin="round"/>
<path fill-rule="evenodd" clip-rule="evenodd" d="M154.064 80.5857L157.044 81.139L160.031 80.1833L162.791 82.2518L166.18 83.1697L168.085 86.2819L171.102 88.8596L171.718 92.2986L173.674 95.9514L172.863 98.9378L173.303 102.817L171.247 104.665L170.071 107.891L166.349 109.909L167.525 106.684L169.575 104.841L169.141 100.956L169.952 97.9696L167.996 94.3231L167.38 90.8777L164.363 88.3L162.458 85.1879L159.063 84.27L156.309 82.2078L153.316 83.1572L150.342 82.6102L154.064 80.5857Z" fill="#4585FF" stroke="#1B3992" stroke-width="0.526248" stroke-miterlimit="22.9256" stroke-linecap="round" stroke-linejoin="round"/>
<path fill-rule="evenodd" clip-rule="evenodd" d="M150.342 82.6102L153.316 83.1571L156.308 82.2078L159.062 84.27L162.457 85.1879L164.362 88.3L167.38 90.8777L167.996 94.323L169.951 97.9696L169.134 100.956L169.574 104.841L167.525 106.683L166.349 109.909L163.52 110.192L161.005 112.021L158.05 110.682L154.762 110.695L152.36 108.029L149.059 106.225L147.764 102.855L145.205 99.6482L145.306 96.3349L144.074 92.4558L145.551 89.9724L145.928 86.307L148.443 85.213L150.342 82.6102Z" fill="#87E7FF" stroke="#1B3992" stroke-width="0.526248" stroke-miterlimit="22.9256" stroke-linecap="round" stroke-linejoin="round"/>
<path fill-rule="evenodd" clip-rule="evenodd" d="M152.247 87.1997C152.417 87.1305 152.586 87.0739 152.756 87.0237C149.191 88.8532 148.33 94.2287 150.876 99.3653C153.536 104.734 158.918 107.815 162.891 106.243C163.526 105.992 164.086 105.64 164.563 105.2C163.947 106.086 163.117 106.765 162.093 107.174C158.119 108.746 152.693 105.545 149.971 100.025C147.255 94.5179 148.273 88.7715 152.247 87.1997Z" fill="white" stroke="#1B3992" stroke-width="0.526248" stroke-miterlimit="22.9256" stroke-linecap="round" stroke-linejoin="round"/>
<path fill-rule="evenodd" clip-rule="evenodd" d="M153.253 86.8037C157.226 85.232 162.608 88.3127 165.267 93.6818C167.927 99.051 166.864 104.678 162.891 106.25C158.917 107.822 153.536 104.741 150.876 99.3717C148.217 94.0025 149.279 88.3755 153.253 86.8037Z" fill="white" stroke="#1B3992" stroke-width="0.526248" stroke-miterlimit="22.9256" stroke-linecap="round" stroke-linejoin="round"/>
<path fill-rule="evenodd" clip-rule="evenodd" d="M156.591 92.8204L153.41 92.8644L153.536 89.834L157.56 89.7711L160.32 90.2804L159.76 103.427L156.17 102.767L156.591 92.8204Z" fill="#4585FF" stroke="#1B3992" stroke-width="0.526248" stroke-miterlimit="10" stroke-linecap="round" stroke-linejoin="round"/>
<path fill-rule="evenodd" clip-rule="evenodd" d="M198.017 130.654L195.974 131.93L193.484 132.106L192.044 134.438L189.806 136.117L189.303 138.971L187.826 141.769L188.373 144.498L187.995 147.773L189.473 149.748L190.284 152.753L192.346 153.513L194.157 155.563L197.508 155.965L195.691 153.922L193.629 153.155L192.818 150.15L191.346 148.182L191.724 144.906L191.17 142.178L192.654 139.38L193.151 136.519L195.395 134.847L196.835 132.508L199.325 132.339L201.368 131.062L198.017 130.654Z" fill="#4585FF" stroke="#1B3992" stroke-width="0.526248" stroke-miterlimit="22.9256" stroke-linecap="round" stroke-linejoin="round"/>
<path fill-rule="evenodd" clip-rule="evenodd" d="M201.368 131.062L199.325 132.338L196.835 132.508L195.395 134.847L193.151 136.519L192.654 139.38L191.17 142.178L191.724 144.906L191.346 148.182L192.818 150.15L193.629 153.155L195.691 153.922L197.508 155.965L199.683 155.349L202.085 155.965L203.877 154.104L206.316 153.155L207.316 150.483L209.233 148.182L209.208 145.302L210.164 142.178L209.12 139.751L208.894 136.519L207.077 135.111L205.725 132.508L203.537 132.433L201.368 131.062Z" fill="#87E7FF" stroke="#1B3992" stroke-width="0.526248" stroke-miterlimit="22.9256" stroke-linecap="round" stroke-linejoin="round"/>
<path fill-rule="evenodd" clip-rule="evenodd" d="M201.305 135.023C201.161 135.023 201.016 135.029 200.878 135.042C204.053 135.356 206.266 139.078 205.882 143.63C205.48 148.389 202.399 152.243 198.998 152.243C198.457 152.243 197.942 152.143 197.451 151.961C198.168 152.438 198.979 152.696 199.859 152.696C203.26 152.696 206.341 148.735 206.744 143.856C207.14 138.978 204.707 135.023 201.305 135.023Z" fill="white" stroke="#1B3992" stroke-width="0.526248" stroke-miterlimit="22.9256" stroke-linecap="round" stroke-linejoin="round"/>
<path fill-rule="evenodd" clip-rule="evenodd" d="M200.438 135.023C197.036 135.023 193.956 138.877 193.553 143.636C193.151 148.396 195.59 152.25 198.992 152.25C202.393 152.25 205.474 148.396 205.876 143.636C206.278 138.877 203.845 135.023 200.438 135.023Z" fill="white" stroke="#1B3992" stroke-width="0.526248" stroke-miterlimit="22.9256" stroke-linecap="round" stroke-linejoin="round"/>
<path fill-rule="evenodd" clip-rule="evenodd" d="M203.449 154.551C204.072 159.04 205.178 163.24 206.474 167.32C205.122 166.754 203.77 166.188 202.425 165.622C201.387 165.189 200.356 164.755 199.319 164.321C197.577 166.232 195.836 168.144 194.094 170.055C191.812 164.302 190.291 158.292 190.039 151.86L190.278 152.746L192.34 153.513L194.157 155.557L197.508 155.965L199.683 155.349L202.085 155.965L203.449 154.551Z" fill="#4585FF" stroke="#1B3992" stroke-width="0.526248" stroke-miterlimit="22.9256" stroke-linecap="round" stroke-linejoin="round"/>
<path fill-rule="evenodd" clip-rule="evenodd" d="M206.48 167.32L206.084 168.175L198.684 165.025L199.325 164.321L206.48 167.32Z" fill="#4585FF" stroke="#1B3992" stroke-width="0.526248" stroke-miterlimit="22.9256" stroke-linecap="round" stroke-linejoin="round"/>
<path fill-rule="evenodd" clip-rule="evenodd" d="M189.385 149.628C188.913 157.047 190.812 164.937 193.553 171.036C193.817 170.558 193.83 170.533 194.094 170.055C191.812 164.302 190.29 158.292 190.039 151.86L189.467 149.748L189.385 149.628Z" fill="#4585FF" stroke="#1B3992" stroke-width="0.526248" stroke-miterlimit="22.9256" stroke-linecap="round" stroke-linejoin="round"/>
<path fill-rule="evenodd" clip-rule="evenodd" d="M199.023 149.213C198.57 149.263 198.18 149.289 197.847 149.295C197.514 149.301 197.206 149.289 196.917 149.251L197.005 146.975C197.338 147.013 197.652 147.044 197.941 147.05C198.231 147.063 198.557 147.05 198.91 147.013C199.13 146.987 199.343 146.956 199.551 146.906C199.758 146.862 199.934 146.793 200.098 146.704C200.255 146.616 200.381 146.497 200.475 146.352C200.569 146.208 200.62 146.019 200.626 145.787C200.632 145.585 200.588 145.428 200.5 145.315C200.406 145.202 200.274 145.12 200.104 145.064C199.934 145.013 199.727 144.988 199.494 144.988C199.255 144.988 198.991 145.007 198.696 145.038L198.004 145.114L198.08 143.071L198.759 143.001C199.023 142.97 199.268 142.945 199.494 142.907C199.721 142.876 199.915 142.819 200.085 142.737C200.249 142.656 200.387 142.549 200.488 142.41C200.588 142.272 200.645 142.083 200.657 141.845C200.664 141.662 200.632 141.524 200.563 141.423C200.494 141.323 200.393 141.247 200.261 141.203C200.129 141.159 199.978 141.14 199.802 141.14C199.626 141.14 199.438 141.153 199.243 141.172C198.947 141.203 198.645 141.266 198.325 141.354C198.004 141.442 197.728 141.543 197.495 141.643L197.577 139.499C197.684 139.449 197.816 139.399 197.973 139.349C198.13 139.298 198.306 139.248 198.495 139.198C198.683 139.147 198.884 139.103 199.098 139.066C199.306 139.022 199.513 138.99 199.714 138.971C200.236 138.915 200.72 138.908 201.16 138.946C201.6 138.984 201.978 139.091 202.292 139.273C202.606 139.455 202.852 139.713 203.015 140.059C203.185 140.405 203.254 140.845 203.235 141.386C203.216 141.813 203.103 142.228 202.889 142.618C202.675 143.014 202.311 143.328 201.789 143.574L201.783 143.662C202.286 143.731 202.669 143.963 202.933 144.353C203.204 144.743 203.323 145.221 203.304 145.793C203.285 146.334 203.172 146.805 202.971 147.201C202.77 147.597 202.487 147.937 202.122 148.207C201.758 148.484 201.317 148.704 200.802 148.861C200.28 149.031 199.689 149.144 199.023 149.213Z" fill="#4585FF" stroke="#1B3992" stroke-width="0.526248" stroke-miterlimit="10" stroke-linecap="round" stroke-linejoin="round"/>
<path d="M42.9636 153.336C50.0448 145.053 60.71 142.539 66.7632 147.714C66.8603 147.797 66.9575 147.88 67.0546 147.963C65.8562 146.744 64.6915 145.943 63.4453 144.878C57.3921 139.703 46.7269 142.216 39.6456 150.499C32.5644 158.782 31.7397 169.709 37.793 174.884C39.1687 176.06 40.0967 177.104 41.8878 178.384C42.2229 178.615 42.5555 178.816 42.9295 178.968C42.299 178.624 41.6936 178.218 41.1271 177.734C35.0439 172.561 35.8685 161.635 42.9636 153.336Z" fill="#4585FF" stroke="#1B3992" stroke-width="0.526248" stroke-miterlimit="10"/>
<path d="M67.0544 147.962C66.9573 147.879 66.8602 147.796 66.7631 147.713C60.7098 142.538 50.0446 145.052 42.9634 153.335C35.8821 161.618 35.0575 172.544 41.1107 177.719C41.6772 178.203 42.2826 178.609 42.9131 178.953C49.1263 182.368 58.4904 179.607 64.9242 172.082C71.8814 163.944 72.799 153.236 67.0544 147.962Z" fill="#87E7FF" stroke="#1B3992" stroke-width="0.526248" stroke-miterlimit="10"/>
<path d="M44.457 175.28C49.275 179.399 57.7513 177.392 63.3894 170.797C69.0274 164.203 69.6922 155.517 64.8742 151.398C60.0562 147.279 51.5799 149.286 45.9418 155.881C40.3038 162.476 39.639 171.161 44.457 175.28Z" fill="white" stroke="#124AB7" stroke-width="0.526248"/>
<path d="M48.2648 165.65C48.1821 165.746 48.127 165.811 48.0023 165.76L46.5435 165.238L45.1683 166.879L47.8389 167.852L45.8299 170.234L47.2587 170.759L49.2677 168.376L50.1679 168.699L48.1589 171.082L49.5254 171.581L51.5344 169.198L52.5593 169.572C53.2425 169.821 56.2173 170.077 58.2928 167.584C59.51 166.226 59.7329 164.687 58.8241 163.882C58.8241 163.882 60.9759 163.463 62.1576 161.851C63.3394 160.239 62.578 159.393 62.1338 158.93C61.7753 158.595 61.3293 158.298 60.8307 158.095L62.9361 155.599L61.6457 155.11L59.5702 157.603L58.5154 157.231L60.6209 154.736L59.2867 154.264L57.1813 156.76L54.4022 155.751L53.1647 157.231L54.6858 157.778C54.8404 157.827 54.7715 157.907 54.7164 157.972L48.2648 165.65ZM57.2617 158.698L58.8913 159.282C59.1706 159.381 60.3005 160.124 59.2421 161.395C58.6521 162.118 57.6785 162.568 56.9312 162.459C56.7789 162.441 56.6267 162.422 56.5021 162.371L54.7316 161.723L57.2617 158.698ZM53.4414 163.297L55.9574 164.221C56.6892 164.512 56.7153 165.399 56.0265 166.205C55.999 166.237 55.9852 166.253 55.9576 166.285C55.1197 167.298 53.956 167.447 53.4394 167.396C53.3633 167.386 53.2872 167.377 53.2248 167.352L50.7735 166.483L53.4414 163.297Z" fill="#4585FF"/>
<path d="M56.1663 142.184L59.2034 145.105" stroke="#1B3992" stroke-width="0.526248"/>
<path d="M49.7854 143.088L53.0107 146.294" stroke="#1B3992" stroke-width="0.526248"/>
<path d="M43.4089 146.633L46.6343 149.84" stroke="#1B3992" stroke-width="0.526248"/>
<path d="M37.7577 152.795L41.6032 155.223" stroke="#1B3992" stroke-width="0.526248"/>
<path d="M34.4459 160.158L38.0219 161.502" stroke="#1B3992" stroke-width="0.526248"/>
<path d="M33.8528 166.845L37.1188 167.523" stroke="#1B3992" stroke-width="0.526248"/>
<path d="M35.5676 171.982L37.7263 172.326" stroke="#1B3992" stroke-width="0.526248"/>
<path d="M97.4913 67.678L91.7525 54.5202L102.84 61.127L97.4913 67.678Z" fill="#4585FF" stroke="#1B3992" stroke-width="0.526248" stroke-miterlimit="10"/>
<path d="M88.8796 66.3304L91.527 54.606L97.5791 67.7895L88.8796 66.3304Z" fill="#87E7FF" stroke="#1B3992" stroke-width="0.526248" stroke-miterlimit="10"/>
<path d="M98.4337 69.2887L89.4434 68.5718L100.469 74.8106L98.4337 69.2887Z" fill="#87E7FF" stroke="#1B3992" stroke-width="0.526248" stroke-miterlimit="10"/>
<path d="M100.682 74.6571L102.933 63.1936L98.3908 69.287L100.682 74.6571Z" fill="#4585FF" stroke="#1B3992" stroke-width="0.526248" stroke-miterlimit="10"/>
<path d="M101.266 62.9672L102.822 63.3596L98.4288 69.3358L89.1351 68.2954L91.0059 66.7002L97.5478 67.7036L101.266 62.9672Z" fill="#266DF5" stroke="#1B3992" stroke-width="0.526248" stroke-miterlimit="10"/>
<g filter="url(#filter0_d_2557_3810)">
<path d="M166.301 60.2989L162.199 60.2198C162.024 60.2165 161.887 60.0757 161.891 59.9032L161.969 55.8487C161.972 55.6762 161.835 55.5355 161.661 55.5321L157.558 55.453C157.384 55.4497 157.247 55.309 157.25 55.1364L157.324 51.3177C157.327 51.1452 157.469 51.0099 157.644 51.0132L161.746 51.0923C161.921 51.0956 162.063 50.9603 162.066 50.7878L162.149 46.4975C162.152 46.3249 162.015 46.1842 161.841 46.1808L157.5 46.0972C157.325 46.0938 157.183 46.2292 157.18 46.4017L157.102 50.4562C157.098 50.6287 156.956 50.7641 156.781 50.7607L152.679 50.6817C152.505 50.6783 152.362 50.8136 152.359 50.9862L152.276 55.2765C152.273 55.449 152.41 55.5897 152.585 55.5931L156.687 55.6721C156.861 55.6755 156.998 55.8162 156.995 55.9887L156.917 60.0433C156.914 60.2158 157.051 60.3565 157.225 60.3599L161.327 60.4389C161.502 60.4423 161.639 60.583 161.636 60.7555L161.562 64.5742C161.559 64.7468 161.416 64.8821 161.242 64.8787L157.14 64.7997C156.965 64.7963 156.823 64.9317 156.819 65.1042L156.737 69.3945C156.733 69.567 156.87 69.7077 157.045 69.7111L161.386 69.7947C161.56 69.7981 161.703 69.6628 161.706 69.4902L161.784 65.4357C161.788 65.2632 161.93 65.1279 162.104 65.1312L166.207 65.2103C166.381 65.2136 166.524 65.0783 166.527 64.9058L166.61 60.6155C166.613 60.4429 166.476 60.3022 166.301 60.2989Z" fill="white"/>
<path d="M166.301 60.2989L162.199 60.2198C162.024 60.2165 161.887 60.0757 161.891 59.9032L161.969 55.8487C161.972 55.6762 161.835 55.5355 161.661 55.5321L157.558 55.453C157.384 55.4497 157.247 55.309 157.25 55.1364L157.324 51.3177C157.327 51.1452 157.469 51.0099 157.644 51.0132L161.746 51.0923C161.921 51.0956 162.063 50.9603 162.066 50.7878L162.149 46.4975C162.152 46.3249 162.015 46.1842 161.841 46.1808L157.5 46.0972C157.325 46.0938 157.183 46.2292 157.18 46.4017L157.102 50.4562C157.098 50.6287 156.956 50.7641 156.781 50.7607L152.679 50.6817C152.505 50.6783 152.362 50.8136 152.359 50.9862L152.276 55.2765C152.273 55.449 152.41 55.5897 152.585 55.5931L156.687 55.6721C156.861 55.6755 156.998 55.8162 156.995 55.9887L156.917 60.0433C156.914 60.2158 157.051 60.3565 157.225 60.3599L161.327 60.4389C161.502 60.4423 161.639 60.583 161.636 60.7555L161.562 64.5742C161.559 64.7468 161.416 64.8821 161.242 64.8787L157.14 64.7997C156.965 64.7963 156.823 64.9317 156.819 65.1042L156.737 69.3945C156.733 69.567 156.87 69.7077 157.045 69.7111L161.386 69.7947C161.56 69.7981 161.703 69.6628 161.706 69.4902L161.784 65.4357C161.788 65.2632 161.93 65.1279 162.104 65.1312L166.207 65.2103C166.381 65.2136 166.524 65.0783 166.527 64.9058L166.61 60.6155C166.613 60.4429 166.476 60.3022 166.301 60.2989Z" stroke="#1B3992" stroke-width="0.601391"/>
</g>
</g>
<defs>
<filter id="filter0_d_2557_3810" x="151.976" y="45.7964" width="15.536" height="24.2991" filterUnits="userSpaceOnUse" color-interpolation-filters="sRGB">
<feFlood flood-opacity="0" result="BackgroundImageFix"/>
<feColorMatrix in="SourceAlpha" type="matrix" values="0 0 0 0 0 0 0 0 0 0 0 0 0 0 0 0 0 0 127 0" result="hardAlpha"/>
<feOffset dx="0.601391"/>
<feComposite in2="hardAlpha" operator="out"/>
<feColorMatrix type="matrix" values="0 0 0 0 0.0235294 0 0 0 0 0.945098 0 0 0 0 0.784314 0 0 0 1 0"/>
<feBlend mode="normal" in2="BackgroundImageFix" result="effect1_dropShadow_2557_3810"/>
<feBlend mode="normal" in="SourceGraphic" in2="effect1_dropShadow_2557_3810" result="shape"/>
</filter>
<linearGradient id="paint0_linear_2557_3810" x1="800.424" y1="-75.6049" x2="251.644" y2="168.829" gradientUnits="userSpaceOnUse">
<stop stop-color="#1B54C1" stop-opacity="0.5"/>
<stop offset="1" stop-color="#1B54C1" stop-opacity="0"/>
</linearGradient>
<linearGradient id="paint1_linear_2557_3810" x1="-136.561" y1="156.734" x2="39.0028" y2="238.389" gradientUnits="userSpaceOnUse">
<stop stop-color="#1B54C1" stop-opacity="0.5"/>
<stop offset="1" stop-color="#1B54C1" stop-opacity="0"/>
</linearGradient>
<linearGradient id="paint2_linear_2557_3810" x1="180.524" y1="139.2" x2="217.413" y2="221.976" gradientUnits="userSpaceOnUse">
<stop stop-color="#1B54C1" stop-opacity="0.5"/>
<stop offset="1" stop-color="#D8E8FD" stop-opacity="0"/>
</linearGradient>
<linearGradient id="paint3_linear_2557_3810" x1="163.675" y1="148.145" x2="276.081" y2="271.834" gradientUnits="userSpaceOnUse">
<stop stop-color="#1B54C1" stop-opacity="0.5"/>
<stop offset="1" stop-color="#D8E8FD" stop-opacity="0"/>
</linearGradient>
<linearGradient id="paint4_linear_2557_3810" x1="-177.609" y1="-235.321" x2="-10.0634" y2="116.761" gradientUnits="userSpaceOnUse">
<stop stop-color="#1B54C1" stop-opacity="0.5"/>
<stop offset="1" stop-color="#1B54C1" stop-opacity="0"/>
</linearGradient>
<linearGradient id="paint5_linear_2557_3810" x1="-13.8895" y1="9.20862" x2="59.2763" y2="154.482" gradientUnits="userSpaceOnUse">
<stop stop-color="#1B54C1" stop-opacity="0.5"/>
<stop offset="1" stop-color="#1B54C1" stop-opacity="0"/>
</linearGradient>
<radialGradient id="paint6_radial_2557_3810" cx="0" cy="0" r="1" gradientUnits="userSpaceOnUse" gradientTransform="translate(279.954 85.4235) rotate(-90) scale(26.0757 26.0757)">
<stop stop-color="#D8E8FD" stop-opacity="0"/>
<stop offset="0.71456" stop-color="#D8E8FD" stop-opacity="0.17"/>
<stop offset="1" stop-color="#D8E8FD"/>
</radialGradient>
<radialGradient id="paint7_radial_2557_3810" cx="0" cy="0" r="1" gradientUnits="userSpaceOnUse" gradientTransform="translate(97.5173 61.3475) rotate(-90) scale(21.3225 21.3225)">
<stop stop-color="#D8E8FD" stop-opacity="0"/>
<stop offset="0.71456" stop-color="#D8E8FD" stop-opacity="0.17"/>
<stop offset="1" stop-color="#D8E8FD"/>
</radialGradient>
<clipPath id="clip0_2557_3810">
<rect width="411" height="210.499" fill="white" transform="translate(0 0.437927)"/>
</clipPath>
<clipPath id="clip1_2557_3810">
<rect width="273.123" height="183.134" fill="white" transform="translate(33.6797 14.1204)"/>
</clipPath>
</defs>
</svg>
