<svg width="240" height="220" viewBox="0 0 240 220" fill="none" xmlns="http://www.w3.org/2000/svg">
<mask id="mask0_2586_4533" style="mask-type:luminance" maskUnits="userSpaceOnUse" x="42" y="31" width="158" height="158">
<path d="M120.081 187.55C162.866 187.55 198.388 152.866 198.388 110.081C198.388 67.2965 163.704 32.6125 120.919 32.6125C78.1341 32.6125 43.4502 67.2965 43.4502 110.081C43.4502 152.866 77.2966 187.55 120.081 187.55Z" stroke="#1DA2B4" stroke-width="2" stroke-dasharray="2 2"/>
</mask>
<g mask="url(#mask0_2586_4533)">
<path d="M120.081 187.55C162.866 187.55 198.388 152.866 198.388 110.081C198.388 67.2965 163.704 32.6125 120.919 32.6125C78.1341 32.6125 43.4502 67.2965 43.4502 110.081C43.4502 152.866 77.2966 187.55 120.081 187.55Z" stroke="#1DA2B4" stroke-width="2" stroke-dasharray="2 2"/>
</g>
<path fill-rule="evenodd" clip-rule="evenodd" d="M120.919 178.338C158.616 178.338 189.175 147.778 189.175 110.081C189.175 72.3844 158.616 41.8251 120.919 41.8251C83.222 41.8251 52.6626 72.3844 52.6626 110.081C52.6626 147.778 83.222 178.338 120.919 178.338Z" fill="white"/>
<path fill-rule="evenodd" clip-rule="evenodd" d="M90.3501 101.288H151.488V162.425H90.3501V101.288Z" fill="#1DA2B4"/>
<path fill-rule="evenodd" clip-rule="evenodd" d="M43.0312 102.963C41.3654 102.963 39.7677 103.624 38.5897 104.802C37.4118 105.98 36.75 107.578 36.75 109.244C36.75 110.91 37.4118 112.507 38.5897 113.685C39.7677 114.863 41.3654 115.525 43.0312 115.525C44.6971 115.525 46.2948 114.863 47.4728 113.685C48.6507 112.507 49.3125 110.91 49.3125 109.244C49.3125 107.578 48.6507 105.98 47.4728 104.802C46.2948 103.624 44.6971 102.963 43.0312 102.963Z" fill="#1DA2B4"/>
<path fill-rule="evenodd" clip-rule="evenodd" d="M183.731 56.0625C182.576 56.0625 181.433 56.29 180.366 56.7319C179.299 57.1738 178.33 57.8216 177.513 58.6381C176.697 59.4547 176.049 60.4241 175.607 61.491C175.165 62.5579 174.938 63.7014 174.938 64.8562C174.938 66.0111 175.165 67.1546 175.607 68.2215C176.049 69.2884 176.697 70.2578 177.513 71.0744C178.33 71.8909 179.299 72.5387 180.366 72.9806C181.433 73.4225 182.576 73.65 183.731 73.65C184.886 73.65 186.03 73.4225 187.096 72.9806C188.163 72.5387 189.133 71.8909 189.949 71.0744C190.766 70.2578 191.414 69.2884 191.856 68.2215C192.298 67.1546 192.525 66.0111 192.525 64.8562C192.525 63.7014 192.298 62.5579 191.856 61.491C191.414 60.4241 190.766 59.4547 189.949 58.6381C189.133 57.8216 188.163 57.1738 187.096 56.7319C186.03 56.29 184.886 56.0625 183.731 56.0625Z" fill="#1DA2B4"/>
<path fill-rule="evenodd" clip-rule="evenodd" d="M49.3125 128.925H191.687V192.575H49.3125V128.925Z" fill="#E3B76D"/>
<path d="M90.6013 178.87V172.915H76.6124L86.7353 161.157C89.2278 158.256 90.6013 156.373 90.6013 152.861C90.6013 146.346 86.0231 142.325 79.6137 142.325C73.4077 142.325 68.5752 146.295 68.5752 152.912H75.1881C75.1881 149.4 77.4263 148.28 79.6137 148.28C82.4114 148.28 83.9884 150.112 83.9884 152.81C83.9884 154.49 83.4288 155.609 82.1062 157.187L68.5752 172.915V178.87H90.6013ZM107.032 179.175C112.933 179.175 118.019 175.307 118.019 168.385V153.115C118.019 146.193 112.933 142.325 107.032 142.325C101.131 142.325 95.9934 146.193 95.9934 153.115V168.385C95.9934 175.307 101.131 179.175 107.032 179.175ZM107.032 173.22C104.438 173.22 102.606 171.388 102.606 168.334V153.217C102.606 150.163 104.438 148.28 107.032 148.28C109.626 148.28 111.407 150.163 111.407 153.217V168.334C111.407 171.388 109.626 173.22 107.032 173.22ZM134.653 179.175C140.554 179.175 145.641 175.307 145.641 168.385V153.115C145.641 146.193 140.554 142.325 134.653 142.325C128.753 142.325 123.615 146.193 123.615 153.115V168.385C123.615 175.307 128.753 179.175 134.653 179.175ZM134.653 173.22C132.059 173.22 130.228 171.388 130.228 168.334V153.217C130.228 150.163 132.059 148.28 134.653 148.28C137.248 148.28 139.028 150.163 139.028 153.217V168.334C139.028 171.388 137.248 173.22 134.653 173.22ZM162.275 179.175C168.176 179.175 173.263 175.307 173.263 168.385V153.115C173.263 146.193 168.176 142.325 162.275 142.325C156.374 142.325 151.237 146.193 151.237 153.115V168.385C151.237 175.307 156.374 179.175 162.275 179.175ZM162.275 173.22C159.681 173.22 157.85 171.388 157.85 168.334V153.217C157.85 150.163 159.681 148.28 162.275 148.28C164.869 148.28 166.65 150.163 166.65 153.217V168.334C166.65 171.388 164.869 173.22 162.275 173.22Z" fill="white"/>
<path fill-rule="evenodd" clip-rule="evenodd" d="M102.913 58.5751H138.088V93.7501H102.913V58.5751Z" fill="#1DA2B4"/>
<path fill-rule="evenodd" clip-rule="evenodd" d="M109.612 101.288L120.198 113.013L130.55 101.288H109.612Z" fill="#E3B76D"/>
<mask id="mask1_2586_4533" style="mask-type:alpha" maskUnits="userSpaceOnUse" x="0" y="0" width="240" height="220">
<rect width="240" height="220" fill="#D9D9D9"/>
</mask>
<g mask="url(#mask1_2586_4533)">
</g>
</svg>
