<svg width="156" height="142" viewBox="0 0 156 142" fill="none" xmlns="http://www.w3.org/2000/svg">
<rect x="3.5" y="91.5" width="9" height="49" stroke="#40CEE0" stroke-width="3"/>
<rect x="31.5" y="75.5" width="9" height="65" stroke="#40CEE0" stroke-width="3"/>
<rect x="59.5" y="83.5" width="9" height="57" stroke="#40CEE0" stroke-width="3"/>
<rect x="87.5" y="91.5" width="9" height="49" stroke="#40CEE0" stroke-width="3"/>
<rect x="115.5" y="63.5" width="9" height="77" stroke="#40CEE0" stroke-width="3"/>
<rect x="143.5" y="41.5" width="9" height="99" stroke="#40CEE0" stroke-width="3"/>
<path d="M45.252 32.6885L46.2881 31.6038L45.252 30.6142L44.216 31.6038L45.252 32.6885ZM83.561 69.2787L82.5249 70.3634L83.561 71.353L84.597 70.3634L83.561 69.2787ZM155.5 2.03441C155.519 1.2062 154.863 0.5194 154.034 0.500395L140.538 0.190679C139.71 0.171674 139.023 0.827663 139.004 1.65587C138.985 2.48408 139.641 3.17088 140.469 3.18989L152.466 3.46519L152.191 15.462C152.172 16.2902 152.828 16.977 153.656 16.9961C154.484 17.0151 155.171 16.3591 155.19 15.5309L155.5 2.03441ZM3.03605 75.0847L46.2881 33.7732L44.216 31.6038L0.963953 72.9153L3.03605 75.0847ZM44.216 33.7732L82.5249 70.3634L84.597 68.194L46.2881 31.6038L44.216 33.7732ZM84.597 70.3634L155.036 3.08471L152.964 0.915285L82.5249 68.194L84.597 70.3634Z" fill="#40CEE0"/>
</svg>
