<svg width="463" height="391" viewBox="0 0 463 391" fill="none" xmlns="http://www.w3.org/2000/svg">
<path d="M462.373 351.955C462.373 354.321 460.923 356.74 457.902 359.18C454.89 361.613 450.41 363.988 444.579 366.267C432.924 370.822 416.023 374.937 395.093 378.397C353.243 385.315 295.404 389.597 231.5 389.597C167.596 389.597 109.757 385.315 67.9071 378.397C46.977 374.937 30.0755 370.822 18.4208 366.267C12.5903 363.988 8.10956 361.613 5.09751 359.18C2.07705 356.74 0.627371 354.321 0.627371 351.955C0.627371 349.589 2.07705 347.171 5.09751 344.731C8.10956 342.297 12.5903 339.922 18.4208 337.643C30.0755 333.088 46.977 328.973 67.9071 325.513C109.757 318.595 167.596 314.313 231.5 314.313C295.404 314.313 353.243 318.595 395.093 325.513C416.023 328.973 432.924 333.088 444.579 337.643C450.41 339.922 454.89 342.297 457.902 344.731C460.923 347.171 462.373 349.589 462.373 351.955Z" fill="#005349" stroke="white" stroke-width="1.25474"/>
<path d="M230.873 369.521C186.615 369.5 146.575 367.258 117.568 363.646C102.991 361.831 91.2239 359.673 83.1134 357.286C79.0534 356.091 75.9465 354.848 73.8675 353.583C71.7448 352.292 70.893 351.101 70.893 350.073V315.201C71.4921 315.843 72.2829 316.445 73.2152 317.013C75.4318 318.362 78.6601 319.64 82.7591 320.847C90.9664 323.263 102.812 325.431 117.413 327.249C146.486 330.869 186.58 333.113 230.873 333.134V369.521Z" fill="white" stroke="#005349" stroke-width="1.25474" stroke-linejoin="round"/>
<path d="M392.107 315.201V350.073C392.107 351.101 391.255 352.292 389.133 353.583C387.054 354.848 383.947 356.091 379.887 357.286C371.776 359.673 360.009 361.831 345.432 363.646C316.425 367.258 276.385 369.5 232.127 369.521V333.134C276.42 333.113 316.514 330.869 345.587 327.249C360.188 325.431 372.034 323.263 380.241 320.847C384.34 319.64 387.568 318.362 389.785 317.013C390.717 316.445 391.508 315.843 392.107 315.201Z" fill="white" stroke="#005349" stroke-width="1.25474" stroke-linejoin="round"/>
<path d="M392.107 312.431C392.107 313.459 391.255 314.649 389.133 315.941C387.054 317.206 383.947 318.448 379.887 319.643C371.776 322.031 360.009 324.189 345.432 326.004C316.288 329.633 276.006 331.879 231.5 331.879C186.994 331.879 146.712 329.633 117.568 326.004C102.991 324.189 91.2239 322.031 83.1134 319.643C79.0534 318.448 75.9465 317.206 73.8675 315.941C71.7448 314.649 70.893 313.459 70.893 312.431C70.893 311.403 71.7448 310.212 73.8675 308.921C75.9465 307.656 79.0534 306.413 83.1134 305.218C91.2239 302.831 102.991 300.673 117.568 298.858C146.712 295.229 186.994 292.982 231.5 292.982C276.006 292.982 316.288 295.229 345.432 298.858C360.009 300.673 371.776 302.831 379.887 305.218C383.947 306.413 387.054 307.656 389.133 308.921C391.255 310.212 392.107 311.403 392.107 312.431Z" fill="white" stroke="#005349" stroke-width="1.25474"/>
<ellipse cx="231.5" cy="312.431" rx="97.2425" ry="6.27371" fill="#02FFE1"/>
<path d="M149.348 278.028L133.839 270.796L160.545 255.377L176.054 262.609L149.348 278.028Z" fill="#005349" stroke="#005349" stroke-width="1.25474" stroke-linejoin="round"/>
<path d="M286.855 71.3929L271.212 64.0986L271.212 33.1135L286.855 40.4078L286.855 71.3929Z" fill="#005349" stroke="#005349" stroke-width="1.25474" stroke-linejoin="round"/>
<path d="M177.377 294.213L161.868 286.981L188.575 271.562L204.084 278.794L177.377 294.213Z" fill="#005349" stroke="#005349" stroke-width="1.25474" stroke-linejoin="round"/>
<path d="M314.475 87.3394L298.832 80.0451L298.832 49.536L314.475 56.8303L314.475 87.3394Z" fill="#005349" stroke="#005349" stroke-width="1.25474" stroke-linejoin="round"/>
<path d="M205.413 310.397L189.904 303.165L270.615 256.566L286.124 263.798L205.413 310.397Z" fill="#005349" stroke="#005349" stroke-width="1.25474" stroke-linejoin="round"/>
<path d="M342.507 165.885L326.865 158.59L326.865 65.2462L342.507 72.5405L342.507 165.885Z" fill="#005349" stroke="#005349" stroke-width="1.25474" stroke-linejoin="round"/>
<path d="M286.853 262.755L271.21 255.46L271.21 224.475L286.853 231.77L286.853 262.755Z" fill="#005349" stroke="#005349" stroke-width="1.25474" stroke-linejoin="round"/>
<path d="M287.451 230.664L271.942 223.432L298.235 208.251L313.745 215.483L287.451 230.664Z" fill="#005349" stroke="#005349" stroke-width="1.25474" stroke-linejoin="round"/>
<path d="M314.476 214.438L298.833 207.144L298.833 176.159L314.476 183.453L314.476 214.438Z" fill="#005349" stroke="#005349" stroke-width="1.25474" stroke-linejoin="round"/>
<path d="M315.071 182.347L299.562 175.115L326.268 159.696L341.777 166.928L315.071 182.347Z" fill="#005349" stroke="#005349" stroke-width="1.25474" stroke-linejoin="round"/>
<path d="M189.086 111.552L189.086 79.8096L270.036 33.0727L270.036 64.8149L270.036 65.4423L270.58 65.1286L297.657 49.4956L297.657 80.7617L297.657 81.3891L298.2 81.0754L325.69 65.2042L325.69 158.678L298.2 174.549L297.657 174.863L297.657 175.49L297.657 207.233L270.58 222.866L270.036 223.179L270.036 223.807L270.036 255.549L189.086 302.286L189.086 270.543L189.086 269.916L188.542 270.23L161.053 286.101L161.053 254.359L161.053 253.731L160.509 254.045L133.02 269.916L133.02 176.442L160.509 160.571L161.053 160.258L161.053 159.63L161.053 128.364L188.542 112.493L189.086 112.179L189.086 111.552Z" fill="white" stroke="#005349" stroke-width="1.25474"/>
<line x1="99.7521" y1="222.303" x2="99.7521" y2="324.978" stroke="#005349" stroke-width="1.25474"/>
<rect x="94.1057" y="212.051" width="11.2927" height="11.2927" fill="#02FFE1"/>
<line x1="338.153" y1="269.77" x2="338.153" y2="298.629" stroke="#005349" stroke-width="1.25474"/>
<rect x="335.016" y="264.751" width="6.27371" height="6.27371" fill="#02FFE1"/>
<line x1="389.598" y1="127.984" x2="389.598" y2="195.74" stroke="#005349" stroke-width="1.25474"/>
<rect x="386.461" y="122.965" width="6.27371" height="6.27371" fill="#02FFE1"/>
<line x1="137.394" y1="41.4065" x2="137.394" y2="69.0108" stroke="#005349" stroke-width="1.25474"/>
<rect x="135.512" y="38.897" width="3.76423" height="3.76423" fill="#02FFE1"/>
<path d="M433.835 220.096L431.572 218.419L433.967 214.96L421.572 205.778L419.176 209.237L416.913 207.56L414.367 211.237L412.236 209.66L398.299 229.787L400.431 231.364L397.886 235.041L400.149 236.719L397.754 240.178L410.149 249.359L412.545 245.9L414.808 247.578L417.354 243.9L419.485 245.478L433.417 225.351L431.285 223.773L433.831 220.096L433.835 220.096Z" fill="#57FFD7"/>
<path d="M412.54 245.9L414.89 247.454L417.354 243.9L419.563 245.364L433.417 225.35L431.29 223.773L433.836 220.096L431.572 218.418L433.967 214.959L421.572 205.778L424.054 207.419L436.449 216.6L434.054 220.059L436.317 221.737L433.772 225.414L435.899 226.991L421.968 247.123L419.754 245.659L417.29 249.223L414.94 247.668L412.631 251.004L410.145 249.359L412.54 245.9Z" fill="white"/>
<path d="M412.54 245.9L415.026 247.545L412.631 251.004L410.145 249.359L412.54 245.9Z" stroke="#57FFD7" stroke-miterlimit="10"/>
<path d="M417.354 243.9L419.835 245.545L417.29 249.223L414.804 247.577L417.354 243.9Z" stroke="#57FFD7" stroke-miterlimit="10"/>
<path d="M421.572 205.778L424.054 207.419L436.449 216.601L433.967 214.96L421.572 205.778Z" stroke="#57FFD7" stroke-miterlimit="10"/>
<path d="M433.967 214.96L436.448 216.601L434.053 220.06L431.571 218.419L433.967 214.96Z" stroke="#57FFD7" stroke-miterlimit="10"/>
<path d="M433.835 220.096L436.317 221.737L433.771 225.414L431.29 223.773L433.835 220.096Z" stroke="#57FFD7" stroke-miterlimit="10"/>
<path d="M431.572 218.419L434.053 220.06L436.317 221.737L433.835 220.096L431.572 218.419Z" stroke="#57FFD7" stroke-miterlimit="10"/>
<path d="M433.417 225.351L435.899 226.992L421.967 247.123L419.481 245.478L433.417 225.351Z" stroke="#57FFD7" stroke-miterlimit="10"/>
<path d="M431.29 223.773L433.772 225.414L435.899 226.991L433.417 225.35L431.29 223.773Z" stroke="#57FFD7" stroke-miterlimit="10"/>
<path d="M79.3674 90.2895L63.5672 84.0565L62.1425 88.0351L61.8514 88.8479L61.0483 88.531L58.6818 87.597L57.15 91.8771L56.8592 92.6896L56.0563 92.3734L53.8746 91.5141L44.4571 117.817L46.6876 118.696L47.4415 118.993L47.1685 119.756L45.6185 124.086L48.0352 125.04L48.7885 125.337L48.5154 126.1L47.0727 130.129L62.8728 136.362L64.2976 132.383L64.5887 131.57L65.3918 131.887L67.7583 132.821L69.2901 128.541L69.5809 127.729L70.3838 128.045L72.5653 128.904L81.9777 102.602L79.7471 101.724L78.9933 101.427L79.2663 100.664L80.8173 96.3301L78.4049 95.378L77.6516 95.0807L77.9246 94.3183L79.3674 90.2895Z" fill="#57FFD7" stroke="#57FFD7" stroke-width="1.67234"/>
<path d="M65.08 132.667L68.3123 133.747L70.0779 128.823L73.1171 129.841L83.0385 102.121L80.0594 100.945L81.8821 95.8513L78.7124 94.6004L80.4282 89.809L63.0716 82.962L66.4849 84.1022L83.8415 90.9492L82.1257 95.7406L85.2955 96.9915L83.4727 102.085L86.4519 103.262L76.4771 131.144L73.4326 130.127L71.6699 135.062L68.4376 133.981L66.7843 138.602L63.3642 137.458L65.08 132.667Z" fill="white"/>
<path d="M65.0685 132.6L68.4437 133.742L66.7955 138.668L63.4203 137.526L65.0685 132.6Z" stroke="#57FFD7" stroke-width="1.67234" stroke-miterlimit="10"/>
<path d="M70.0644 128.753L73.4341 129.896L71.6831 135.132L68.3082 133.99L70.0644 128.753Z" stroke="#57FFD7" stroke-width="1.67234" stroke-miterlimit="10"/>
<path d="M63.1619 82.9101L66.5437 84.0622L83.7512 91.0016L80.3693 89.8496L63.1619 82.9101Z" stroke="#57FFD7" stroke-width="1.67234" stroke-miterlimit="10"/>
<path d="M80.4168 89.7431L83.7853 90.8814L82.1371 95.8069L78.7685 94.6686L80.4168 89.7431Z" stroke="#57FFD7" stroke-width="1.67234" stroke-miterlimit="10"/>
<path d="M81.8689 95.7818L85.2371 96.9197L83.4861 102.155L80.1179 101.017L81.8689 95.7818Z" stroke="#57FFD7" stroke-width="1.67234" stroke-miterlimit="10"/>
<path d="M78.7398 94.5846L82.1232 95.7383L85.2673 97.0079L81.8839 95.8542L78.7398 94.5846Z" stroke="#57FFD7" stroke-width="1.67234" stroke-miterlimit="10"/>
<path d="M82.8697 101.776L86.2311 102.906L76.6457 131.49L73.2776 130.356L82.8697 101.776Z" stroke="#57FFD7" stroke-width="1.67234" stroke-miterlimit="10"/>
<path d="M80.0863 100.929L83.4698 102.083L86.4248 103.277L83.0414 102.123L80.0863 100.929Z" stroke="#57FFD7" stroke-width="1.67234" stroke-miterlimit="10"/>
<mask id="mask0_2709_738" style="mask-type:alpha" maskUnits="userSpaceOnUse" x="70" y="312" width="323" height="59">
<path fill-rule="evenodd" clip-rule="evenodd" d="M392.734 312.431C392.734 323.519 320.547 332.507 231.5 332.507C142.453 332.507 70.2656 323.519 70.2656 312.431V350.073C70.2656 361.161 142.453 370.149 231.5 370.149C320.547 370.149 392.734 361.161 392.734 350.073V312.431Z" fill="white"/>
</mask>
<g mask="url(#mask0_2709_738)">
<rect x="76.5393" y="327.488" width="1.25474" height="30.1138" fill="#005349"/>
<rect x="79.0488" y="338.78" width="1.25474" height="30.1138" fill="#005349"/>
<rect x="97.8699" y="323.724" width="3.76423" height="15.0569" fill="#005349"/>
<rect x="124.219" y="343.799" width="3.76423" height="15.0569" fill="#005349"/>
<rect x="151.824" y="329.997" width="3.76423" height="15.0569" fill="#005349"/>
<rect x="179.428" y="341.29" width="3.76423" height="15.0569" fill="#005349"/>
<rect x="184.447" y="348.818" width="1.25474" height="15.0569" fill="#005349"/>
<rect x="140.531" y="348.818" width="1.25474" height="18.8211" fill="#005349"/>
<rect x="170.645" y="350.073" width="1.25474" height="18.8211" fill="#005349"/>
<rect x="207.032" y="332.507" width="1.25474" height="18.8211" fill="#005349"/>
<rect x="220.835" y="351.328" width="1.25474" height="18.8211" fill="#005349"/>
<rect x="111.672" y="350.073" width="1.25474" height="15.0569" fill="#005349"/>
<rect width="1.25474" height="30.1138" transform="matrix(1 0 0 -1 242.165 371.404)" fill="#005349"/>
<rect width="1.25474" height="30.1138" transform="matrix(1 0 0 -1 244.675 360.111)" fill="#005349"/>
<rect width="3.76423" height="15.0569" transform="matrix(1 0 0 -1 263.496 375.168)" fill="#005349"/>
<rect width="3.76423" height="15.0569" transform="matrix(1 0 0 -1 289.845 355.092)" fill="#005349"/>
<rect width="3.76423" height="15.0569" transform="matrix(1 0 0 -1 317.45 368.894)" fill="#005349"/>
<rect width="3.76423" height="15.0569" transform="matrix(1 0 0 -1 345.054 357.602)" fill="#005349"/>
<rect width="1.25474" height="15.0569" transform="matrix(1 0 0 -1 350.073 350.073)" fill="#005349"/>
<rect width="1.25474" height="18.8211" transform="matrix(1 0 0 -1 306.157 350.073)" fill="#005349"/>
<rect width="1.25474" height="18.8211" transform="matrix(1 0 0 -1 336.271 348.818)" fill="#005349"/>
<rect width="1.25474" height="18.8211" transform="matrix(1 0 0 -1 372.658 366.385)" fill="#005349"/>
<rect width="1.25474" height="18.8211" transform="matrix(1 0 0 -1 386.461 347.564)" fill="#005349"/>
<rect width="1.25474" height="15.0569" transform="matrix(1 0 0 -1 277.298 348.818)" fill="#005349"/>
</g>
<path d="M260.429 163.329L238.993 174.285C238.081 174.751 237.315 174.313 237.27 173.298L236.21 149.454C236.165 148.439 235.4 148.001 234.487 148.467L213.052 159.423C212.14 159.889 211.374 159.45 211.329 158.436L210.331 135.978C210.286 134.964 210.979 133.779 211.891 133.313L233.327 122.357C234.239 121.891 234.933 120.706 234.888 119.691L233.766 94.4607C233.721 93.446 232.955 93.0073 232.043 93.4735L209.361 105.067C208.449 105.533 207.755 106.717 207.8 107.732L208.86 131.576C208.905 132.591 208.212 133.775 207.299 134.242L185.864 145.198C184.952 145.664 184.258 146.848 184.303 147.863L185.425 173.094C185.47 174.108 186.236 174.547 187.148 174.081L208.583 163.125C209.495 162.659 210.261 163.098 210.306 164.112L211.366 187.956C211.411 188.971 212.177 189.41 213.089 188.943L234.524 177.987C235.437 177.521 236.202 177.96 236.248 178.975L237.246 201.432C237.291 202.447 236.597 203.631 235.685 204.098L214.249 215.053C213.337 215.52 212.644 216.704 212.689 217.719L213.81 242.95C213.855 243.964 214.621 244.403 215.533 243.937L238.215 232.344C239.127 231.878 239.821 230.693 239.776 229.678L238.716 205.834C238.671 204.82 239.365 203.635 240.277 203.169L261.712 192.213C262.625 191.747 263.318 190.562 263.273 189.547L262.152 164.317C262.107 163.302 261.341 162.863 260.429 163.329Z" fill="url(#paint0_linear_2709_738)"/>
<defs>
<linearGradient id="paint0_linear_2709_738" x1="220.702" y1="99.27" x2="278.257" y2="211.878" gradientUnits="userSpaceOnUse">
<stop stop-color="#5DFFBB"/>
<stop offset="1" stop-color="#51CBFF"/>
</linearGradient>
</defs>
</svg>
